<?xml version="1.0" encoding="UTF-8"?>
<svg version="1.1" xmlns="http://www.w3.org/2000/svg" width="1024" height="1024">
<path d="M0 0 C3.14607933 0.82210897 6.2390759 1.42418 9.453125 1.90234375 C9.453125 2.56234375 9.453125 3.22234375 9.453125 3.90234375 C10.67 4.23234375 11.886875 4.56234375 13.140625 4.90234375 C25.7888205 9.13829602 37.34049475 18.32239913 46.453125 27.90234375 C47.09507812 28.50046875 47.73703125 29.09859375 48.3984375 29.71484375 C57.75257527 38.58008931 64.45265375 49.34514371 71.52734375 60.03515625 C77.36075125 68.72018892 83.76158183 76.86737413 90.453125 84.90234375 C90.97261719 85.546875 91.49210937 86.19140625 92.02734375 86.85546875 C94.06079059 89.3713249 95.72869349 91.08605608 98.453125 92.90234375 C98.453125 93.56234375 98.453125 94.22234375 98.453125 94.90234375 C99.03707031 95.16273438 99.62101562 95.423125 100.22265625 95.69140625 C102.60171504 96.98301435 104.19178601 98.40361214 106.140625 100.27734375 C110.42823261 104.16938954 114.96867742 107.5234762 119.703125 110.83984375 C120.44167725 111.35724121 121.18022949 111.87463867 121.94116211 112.40771484 C125.26653226 114.7231362 128.6052311 117.01374471 131.984375 119.25 C156.30902922 135.5156365 173.60411086 158.37139083 180.328125 187.08984375 C184.57118908 211.22703463 180.18630885 236.88406173 166.359375 257.3515625 C149.73745707 279.59359613 127.91673009 291.2056212 100.81640625 295.30078125 C98.35880624 295.59363536 95.92474526 295.7756924 93.453125 295.90234375 C92.08414063 295.98162109 92.08414063 295.98162109 90.6875 296.0625 C69.04014019 296.70081958 48.69766941 290.25793949 28.375 283.5859375 C-17.74116467 268.45557833 -56.28650785 269.95579191 -102.4375 283.99609375 C-139.87217006 295.34504228 -174.36119141 300.45008911 -210.38671875 281.7265625 C-214.8143022 279.17071396 -218.6740348 276.22192107 -222.546875 272.90234375 C-223.13597656 272.45632813 -223.72507812 272.0103125 -224.33203125 271.55078125 C-238.94110054 260.16968399 -246.29207622 241.86284308 -250.63671875 224.47265625 C-251.36430895 221.09046754 -251.36430895 221.09046754 -252.546875 218.90234375 C-254.01717537 199.47878473 -252.2811806 179.88566088 -244.546875 161.90234375 C-243.80824219 160.17951172 -243.80824219 160.17951172 -243.0546875 158.421875 C-236.76073311 144.85524125 -227.33455473 134.12002866 -216.546875 123.90234375 C-215.886875 123.24234375 -215.226875 122.58234375 -214.546875 121.90234375 C-213.22852021 120.9846097 -211.89259277 120.09196337 -210.546875 119.21484375 C-207.21247206 117.02031657 -203.92779436 114.77415396 -200.671875 112.46484375 C-197.29402275 110.08322442 -193.87062016 107.83191667 -190.359375 105.65234375 C-180.37637998 99.35102065 -170.74921614 92.40704514 -162.18359375 84.265625 C-160.546875 82.90234375 -160.546875 82.90234375 -158.546875 82.90234375 C-158.051875 81.41734375 -158.051875 81.41734375 -157.546875 79.90234375 C-156.845625 79.34546875 -156.144375 78.78859375 -155.421875 78.21484375 C-149.00629699 73.05448753 -144.11005915 66.19171274 -139.171875 59.65234375 C-138.61169678 58.91580566 -138.05151855 58.17926758 -137.47436523 57.42041016 C-134.16094078 53.05786906 -130.88030133 48.67178624 -127.609375 44.27734375 C-124.40238767 39.99743051 -121.19467489 35.81705582 -117.546875 31.90234375 C-116.886875 31.90234375 -116.226875 31.90234375 -115.546875 31.90234375 C-115.28261719 31.30679688 -115.01835937 30.71125 -114.74609375 30.09765625 C-106.12049569 14.30747347 -79.38978221 4.27576333 -63.14477539 -0.57836914 C-41.80539223 -6.64162784 -21.21839693 -5.78485101 0 0 Z " fill="#7E5935" transform="translate(534.546875,518.09765625)"/>
<path d="M0 0 C0.99 0.33 1.98 0.66 3 1 C3.85851562 1.25136719 4.71703125 1.50273437 5.6015625 1.76171875 C23.0618212 7.10807703 33.00928833 18.7281062 42 34 C42.48339844 34.80953125 42.96679688 35.6190625 43.46484375 36.453125 C58.89441959 64.65030513 61.06824175 102.77063227 52.59375 133.328125 C47.62897822 149.8071676 40.5885629 165.96533387 28 178 C27.154375 178.9075 26.30875 179.815 25.4375 180.75 C15.23323955 190.16931734 4.25546328 195.31338783 -9.79858398 195.02929688 C-23.28926322 194.43288354 -34.19954065 189.30205716 -43.5 179.5 C-59.99513272 159.65311656 -63.75242859 133.9169152 -64.5625 108.9375 C-64.62727539 107.06674805 -64.62727539 107.06674805 -64.69335938 105.15820312 C-64.79862296 102.10555909 -64.90075941 99.05284477 -65 96 C-64.34 96 -63.68 96 -63 96 C-63.03222656 94.87980469 -63.06445312 93.75960937 -63.09765625 92.60546875 C-63.05610309 65.55436458 -50.43512864 35.32223596 -33 15 C-31.88298227 13.9880846 -30.73998126 13.00337155 -29.5625 12.0625 C-28.2940625 11.0415625 -28.2940625 11.0415625 -27 10 C-27 9.34 -27 8.68 -27 8 C-26.45601562 7.8865625 -25.91203125 7.773125 -25.3515625 7.65625 C-22.54171324 6.87210602 -20.03123827 5.70546961 -17.375 4.5 C-12.45094458 2.39745854 -8.19693749 1.37881061 -2.86328125 1.140625 C-0.98518047 1.2024759 -0.98518047 1.2024759 0 0 Z " fill="#7D5935" transform="translate(595,296)"/>
<path d="M0 0 C23.18590429 17.84424354 32.04913962 49.09055134 35.6875 77.01171875 C39.31988162 107.89891113 37.64087654 142.06049037 18.5625 168 C11.24009785 176.66126123 2.48374651 183.93667712 -9 186 C-18.01904127 186.51764917 -26.56957013 186.64277834 -35 183 C-36.08087891 182.54173828 -36.08087891 182.54173828 -37.18359375 182.07421875 C-54.57240249 173.5502929 -65.9146472 155.39651854 -73 138 C-73.88005727 134.98886235 -74.45739244 132.09286312 -75 129 C-75.66 128.67 -76.32 128.34 -77 128 C-77.5625 125.8828125 -77.5625 125.8828125 -78 123.125 C-78.68828012 118.82878241 -78.68828012 118.82878241 -79.53515625 114.5625 C-86.52798097 82.24011019 -79.82075025 44.79323987 -62.05078125 16.9453125 C-60.12234308 14.20988547 -58.11796509 11.59090875 -56 9 C-55.11248047 7.90558594 -55.11248047 7.90558594 -54.20703125 6.7890625 C-40.43015903 -8.54468441 -16.98913869 -12.09456428 0 0 Z " fill="#7D5935" transform="translate(449,306)"/>
<path d="M0 0 C4.04644959 2.05871997 7.84448425 4.20838371 11.5625 6.8125 C12.42488281 7.38871094 12.42488281 7.38871094 13.3046875 7.9765625 C23.80314426 15.86250007 29.54126651 29.71013383 33.5625 41.8125 C33.9028125 42.82699219 34.243125 43.84148437 34.59375 44.88671875 C41.78629155 71.4258651 36.34934487 103.80967803 23.5625 127.875 C22.58043104 129.53159528 21.58058472 131.17779181 20.5625 132.8125 C19.78132812 134.15634766 19.78132812 134.15634766 18.984375 135.52734375 C11.75889549 147.56418228 2.62548547 156.71146931 -9.4375 163.8125 C-10.0975 163.8125 -10.7575 163.8125 -11.4375 163.8125 C-11.7675 164.4725 -12.0975 165.1325 -12.4375 165.8125 C-25.20606163 170.90530416 -38.22598722 170.02355539 -51.4375 167.8125 C-51.4375 167.1525 -51.4375 166.4925 -51.4375 165.8125 C-52.4275 165.60625 -53.4175 165.4 -54.4375 165.1875 C-59.11172183 163.86839445 -62.94448702 161.15127604 -66.4375 157.8125 C-66.4375 157.1525 -66.4375 156.4925 -66.4375 155.8125 C-67.00210938 155.62042969 -67.56671875 155.42835938 -68.1484375 155.23046875 C-71.41090362 153.20952131 -73.07292989 150.31162813 -75.0625 147.125 C-75.45695313 146.52494141 -75.85140625 145.92488281 -76.2578125 145.30664062 C-78.84734955 141.23424368 -80.31672839 137.50648432 -81.4375 132.8125 C-82.4275 133.1425 -83.4175 133.4725 -84.4375 133.8125 C-84.23125 133.049375 -84.025 132.28625 -83.8125 131.5 C-83.46725562 128.1050969 -83.67811297 126.14013505 -84.375 122.875 C-87.01039926 109.49944623 -85.75554455 94.76663366 -81.4375 81.8125 C-82.0975 81.4825 -82.7575 81.1525 -83.4375 80.8125 C-82.9940625 80.45929688 -82.550625 80.10609375 -82.09375 79.7421875 C-79.83612716 77.11184391 -79.01499909 74.17237936 -77.9375 70.9375 C-71.12863356 51.74765873 -60.34644369 34.44947754 -47.4375 18.8125 C-46.65375 17.78125 -45.87 16.75 -45.0625 15.6875 C-33.80074622 3.35319825 -16.96951078 -6.00720682 0 0 Z " fill="#7D5935" transform="translate(735.4375,424.1875)"/>
<path d="M0 0 C0.69810791 0.13954102 1.39621582 0.27908203 2.11547852 0.42285156 C18.91759028 4.12530655 31.60856895 16.57035441 40.75 30.5625 C58.39216135 58.40161108 69.12457046 91.41109973 62.17578125 124.34375 C60.90919961 129.34594583 59.5542666 134.36347976 57.25 139 C56.59 139.33 55.93 139.66 55.25 140 C54.5768065 141.66404108 53.91138781 143.33123147 53.25 145 C45.11750375 158.0470983 35.88410774 165.27806229 21.5 170.3125 C8.37617086 173.04439913 -4.08844332 170.85387658 -15.421875 163.79296875 C-27.61389035 155.71967982 -35.49975238 145.51569895 -42.75 133 C-43.29914063 132.10925781 -43.84828125 131.21851563 -44.4140625 130.30078125 C-45.75 128 -45.75 128 -46.75 125 C-47.10835937 124.00613281 -47.46671875 123.01226563 -47.8359375 121.98828125 C-57.10407402 95.56004953 -58.10443021 68.78966735 -49.75 42 C-49.45222656 41.01386719 -49.15445313 40.02773438 -48.84765625 39.01171875 C-44.22235618 24.97700997 -34.39585611 11.81602195 -21.75 4 C-14.42817682 0.40331493 -8.10223386 -1.67788982 0 0 Z " fill="#7D5935" transform="translate(294.75,412)"/>
<path d="M0 0 C337.92 0 675.84 0 1024 0 C1023.67 1.32 1023.34 2.64 1023 4 C1023 3.01 1023 2.02 1023 1 C685.74 1 348.48 1 1 1 C1 338.26 1 675.52 1 1023 C338.59 1023 676.18 1023 1024 1023 C1024 1023.33 1024 1023.66 1024 1024 C686.08 1024 348.16 1024 0 1024 C0 686.08 0 348.16 0 0 Z " fill="#BFB9B4" transform="translate(0,0)"/>
<path d="M0 0 C6.51452318 1.65223414 11.36768977 4.35744886 16.73828125 8.37890625 C18.77097064 9.83584252 20.73351289 10.95751966 23 12 C23 12.99 23 13.98 23 15 C23.66 15 24.32 15 25 15 C26.52837312 16.7968711 27.97344728 18.66504905 29.375 20.5625 C29.778396 21.1080957 30.18179199 21.65369141 30.59741211 22.21582031 C33.37173945 26.01398644 35.82341125 29.83609109 38 34 C38.66 34 39.32 34 40 34 C40.11472656 35.00417969 40.22945312 36.00835937 40.34765625 37.04296875 C40.91133967 40.98479008 42.10146819 44.55813168 43.4375 48.3125 C49.91732426 67.1445617 49.91732426 67.1445617 48 76 C45.79946989 78.13449198 44.5583814 78.96131257 41.4699707 79.17529297 C33.57919852 78.32424139 25.92241327 76.89371971 18.1875 75.125 C17.01251953 74.86847656 15.83753906 74.61195313 14.62695312 74.34765625 C-0.72585067 70.89739317 -0.72585067 70.89739317 -3.15689087 67.27722168 C-4.21574483 64.41727733 -4.26864175 62.06056561 -4.29052734 59.00976562 C-4.30328705 57.80171265 -4.31604675 56.59365967 -4.32919312 55.34899902 C-4.33141876 54.04789185 -4.33364441 52.74678467 -4.3359375 51.40625 C-4.34236702 50.05391296 -4.3490955 48.7015773 -4.35610962 47.34924316 C-4.36807 44.51811497 -4.37179158 41.6871087 -4.37060547 38.85595703 C-4.37040199 35.23082042 -4.39773838 31.60646521 -4.43214989 27.98151398 C-4.45439852 25.18992529 -4.45844371 22.39852557 -4.45738602 19.6068573 C-4.46088852 17.62151287 -4.48255879 15.6362274 -4.50448608 13.65100098 C-4.49833282 12.442948 -4.49217957 11.23489502 -4.48583984 9.99023438 C-4.48868988 8.92752319 -4.49153992 7.86481201 -4.49447632 6.76989746 C-3.88472992 3.35429408 -2.63236831 2.17258789 0 0 Z " fill="#7D5935" transform="translate(576,204)"/>
<path d="M0 0 C4.18191793 6.27287689 3.1743948 14.51584695 3.203125 21.8125 C3.20882507 22.94018799 3.21452515 24.06787598 3.22039795 25.22973633 C3.22981428 27.60659862 3.23636849 29.98347376 3.24023438 32.36035156 C3.24996743 35.98786104 3.28103454 39.61481009 3.3125 43.2421875 C3.31902829 45.55728832 3.32427944 47.87239317 3.328125 50.1875 C3.3404718 51.26684814 3.3528186 52.34619629 3.36553955 53.45825195 C3.34808112 59.38005682 3.06922706 63.85638072 0 69 C-1.78320312 70.26611328 -1.78320312 70.26611328 -3.78125 70.8203125 C-4.53172607 71.04315918 -5.28220215 71.26600586 -6.05541992 71.49560547 C-6.86213135 71.70330566 -7.66884277 71.91100586 -8.5 72.125 C-9.753573 72.48102295 -9.753573 72.48102295 -11.0324707 72.84423828 C-12.79096528 73.33830639 -14.55325608 73.8190358 -16.31884766 74.28710938 C-18.9555085 74.98817017 -21.57706441 75.73107085 -24.19921875 76.484375 C-25.86134972 76.95016864 -27.5240918 77.41378829 -29.1875 77.875 C-29.95191406 78.09043457 -30.71632813 78.30586914 -31.50390625 78.52783203 C-36.47657316 79.84406207 -40.85609555 80.19806654 -46 80 C-50.72914359 63.71496523 -43.67705629 44.81842062 -36.25 30.4375 C-30.20687067 19.82328566 -15.06427827 -3.38946261 0 0 Z " fill="#7D5935" transform="translate(442,206)"/>
<path d="M0 0 C16.04056707 8.5549691 23.33657635 27.46444758 28.4921875 43.890625 C31.44321127 53.8164164 33.21820921 64.16294201 33.8125 74.5 C33.86535156 75.30179687 33.91820312 76.10359375 33.97265625 76.9296875 C34.10415435 80.41724567 33.90067425 83.19139013 32.9375 86.5625 C29.86517853 89.36373428 27.22387694 89.01680211 23.1875 88.96875 C20.8125 88.5 20.8125 88.5 19.57885742 87.16674805 C17.07547712 84.80453971 14.31935433 83.74974798 11.17578125 82.36328125 C10.53634079 82.07897751 9.89690033 81.79467377 9.23808289 81.50175476 C7.20320652 80.59880373 5.16423706 79.70555265 3.125 78.8125 C1.74125506 78.20050566 0.35778807 77.58788243 -1.02539062 76.97460938 C-4.40957034 75.47577289 -7.79748699 73.9856038 -11.1875 72.5 C-11.1875 71.84 -11.1875 71.18 -11.1875 70.5 C-11.8475 70.5 -12.5075 70.5 -13.1875 70.5 C-13.62997332 59.56107634 -12.13923753 48.80375026 -10.89648438 37.9609375 C-9.33294969 24.27015917 -9.33294969 24.27015917 -9.1875 10.5 C-8.5275 10.5 -7.8675 10.5 -7.1875 10.5 C-7.22875 9.5925 -7.27 8.685 -7.3125 7.75 C-7.19131991 4.59931762 -6.9791033 3.04596259 -5.1875 0.5 C-2.1875 -0.5 -2.1875 -0.5 0 0 Z " fill="#7C5835" transform="translate(733.1875,327.5)"/>
<path d="M0 0 C1.90261093 3.26695525 2.38486555 6.01029681 2.71777344 9.7590332 C2.82418152 10.9173616 2.9305896 12.07569 3.04022217 13.26911926 C3.1455426 14.51706772 3.25086304 15.76501617 3.359375 17.05078125 C3.47226868 18.3380864 3.58516235 19.62539154 3.70147705 20.95170593 C3.93896423 23.67560471 4.17001986 26.39995999 4.39697266 29.12475586 C4.68747671 32.60268705 4.99713574 36.07860722 5.31212997 39.55439472 C5.61061992 42.88552858 5.89014956 46.21818782 6.171875 49.55078125 C6.34200104 51.41359489 6.34200104 51.41359489 6.51556396 53.31404114 C7.4385476 64.80500906 7.4385476 64.80500906 5 70 C3.0324707 71.61254883 3.0324707 71.61254883 0.61328125 72.64453125 C-0.28310059 73.03850098 -1.17948242 73.4324707 -2.10302734 73.83837891 C-3.05902832 74.22171387 -4.0150293 74.60504883 -5 75 C-5.95471191 75.39493652 -6.90942383 75.78987305 -7.89306641 76.19677734 C-10.8537297 77.39550412 -13.82861366 78.54791556 -16.8125 79.6875 C-18.81902717 80.46219619 -20.82553816 81.23693429 -22.83203125 82.01171875 C-23.70577393 82.34647217 -24.5795166 82.68122559 -25.47973633 83.02612305 C-27.21426696 83.69637808 -28.9390901 84.39212949 -30.6550293 85.10864258 C-33.30245017 86.1149657 -35.19078916 86.30369847 -38 86 C-41.14050633 82.85949367 -40.9490771 79.24357487 -41 75 C-39.39160946 51.76769214 -33.03259931 23.44910605 -15.0546875 7.2421875 C-6.1647441 -0.16223011 -6.1647441 -0.16223011 0 0 Z " fill="#7C5835" transform="translate(290,317)"/>
<path d="M0 0 C1.98 0 3.96 0 6 0 C7.9065847 7.20741793 8.26566022 13.81890702 8.1953125 21.25390625 C8.1924826 22.39536606 8.18965271 23.53682587 8.18673706 24.71287537 C8.17561476 28.32952723 8.15052481 31.94592401 8.125 35.5625 C8.11495993 38.02668911 8.10583588 40.49088214 8.09765625 42.95507812 C8.0757015 48.97013792 8.04230374 54.98505073 8 61 C7.01 61.495 7.01 61.495 6 62 C5.97494385 60.92854736 5.9498877 59.85709473 5.92407227 58.75317383 C5.27736247 30.36509086 5.27736247 30.36509086 4 2 C2.68 1.34 1.36 0.68 0 0 Z " fill="#715130" transform="translate(437,207)"/>
<path d="M0 0 C6.50862087 0.16688771 10.31761713 3.92657378 15 8 C15.59941406 8.50402344 16.19882812 9.00804687 16.81640625 9.52734375 C27.28272277 19.07087598 38.432081 37.20953891 39.1875 51.5625 C39.0946875 52.7690625 39.0946875 52.7690625 39 54 C37.07078642 51.10617962 35.97119081 48.35049247 34.79394531 45.09790039 C28.22314611 27.08439527 19.22379228 11.3988058 1.80078125 2.0234375 C1.20652344 1.68570312 0.61226562 1.34796875 0 1 C0 0.67 0 0.34 0 0 Z " fill="#614121" transform="translate(606,301)"/>
<path d="M0 0 C0.66 0 1.32 0 2 0 C3.10334938 1.45522837 4.1323309 2.96713422 5.125 4.5 C12.62242841 15.44469961 21.81090985 23.27798804 34.90625 26.4765625 C40.89814477 27.49034268 46.93250252 27.76254058 53 28 C53 28.66 53 29.32 53 30 C35.31397835 30.59245978 35.31397835 30.59245978 27 27 C26.27941406 26.69449219 25.55882812 26.38898438 24.81640625 26.07421875 C15.45102681 21.48334648 4.97612173 12.25384041 0 3 C0 2.01 0 1.02 0 0 Z " fill="#654423" transform="translate(387,462)"/>
<path d="M0 0 C8.37972223 0 13.3561324 5.52267114 19.13671875 11.0390625 C27.34799478 19.65364286 37.66966813 35.16362248 38.125 47.34375 C38.08375 48.2203125 38.0425 49.096875 38 50 C35.3140647 47.3140647 34.58119851 44.20228837 33.375 40.6875 C27.16948882 23.50687267 16.68669697 9.09961021 0 1 C0 0.67 0 0.34 0 0 Z " fill="#644222" transform="translate(438,302)"/>
<path d="M0 0 C2.13671875 0.40234375 2.13671875 0.40234375 4 1 C2.99582031 1.72703125 1.99164063 2.4540625 0.95703125 3.203125 C-12.5938561 13.11767712 -24.45149875 23.08435477 -34 37 C-34.80859375 35.390625 -34.80859375 35.390625 -35 33 C-33.43158925 30.71537857 -31.90644056 28.79009815 -30.0625 26.75 C-29.56049072 26.17660889 -29.05848145 25.60321777 -28.54125977 25.01245117 C-24.5442377 20.48978984 -20.36533102 16.16839879 -16 12 C-15.34 11.34 -14.68 10.68 -14 10 C-12.57641735 9.02111213 -11.13687973 8.06526987 -9.6875 7.125 C-7.00015161 5.37219424 -4.62027685 3.6709066 -2.1875 1.5625 C-1.465625 1.046875 -0.74375 0.53125 0 0 Z " fill="#74522F" transform="translate(334,630)"/>
<path d="M0 0 C0.66 0 1.32 0 2 0 C1.56080576 3.65995199 1.11230318 7.30592954 0.5234375 10.9453125 C-0.95510645 20.28000042 -1.41903653 29.44144376 -1.625 38.875 C-1.66331912 40.35288405 -1.70237804 41.8307491 -1.7421875 43.30859375 C-1.83661282 46.87221871 -1.92117011 50.4359918 -2 54 C-2.66 54 -3.32 54 -4 54 C-5.37132523 35.54270361 -4.91132055 17.94269106 0 0 Z " fill="#6D4B29" transform="translate(372,358)"/>
<path d="M0 0 C0.33 0 0.66 0 1 0 C1.01981934 0.91700684 1.03963867 1.83401367 1.06005859 2.77880859 C1.1388114 6.22696341 1.22552123 9.67473737 1.31738281 13.12255859 C1.35533434 14.60620601 1.39024178 16.0899349 1.421875 17.57373047 C1.58583281 25.17215016 1.75855257 32.58333683 3.58447266 40.00634766 C4 42 4 42 4 46 C3.34 46 2.68 46 2 46 C1.79503906 45.15695312 1.59007812 44.31390625 1.37890625 43.4453125 C1.10949219 42.34960938 0.84007812 41.25390625 0.5625 40.125 C0.29566406 39.03445313 0.02882813 37.94390625 -0.24609375 36.8203125 C-0.8786478 34.07515279 -0.8786478 34.07515279 -2 32 C-2.24405688 28.13036534 -2.18521165 24.25146034 -2.1875 20.375 C-2.19974609 19.30636719 -2.21199219 18.23773437 -2.22460938 17.13671875 C-2.23582278 11.05905573 -1.78184473 5.81740612 0 0 Z " fill="#6A4A28" transform="translate(284,705)"/>
<path d="M0 0 C7.5662416 2.31591591 14.5821351 5.45977329 21.71484375 8.859375 C26.55558241 11.10500184 30.6674875 12.58091365 36 13 C36.33 10.03 36.66 7.06 37 4 C37.66 4 38.32 4 39 4 C39.05395478 5.62463842 39.09277195 7.24978541 39.125 8.875 C39.14820313 9.77992188 39.17140625 10.68484375 39.1953125 11.6171875 C39 14 39 14 37 16 C34.72265625 16.30078125 34.72265625 16.30078125 32.0625 16.3125 C30.74958984 16.33763672 30.74958984 16.33763672 29.41015625 16.36328125 C27 16 27 16 25.6640625 14.62573242 C23.60419161 12.61330867 21.60745223 11.76146227 18.96484375 10.625 C17.50401367 9.98304688 17.50401367 9.98304688 16.01367188 9.328125 C13.95959762 8.44128659 11.90490718 7.55587406 9.84960938 6.671875 C8.87701172 6.24390625 7.90441406 5.8159375 6.90234375 5.375 C6.01023193 4.99085938 5.11812012 4.60671875 4.19897461 4.2109375 C2 3 2 3 0 0 Z " fill="#644323" transform="translate(727,400)"/>
<path d="M0 0 C10.23473358 1.88948928 18.50315329 14.72386228 24.28710938 22.79638672 C26.75755083 26.40287776 29.18473943 30.01651152 31 34 C30.57910156 36.17358398 30.57910156 36.17358398 30 38 C29.12601563 36.51113281 29.12601563 36.51113281 28.234375 34.9921875 C23.8096229 27.60571355 19.19736043 20.65167147 13.5625 14.125 C13.05493164 13.53702637 12.54736328 12.94905273 12.02441406 12.34326172 C9.8038955 9.83346596 7.80333234 7.86888822 5 6 C5 5.34 5 4.68 5 4 C4.360625 3.71125 3.72125 3.4225 3.0625 3.125 C1 2 1 2 0 0 Z " fill="#634323" transform="translate(675,646)"/>
<path d="M0 0 C9.32608385 1.72553093 15.59033067 11.90054885 20.76416016 19.19140625 C24.19722493 24.21553581 27.57506884 29.41464806 30 35 C29.58129883 37.18725586 29.58129883 37.18725586 29 39 C28.35933594 37.87722656 27.71867187 36.75445312 27.05859375 35.59765625 C22.49217971 27.66688905 17.9940843 19.95767232 12 13 C11.40316406 12.29488281 10.80632812 11.58976562 10.19140625 10.86328125 C6.94044656 7.08098191 3.58005713 3.47157055 0 0 Z " fill="#634220" transform="translate(314,422)"/>
<path d="M0 0 C4.15613408 0.10136912 6.48737391 1.07838726 9.4375 3.875 C16.93032611 11.96328249 26.69567698 25.93544008 27.125 37.3125 C27.08375 38.199375 27.0425 39.08625 27 40 C24.52906164 37.52906164 23.97016162 35.42018699 22.8125 32.125 C18.05576347 19.52382078 11.10265006 7.98002973 0 0 Z " fill="#654423" transform="translate(732,329)"/>
<path d="M0 0 C3.94267041 2.07847069 6.09910234 4.08840795 8.55859375 7.7890625 C9.19216797 8.73136719 9.82574219 9.67367187 10.47851562 10.64453125 C11.12498047 11.62808594 11.77144531 12.61164062 12.4375 13.625 C13.08009766 14.58535156 13.72269531 15.54570313 14.38476562 16.53515625 C15.65558373 18.43686781 16.9192481 20.34338163 18.17529297 22.25488281 C19.37346441 24.05743026 20.59592644 25.84411079 21.84423828 27.61230469 C22.40224121 28.40797852 22.96024414 29.20365234 23.53515625 30.0234375 C24.03539307 30.72130371 24.53562988 31.41916992 25.05102539 32.13818359 C25.36418701 32.75258301 25.67734863 33.36698242 26 34 C25.67 34.99 25.34 35.98 25 37 C18.93671497 28.90766289 13.05046194 20.7250685 7.4375 12.3125 C6.92541992 11.54695801 6.41333984 10.78141602 5.88574219 9.99267578 C3.72174134 6.7263006 1.70108456 3.53588524 0 0 Z " fill="#694725" transform="translate(588,556)"/>
<path d="M0 0 C0.33 0 0.66 0 1 0 C1.33 5.94 1.66 11.88 2 18 C9.62624064 16.275017 16.4871177 14.13974152 23.6015625 10.890625 C24.39304687 10.59671875 25.18453125 10.3028125 26 10 C26.66 10.33 27.32 10.66 28 11 C23.5083571 14.23342056 19.12372994 16.35177205 13.9375 18.25 C13.24333984 18.518125 12.54917969 18.78625 11.83398438 19.0625 C8.14904241 20.43429226 4.94349332 21.54991833 1 21 C-1.91604626 18.08395374 -1.96832634 14.959208 -2 11 C-1.51725562 7.28920734 -0.81225414 3.65178719 0 0 Z " fill="#644322" transform="translate(251,382)"/>
<path d="M0 0 C0.66 0.33 1.32 0.66 2 1 C2.76635511 5.03478354 2.94113674 9.15756181 3.25 13.25 C3.353125 14.39597656 3.45625 15.54195313 3.5625 16.72265625 C3.65015625 17.82996094 3.7378125 18.93726563 3.828125 20.078125 C3.9096582 21.09293945 3.99119141 22.10775391 4.07519531 23.15332031 C3.99316046 26.25892556 3.41921341 28.24888159 2 31 C-0.2421875 32.6171875 -0.2421875 32.6171875 -2.875 33.875 C-3.73867188 34.30554688 -4.60234375 34.73609375 -5.4921875 35.1796875 C-8.19794205 36.0647474 -9.37725503 35.98810392 -12 35 C-11.07767578 34.60167969 -11.07767578 34.60167969 -10.13671875 34.1953125 C-9.32847656 33.84210938 -8.52023437 33.48890625 -7.6875 33.125 C-6.88699219 32.77695312 -6.08648437 32.42890625 -5.26171875 32.0703125 C-2.8038166 30.97428106 -2.8038166 30.97428106 0 29 C0.4181217 25.99147392 0.4181217 25.99147392 0.29296875 22.4609375 C0.28330078 21.15898437 0.27363281 19.85703125 0.26367188 18.515625 C0.23860388 17.13541077 0.21320902 15.75520244 0.1875 14.375 C0.17245517 12.98699337 0.15876641 11.59897133 0.14648438 10.2109375 C0.1110257 6.80690491 0.06160298 3.40364378 0 0 Z " fill="#684727" transform="translate(293,356)"/>
<path d="M0 0 C0.99 0.33 1.98 0.66 3 1 C-3.51033143 6.53634484 -10.08586542 11.53897488 -17.25 16.203125 C-20.57387694 18.37497641 -23.78943322 20.66504234 -27 23 C-27.66 22.67 -28.32 22.34 -29 22 C-25.17863626 17.6515516 -20.83441099 14.93512031 -15.92578125 11.90625 C-12.10160482 9.41466376 -8.60921754 6.60404501 -5.09375 3.69921875 C-3 2 -3 2 0 0 Z " fill="#694624" transform="translate(369,606)"/>
<path d="M0 0 C4.54477531 0.51963856 7.0123202 2.24650704 10.5625 5.0625 C16.52786984 9.68658793 22.67076928 13.88151122 29 18 C28.67 18.99 28.34 19.98 28 21 C26.72769531 20.09121094 26.72769531 20.09121094 25.4296875 19.1640625 C24.86910645 18.76372803 24.30852539 18.36339355 23.73095703 17.95092773 C22.48423031 17.06024465 21.23781551 16.16912481 19.99169922 15.27758789 C16.65265615 12.88962299 13.30853303 10.50945804 9.953125 8.14453125 C9.31133301 7.69062012 8.66954102 7.23670898 8.00830078 6.76904297 C6.76375124 5.88911385 5.51735946 5.01178394 4.26904297 4.13720703 C2.82813368 3.11626958 1.41120379 2.06161987 0 1 C0 0.67 0 0.34 0 0 Z " fill="#6A4724" transform="translate(643,623)"/>
<path d="M0 0 C0.33 0 0.66 0 1 0 C3.38222795 9.65653116 3.19538118 19.13325025 3 29 C2.34 29.33 1.68 29.66 1 30 C-0.09911549 26.70265354 -0.1139456 24.27041255 -0.09765625 20.80078125 C-0.09443359 19.59228516 -0.09121094 18.38378906 -0.08789062 17.13867188 C-0.07951172 15.87603516 -0.07113281 14.61339844 -0.0625 13.3125 C-0.05573242 11.40114258 -0.05573242 11.40114258 -0.04882812 9.45117188 C-0.03702873 6.30073436 -0.02056597 3.15039051 0 0 Z " fill="#704E2B" transform="translate(483,387)"/>
<path d="M0 0 C-1.49988961 0.0276619 -2.99993869 0.0466861 -4.5 0.0625 C-5.3353125 0.07410156 -6.170625 0.08570313 -7.03125 0.09765625 C-10 0 -10 0 -13.40625 -0.46875 C-19.89945946 -1.33415292 -26.45994676 -1.36713112 -33 -1.5625 C-34.36068789 -1.60578135 -35.72136515 -1.64939839 -37.08203125 -1.69335938 C-40.38793157 -1.79886683 -43.69389999 -1.90098256 -47 -2 C-47 -2.33 -47 -2.66 -47 -3 C-7.64799453 -5.09866302 -7.64799453 -5.09866302 0 0 Z " fill="#84603C" transform="translate(533,791)"/>
<path d="M0 0 C0 3.99833488 -1.35814212 4.81158018 -4.0625 7.6875 C-4.88105469 8.56921875 -5.69960938 9.4509375 -6.54296875 10.359375 C-7.35378906 11.23078125 -8.16460937 12.1021875 -9 13 C-10.84318347 15.0924521 -12.6687953 17.19892016 -14.4921875 19.30859375 C-15.94138986 20.9342534 -17.444151 22.47675861 -19 24 C-19.66 23.67 -20.32 23.34 -21 23 C-18.85641439 18.93846937 -16.56127084 16.83282908 -13 14 C-9.71526586 10.50120454 -6.6551882 6.8322661 -3.6875 3.0625 C-2 1 -2 1 0 0 Z " fill="#694724" transform="translate(395,580)"/>
<path d="M0 0 C2.84347006 4.26520509 3.12070905 6.20259062 3.09765625 11.3203125 C3.09443359 12.57714844 3.09121094 13.83398438 3.08789062 15.12890625 C3.07951172 16.44761719 3.07113281 17.76632812 3.0625 19.125 C3.05748489 20.46484211 3.05292201 21.804686 3.04882812 23.14453125 C3.03701086 26.42973206 3.02053617 29.71484397 3 33 C2.34 33 1.68 33 1 33 C0.67 22.11 0.34 11.22 0 0 Z " fill="#654625" transform="translate(769,475)"/>
<path d="M0 0 C2.76315897 2.68188958 5.26372871 5.33417679 7.625 8.375 C11.57152242 13.08403588 16.77745557 15.89270904 22 19 C22.99 19.66 23.98 20.32 25 21 C15.8591111 20.611026 9.63635668 14.98129538 3.41015625 8.7109375 C1.01242364 5.80177716 0 3.79897037 0 0 Z " fill="#694827" transform="translate(547,466)"/>
<path d="M0 0 C0.66 0.33 1.32 0.66 2 1 C1.31292969 2.07378906 0.62585938 3.14757812 -0.08203125 4.25390625 C-0.99245461 5.68993485 -1.90259589 7.12614233 -2.8125 8.5625 C-3.26431641 9.26697266 -3.71613281 9.97144531 -4.18164062 10.69726562 C-6.90793328 15.01555398 -9.12108781 19.24966055 -11 24 C-11.66 24 -12.32 24 -13 24 C-11.95569039 14.76610451 -6.17468042 6.736015 0 0 Z " fill="#664524" transform="translate(416,222)"/>
<path d="M0 0 C0 3.50051525 -0.52511319 4.0126916 -2.75 6.5625 C-3.26046875 7.16191406 -3.7709375 7.76132812 -4.296875 8.37890625 C-6.11175007 10.10636761 -7.74831304 10.92959578 -10 12 C-11.43758346 13.01260441 -12.8545128 14.05512648 -14.25 15.125 C-14.95640625 15.66382813 -15.6628125 16.20265625 -16.390625 16.7578125 C-16.92171875 17.16773438 -17.4528125 17.57765625 -18 18 C-18.66 17.67 -19.32 17.34 -20 17 C-19.278125 16.45730469 -18.55625 15.91460938 -17.8125 15.35546875 C-16.884375 14.64003906 -15.95625 13.92460938 -15 13.1875 C-14.071875 12.47980469 -13.14375 11.77210938 -12.1875 11.04296875 C-11.1046875 10.03169922 -11.1046875 10.03169922 -10 9 C-10 8.01 -10 7.02 -10 6 C-8.5 4.3125 -8.5 4.3125 -7 3 C-6.34 3.33 -5.68 3.66 -5 4 C-3.35 2.68 -1.7 1.36 0 0 Z " fill="#84603A" transform="translate(381,598)"/>
<path d="M0 0 C-3.75471067 3.16492205 -6.09432112 3.28301994 -11 3 C-10.34 2.34 -9.68 1.68 -9 1 C-12.58331625 0.97092916 -16.16660208 0.95317737 -19.75 0.9375 C-20.76578125 0.92912109 -21.7815625 0.92074219 -22.828125 0.91210938 C-23.8078125 0.90888672 -24.7875 0.90566406 -25.796875 0.90234375 C-26.69760742 0.89710693 -27.59833984 0.89187012 -28.52636719 0.88647461 C-30.84065639 0.99268705 -32.76698609 1.4358422 -35 2 C-37.75 1.5625 -37.75 1.5625 -40 1 C-40 0.67 -40 0.34 -40 0 C-26.32628195 -2.45371934 -13.66329566 -1.91349395 0 0 Z " fill="#906A43" transform="translate(522,515)"/>
<path d="M0 0 C2.96112268 2.74529741 4.78414248 5.80106478 6.81640625 9.2578125 C7.89545329 11.15127981 7.89545329 11.15127981 10 12 C10.309375 12.78375 10.61875 13.5675 10.9375 14.375 C11.98373709 16.95982105 12.92113535 18.2046169 15 20 C14.67 20.66 14.34 21.32 14 22 C7.4522177 17.58024694 3.5060926 10.96769164 0 4 C0 2.68 0 1.36 0 0 Z " fill="#704E2C" transform="translate(292,762)"/>
<path d="M0 0 C0.99 0.33 1.98 0.66 3 1 C2.34773438 1.66644531 1.69546875 2.33289063 1.0234375 3.01953125 C-4.86423907 9.2285117 -9.28883617 15.20052155 -13 23 C-13.98692702 20.41744246 -14.13878782 19.33622657 -13.06640625 16.73828125 C-9.25484659 10.59028502 -4.98618875 5.23929478 0 0 Z " fill="#634321" transform="translate(397,311)"/>
<path d="M0 0 C3.19975662 1.44785367 5.67541846 3.26455704 8.375 5.5 C11.79567472 8.21957775 14.67360515 10.00160119 19 11 C19 11.99 19 12.98 19 14 C14.85673698 13.44410603 12.31241628 12.12349057 8.9375 9.6875 C8.10089844 9.09324219 7.26429688 8.49898437 6.40234375 7.88671875 C4.06602316 6.05185233 1.97862882 4.21624706 0 2 C0 1.34 0 0.68 0 0 Z " fill="#6C4B29" transform="translate(309,786)"/>
<path d="M0 0 C0.62003906 0.13277344 1.24007813 0.26554687 1.87890625 0.40234375 C9.91561245 2.00500568 17.82982404 2.58101662 26 3 C26 3.66 26 4.32 26 5 C16.84755529 5.30659554 8.65203245 5.49409003 0 2 C0 1.34 0 0.68 0 0 Z " fill="#6F4D2A" transform="translate(414,487)"/>
<path d="M0 0 C0.33 0 0.66 0 1 0 C0.98428955 0.58491211 0.9685791 1.16982422 0.95239258 1.77246094 C0.88989733 4.43154164 0.85096431 7.09046764 0.8125 9.75 C0.78736328 10.67039062 0.76222656 11.59078125 0.73632812 12.5390625 C0.72666016 13.42851562 0.71699219 14.31796875 0.70703125 15.234375 C0.6913208 16.05131836 0.67561035 16.86826172 0.65942383 17.70996094 C1.07620541 20.51240627 2.16195148 21.88847021 4 24 C2.68 24 1.36 24 0 24 C0 23.34 0 22.68 0 22 C-0.66 22 -1.32 22 -2 22 C-2.12010487 14.98053779 -2.15769615 7.94617691 -1 1 C-0.67 0.67 -0.34 0.34 0 0 Z " fill="#664424" transform="translate(722,376)"/>
<path d="M0 0 C0.33 0 0.66 0 1 0 C1.0501123 0.56396484 1.10022461 1.12792969 1.15185547 1.70898438 C1.38640878 4.30662237 1.63064446 6.90326647 1.875 9.5 C1.95363281 10.386875 2.03226563 11.27375 2.11328125 12.1875 C2.51167302 16.35529087 3.00416355 20.35225152 4.0703125 24.40625 C5 28 5 28 5 32 C4.34 32 3.68 32 3 32 C3 31.34 3 30.68 3 30 C2.01 30.33 1.02 30.66 0 31 C0.185625 30.2575 0.37125 29.515 0.5625 28.75 C1.06291687 24.46071255 0.67699052 20.60735825 0.2578125 16.32421875 C-0.16403539 10.88493763 -0.07913723 5.45167618 0 0 Z " fill="#5C3B1B" transform="translate(651,527)"/>
<path d="M0 0 C-1.01686192 3.05058577 -2.06972942 4.17315041 -4.33203125 6.3359375 C-7.36296408 9.35977213 -10.16251453 12.59898687 -13.01171875 15.79296875 C-14.30508896 17.2286351 -15.6336281 18.6336281 -17 20 C-16.54875343 15.20439922 -14.24703627 12.38536923 -11.1875 8.875 C-10.52911133 8.08802734 -10.52911133 8.08802734 -9.85742188 7.28515625 C-3.65120649 0 -3.65120649 0 0 0 Z " fill="#654322" transform="translate(699,434)"/>
<path d="M0 0 C0.66 0 1.32 0 2 0 C2 6.27 2 12.54 2 19 C4.475 19.99 4.475 19.99 7 21 C7 21.33 7 21.66 7 22 C4.69 22.33 2.38 22.66 0 23 C-2.18768843 15.72506783 -1.34350823 7.38929527 0 0 Z " fill="#684626" transform="translate(396,263)"/>
<path d="M0 0 C0.60666504 0.19400391 1.21333008 0.38800781 1.83837891 0.58789062 C1.36940186 0.9356958 0.9004248 1.28350098 0.41723633 1.6418457 C-1.71511995 3.22548232 -3.84463882 4.8128918 -5.97412109 6.40039062 C-7.08110352 7.22120117 -7.08110352 7.22120117 -8.21044922 8.05859375 C-8.92265625 8.59033203 -9.63486328 9.12207031 -10.36865234 9.66992188 C-11.35055542 10.40045776 -11.35055542 10.40045776 -12.35229492 11.14575195 C-14.08682742 12.5282757 -15.62806696 13.9879309 -17.16162109 15.58789062 C-17.82162109 15.25789062 -18.48162109 14.92789063 -19.16162109 14.58789062 C-6.90242216 -1.31593501 -6.90242216 -1.31593501 0 0 Z " fill="#654422" transform="translate(336.16162109375,630.412109375)"/>
<path d="M0 0 C0 0.66 0 1.32 0 2 C-1.09699219 2.39832031 -2.19398438 2.79664063 -3.32421875 3.20703125 C-4.77874382 3.74192112 -6.23316548 4.27709225 -7.6875 4.8125 C-8.7693457 5.20405273 -8.7693457 5.20405273 -9.87304688 5.60351562 C-13.09948507 6.79685578 -15.9426246 7.96507921 -18.89453125 9.76171875 C-19.58933594 10.17035156 -20.28414063 10.57898438 -21 11 C-21.66 10.67 -22.32 10.34 -23 10 C-20.24096746 6.62900159 -16.48859211 5.09885195 -12.625 3.3125 C-11.965 2.99216797 -11.305 2.67183594 -10.625 2.34179688 C-6.95011528 0.62514256 -4.07112463 -0.41654364 0 0 Z " fill="#6D4A27" transform="translate(466,521)"/>
<path d="M0 0 C0.99 0.33 1.98 0.66 3 1 C1.700625 1.99 1.700625 1.99 0.375 3 C-5.21961757 7.65778302 -9.06459035 13.94552361 -13 20 C-13.6875 18.3046875 -13.6875 18.3046875 -14 16 C-10.76165986 9.54462459 -5.84750949 4.16072791 0 0 Z " fill="#684827" transform="translate(279,321)"/>
<path d="M0 0 C0 0.66 0 1.32 0 2 C-2.85120792 2.84480235 -5.70527344 3.67601416 -8.5625 4.5 C-9.76229492 4.85771484 -9.76229492 4.85771484 -10.98632812 5.22265625 C-15.83294329 6.60740344 -19.960647 7.27056929 -25 7 C-22.38825913 5.25883942 -20.83576328 4.52755512 -17.91015625 3.7109375 C-17.12576172 3.49179687 -16.34136719 3.27265625 -15.53320312 3.046875 C-14.71787109 2.82515625 -13.90253906 2.6034375 -13.0625 2.375 C-11.84530273 2.03082031 -11.84530273 2.03082031 -10.60351562 1.6796875 C-6.84358742 0.6433168 -3.95465976 0 0 0 Z " fill="#6F4B29" transform="translate(429,277)"/>
<path d="M0 0 C0.73046875 1.62890625 0.73046875 1.62890625 1 4 C-0.51171875 6.83984375 -0.51171875 6.83984375 -2.6875 9.9375 C-3.74517578 11.46697266 -3.74517578 11.46697266 -4.82421875 13.02734375 C-6.81496036 15.74719001 -8.86959809 18.38869472 -11 21 C-11.99 20.67 -12.98 20.34 -14 20 C-13.49210938 19.39414062 -12.98421875 18.78828125 -12.4609375 18.1640625 C-7.71675735 12.38931138 -3.65937194 6.51479096 0 0 Z " fill="#664525" transform="translate(756,552)"/>
<path d="M0 0 C0.87205078 0.32291016 0.87205078 0.32291016 1.76171875 0.65234375 C0.93027344 1.26722656 0.09882813 1.88210938 -0.7578125 2.515625 C-1.85556468 3.33190226 -2.95321562 4.14831568 -4.05078125 4.96484375 C-4.59798828 5.36896484 -5.14519531 5.77308594 -5.70898438 6.18945312 C-7.92977496 7.84495156 -10.05603546 9.46686522 -12 11.4453125 C-13.23828125 12.65234375 -13.23828125 12.65234375 -15.23828125 12.65234375 C-15.23828125 13.31234375 -15.23828125 13.97234375 -15.23828125 14.65234375 C-15.89828125 14.32234375 -16.55828125 13.99234375 -17.23828125 13.65234375 C-5.46115552 -0.84824231 -5.46115552 -0.84824231 0 0 Z " fill="#6A4725" transform="translate(438.23828125,534.34765625)"/>
<path d="M0 0 C0.66 0 1.32 0 2 0 C1.70867187 0.58120605 1.41734375 1.16241211 1.1171875 1.76123047 C0.11132126 3.77691959 -0.88376782 5.79740013 -1.875 7.8203125 C-2.58322535 9.25526163 -3.29156179 10.69015594 -4 12.125 C-4.35578125 12.85332031 -4.7115625 13.58164062 -5.078125 14.33203125 C-5.42359375 15.02941406 -5.7690625 15.72679687 -6.125 16.4453125 C-6.59292969 17.39688232 -6.59292969 17.39688232 -7.0703125 18.36767578 C-8 20 -8 20 -10 22 C-10.51158453 16.62011104 -8.86153598 13.21935981 -6.125 8.75 C-5.76019531 8.12609375 -5.39539063 7.5021875 -5.01953125 6.859375 C-3.51254507 4.31667832 -2.09732036 2.09732036 0 0 Z " fill="#644525" transform="translate(257,431)"/>
<path d="M0 0 C-3.44883561 2.29922374 -6.78716696 3.14875463 -10.75 4.125 C-11.78640625 4.39763672 -11.78640625 4.39763672 -12.84375 4.67578125 C-17.35129906 5.80266852 -21.35589538 6.18236013 -26 6 C-22.39698445 3.59798963 -18.84153931 2.82792321 -14.6875 1.875 C-13.56698242 1.60236328 -13.56698242 1.60236328 -12.42382812 1.32421875 C-8.19692496 0.33707543 -4.37261743 -0.20855091 0 0 Z " fill="#694624" transform="translate(475,789)"/>
<path d="M0 0 C1.12800972 3.41565561 0.866975 5.90740911 0.22265625 9.421875 C0.03896484 10.44667969 -0.14472656 11.47148437 -0.33398438 12.52734375 C-0.53314453 13.59082031 -0.73230469 14.65429688 -0.9375 15.75 C-1.13279297 16.82894531 -1.32808594 17.90789062 -1.52929688 19.01953125 C-2.01215277 21.68112718 -2.50264169 24.34108255 -3 27 C-3.33 27 -3.66 27 -4 27 C-4.2144997 18.72984476 -4.07422976 11.03764031 -2 3 C-1.34 3 -0.68 3 0 3 C0 2.01 0 1.02 0 0 Z " fill="#614120" transform="translate(537,364)"/>
<path d="M0 0 C0.66 0 1.32 0 2 0 C2.26305952 8.2425317 1.60614551 15.91191011 0 24 C-0.33 24 -0.66 24 -1 24 C-1.10466648 15.92905177 -1.03387512 8.0125322 0 0 Z " fill="#603E1F" transform="translate(724,349)"/>
<path d="M0 0 C7.59 0.33 15.18 0.66 23 1 C18.50997558 3.99334961 15.3431402 4.52728357 10 4 C6.60468003 3.1704616 3.30387805 2.13740064 0 1 C0 0.67 0 0.34 0 0 Z " fill="#644321" transform="translate(573,487)"/>
<path d="M0 0 C0 3.1493863 -0.33907734 3.94380717 -1.8984375 6.5390625 C-2.29546875 7.20164062 -2.6925 7.86421875 -3.1015625 8.546875 C-3.52179687 9.23265625 -3.94203125 9.9184375 -4.375 10.625 C-4.7875 11.31851562 -5.2 12.01203125 -5.625 12.7265625 C-8.73883929 17.86941964 -8.73883929 17.86941964 -11 19 C-10.442212 14.43471973 -8.48306492 11.06292528 -6.0625 7.25 C-5.70220703 6.66089844 -5.34191406 6.07179688 -4.97070312 5.46484375 C-2.2675047 1.13375235 -2.2675047 1.13375235 0 0 Z " fill="#664523" transform="translate(680,455)"/>
<path d="M0 0 C3.74970958 1.24990319 4.76543361 2.79712151 7 6 C7.625 8 7.625 8 8 10 C8.350625 10.804375 8.70125 11.60875 9.0625 12.4375 C10.05211562 15.14244935 10.16311934 17.14541159 10 20 C7.20356382 16.57544124 5.25995711 12.81870229 3.3125 8.875 C2.83200195 7.92560547 2.83200195 7.92560547 2.34179688 6.95703125 C0 2.25346482 0 2.25346482 0 0 Z " fill="#644323" transform="translate(608,232)"/>
<path d="M0 0 C-1.52291469 4.30173954 -4.75790307 6.33869252 -8.375 8.8125 C-9.24125 9.44188477 -9.24125 9.44188477 -10.125 10.08398438 C-14.41641652 13.0576029 -14.41641652 13.0576029 -17.4140625 12.76171875 C-17.93742188 12.51035156 -18.46078125 12.25898437 -19 12 C-18.27554688 11.55269531 -17.55109375 11.10539063 -16.8046875 10.64453125 C-10.39087381 6.67336456 -10.39087381 6.67336456 -4.4375 2.0625 C-2 0 -2 0 0 0 Z " fill="#6C4A28" transform="translate(687,789)"/>
<path d="M0 0 C6.97136905 0.1515515 11.83960275 3.44337866 17 8 C18.29296875 10.23046875 18.29296875 10.23046875 19 12 C16.01076046 10.58653605 13.34556222 8.93825606 10.625 7.0625 C7.17522024 4.73033484 3.77739303 2.74341217 0 1 C0 0.67 0 0.34 0 0 Z " fill="#654424" transform="translate(578,206)"/>
<path d="M0 0 C6.6 0 13.2 0 20 0 C20 0.66 20 1.32 20 2 C6.3667426 3.51708428 6.3667426 3.51708428 0 1 C0 0.67 0 0.34 0 0 Z " fill="#6F4A27" transform="translate(692,591)"/>
<path d="M0 0 C0.33 0 0.66 0 1 0 C1.02505615 0.62044189 1.0501123 1.24088379 1.07592773 1.88012695 C1.19196721 4.69112397 1.31465759 7.50179241 1.4375 10.3125 C1.47681641 11.28896484 1.51613281 12.26542969 1.55664062 13.27148438 C1.59853516 14.20927734 1.64042969 15.14707031 1.68359375 16.11328125 C1.72025146 16.97735596 1.75690918 17.84143066 1.79467773 18.73168945 C1.92747354 21.1647826 1.92747354 21.1647826 3 24 C3.0685495 25.89470816 3.08480372 27.7916834 3.0625 29.6875 C3.05347656 30.68136719 3.04445313 31.67523438 3.03515625 32.69921875 C3.02355469 33.45847656 3.01195312 34.21773438 3 35 C2.67 35 2.34 35 2 35 C1.67 32.69 1.34 30.38 1 28 C0.67 28 0.34 28 0 28 C0 18.76 0 9.52 0 0 Z " fill="#85623C" transform="translate(482,393)"/>
<path d="M0 0 C4.18465569 2.09232784 6.66498791 4.73304081 9.57421875 8.28125 C11.26298786 10.31702646 13.09428334 12.16758014 15 14 C14.67 14.66 14.34 15.32 14 16 C12.2925002 14.71937515 10.62626404 13.38232443 9 12 C9 11.34 9 10.68 9 10 C8.01 9.67 7.02 9.34 6 9 C4.39453125 7.44140625 4.39453125 7.44140625 2.8125 5.5625 C2.01779297 4.63630859 2.01779297 4.63630859 1.20703125 3.69140625 C0 2 0 2 0 0 Z " fill="#684523" transform="translate(619,599)"/>
<path d="M0 0 C-2.10754729 2.10754729 -3.51990766 2.72139167 -6.25 3.8125 C-10.54788819 5.65246829 -13.57573631 7.83914121 -17 11 C-17.66 10.67 -18.32 10.34 -19 10 C-17.078734 6.3495946 -15.83545376 4.53418151 -12 3 C-11.05125 2.46375 -10.1025 1.9275 -9.125 1.375 C-5.79217675 -0.09144223 -3.59578599 -0.25684186 0 0 Z " fill="#654322" transform="translate(584,300)"/>
<path d="M0 0 C0.66 0 1.32 0 2 0 C3.2265625 1.3203125 3.2265625 1.3203125 4.625 3.125 C7.93192687 7.14406211 11.74058816 10.04868164 16 13 C15.01 13.33 14.02 13.66 13 14 C7.95390581 11.00765685 3.22773065 6.91176403 0 2 C0 1.34 0 0.68 0 0 Z " fill="#694928" transform="translate(263,559)"/>
<path d="M0 0 C0.33 0 0.66 0 1 0 C1.74507544 6.37305598 2.10349817 12.58311325 2 19 C1.67 19 1.34 19 1 19 C1 16.69 1 14.38 1 12 C0.34 12 -0.32 12 -1 12 C-1 14.97 -1 17.94 -1 21 C-1.66 20.67 -2.32 20.34 -3 20 C-2.67 15.38 -2.34 10.76 -2 6 C-1.67 6 -1.34 6 -1 6 C-0.67 4.02 -0.34 2.04 0 0 Z " fill="#8D6A44" transform="translate(765,392)"/>
<path d="M0 0 C2.24940295 -0.08119503 4.49964871 -0.13927819 6.75 -0.1875 C8.00296875 -0.22230469 9.2559375 -0.25710938 10.546875 -0.29296875 C14 0 14 0 18 3 C11.07 3 4.14 3 -3 3 C-2.01 2.67 -1.02 2.34 0 2 C0 1.34 0 0.68 0 0 Z " fill="#684624" transform="translate(419,299)"/>
<path d="M0 0 C3.45412296 1.33468794 6.7601692 2.8258663 10.0625 4.5 C10.89910156 4.9228125 11.73570312 5.345625 12.59765625 5.78125 C13.39042969 6.1834375 14.18320312 6.585625 15 7 C16.33288197 7.66756863 17.66605109 8.3345659 19 9 C16.69 9.33 14.38 9.66 12 10 C12 9.34 12 8.68 12 8 C10.948125 7.7525 9.89625 7.505 8.8125 7.25 C5.1836655 6.21740482 2.73516712 4.65228327 0 2 C0 1.34 0 0.68 0 0 Z " fill="#684624" transform="translate(672,582)"/>
<path d="M0 0 C0.55300781 0.25136719 1.10601562 0.50273437 1.67578125 0.76171875 C-3.32421875 4.76171875 -8.32421875 8.76171875 -13.32421875 12.76171875 C-12.83131309 8.55752338 -10.5613113 6.71305153 -7.51171875 3.94921875 C-6.63902344 3.13839844 -5.76632812 2.32757813 -4.8671875 1.4921875 C-2.32421875 -0.23828125 -2.32421875 -0.23828125 0 0 Z " fill="#634322" transform="translate(273.32421875,417.23828125)"/>
<path d="M0 0 C0 0.33 0 0.66 0 1 C-5.94 1 -11.88 1 -18 1 C-12.4592362 -4.5407638 -6.75130354 -3.06877433 0 0 Z " fill="#6C4A26" transform="translate(299,414)"/>
<path d="M0 0 C0.66 1.32 1.32 2.64 2 4 C0.92492371 5.29854721 -0.16043736 6.58858361 -1.25 7.875 C-1.85328125 8.59429688 -2.4565625 9.31359375 -3.078125 10.0546875 C-4.97087634 11.97052118 -6.53657727 12.96449045 -9 14 C-6.125 9.125 -6.125 9.125 -5 8 C-5 7.01 -5 6.02 -5 5 C-4.01 4.67 -3.02 4.34 -2 4 C-0.79117904 1.99983534 -0.79117904 1.99983534 0 0 Z " fill="#84623C" transform="translate(421,546)"/>
<path d="M0 0 C0.33 0 0.66 0 1 0 C0.68978386 6.97986313 -2.4951958 12.07291522 -6 18 C-6.99 17.67 -7.98 17.34 -9 17 C-8.60167969 16.35933594 -8.20335937 15.71867187 -7.79296875 15.05859375 C-4.78283052 10.14423182 -2.10055882 5.36809475 0 0 Z " fill="#654322" transform="translate(476,453)"/>
<path d="M0 0 C0.33 0 0.66 0 1 0 C0.71105501 6.64573468 -1.99535288 11.72066414 -6 17 C-6.66 17 -7.32 17 -8 17 C-6.51095825 13.10391502 -4.75621287 9.40902982 -2.875 5.6875 C-2.06675781 4.08455078 -2.06675781 4.08455078 -1.2421875 2.44921875 C-0.62730469 1.23685547 -0.62730469 1.23685547 0 0 Z " fill="#674625" transform="translate(707,758)"/>
<path d="M0 0 C0.66 0 1.32 0 2 0 C1.47515308 4.55700425 -0.31507303 7.192874 -3.0625 10.8125 C-3.79597656 11.78832031 -4.52945312 12.76414062 -5.28515625 13.76953125 C-5.85105469 14.50558594 -6.41695313 15.24164062 -7 16 C-7.99 15.67 -8.98 15.34 -10 15 C-9.52949219 14.41992188 -9.05898438 13.83984375 -8.57421875 13.2421875 C-5.17861407 8.98186362 -2.18021001 5.00165825 0 0 Z " fill="#644322" transform="translate(348,551)"/>
<path d="M0 0 C0.33 0 0.66 0 1 0 C1.0093457 0.68102783 1.01869141 1.36205566 1.02832031 2.0637207 C1.08198131 5.14738647 1.16563551 8.22952794 1.25 11.3125 C1.26417969 12.38435547 1.27835938 13.45621094 1.29296875 14.56054688 C1.32519531 15.58857422 1.35742188 16.61660156 1.390625 17.67578125 C1.41157227 18.62364502 1.43251953 19.57150879 1.45410156 20.5480957 C1.78797804 23.16596849 1.78797804 23.16596849 4.03808594 24.83276367 C4.68551758 25.21795166 5.33294922 25.60313965 6 26 C3.625 26.125 3.625 26.125 1 26 C-1 24 -1 24 -1.13525391 21.56982422 C-1.08288574 20.5748291 -1.03051758 19.57983398 -0.9765625 18.5546875 C-0.925 17.47832031 -0.8734375 16.40195312 -0.8203125 15.29296875 C-0.75585938 14.16503906 -0.69140625 13.03710938 -0.625 11.875 C-0.56828125 10.73933594 -0.5115625 9.60367187 -0.453125 8.43359375 C-0.31135306 5.6217837 -0.15991439 2.81082719 0 0 Z " fill="#6E4927" transform="translate(574,248)"/>
<path d="M0 0 C0.33 0 0.66 0 1 0 C1.94220126 5.52708611 2.12116149 10.83758352 2.0625 16.4375 C2.05798828 17.26443359 2.05347656 18.09136719 2.04882812 18.94335938 C2.03715811 20.96227146 2.01922718 22.98114574 2 25 C1.67 25 1.34 25 1 25 C0.67 19.72 0.34 14.44 0 9 C-0.66 9.99 -1.32 10.98 -2 12 C-2.28571429 3.42857143 -2.28571429 3.42857143 0 0 Z " fill="#99744D" transform="translate(357,499)"/>
<path d="M0 0 C0.33 0 0.66 0 1 0 C1.08090971 1.62418745 1.13914995 3.24951745 1.1875 4.875 C1.22230469 5.77992188 1.25710938 6.68484375 1.29296875 7.6171875 C1.19628906 8.40351563 1.09960938 9.18984375 1 10 C-2 12 -2 12 -5.5 11.75 C-9 11 -9 11 -12 9 C-6.555 8.505 -6.555 8.505 -1 8 C-0.67 5.36 -0.34 2.72 0 0 Z " fill="#503315" transform="translate(622,271)"/>
<path d="M0 0 C3.57026711 0.59237616 5.45816451 1.97180604 8.125 4.375 C8.80820312 4.98085938 9.49140625 5.58671875 10.1953125 6.2109375 C12 8 12 8 14 11 C10.13066838 10.42676569 7.84777943 8.61046448 5 6 C5 5.34 5 4.68 5 4 C4.360625 3.71125 3.72125 3.4225 3.0625 3.125 C1 2 1 2 0 0 Z " fill="#714F2B" transform="translate(675,646)"/>
<path d="M0 0 C3.54209335 0.5956435 5.45829708 1.94491395 8.125 4.3125 C9.14980469 5.20388672 9.14980469 5.20388672 10.1953125 6.11328125 C11.98909166 7.98859582 12.98439908 9.6285195 14 12 C8.91209901 8.82006188 4.31796773 5.17549671 0 1 C0 0.67 0 0.34 0 0 Z " fill="#6D4C2A" transform="translate(314,422)"/>
<path d="M0 0 C0 0.66 0 1.32 0 2 C-6.43013467 3.73955334 -12.34949576 4.24991456 -19 4 C-19 3.67 -19 3.34 -19 3 C-16.77228658 2.49356447 -14.54275924 1.9951038 -12.3125 1.5 C-10.45044922 1.08234375 -10.45044922 1.08234375 -8.55078125 0.65625 C-5.57601782 0.10645874 -3.00631398 -0.13795705 0 0 Z " fill="#684726" transform="translate(412,806)"/>
<path d="M0 0 C4.26823714 0.47424857 6.17492731 2.95761403 9 6 C9.598125 6.598125 10.19625 7.19625 10.8125 7.8125 C11.204375 8.204375 11.59625 8.59625 12 9 C11.67 9.99 11.34 10.98 11 12 C9.16364422 10.19047409 7.33083792 8.37759362 5.5 6.5625 C4.97535156 6.04623047 4.45070313 5.52996094 3.91015625 4.99804688 C2.58775448 3.68423213 1.29164432 2.34406495 0 1 C0 0.67 0 0.34 0 0 Z " fill="#644221" transform="translate(573,541)"/>
<path d="M0 0 C0.66 0 1.32 0 2 0 C1.34097701 3.57040303 -0.16229158 6.17732255 -2.0625 9.25 C-2.61035156 10.14203125 -3.15820312 11.0340625 -3.72265625 11.953125 C-4.14417969 12.62859375 -4.56570313 13.3040625 -5 14 C-5.99 13.67 -6.98 13.34 -8 13 C-7.50628906 12.22914063 -7.01257813 11.45828125 -6.50390625 10.6640625 C-5.86324219 9.66117187 -5.22257813 8.65828125 -4.5625 7.625 C-3.92441406 6.62726563 -3.28632812 5.62953125 -2.62890625 4.6015625 C-1.03100789 2.14169479 -1.03100789 2.14169479 0 0 Z " fill="#694726" transform="translate(634,454)"/>
<path d="M0 0 C3 1 3 1 4.16796875 2.85546875 C6.15634622 7.40359654 7.52031483 10.92693038 7 16 C4.53859635 13.53859635 3.69673014 11.21543707 2.375 8 C1.92898438 6.9275 1.48296875 5.855 1.0234375 4.75 C0 2 0 2 0 0 Z " fill="#624222" transform="translate(760,450)"/>
<path d="M0 0 C0 0.99 0 1.98 0 3 C-0.99 3.33 -1.98 3.66 -3 4 C-3.68620031 5.32338632 -4.34786461 6.65949948 -5 8 C-6.59716811 10.06722076 -8.29136328 12.02157854 -10 14 C-10.33 13.01 -10.66 12.02 -11 11 C-9.70703125 9.0625 -9.70703125 9.0625 -7.8125 7 C-7.20019531 6.319375 -6.58789062 5.63875 -5.95703125 4.9375 C-4.07922774 3.07843705 -2.15232719 1.52715011 0 0 Z " fill="#60401F" transform="translate(418,551)"/>
<path d="M0 0 C2.96659857 3.55991828 5.381348 7.65222543 7 12 C6.67 12.66 6.34 13.32 6 14 C2.83694229 11.13818589 0.8950109 7.7900218 -1 4 C-0.5625 1.875 -0.5625 1.875 0 0 Z " fill="#654323" transform="translate(249,534)"/>
<path d="M0 0 C2.55977217 2.22588884 3.40088444 3.68182149 4 7 C4.06688591 8.91561254 4.08531719 10.83335592 4.0625 12.75 C4.05347656 13.73484375 4.04445313 14.7196875 4.03515625 15.734375 C4.02355469 16.48203125 4.01195312 17.2296875 4 18 C3.67 18 3.34 18 3 18 C2.49490792 15.75113762 1.99610821 13.50086131 1.5 11.25 C1.2215625 9.99703125 0.943125 8.7440625 0.65625 7.453125 C0 4 0 4 0 0 Z " fill="#5E3D1D" transform="translate(353,487)"/>
<path d="M0 0 C3.72652914 3.21252512 5.40095341 6.36276488 7 11 C7.1875 14.4375 7.1875 14.4375 7 17 C4.42033404 14.42033404 3.66390156 11.90692108 2.375 8.5 C1.92898438 7.3346875 1.48296875 6.169375 1.0234375 4.96875 C0 2 0 2 0 0 Z " fill="#5C3C1D" transform="translate(752,352)"/>
<path d="M0 0 C-1.40976705 3.03852705 -3.08870228 5.5939595 -5.125 8.25 C-5.66382813 8.95640625 -6.20265625 9.6628125 -6.7578125 10.390625 C-7.16773438 10.92171875 -7.57765625 11.4528125 -8 12 C-8.70703125 10.265625 -8.70703125 10.265625 -9 8 C-7.63671875 5.859375 -7.63671875 5.859375 -5.6875 3.75 C-5.05199219 3.04359375 -4.41648437 2.3371875 -3.76171875 1.609375 C-2 0 -2 0 0 0 Z " fill="#644422" transform="translate(308,655)"/>
<path d="M0 0 C3.37244652 3.99697365 6.71374722 8.27090179 9 13 C8.67 13.66 8.34 14.32 8 15 C5.73192622 12.86495107 3.98935519 10.68604821 2.3125 8.0625 C1.87550781 7.39347656 1.43851563 6.72445313 0.98828125 6.03515625 C0 4 0 4 0 0 Z " fill="#684726" transform="translate(630,320)"/>
<path d="M0 0 C0.99 0.33 1.98 0.66 3 1 C2.50371094 1.36351562 2.00742187 1.72703125 1.49609375 2.1015625 C-3.17603477 5.55911492 -7.62578697 9.1725636 -12 13 C-10.6234944 8.56718535 -8.67942959 6.48242749 -5.0625 3.625 C-4.18722656 2.91601562 -3.31195313 2.20703125 -2.41015625 1.4765625 C-1.61480469 0.98929687 -0.81945312 0.50203125 0 0 Z " fill="#835F3B" transform="translate(285,319)"/>
<path d="M0 0 C3.03320748 1.51660374 3.69012609 3.94630889 5.1875 6.9375 C5.73792969 8.01902344 6.28835938 9.10054688 6.85546875 10.21484375 C7.23316406 11.13394531 7.61085938 12.05304688 8 13 C7.67 13.66 7.34 14.32 7 15 C4.69145075 12.87666387 3.21587424 10.86387158 1.8125 8.0625 C1.29623047 7.05896484 1.29623047 7.05896484 0.76953125 6.03515625 C0 4 0 4 0 0 Z " fill="#5F3F1F" transform="translate(379,446)"/>
<path d="M0 0 C0.66 0.99 1.32 1.98 2 3 C-2.95 3 -7.9 3 -13 3 C-4.2 -1.4 -4.2 -1.4 0 0 Z " fill="#63401F" transform="translate(598,297)"/>
<path d="M0 0 C0.33 0 0.66 0 1 0 C0.67 3.3 0.34 6.6 0 10 C-0.66 10 -1.32 10 -2 10 C-2.66 11.32 -3.32 12.64 -4 14 C-4.08159574 9.83861737 -3.98248524 6.0527516 -3 2 C-2.34 2.66 -1.68 3.32 -1 4 C-0.67 2.68 -0.34 1.36 0 0 Z " fill="#86643F" transform="translate(287,697)"/>
<path d="M0 0 C0.33 0 0.66 0 1 0 C0.53727822 5.36757261 -0.13719579 9.30500109 -3 14 C-3.99 14.495 -3.99 14.495 -5 15 C-4.37321829 11.33827525 -3.35548154 8.1181005 -1.9375 4.6875 C-1.39416016 3.36298828 -1.39416016 3.36298828 -0.83984375 2.01171875 C-0.56269531 1.34785156 -0.28554688 0.68398438 0 0 Z " fill="#61401F" transform="translate(764,533)"/>
<path d="M0 0 C4.66666667 2.33333333 9.33333333 4.66666667 14 7 C14 7.33 14 7.66 14 8 C8.29290936 7.53411505 4.84060277 6.06242216 0 3 C0 2.01 0 1.02 0 0 Z " fill="#5E3D1E" transform="translate(558,479)"/>
<path d="M0 0 C5.35152885 0.32433508 8.28280043 3.49704824 12 7 C11.67 7.66 11.34 8.32 11 9 C10.37351562 8.57847656 9.74703125 8.15695312 9.1015625 7.72265625 C8.28429687 7.17480469 7.46703125 6.62695312 6.625 6.0625 C5.81289063 5.51722656 5.00078125 4.97195313 4.1640625 4.41015625 C2.07280816 2.98906121 2.07280816 2.98906121 0 2 C0 1.34 0 0.68 0 0 Z " fill="#634220" transform="translate(738,427)"/>
<path d="M0 0 C0.33 0 0.66 0 1 0 C1.08117951 2.41734542 1.14056926 4.83194949 1.1875 7.25 C1.21263672 7.93191406 1.23777344 8.61382812 1.26367188 9.31640625 C1.31137459 12.59199289 1.21085076 14.65348556 -0.51171875 17.484375 C-1.00285156 17.98453125 -1.49398438 18.4846875 -2 19 C-1.50873071 12.63440427 -1.00344253 6.30735307 0 0 Z " fill="#543416" transform="translate(483,419)"/>
<path d="M0 0 C2.72675159 2.40689803 4.11966596 4.92471023 5.6875 8.1875 C6.12449219 9.08855469 6.56148438 9.98960937 7.01171875 10.91796875 C7.33785156 11.60503906 7.66398437 12.29210937 8 13 C4.90030982 11.68458526 3.3757267 10.57969377 1.75 7.625 C1.41484375 7.03976562 1.0796875 6.45453125 0.734375 5.8515625 C0 4 0 4 0 0 Z " fill="#634322" transform="translate(292,762)"/>
<path d="M0 0 C0.99 0 1.98 0 3 0 C5.03993514 4.92984325 6.40652968 8.57960425 6 14 C3.47524538 11.47524538 2.95692129 9.26502003 1.875 5.875 C1.52179688 4.77929688 1.16859375 3.68359375 0.8046875 2.5546875 C0.53914063 1.71164062 0.27359375 0.86859375 0 0 Z " fill="#5E3D1D" transform="translate(470,338)"/>
<path d="M0 0 C0.62003906 0.18820313 1.24007813 0.37640625 1.87890625 0.5703125 C0.28098523 1.74551896 -1.32466283 2.91022497 -2.93359375 4.0703125 C-4.27357422 5.04484375 -4.27357422 5.04484375 -5.640625 6.0390625 C-8.12109375 7.5703125 -8.12109375 7.5703125 -11.12109375 7.5703125 C-3.13705982 -0.63550015 -3.13705982 -0.63550015 0 0 Z " fill="#5F3F1F" transform="translate(434.12109375,208.4296875)"/>
<path d="M0 0 C1.77155654 0.11429397 3.54226229 0.24183037 5.3125 0.375 C6.79169922 0.47941406 6.79169922 0.47941406 8.30078125 0.5859375 C11 1 11 1 14 3 C12.22925083 3.02705729 10.45838289 3.04642195 8.6875 3.0625 C7.70136719 3.07410156 6.71523438 3.08570313 5.69921875 3.09765625 C3 3 3 3 0 2 C0 1.34 0 0.68 0 0 Z " fill="#664321" transform="translate(581,274)"/>
<path d="M0 0 C0.66 0 1.32 0 2 0 C3.21875 1.49609375 3.21875 1.49609375 4.5 3.4375 C6.2865363 6.22531847 6.2865363 6.22531847 9 8 C9 8.66 9 9.32 9 10 C4.5969913 8.65463623 2.528436 6.83947688 0 3 C0 2.01 0 1.02 0 0 Z " fill="#694624" transform="translate(662,571)"/>
<path d="M0 0 C4.63425362 -0.32332002 7.28683289 0.1355568 11 3 C11.33 3.99 11.66 4.98 12 6 C7.76570244 4.68938409 3.92592596 3.05643741 0 1 C0 0.67 0 0.34 0 0 Z " fill="#654220" transform="translate(300,415)"/>
<path d="M0 0 C0.33 0 0.66 0 1 0 C1.33 4.62 1.66 9.24 2 14 C1.34 12.68 0.68 11.36 0 10 C-0.66 10 -1.32 10 -2 10 C-2.17942163 6.05272412 -2.09350689 3.4019487 0 0 Z " fill="#8D6B44" transform="translate(483,378)"/>
<path d="M0 0 C0 1.66666667 0 3.33333333 0 5 C-1.53125 6.5078125 -1.53125 6.5078125 -3.5 8.125 C-4.1496875 8.66382813 -4.799375 9.20265625 -5.46875 9.7578125 C-5.9740625 10.16773438 -6.479375 10.57765625 -7 11 C-7.66 10.67 -8.32 10.34 -9 10 C-6.03 6.7 -3.06 3.4 0 0 Z " fill="#84613B" transform="translate(391,587)"/>
<path d="M0 0 C2.62400522 2.37409996 4.44568209 4.81364829 6 8 C5.578125 10.16015625 5.578125 10.16015625 5 12 C4.15556432 10.75747321 3.3248542 9.5056114 2.5 8.25 C1.80390625 7.20585938 1.80390625 7.20585938 1.09375 6.140625 C0 4 0 4 0 0 Z " fill="#694929" transform="translate(700,672)"/>
<path d="M0 0 C0.33 0 0.66 0 1 0 C1.08142927 1.7492214 1.13938541 3.49954542 1.1875 5.25 C1.23970703 6.71179688 1.23970703 6.71179688 1.29296875 8.203125 C0.96075202 11.37468742 0.11327721 12.67040307 -2 15 C-1.03644647 4.44191344 -1.03644647 4.44191344 0 0 Z " fill="#573719" transform="translate(769,510)"/>
<path d="M0 0 C3.96 0.33 7.92 0.66 12 1 C12 1.99 12 2.98 12 4 C7.80530429 3.40075776 3.99000166 2.42500059 0 1 C0 0.67 0 0.34 0 0 Z " fill="#694625" transform="translate(532,519)"/>
<path d="M0 0 C0.90105469 0.02707031 1.80210937 0.05414062 2.73046875 0.08203125 C3.76107422 0.13423828 3.76107422 0.13423828 4.8125 0.1875 C1.65009418 2.29577055 0.30592531 2.52567465 -3.375 2.8125 C-4.72658203 2.92464844 -4.72658203 2.92464844 -6.10546875 3.0390625 C-7.13607422 3.11253906 -7.13607422 3.11253906 -8.1875 3.1875 C-5.67753317 0.01043235 -3.96125134 -0.15433447 0 0 Z " fill="#613F1D" transform="translate(482.1875,515.8125)"/>
<path d="M0 0 C0.33 0.99 0.66 1.98 1 3 C-0.09283577 4.03295436 -1.19970579 5.05107835 -2.3125 6.0625 C-2.92738281 6.63097656 -3.54226563 7.19945312 -4.17578125 7.78515625 C-4.77777344 8.18605469 -5.37976563 8.58695312 -6 9 C-6.99 8.67 -7.98 8.34 -9 8 C-8.43410156 7.50628906 -7.86820312 7.01257813 -7.28515625 6.50390625 C-6.55167969 5.86324219 -5.81820313 5.22257812 -5.0625 4.5625 C-4.33160156 3.92441406 -3.60070312 3.28632813 -2.84765625 2.62890625 C-1.87860647 1.77458541 -0.91348825 0.91348825 0 0 Z " fill="#624120" transform="translate(463,475)"/>
<path d="M0 0 C0.33 0 0.66 0 1 0 C1 1.65 1 3.3 1 5 C1.66 5 2.32 5 3 5 C3.33 7.97 3.66 10.94 4 14 C0.6133629 10.6133629 0.58036746 9.8662468 0.3125 5.3125 C0.24675781 4.31863281 0.18101562 3.32476562 0.11328125 2.30078125 C0.07589844 1.54152344 0.03851562 0.78226562 0 0 Z " fill="#704F30" transform="translate(532,422)"/>
<path d="M0 0 C0.99 0.33 1.98 0.66 3 1 C1.63875 2.11375 1.63875 2.11375 0.25 3.25 C-2.3069423 5.37674584 -4.69110193 7.60229816 -7 10 C-7 6 -7 6 -5.57421875 4.26171875 C-4.64029297 3.48248047 -4.64029297 3.48248047 -3.6875 2.6875 C-2.76517578 1.88892578 -2.76517578 1.88892578 -1.82421875 1.07421875 C-0.92123047 0.54248047 -0.92123047 0.54248047 0 0 Z " fill="#5B3B1C" transform="translate(279,321)"/>
<path d="M0 0 C0.33 0.66 0.66 1.32 1 2 C0.02616054 3.68208635 -0.97695052 5.34738161 -2 7 C-2.69579454 9.19130534 -2.69579454 9.19130534 -3 11 C-3.66 11 -4.32 11 -5 11 C-4.4971641 7.31253672 -4.00153469 4.17890804 -2 1 C-1.34 0.67 -0.68 0.34 0 0 Z " fill="#5F3E1F" transform="translate(408,235)"/>
<path d="M0 0 C0.33 0 0.66 0 1 0 C0.88512252 1.58409994 0.75765492 3.16728963 0.625 4.75 C0.52058594 6.07257813 0.52058594 6.07257813 0.4140625 7.421875 C0.00149945 9.99066382 -0.71160957 11.75841015 -2 14 C-2.05437607 12.41705218 -2.09296271 10.83355744 -2.125 9.25 C-2.14820313 8.36828125 -2.17140625 7.4865625 -2.1953125 6.578125 C-1.99139502 3.8864142 -1.36551721 2.30095026 0 0 Z " fill="#523314" transform="translate(254,367)"/>
<path d="M0 0 C3.78717347 1.48781815 5.77407001 3.61988409 8 7 C7.67 7.99 7.34 8.98 7 10 C5.82739389 8.71372289 4.6620717 7.42080217 3.5 6.125 C2.8503125 5.40570313 2.200625 4.68640625 1.53125 3.9453125 C0 2 0 2 0 0 Z " fill="#58381A" transform="translate(622,312)"/>
<path d="M0 0 C-1 3 -1 3 -3.3125 4.75 C-6.32190521 6.14972335 -6.98041673 5.95287489 -10 5 C-8.71186658 4.16121545 -7.41936744 3.32913217 -6.125 2.5 C-5.40570312 2.0359375 -4.68640625 1.571875 -3.9453125 1.09375 C-2 0 -2 0 0 0 Z " fill="#6C4B28" transform="translate(732,582)"/>
<path d="M0 0 C1.32 0.33 2.64 0.66 4 1 C1.36 2.98 -1.28 4.96 -4 7 C-4.66 6.67 -5.32 6.34 -6 6 C-4 4 -2 2 0 0 Z " fill="#603F1E" transform="translate(436,534)"/>
<path d="M0 0 C-1.45264038 0.8638129 -2.9123163 1.71580454 -4.375 2.5625 C-5.59316406 3.27599609 -5.59316406 3.27599609 -6.8359375 4.00390625 C-7.55007813 4.33261719 -8.26421875 4.66132812 -9 5 C-9.66 4.67 -10.32 4.34 -11 4 C-7.51147246 0.16261971 -5.09041622 -1.48780432 0 0 Z " fill="#623F1E" transform="translate(454,527)"/>
<path d="M0 0 C0.99 0.33 1.98 0.66 3 1 C2.01 3.97 1.02 6.94 0 10 C-0.33 10 -0.66 10 -1 10 C-0.67 6.7 -0.34 3.4 0 0 Z " fill="#664423" transform="translate(376,344)"/>
<path d="M0 0 C-0.33 1.32 -0.66 2.64 -1 4 C-1.556875 3.814375 -2.11375 3.62875 -2.6875 3.4375 C-5.399133 2.92448835 -7.34371039 3.3359276 -10 4 C-6.58908673 0.88145073 -4.68377325 -0.53528837 0 0 Z " fill="#6E4D2B" transform="translate(290,317)"/>
<path d="M0 0 C-0.33 0.99 -0.66 1.98 -1 3 C-4.47325181 4.1577506 -7.36067448 4.06866652 -11 4 C-8.07317918 1.07317918 -4.14037627 0 0 0 Z " fill="#62401F" transform="translate(441,273)"/>
<path d="M0 0 C0.33 0.66 0.66 1.32 1 2 C1.66 2 2.32 2 3 2 C2.34 4.31 1.68 6.62 1 9 C0.34 8.67 -0.32 8.34 -1 8 C-1.125 2.25 -1.125 2.25 0 0 Z " fill="#6F4D2C" transform="translate(402,244)"/>
<path d="M0 0 C1.45606519 4.52092968 0.27032841 7.51648796 -1 12 C-1.33 12 -1.66 12 -2 12 C-2.05422947 10.5629191 -2.09289723 9.12524538 -2.125 7.6875 C-2.14820313 6.88699219 -2.17140625 6.08648438 -2.1953125 5.26171875 C-2 3 -2 3 0 0 Z " fill="#583A1A" transform="translate(287,691)"/>
<path d="M0 0 C0.66 0 1.32 0 2 0 C4.09350689 3.4019487 4.17942163 6.05272412 4 10 C1.997499 7.997499 1.06784629 6.593341 0 4 C0 2.68 0 1.36 0 0 Z " fill="#634221" transform="translate(706,685)"/>
<path d="M0 0 C0.99 0.33 1.98 0.66 3 1 C0.03 4.96 0.03 4.96 -3 9 C-3.33 8.01 -3.66 7.02 -4 6 C-2.0625 2.8125 -2.0625 2.8125 0 0 Z " fill="#644222" transform="translate(403,567)"/>
<path d="M0 0 C2.61500768 2.36595933 4.38999603 4.86049226 6 8 C5.67 8.66 5.34 9.32 5 10 C1.32769295 6.92000054 0.43197635 4.7517398 0 0 Z " fill="#674523" transform="translate(656,560)"/>
<path d="M0 0 C3.86933162 0.57323431 6.15222057 2.38953552 9 5 C9 5.66 9 6.32 9 7 C5.18315774 5.44499019 2.80804268 2.96404505 0 0 Z " fill="#63411F" transform="translate(563,533)"/>
<path d="M0 0 C0.33 0 0.66 0 1 0 C1.125 6.625 1.125 6.625 0 10 C-0.66 10 -1.32 10 -2 10 C-2.33 10.66 -2.66 11.32 -3 12 C-2.68950274 10.56206608 -2.3765224 9.1246682 -2.0625 7.6875 C-1.88847656 6.88699219 -1.71445312 6.08648437 -1.53515625 5.26171875 C-1 3 -1 3 0 0 Z " fill="#604021" transform="translate(480,440)"/>
<path d="M0 0 C2.62901288 1.52206009 4.84365964 2.84365964 7 5 C6.625 7.125 6.625 7.125 6 9 C4.99406757 7.8803014 3.9954151 6.7540588 3 5.625 C2.443125 4.99851563 1.88625 4.37203125 1.3125 3.7265625 C0 2 0 2 0 0 Z " fill="#634222" transform="translate(599,220)"/>
<path d="M0 0 C0.66 0.33 1.32 0.66 2 1 C0.02 3.31 -1.96 5.62 -4 8 C-4.99 7.67 -5.98 7.34 -7 7 C-4.69 4.69 -2.38 2.38 0 0 Z " fill="#735130" transform="translate(423,214)"/>
<path d="M0 0 C1.46015291 0.28241641 2.91809793 0.57626614 4.375 0.875 C5.18710937 1.03742187 5.99921875 1.19984375 6.8359375 1.3671875 C9 2 9 2 11 4 C9.54054712 3.91291331 8.08234132 3.80473093 6.625 3.6875 C5.81289063 3.62949219 5.00078125 3.57148437 4.1640625 3.51171875 C2 3 2 3 0 0 Z " fill="#63411F" transform="translate(556,797)"/>
<path d="M0 0 C1.2077558 3.62326739 0.54311128 4.64146369 -1 8 C-1.66 8 -2.32 8 -3 8 C-3.33 8.66 -3.66 9.32 -4 10 C-3.5205537 5.78087253 -2.83374881 3.20336822 0 0 Z " fill="#704F2E" transform="translate(290,683)"/>
<path d="M0 0 C3.12270126 2.51830747 3.94523098 3.7261549 4.75 7.75 C4.8325 8.8225 4.915 9.895 5 11 C2.03947516 7.63576723 1.07710178 4.30840713 0 0 Z " fill="#603F1D" transform="translate(344,462)"/>
<path d="M0 0 C0.33 0 0.66 0 1 0 C0.38461538 6.52307692 0.38461538 6.52307692 -1.5625 8.9375 C-2.036875 9.288125 -2.51125 9.63875 -3 10 C-3.33 9.34 -3.66 8.68 -4 8 C-3.22265625 6.0546875 -3.22265625 6.0546875 -2.0625 3.875 C-1.49208984 2.78832031 -1.49208984 2.78832031 -0.91015625 1.6796875 C-0.60980469 1.12539063 -0.30945313 0.57109375 0 0 Z " fill="#624021" transform="translate(640,442)"/>
<path d="M0 0 C3.42054006 1.14018002 4.2426201 1.92458518 6 5 C5.578125 7.13671875 5.578125 7.13671875 5 9 C4.16094435 7.87926138 3.32892169 6.75325453 2.5 5.625 C2.0359375 4.99851562 1.571875 4.37203125 1.09375 3.7265625 C0 2 0 2 0 0 Z " fill="#614120" transform="translate(753,439)"/>
<path d="M0 0 C2.61500768 2.36595933 4.38999603 4.86049226 6 8 C5.67 8.66 5.34 9.32 5 10 C2.9754262 8.06745228 1.57894208 6.36841312 0 4 C0 2.68 0 1.36 0 0 Z " fill="#6C4A29" transform="translate(748,343)"/>
<path d="M0 0 C0.99 0.33 1.98 0.66 3 1 C0.03 4.96 0.03 4.96 -3 9 C-3.33 8.01 -3.66 7.02 -4 6 C-2.0625 2.8125 -2.0625 2.8125 0 0 Z " fill="#613F1D" transform="translate(559,314)"/>
<path d="M0 0 C5.75 3.625 5.75 3.625 8 7 C4.0521912 7 2.81491174 5.66275435 0 3 C0 2.01 0 1.02 0 0 Z " fill="#674624" transform="translate(448,306)"/>
<path d="M0 0 C0.33 0 0.66 0 1 0 C1 2.97 1 5.94 1 9 C0.34 9 -0.32 9 -1 9 C-1.33 9.66 -1.66 10.32 -2 11 C-2.28571429 3.57142857 -2.28571429 3.57142857 0 0 Z " fill="#84613C" transform="translate(650,375)"/>
<path d="M0 0 C0.66 0 1.32 0 2 0 C1.71848913 1.31471568 1.42446661 2.62675767 1.125 3.9375 C0.96257812 4.66839844 0.80015625 5.39929688 0.6328125 6.15234375 C0 8 0 8 -2 9 C-1.125 2.25 -1.125 2.25 0 0 Z " fill="#624020" transform="translate(260,347)"/>
<path d="M0 0 C3.63 0.66 7.26 1.32 11 2 C11 2.33 11 2.66 11 3 C9.54257537 3.08096803 8.08387193 3.13917774 6.625 3.1875 C5.81289063 3.22230469 5.00078125 3.25710938 4.1640625 3.29296875 C3.44992187 3.19628906 2.73578125 3.09960938 2 3 C1.34 2.01 0.68 1.02 0 0 Z " fill="#61401E" transform="translate(588,807)"/>
<path d="M0 0 C3.36591866 1.44253657 5.51047079 3.33264727 8 6 C5.21788056 5.62403791 3.4120716 5.32681541 1.1875 3.5625 C0 2 0 2 0 0 Z " fill="#5D3E1F" transform="translate(271,567)"/>
<path d="M0 0 C4.875 4.625 4.875 4.625 6 8 C5.01 8 4.02 8 3 8 C0.89229241 5.11165997 0 3.61537605 0 0 Z " fill="#603F20" transform="translate(257,550)"/>
<path d="M0 0 C1.2077558 3.62326739 0.54311128 4.64146369 -1 8 C-1.33 8 -1.66 8 -2 8 C-2 6.35 -2 4.7 -2 3 C-2.66 2.67 -3.32 2.34 -4 2 C-2.68 1.34 -1.36 0.68 0 0 Z " fill="#644321" transform="translate(656,503)"/>
<path d="M0 0 C3.83736322 0.95934081 4.59660228 1.23609263 7 4 C6.67 4.99 6.34 5.98 6 7 C4.02 4.69 2.04 2.38 0 0 Z " fill="#6E4C2A" transform="translate(395,474)"/>
<path d="M0 0 C0.33 0.66 0.66 1.32 1 2 C-0.98 4.97 -0.98 4.97 -3 8 C-3.75 6.25 -3.75 6.25 -4 4 C-2.0625 1.75 -2.0625 1.75 0 0 Z " fill="#603F1E" transform="translate(673,466)"/>
<path d="M0 0 C0.66 0 1.32 0 2 0 C0.90931332 3.77545388 0.0916909 6.47043472 -3 9 C-2.5020163 5.26512223 -2.12508244 3.18762365 0 0 Z " fill="#644322" transform="translate(551,326)"/>
<path d="M0 0 C5.53846154 0.61538462 5.53846154 0.61538462 7.875 2.5625 C8.431875 3.2740625 8.431875 3.2740625 9 4 C3.46153846 3.38461538 3.46153846 3.38461538 1.125 1.4375 C0.75375 0.963125 0.3825 0.48875 0 0 Z " fill="#6B4928" transform="translate(606,301)"/>
<path d="M0 0 C3.3 0.33 6.6 0.66 10 1 C10 1.66 10 2.32 10 3 C3.375 2.25 3.375 2.25 0 0 Z " fill="#674524" transform="translate(610,280)"/>
<path d="M0 0 C0 0.66 0 1.32 0 2 C-3.47325181 3.1577506 -6.36067448 3.06866652 -10 3 C-6.26223701 0.50815801 -4.5227786 0 0 0 Z " fill="#65421F" transform="translate(429,277)"/>
<path d="M0 0 C0.66 0 1.32 0 2 0 C2.33 0.99 2.66 1.98 3 3 C4.99665314 4.68538601 4.99665314 4.68538601 7 6 C4.625 6.125 4.625 6.125 2 6 C1.34 5.34 0.68 4.68 0 4 C0 2.68 0 1.36 0 0 Z " fill="#654321" transform="translate(573,268)"/>
<path d="M0 0 C3.68266103 0.59950296 7.34543185 1.24758891 11 2 C11 2.33 11 2.66 11 3 C8.03 3 5.06 3 2 3 C2 2.34 2 1.68 2 1 C1.34 0.67 0.68 0.34 0 0 Z " fill="#5B3A19" transform="translate(348,807)"/>
<path d="M0 0 C0.66 0.33 1.32 0.66 2 1 C-0.25 3.0625 -0.25 3.0625 -3 5 C-5.3125 4.75 -5.3125 4.75 -7 4 C-1.7265625 0.77734375 -1.7265625 0.77734375 0 0 Z " fill="#644220" transform="translate(332,572)"/>
<path d="M0 0 C2.125 0.9375 2.125 0.9375 4 2 C2.68 2.99 1.36 3.98 0 5 C-0.66 4.67 -1.32 4.34 -2 4 C-2 3.01 -2 2.02 -2 1 C-1.34 0.67 -0.68 0.34 0 0 Z " fill="#84613B" transform="translate(708,426)"/>
<path d="M0 0 C1.0326802 2.78823655 1.04509293 3.8677274 0.0625 6.75 C-0.288125 7.4925 -0.63875 8.235 -1 9 C-1.33 9 -1.66 9 -2 9 C-2.125 5.625 -2.125 5.625 -2 2 C-1.34 1.34 -0.68 0.68 0 0 Z " fill="#5A3B1E" transform="translate(400,253)"/>
<path d="M0 0 C0.99 0.33 1.98 0.66 3 1 C2.34 2.32 1.68 3.64 1 5 C0.67 3.35 0.34 1.7 0 0 Z " fill="#916A43" transform="translate(376,451)"/>
<path d="M0 0 C0.99 0.33 1.98 0.66 3 1 C3.33 1.99 3.66 2.98 4 4 C3.34 4 2.68 4 2 4 C2 3.34 2 2.68 2 2 C1.34 2 0.68 2 0 2 C0 1.34 0 0.68 0 0 Z " fill="#926A43" transform="translate(544,468)"/>
<path d="M0 0 C0.99 0.33 1.98 0.66 3 1 C2.34 1 1.68 1 1 1 C0.67 1.66 0.34 2.32 0 3 C0 2.01 0 1.02 0 0 Z " fill="#8F6B42" transform="translate(312,643)"/>
<path d="M0 0 C0 0.99 0 1.98 0 3 C-0.66 2.67 -1.32 2.34 -2 2 C-1.34 1.34 -0.68 0.68 0 0 Z " fill="#906A41" transform="translate(394,475)"/>
<path d="M0 0 C1.485 0.99 1.485 0.99 3 2 C1.68 1.67 0.36 1.34 -1 1 C-0.67 0.67 -0.34 0.34 0 0 Z " fill="#8E6742" transform="translate(729,404)"/>
<path d="M0 0 C0.33 0 0.66 0 1 0 C1 1.65 1 3.3 1 5 C0.67 5 0.34 5 0 5 C0 3.35 0 1.7 0 0 Z " fill="#906944" transform="translate(720,368)"/>
<path d="M0 0 C4 1 4 1 4 1 Z " fill="#8D673E" transform="translate(610,814)"/>
<path d="M0 0 C0.99 0.33 1.98 0.66 3 1 C2.01 1 1.02 1 0 1 C0 0.67 0 0.34 0 0 Z " fill="#946E46" transform="translate(680,590)"/>
<path d="M0 0 C0.66 0 1.32 0 2 0 C2 0.66 2 1.32 2 2 C1.34 2 0.68 2 0 2 C0 1.34 0 0.68 0 0 Z " fill="#906943" transform="translate(368,425)"/>
<path d="M0 0 C1 4 1 4 1 4 Z " fill="#936B42" transform="translate(530,420)"/>
<path d="M0 0 C0.66 0.66 1.32 1.32 2 2 C1.34 2 0.68 2 0 2 C0 1.34 0 0.68 0 0 Z " fill="#89663C" transform="translate(336,806)"/>
<path d="M0 0 C3 1 3 1 3 1 Z " fill="#8E6840" transform="translate(478,791)"/>
<path d="" fill="#8D6842" transform="translate(0,0)"/>
<path d="M0 0 C0.66 0.66 1.32 1.32 2 2 C1.34 2 0.68 2 0 2 C0 1.34 0 0.68 0 0 Z " fill="#906B42" transform="translate(315,640)"/>
<path d="" fill="#946D42" transform="translate(0,0)"/>
<path d="M0 0 C0.66 0.66 1.32 1.32 2 2 C1.34 2 0.68 2 0 2 C0 1.34 0 0.68 0 0 Z " fill="#936D43" transform="translate(659,571)"/>
<path d="M0 0 C0.33 0.66 0.66 1.32 1 2 C0.34 1.67 -0.32 1.34 -1 1 C-0.67 0.67 -0.34 0.34 0 0 Z " fill="#906B42" transform="translate(531,428)"/>
<path d="" fill="#946D45" transform="translate(0,0)"/>
<path d="" fill="#956C46" transform="translate(0,0)"/>
<path d="" fill="#8C6740" transform="translate(0,0)"/>
<path d="" fill="#8B6641" transform="translate(0,0)"/>
<path d="M0 0 C0.99 0.495 0.99 0.495 2 1 C1.01 1.495 1.01 1.495 0 2 C0 1.34 0 0.68 0 0 Z " fill="#8E6741" transform="translate(722,344)"/>
<path d="M0 0 C0.99 0.495 0.99 0.495 2 1 C1.01 1.495 1.01 1.495 0 2 C0 1.34 0 0.68 0 0 Z " fill="#8D6941" transform="translate(392,280)"/>
<path d="M0 0 C3 1 3 1 3 1 Z " fill="#916A42" transform="translate(584,278)"/>
<path d="" fill="#8D6842" transform="translate(0,0)"/>
<path d="" fill="#C1BFBD" transform="translate(0,0)"/>
<path d="" fill="#C3C0BF" transform="translate(0,0)"/>
<path d="" fill="#A3A29D" transform="translate(0,0)"/>
<path d="M0 0 C2 1 2 1 2 1 Z " fill="#8F6941" transform="translate(628,815)"/>
<path d="M0 0 C2 1 2 1 2 1 Z " fill="#8C6740" transform="translate(621,815)"/>
<path d="M0 0 C2 1 2 1 2 1 Z " fill="#8C6941" transform="translate(380,814)"/>
<path d="M0 0 C2 1 2 1 2 1 Z " fill="#8B6740" transform="translate(369,814)"/>
<path d="M0 0 C2 1 2 1 2 1 Z " fill="#87613C" transform="translate(385,813)"/>
<path d="M0 0 C2 1 2 1 2 1 Z " fill="#8B6640" transform="translate(361,813)"/>
<path d="M0 0 C2 1 2 1 2 1 Z " fill="#8E6A42" transform="translate(650,811)"/>
<path d="M0 0 C2 1 2 1 2 1 Z " fill="#8D6540" transform="translate(569,805)"/>
<path d="M0 0 C2 1 2 1 2 1 Z " fill="#8E663F" transform="translate(444,799)"/>
<path d="M0 0 C2 1 2 1 2 1 Z " fill="#866440" transform="translate(312,795)"/>
<path d="" fill="#8A6740" transform="translate(0,0)"/>
<path d="" fill="#8C6642" transform="translate(0,0)"/>
<path d="" fill="#8D6743" transform="translate(0,0)"/>
<path d="" fill="#8E6A43" transform="translate(0,0)"/>
<path d="" fill="#8E6944" transform="translate(0,0)"/>
<path d="" fill="#916D44" transform="translate(0,0)"/>
<path d="M0 0 C2 1 2 1 2 1 Z " fill="#946D46" transform="translate(676,590)"/>
<path d="" fill="#8D6942" transform="translate(0,0)"/>
<path d="M0 0 C2 1 2 1 2 1 Z " fill="#916943" transform="translate(326,583)"/>
<path d="" fill="#906B42" transform="translate(0,0)"/>
<path d="M0 0 C2 1 2 1 2 1 Z " fill="#916B42" transform="translate(664,579)"/>
<path d="" fill="#926D45" transform="translate(0,0)"/>
<path d="" fill="#936B44" transform="translate(0,0)"/>
<path d="" fill="#8C6643" transform="translate(0,0)"/>
<path d="M0 0 C2 1 2 1 2 1 Z " fill="#8B6841" transform="translate(274,573)"/>
<path d="M0 0 C2 1 2 1 2 1 Z " fill="#956D44" transform="translate(597,560)"/>
<path d="" fill="#936B45" transform="translate(0,0)"/>
<path d="" fill="#8C6845" transform="translate(0,0)"/>
<path d="" fill="#926940" transform="translate(0,0)"/>
<path d="" fill="#946D45" transform="translate(0,0)"/>
<path d="M0 0 C2 1 2 1 2 1 Z " fill="#956F44" transform="translate(550,522)"/>
<path d="M0 0 C2 1 2 1 2 1 Z " fill="#916C43" transform="translate(565,487)"/>
<path d="M0 0 C2 1 2 1 2 1 Z " fill="#916943" transform="translate(563,486)"/>
<path d="" fill="#916A42" transform="translate(0,0)"/>
<path d="" fill="#8E6841" transform="translate(0,0)"/>
<path d="M0 0 C2 1 2 1 2 1 Z " fill="#906A43" transform="translate(392,474)"/>
<path d="" fill="#906B42" transform="translate(0,0)"/>
<path d="" fill="#906A44" transform="translate(0,0)"/>
<path d="" fill="#916A40" transform="translate(0,0)"/>
<path d="" fill="#8B6843" transform="translate(0,0)"/>
<path d="" fill="#916A41" transform="translate(0,0)"/>
<path d="" fill="#946F45" transform="translate(0,0)"/>
<path d="" fill="#8F6A43" transform="translate(0,0)"/>
<path d="M0 0 C2 1 2 1 2 1 Z " fill="#8C6844" transform="translate(251,406)"/>
<path d="" fill="#936D45" transform="translate(0,0)"/>
<path d="M0 0 C2 1 2 1 2 1 Z " fill="#8E6742" transform="translate(273,397)"/>
<path d="" fill="#946F45" transform="translate(0,0)"/>
<path d="" fill="#926B45" transform="translate(0,0)"/>
<path d="" fill="#956D44" transform="translate(0,0)"/>
<path d="M0 0 C2 1 2 1 2 1 Z " fill="#876541" transform="translate(283,316)"/>
<path d="" fill="#926C44" transform="translate(0,0)"/>
<path d="M0 0 C2 1 2 1 2 1 Z " fill="#8F6C45" transform="translate(563,304)"/>
<path d="" fill="#8E6640" transform="translate(0,0)"/>
<path d="M0 0 C2 1 2 1 2 1 Z " fill="#8F6942" transform="translate(398,287)"/>
<path d="M0 0 C2 1 2 1 2 1 Z " fill="#8F6A43" transform="translate(618,285)"/>
<path d="M0 0 C2 1 2 1 2 1 Z " fill="#8E6741" transform="translate(408,285)"/>
<path d="" fill="#8C663E" transform="translate(0,0)"/>
<path d="" fill="#8F6941" transform="translate(0,0)"/>
<path d="" fill="#906942" transform="translate(0,0)"/>
<path d="" fill="#906843" transform="translate(0,0)"/>
<path d="" fill="#989895" transform="translate(0,0)"/>
<path d="" fill="#9A9896" transform="translate(0,0)"/>
<path d="" fill="#BBBAB6" transform="translate(0,0)"/>
<path d="" fill="#B0ADA9" transform="translate(0,0)"/>
<path d="" fill="#A7A6A3" transform="translate(0,0)"/>
<path d="" fill="#A4A29F" transform="translate(0,0)"/>
<path d="" fill="#A1A09C" transform="translate(0,0)"/>
<path d="" fill="#969693" transform="translate(0,0)"/>
<path d="" fill="#8A673E" transform="translate(0,0)"/>
<path d="" fill="#8E6842" transform="translate(0,0)"/>
<path d="" fill="#8E6A41" transform="translate(0,0)"/>
<path d="" fill="#8D6A42" transform="translate(0,0)"/>
<path d="" fill="#8C6840" transform="translate(0,0)"/>
<path d="" fill="#8C663F" transform="translate(0,0)"/>
<path d="" fill="#916A42" transform="translate(0,0)"/>
<path d="" fill="#8E6841" transform="translate(0,0)"/>
<path d="" fill="#8C673F" transform="translate(0,0)"/>
<path d="" fill="#8F6841" transform="translate(0,0)"/>
<path d="" fill="#8B653F" transform="translate(0,0)"/>
<path d="" fill="#8C6841" transform="translate(0,0)"/>
<path d="" fill="#84623D" transform="translate(0,0)"/>
<path d="" fill="#8C6741" transform="translate(0,0)"/>
<path d="" fill="#8D6643" transform="translate(0,0)"/>
<path d="" fill="#825D38" transform="translate(0,0)"/>
<path d="" fill="#88613A" transform="translate(0,0)"/>
<path d="" fill="#8D6642" transform="translate(0,0)"/>
<path d="" fill="#8A6740" transform="translate(0,0)"/>
<path d="" fill="#8C6743" transform="translate(0,0)"/>
<path d="" fill="#8E6A43" transform="translate(0,0)"/>
<path d="" fill="#8E6840" transform="translate(0,0)"/>
<path d="" fill="#87653E" transform="translate(0,0)"/>
<path d="" fill="#8D673F" transform="translate(0,0)"/>
<path d="" fill="#876740" transform="translate(0,0)"/>
<path d="" fill="#85623D" transform="translate(0,0)"/>
<path d="" fill="#8D6842" transform="translate(0,0)"/>
<path d="" fill="#8E6840" transform="translate(0,0)"/>
<path d="" fill="#876640" transform="translate(0,0)"/>
<path d="" fill="#86633C" transform="translate(0,0)"/>
<path d="" fill="#8D6643" transform="translate(0,0)"/>
<path d="" fill="#8F6841" transform="translate(0,0)"/>
<path d="" fill="#8B6741" transform="translate(0,0)"/>
<path d="" fill="#8C653D" transform="translate(0,0)"/>
<path d="" fill="#8D673F" transform="translate(0,0)"/>
<path d="" fill="#89653D" transform="translate(0,0)"/>
<path d="" fill="#8A663E" transform="translate(0,0)"/>
<path d="" fill="#88643B" transform="translate(0,0)"/>
<path d="" fill="#86633F" transform="translate(0,0)"/>
<path d="" fill="#88653E" transform="translate(0,0)"/>
<path d="" fill="#926D4A" transform="translate(0,0)"/>
<path d="" fill="#86633D" transform="translate(0,0)"/>
<path d="" fill="#886442" transform="translate(0,0)"/>
<path d="" fill="#8A633F" transform="translate(0,0)"/>
<path d="" fill="#8C6943" transform="translate(0,0)"/>
<path d="" fill="#92908E" transform="translate(0,0)"/>
<path d="" fill="#896641" transform="translate(0,0)"/>
<path d="" fill="#896641" transform="translate(0,0)"/>
<path d="" fill="#89653F" transform="translate(0,0)"/>
<path d="" fill="#8C6841" transform="translate(0,0)"/>
<path d="" fill="#8C6943" transform="translate(0,0)"/>
<path d="" fill="#8C6941" transform="translate(0,0)"/>
<path d="" fill="#8A6642" transform="translate(0,0)"/>
<path d="" fill="#8B6642" transform="translate(0,0)"/>
<path d="" fill="#8A6843" transform="translate(0,0)"/>
<path d="" fill="#8C6943" transform="translate(0,0)"/>
<path d="" fill="#906A45" transform="translate(0,0)"/>
<path d="" fill="#8F6945" transform="translate(0,0)"/>
<path d="" fill="#89653D" transform="translate(0,0)"/>
<path d="" fill="#8D6841" transform="translate(0,0)"/>
<path d="" fill="#8D6C44" transform="translate(0,0)"/>
<path d="" fill="#8D6A41" transform="translate(0,0)"/>
<path d="" fill="#8E6B44" transform="translate(0,0)"/>
<path d="" fill="#8B6B43" transform="translate(0,0)"/>
<path d="" fill="#8C6B41" transform="translate(0,0)"/>
<path d="" fill="#926A44" transform="translate(0,0)"/>
<path d="" fill="#906A44" transform="translate(0,0)"/>
<path d="" fill="#926942" transform="translate(0,0)"/>
<path d="" fill="#926C45" transform="translate(0,0)"/>
<path d="" fill="#916B44" transform="translate(0,0)"/>
<path d="" fill="#936946" transform="translate(0,0)"/>
<path d="" fill="#906B44" transform="translate(0,0)"/>
<path d="" fill="#8E6D43" transform="translate(0,0)"/>
<path d="" fill="#916C46" transform="translate(0,0)"/>
<path d="" fill="#946C44" transform="translate(0,0)"/>
<path d="" fill="#8F6B42" transform="translate(0,0)"/>
<path d="" fill="#936F44" transform="translate(0,0)"/>
<path d="" fill="#916D47" transform="translate(0,0)"/>
<path d="" fill="#906A41" transform="translate(0,0)"/>
<path d="" fill="#916B42" transform="translate(0,0)"/>
<path d="" fill="#946D45" transform="translate(0,0)"/>
<path d="" fill="#916A43" transform="translate(0,0)"/>
<path d="" fill="#926C45" transform="translate(0,0)"/>
<path d="" fill="#916C43" transform="translate(0,0)"/>
<path d="" fill="#906C43" transform="translate(0,0)"/>
<path d="" fill="#936C44" transform="translate(0,0)"/>
<path d="" fill="#906A45" transform="translate(0,0)"/>
<path d="" fill="#946C43" transform="translate(0,0)"/>
<path d="" fill="#8B683F" transform="translate(0,0)"/>
<path d="" fill="#916C44" transform="translate(0,0)"/>
<path d="" fill="#956E43" transform="translate(0,0)"/>
<path d="" fill="#8F6B40" transform="translate(0,0)"/>
<path d="" fill="#906B44" transform="translate(0,0)"/>
<path d="" fill="#916C48" transform="translate(0,0)"/>
<path d="" fill="#906B43" transform="translate(0,0)"/>
<path d="" fill="#916C45" transform="translate(0,0)"/>
<path d="" fill="#936D43" transform="translate(0,0)"/>
<path d="" fill="#926C43" transform="translate(0,0)"/>
<path d="" fill="#936D45" transform="translate(0,0)"/>
<path d="" fill="#8F6942" transform="translate(0,0)"/>
<path d="" fill="#8C6744" transform="translate(0,0)"/>
<path d="" fill="#906B41" transform="translate(0,0)"/>
<path d="" fill="#956D45" transform="translate(0,0)"/>
<path d="" fill="#8C6541" transform="translate(0,0)"/>
<path d="" fill="#916A43" transform="translate(0,0)"/>
<path d="" fill="#88663F" transform="translate(0,0)"/>
<path d="" fill="#8F6840" transform="translate(0,0)"/>
<path d="" fill="#8D6A45" transform="translate(0,0)"/>
<path d="" fill="#946D44" transform="translate(0,0)"/>
<path d="" fill="#906C43" transform="translate(0,0)"/>
<path d="" fill="#8E6840" transform="translate(0,0)"/>
<path d="" fill="#946D46" transform="translate(0,0)"/>
<path d="" fill="#906C46" transform="translate(0,0)"/>
<path d="" fill="#926C43" transform="translate(0,0)"/>
<path d="" fill="#896A43" transform="translate(0,0)"/>
<path d="" fill="#926E45" transform="translate(0,0)"/>
<path d="" fill="#946D44" transform="translate(0,0)"/>
<path d="" fill="#926B43" transform="translate(0,0)"/>
<path d="" fill="#936C40" transform="translate(0,0)"/>
<path d="" fill="#946D43" transform="translate(0,0)"/>
<path d="" fill="#916942" transform="translate(0,0)"/>
<path d="" fill="#8F6A42" transform="translate(0,0)"/>
<path d="" fill="#916B46" transform="translate(0,0)"/>
<path d="" fill="#8D6944" transform="translate(0,0)"/>
<path d="" fill="#936D45" transform="translate(0,0)"/>
<path d="" fill="#8E6A42" transform="translate(0,0)"/>
<path d="" fill="#8A6542" transform="translate(0,0)"/>
<path d="" fill="#8B6642" transform="translate(0,0)"/>
<path d="" fill="#8C6842" transform="translate(0,0)"/>
<path d="" fill="#926A46" transform="translate(0,0)"/>
<path d="" fill="#966D44" transform="translate(0,0)"/>
<path d="" fill="#936C44" transform="translate(0,0)"/>
<path d="" fill="#926D44" transform="translate(0,0)"/>
<path d="" fill="#946C43" transform="translate(0,0)"/>
<path d="" fill="#896440" transform="translate(0,0)"/>
<path d="" fill="#946C46" transform="translate(0,0)"/>
<path d="" fill="#906A44" transform="translate(0,0)"/>
<path d="" fill="#926E43" transform="translate(0,0)"/>
<path d="" fill="#92693E" transform="translate(0,0)"/>
<path d="" fill="#8B6641" transform="translate(0,0)"/>
<path d="" fill="#8C6A44" transform="translate(0,0)"/>
<path d="" fill="#926F43" transform="translate(0,0)"/>
<path d="" fill="#946A46" transform="translate(0,0)"/>
<path d="" fill="#906B43" transform="translate(0,0)"/>
<path d="" fill="#946C45" transform="translate(0,0)"/>
<path d="" fill="#87653F" transform="translate(0,0)"/>
<path d="" fill="#906B46" transform="translate(0,0)"/>
<path d="" fill="#946D43" transform="translate(0,0)"/>
<path d="" fill="#936C45" transform="translate(0,0)"/>
<path d="" fill="#876341" transform="translate(0,0)"/>
<path d="" fill="#926C45" transform="translate(0,0)"/>
<path d="" fill="#916A44" transform="translate(0,0)"/>
<path d="" fill="#936C44" transform="translate(0,0)"/>
<path d="" fill="#886643" transform="translate(0,0)"/>
<path d="" fill="#856341" transform="translate(0,0)"/>
<path d="" fill="#8F6A44" transform="translate(0,0)"/>
<path d="" fill="#936A42" transform="translate(0,0)"/>
<path d="" fill="#956D43" transform="translate(0,0)"/>
<path d="" fill="#956C44" transform="translate(0,0)"/>
<path d="" fill="#88643F" transform="translate(0,0)"/>
<path d="" fill="#946B44" transform="translate(0,0)"/>
<path d="" fill="#936D44" transform="translate(0,0)"/>
<path d="" fill="#956A44" transform="translate(0,0)"/>
<path d="" fill="#966F44" transform="translate(0,0)"/>
<path d="" fill="#976D47" transform="translate(0,0)"/>
<path d="" fill="#966C45" transform="translate(0,0)"/>
<path d="" fill="#936C44" transform="translate(0,0)"/>
<path d="" fill="#967145" transform="translate(0,0)"/>
<path d="" fill="#8E6941" transform="translate(0,0)"/>
<path d="" fill="#8F6B45" transform="translate(0,0)"/>
<path d="" fill="#8A6642" transform="translate(0,0)"/>
<path d="" fill="#926B45" transform="translate(0,0)"/>
<path d="" fill="#946F46" transform="translate(0,0)"/>
<path d="" fill="#946F45" transform="translate(0,0)"/>
<path d="" fill="#936E45" transform="translate(0,0)"/>
<path d="" fill="#926D45" transform="translate(0,0)"/>
<path d="" fill="#946C46" transform="translate(0,0)"/>
<path d="" fill="#946E46" transform="translate(0,0)"/>
<path d="" fill="#906D43" transform="translate(0,0)"/>
<path d="" fill="#946D46" transform="translate(0,0)"/>
<path d="" fill="#946D46" transform="translate(0,0)"/>
<path d="" fill="#916C44" transform="translate(0,0)"/>
<path d="" fill="#936D45" transform="translate(0,0)"/>
<path d="" fill="#926841" transform="translate(0,0)"/>
<path d="" fill="#936D45" transform="translate(0,0)"/>
<path d="" fill="#936C42" transform="translate(0,0)"/>
<path d="" fill="#8F6A43" transform="translate(0,0)"/>
<path d="" fill="#936B44" transform="translate(0,0)"/>
<path d="" fill="#8E663E" transform="translate(0,0)"/>
<path d="" fill="#8B6744" transform="translate(0,0)"/>
<path d="" fill="#916E45" transform="translate(0,0)"/>
<path d="" fill="#926C44" transform="translate(0,0)"/>
<path d="" fill="#936C44" transform="translate(0,0)"/>
<path d="" fill="#8A6741" transform="translate(0,0)"/>
<path d="" fill="#8F6942" transform="translate(0,0)"/>
<path d="" fill="#946D43" transform="translate(0,0)"/>
<path d="" fill="#996F46" transform="translate(0,0)"/>
<path d="" fill="#936C44" transform="translate(0,0)"/>
<path d="" fill="#946E45" transform="translate(0,0)"/>
<path d="" fill="#926D44" transform="translate(0,0)"/>
<path d="" fill="#8F6941" transform="translate(0,0)"/>
<path d="" fill="#916A43" transform="translate(0,0)"/>
<path d="" fill="#906743" transform="translate(0,0)"/>
<path d="" fill="#969591" transform="translate(0,0)"/>
<path d="" fill="#8E6741" transform="translate(0,0)"/>
<path d="" fill="#8B6740" transform="translate(0,0)"/>
<path d="" fill="#916C45" transform="translate(0,0)"/>
<path d="" fill="#926D43" transform="translate(0,0)"/>
<path d="" fill="#916741" transform="translate(0,0)"/>
<path d="" fill="#946A43" transform="translate(0,0)"/>
<path d="" fill="#936D44" transform="translate(0,0)"/>
<path d="" fill="#926A42" transform="translate(0,0)"/>
<path d="" fill="#8F6C48" transform="translate(0,0)"/>
<path d="" fill="#916C42" transform="translate(0,0)"/>
<path d="" fill="#916B43" transform="translate(0,0)"/>
<path d="" fill="#946D43" transform="translate(0,0)"/>
<path d="" fill="#8E6A43" transform="translate(0,0)"/>
<path d="" fill="#936B42" transform="translate(0,0)"/>
<path d="" fill="#906B42" transform="translate(0,0)"/>
<path d="" fill="#8A683F" transform="translate(0,0)"/>
<path d="" fill="#936944" transform="translate(0,0)"/>
<path d="" fill="#946A46" transform="translate(0,0)"/>
<path d="" fill="#936C43" transform="translate(0,0)"/>
<path d="" fill="#8D6943" transform="translate(0,0)"/>
<path d="" fill="#876541" transform="translate(0,0)"/>
<path d="" fill="#8A673E" transform="translate(0,0)"/>
<path d="" fill="#8C6942" transform="translate(0,0)"/>
<path d="" fill="#936B44" transform="translate(0,0)"/>
<path d="" fill="#8F6944" transform="translate(0,0)"/>
<path d="" fill="#936C42" transform="translate(0,0)"/>
<path d="" fill="#946D45" transform="translate(0,0)"/>
<path d="" fill="#936D43" transform="translate(0,0)"/>
<path d="" fill="#8B6842" transform="translate(0,0)"/>
<path d="" fill="#8F6A42" transform="translate(0,0)"/>
<path d="" fill="#926E45" transform="translate(0,0)"/>
<path d="" fill="#936942" transform="translate(0,0)"/>
<path d="" fill="#8C663E" transform="translate(0,0)"/>
<path d="" fill="#946D43" transform="translate(0,0)"/>
<path d="" fill="#906740" transform="translate(0,0)"/>
<path d="" fill="#916D44" transform="translate(0,0)"/>
<path d="" fill="#936E43" transform="translate(0,0)"/>
<path d="" fill="#8F6641" transform="translate(0,0)"/>
<path d="" fill="#8F6943" transform="translate(0,0)"/>
<path d="" fill="#8D6741" transform="translate(0,0)"/>
<path d="" fill="#926D44" transform="translate(0,0)"/>
<path d="" fill="#906B42" transform="translate(0,0)"/>
<path d="" fill="#896942" transform="translate(0,0)"/>
<path d="" fill="#966E48" transform="translate(0,0)"/>
<path d="" fill="#8E6842" transform="translate(0,0)"/>
<path d="" fill="#906B45" transform="translate(0,0)"/>
<path d="" fill="#8E6A43" transform="translate(0,0)"/>
<path d="" fill="#916D43" transform="translate(0,0)"/>
<path d="" fill="#8F6943" transform="translate(0,0)"/>
<path d="" fill="#8F6843" transform="translate(0,0)"/>
<path d="" fill="#926B43" transform="translate(0,0)"/>
<path d="" fill="#967046" transform="translate(0,0)"/>
<path d="" fill="#916B43" transform="translate(0,0)"/>
<path d="" fill="#966D43" transform="translate(0,0)"/>
<path d="" fill="#906942" transform="translate(0,0)"/>
<path d="" fill="#8F6C43" transform="translate(0,0)"/>
<path d="" fill="#946E45" transform="translate(0,0)"/>
<path d="" fill="#906B47" transform="translate(0,0)"/>
<path d="" fill="#86633E" transform="translate(0,0)"/>
<path d="" fill="#8D6742" transform="translate(0,0)"/>
<path d="" fill="#8F6742" transform="translate(0,0)"/>
<path d="" fill="#916C43" transform="translate(0,0)"/>
<path d="" fill="#946C43" transform="translate(0,0)"/>
<path d="" fill="#8D6741" transform="translate(0,0)"/>
<path d="" fill="#966D45" transform="translate(0,0)"/>
<path d="" fill="#926B46" transform="translate(0,0)"/>
<path d="" fill="#916B41" transform="translate(0,0)"/>
<path d="" fill="#8D6845" transform="translate(0,0)"/>
<path d="" fill="#8D6844" transform="translate(0,0)"/>
<path d="" fill="#8A6744" transform="translate(0,0)"/>
<path d="" fill="#8B6943" transform="translate(0,0)"/>
<path d="" fill="#896442" transform="translate(0,0)"/>
<path d="" fill="#916B42" transform="translate(0,0)"/>
<path d="" fill="#8A6643" transform="translate(0,0)"/>
<path d="" fill="#8F6845" transform="translate(0,0)"/>
<path d="" fill="#82613E" transform="translate(0,0)"/>
<path d="" fill="#956E45" transform="translate(0,0)"/>
<path d="" fill="#83603C" transform="translate(0,0)"/>
<path d="" fill="#8D6842" transform="translate(0,0)"/>
<path d="" fill="#896540" transform="translate(0,0)"/>
<path d="" fill="#8F6C44" transform="translate(0,0)"/>
<path d="" fill="#906C44" transform="translate(0,0)"/>
<path d="" fill="#926D45" transform="translate(0,0)"/>
<path d="" fill="#8D6741" transform="translate(0,0)"/>
<path d="" fill="#8A6641" transform="translate(0,0)"/>
<path d="" fill="#906D46" transform="translate(0,0)"/>
<path d="" fill="#926B44" transform="translate(0,0)"/>
<path d="" fill="#8D6641" transform="translate(0,0)"/>
<path d="" fill="#926B44" transform="translate(0,0)"/>
<path d="" fill="#959290" transform="translate(0,0)"/>
<path d="" fill="#876542" transform="translate(0,0)"/>
<path d="" fill="#926A43" transform="translate(0,0)"/>
<path d="" fill="#8A6640" transform="translate(0,0)"/>
<path d="" fill="#947047" transform="translate(0,0)"/>
<path d="" fill="#926B47" transform="translate(0,0)"/>
<path d="" fill="#949490" transform="translate(0,0)"/>
<path d="" fill="#926C42" transform="translate(0,0)"/>
<path d="" fill="#8C6441" transform="translate(0,0)"/>
<path d="" fill="#926A45" transform="translate(0,0)"/>
<path d="" fill="#89653C" transform="translate(0,0)"/>
<path d="" fill="#8C6944" transform="translate(0,0)"/>
<path d="" fill="#906A43" transform="translate(0,0)"/>
<path d="" fill="#886843" transform="translate(0,0)"/>
<path d="" fill="#906941" transform="translate(0,0)"/>
<path d="" fill="#8B6840" transform="translate(0,0)"/>
<path d="" fill="#926B46" transform="translate(0,0)"/>
<path d="" fill="#956D44" transform="translate(0,0)"/>
<path d="" fill="#8A663F" transform="translate(0,0)"/>
<path d="" fill="#87653F" transform="translate(0,0)"/>
<path d="" fill="#8F6A45" transform="translate(0,0)"/>
<path d="" fill="#936D44" transform="translate(0,0)"/>
<path d="" fill="#85653D" transform="translate(0,0)"/>
<path d="" fill="#8E6842" transform="translate(0,0)"/>
<path d="" fill="#896541" transform="translate(0,0)"/>
<path d="" fill="#8F683F" transform="translate(0,0)"/>
<path d="" fill="#906B42" transform="translate(0,0)"/>
<path d="" fill="#906A42" transform="translate(0,0)"/>
<path d="" fill="#936C45" transform="translate(0,0)"/>
<path d="" fill="#87633F" transform="translate(0,0)"/>
<path d="" fill="#946D44" transform="translate(0,0)"/>
<path d="" fill="#896742" transform="translate(0,0)"/>
<path d="" fill="#916940" transform="translate(0,0)"/>
<path d="" fill="#906A42" transform="translate(0,0)"/>
<path d="" fill="#916B42" transform="translate(0,0)"/>
<path d="" fill="#8F6945" transform="translate(0,0)"/>
<path d="" fill="#876643" transform="translate(0,0)"/>
<path d="" fill="#8C673D" transform="translate(0,0)"/>
<path d="" fill="#8E673F" transform="translate(0,0)"/>
<path d="" fill="#846842" transform="translate(0,0)"/>
<path d="" fill="#8C673E" transform="translate(0,0)"/>
<path d="" fill="#8E6945" transform="translate(0,0)"/>
<path d="" fill="#8D653F" transform="translate(0,0)"/>
<path d="" fill="#8F6942" transform="translate(0,0)"/>
<path d="" fill="#906842" transform="translate(0,0)"/>
<path d="" fill="#8E6741" transform="translate(0,0)"/>
<path d="" fill="#906B44" transform="translate(0,0)"/>
<path d="" fill="#946C45" transform="translate(0,0)"/>
<path d="" fill="#937045" transform="translate(0,0)"/>
<path d="" fill="#8E643F" transform="translate(0,0)"/>
<path d="" fill="#906E44" transform="translate(0,0)"/>
<path d="" fill="#8E6A42" transform="translate(0,0)"/>
<path d="" fill="#906940" transform="translate(0,0)"/>
<path d="" fill="#916C44" transform="translate(0,0)"/>
<path d="" fill="#926E44" transform="translate(0,0)"/>
<path d="" fill="#916D46" transform="translate(0,0)"/>
<path d="" fill="#8D643C" transform="translate(0,0)"/>
<path d="" fill="#916D43" transform="translate(0,0)"/>
<path d="" fill="#916942" transform="translate(0,0)"/>
<path d="" fill="#916A45" transform="translate(0,0)"/>
<path d="" fill="#936C44" transform="translate(0,0)"/>
<path d="" fill="#949290" transform="translate(0,0)"/>
<path d="" fill="#949491" transform="translate(0,0)"/>
<path d="" fill="#8F6643" transform="translate(0,0)"/>
<path d="" fill="#906943" transform="translate(0,0)"/>
<path d="" fill="#946C44" transform="translate(0,0)"/>
<path d="" fill="#8C663E" transform="translate(0,0)"/>
<path d="" fill="#969391" transform="translate(0,0)"/>
<path d="" fill="#8D6740" transform="translate(0,0)"/>
<path d="" fill="#8C663F" transform="translate(0,0)"/>
<path d="" fill="#906B42" transform="translate(0,0)"/>
<path d="" fill="#906A43" transform="translate(0,0)"/>
<path d="" fill="#8C6843" transform="translate(0,0)"/>
<path d="" fill="#906844" transform="translate(0,0)"/>
<path d="" fill="#906943" transform="translate(0,0)"/>
<path d="" fill="#936C42" transform="translate(0,0)"/>
<path d="" fill="#8D6840" transform="translate(0,0)"/>
<path d="" fill="#8D683F" transform="translate(0,0)"/>
<path d="" fill="#8D6742" transform="translate(0,0)"/>
<path d="" fill="#8F6840" transform="translate(0,0)"/>
<path d="" fill="#8E6A42" transform="translate(0,0)"/>
<path d="" fill="#8E6843" transform="translate(0,0)"/>
<path d="" fill="#8B6743" transform="translate(0,0)"/>
<path d="" fill="#969392" transform="translate(0,0)"/>
<path d="" fill="#8A6843" transform="translate(0,0)"/>
<path d="" fill="#886543" transform="translate(0,0)"/>
<path d="" fill="#8C683F" transform="translate(0,0)"/>
<path d="" fill="#8B6941" transform="translate(0,0)"/>
<path d="" fill="#8B6741" transform="translate(0,0)"/>
<path d="" fill="#8D6A45" transform="translate(0,0)"/>
<path d="" fill="#8D6943" transform="translate(0,0)"/>
<path d="" fill="#89613D" transform="translate(0,0)"/>
<path d="" fill="#8E6841" transform="translate(0,0)"/>
<path d="" fill="#989594" transform="translate(0,0)"/>
<path d="" fill="#8D6842" transform="translate(0,0)"/>
<path d="" fill="#8C6946" transform="translate(0,0)"/>
<path d="" fill="#896642" transform="translate(0,0)"/>
<path d="" fill="#8A6541" transform="translate(0,0)"/>
<path d="" fill="#989795" transform="translate(0,0)"/>
<path d="" fill="#886644" transform="translate(0,0)"/>
<path d="" fill="#8A6A46" transform="translate(0,0)"/>
<path d="" fill="#989795" transform="translate(0,0)"/>
<path d="" fill="#9B9A97" transform="translate(0,0)"/>
<path d="" fill="#9C9A98" transform="translate(0,0)"/>
<path d="" fill="#9F9E9B" transform="translate(0,0)"/>
<path d="" fill="#9F9E9C" transform="translate(0,0)"/>
<path d="" fill="#A3A19F" transform="translate(0,0)"/>
<path d="" fill="#A7A6A3" transform="translate(0,0)"/>
<path d="" fill="#A7A6A3" transform="translate(0,0)"/>
<path d="" fill="#A9A7A5" transform="translate(0,0)"/>
<path d="" fill="#ACAAA7" transform="translate(0,0)"/>
<path d="" fill="#AFACAA" transform="translate(0,0)"/>
<path d="" fill="#AFACAB" transform="translate(0,0)"/>
<path d="" fill="#B0B0AD" transform="translate(0,0)"/>
<path d="" fill="#B1B1AD" transform="translate(0,0)"/>
<path d="" fill="#B5B3B1" transform="translate(0,0)"/>
<path d="" fill="#C0BFBB" transform="translate(0,0)"/>
<path d="" fill="#C1BEBC" transform="translate(0,0)"/>
<path d="" fill="#C2C0BC" transform="translate(0,0)"/>
<path d="" fill="#B9B6B3" transform="translate(0,0)"/>
<path d="" fill="#B4B3AD" transform="translate(0,0)"/>
<path d="" fill="#A9A59F" transform="translate(0,0)"/>
<path d="" fill="#A9A49D" transform="translate(0,0)"/>
<path d="" fill="#A9A29A" transform="translate(0,0)"/>
<path d="" fill="#C3BEBA" transform="translate(0,0)"/>
</svg>
