<?xml version="1.0" encoding="UTF-8"?>
<svg version="1.1" xmlns="http://www.w3.org/2000/svg" width="1024" height="1024">
<path d="M0 0 C4.72022075 3.47891702 6.91121994 7.20073885 9.25 12.5 C9.78109375 13.69109375 10.3121875 14.8821875 10.859375 16.109375 C12.06868982 18.84772805 13.2588112 21.59376483 14.44140625 24.34375 C16.33976634 28.73845867 18.35596101 33.07377138 20.40258789 37.40136719 C22.26217102 41.34684559 24.067453 45.31311589 25.84375 49.296875 C26.29322998 50.30089355 26.74270996 51.30491211 27.20581055 52.33935547 C28.1005046 54.34126763 28.99011141 56.34546223 29.87426758 58.35205078 C30.28314209 59.2645459 30.6920166 60.17704102 31.11328125 61.1171875 C31.47719971 61.93815918 31.84111816 62.75913086 32.21606445 63.60498047 C33.10669135 65.66624907 33.10669135 65.66624907 35.25 66.5 C35.38349854 67.17748291 35.51699707 67.85496582 35.65454102 68.55297852 C36.45946484 72.5366749 38.09747026 75.96640653 39.77734375 79.65234375 C40.12632217 80.43009659 40.4753006 81.20784943 40.83485413 82.00917053 C41.94755122 84.48749773 43.06700782 86.96268846 44.1875 89.4375 C45.30362824 91.90908176 46.41821012 94.38132704 47.5294342 96.8551178 C48.21978319 98.39134918 48.91302626 99.92628437 49.60960388 101.45970154 C51.02841052 104.61177619 52.29966368 107.65547224 53.35375977 110.95532227 C53.97162534 113.6504241 53.97162534 113.6504241 56.25 114.5 C56.95599365 116.25631714 56.95599365 116.25631714 57.61621094 118.51123047 C59.14126326 123.3475625 61.15885129 127.77537241 63.390625 132.3203125 C67.76455819 141.39304907 71.8621546 150.56678132 75.88027954 159.80166626 C77.81898432 164.25718405 79.76702093 168.70861873 81.71484375 173.16015625 C82.10073166 174.0425145 82.48661957 174.92487274 82.88420105 175.83396912 C86.8933294 184.99008725 90.98230231 194.10972317 95.10253906 203.21630859 C95.81941895 204.80499756 95.81941895 204.80499756 96.55078125 206.42578125 C97.00533691 207.42947754 97.45989258 208.43317383 97.92822266 209.46728516 C99.71514747 213.56724454 101.30763893 217.73931311 102.86791992 221.93041992 C104.60343613 225.15711276 106.17824419 226.48326945 109.25 228.5 C112.05850719 229.12182175 114.59466889 229.52918668 117.43505859 229.79760742 C118.65657057 229.93382098 118.65657057 229.93382098 119.90275955 230.07278633 C122.60818179 230.37056001 125.31549138 230.6441801 128.0234375 230.91796875 C129.94681519 231.12498723 131.87002048 231.33361307 133.7930603 231.54374695 C137.86191309 231.98571846 141.93163795 232.41791849 146.00231934 232.8427124 C152.12174756 233.48291594 158.23739698 234.15468869 164.35253906 234.83447266 C174.4775467 235.95788045 184.60486032 237.05857979 194.73339844 238.1496582 C199.94332062 238.71105653 205.15254535 239.27869345 210.3616581 239.84754658 C214.44660089 240.29258053 218.53199841 240.73332303 222.61753464 241.17287254 C224.54170127 241.38060594 226.46570036 241.58989805 228.38951492 241.80086708 C231.05038753 242.09224993 233.71184857 242.3775393 236.37353516 242.66137695 C237.14324142 242.74702911 237.91294769 242.83268127 238.70597839 242.92092896 C243.91244184 243.46744679 249.0145676 243.56955495 254.25 243.5 C254.25 243.83 254.25 244.16 254.25 244.5 C255.46220718 244.631147 256.67441437 244.76229401 257.9233551 244.89741516 C269.35689622 246.13585027 280.78911785 247.38588281 292.22015476 248.64722919 C298.09675545 249.29530087 303.97374238 249.93930346 309.85180664 250.57397461 C315.52629889 251.18681763 321.19951899 251.81039101 326.87202263 252.4413662 C329.03448714 252.68000607 331.19737956 252.9148013 333.36068916 253.14565468 C336.39476404 253.47009986 339.4270183 253.80828344 342.45922852 254.1496582 C343.79603668 254.28776665 343.79603668 254.28776665 345.15985107 254.42866516 C353.62622403 255.40986479 360.42270024 258.0653886 366.25 264.5 C370.02570264 270.21488526 371.72980213 275.52522678 370.625 282.375 C368.1573739 290.89805068 362.94914875 296.02937853 356.25 301.5 C353.96996924 303.42677647 351.70382251 305.36963242 349.4375 307.3125 C348.83196289 307.82949463 348.22642578 308.34648926 347.60253906 308.87915039 C343.85999052 312.08369509 340.18937197 315.35160916 336.5625 318.6875 C333.08863691 321.87736844 329.55089975 324.92048894 325.875 327.875 C321.67185845 331.26385771 317.68794843 334.81237436 313.75 338.5 C308.97026988 342.97589795 304.0483447 347.17785841 298.94140625 351.28125 C295.10166921 354.44666457 291.4535599 357.80673091 287.7890625 361.171875 C283.27743881 365.30868687 278.65014509 369.30610823 273.99609375 373.28125 C272.78902687 374.3124583 271.58199663 375.34370948 270.375 376.375 C269.76640137 376.89473389 269.15780273 377.41446777 268.53076172 377.94995117 C264.99357043 380.97905595 261.50598946 384.05156303 258.0625 387.1875 C254.72772886 390.21712868 251.31712361 393.10608092 247.8125 395.9375 C243.03283262 399.80291314 238.50494907 403.88386047 233.984375 408.046875 C231.38692058 410.37716268 228.72594286 412.57247168 226 414.75 C221.38115665 418.47146807 217.05611912 422.42763854 212.75 426.5 C208.40041361 430.61299343 204.02864989 434.60775961 199.375 438.375 C198.08335937 439.42300781 198.08335937 439.42300781 196.765625 440.4921875 C195.06296775 441.85114065 193.34350548 443.18925767 191.609375 444.5078125 C190.37960937 445.49394531 190.37960937 445.49394531 189.125 446.5 C188.40054688 447.056875 187.67609375 447.61375 186.9296875 448.1875 C183.66724683 452.67904622 184.01199023 457.74392139 184.72885132 463.03305054 C185.49052413 467.32892592 186.41043521 471.59076776 187.328125 475.85546875 C187.65985847 477.44549756 187.99038255 479.03577912 188.31976318 480.626297 C189.18767163 484.80080744 190.07201215 488.97166779 190.9598999 493.14196777 C191.85184915 497.34579141 192.72792117 501.55291674 193.60546875 505.75976562 C196.2392842 518.36398405 198.91206483 530.95970258 201.62298584 543.54756165 C202.18520817 546.19491296 202.72026729 548.84601039 203.25 551.5 C203.71367792 553.71342619 204.1802075 555.92625584 204.64868164 558.13867188 C204.9317772 559.47691811 205.21482026 560.81517546 205.49781799 562.15344238 C205.64653414 562.85651016 205.79525028 563.55957794 205.94847298 564.28395081 C206.90453864 568.8082895 207.85618291 573.33356053 208.80825138 577.85874176 C209.64410814 581.83036385 210.48180587 585.80158033 211.32348633 589.77197266 C212.13950915 593.62177071 212.95062162 597.4725739 213.75839043 601.32411194 C214.06641398 602.78846807 214.37620775 604.25245303 214.68782234 605.71604919 C215.12346152 607.7635238 215.55279828 609.81222728 215.98071289 611.86132812 C216.22640518 613.02539185 216.47209747 614.18945557 216.72523499 615.38879395 C217.19475202 618.17244799 217.35704537 620.68647127 217.25 623.5 C217.91 623.83 218.57 624.16 219.25 624.5 C219.68725586 626.73291016 219.68725586 626.73291016 220.02734375 629.9140625 C220.94794099 637.01426995 222.31747505 643.96106751 223.81640625 650.9609375 C224.05636322 652.08332825 224.29632019 653.20571899 224.54354858 654.36212158 C225.29633744 657.8671856 226.05381983 661.37120678 226.8125 664.875 C227.57575731 668.40726698 228.33754392 671.93982416 229.09519958 675.47329712 C229.5637152 677.65776045 230.03542778 679.84154144 230.51087952 682.02450562 C234.60550517 701.09506614 234.60550517 701.09506614 230.09375 709.70703125 C226.51792061 715.06084248 222.51616911 717.98263169 216.25 719.5 C206.32759959 720.93365481 200.66921613 718.46889894 192.25 713.5 C191.26435059 712.93087891 190.27870117 712.36175781 189.26318359 711.77539062 C186.20967483 710.00853086 183.16621612 708.22542514 180.125 706.4375 C173.88056018 702.77056916 167.62978451 699.13079696 161.28857422 695.63354492 C158.11919033 693.87121565 154.99627676 692.03332208 151.875 690.1875 C150.82517944 689.56887085 150.82517944 689.56887085 149.75415039 688.93774414 C145.06555505 686.17206387 140.38543299 683.39225814 135.70703125 680.609375 C120.32573088 671.45145993 120.32573088 671.45145993 104.77026367 662.59399414 C99.97218331 659.92311623 95.22942478 657.16552781 90.5 654.375 C89.79133789 653.95694092 89.08267578 653.53888184 88.35253906 653.1081543 C85.69572914 651.53915011 83.04003926 649.96827104 80.38574219 648.39501953 C78.71694182 647.40673218 77.04603626 646.42200209 75.375 645.4375 C74.44945312 644.88964844 73.52390625 644.34179688 72.5703125 643.77734375 C70.2070838 642.38542472 70.2070838 642.38542472 67.25 641.5 C66.528125 640.901875 65.80625 640.30375 65.0625 639.6875 C62.13566421 637.41107216 59.27819648 635.95643524 55.921875 634.4296875 C54.25 633.5 54.25 633.5 53.25 631.5 C51.59613977 630.80216868 49.92689827 630.14049545 48.25 629.5 C46.60095829 628.6098645 44.97004874 627.68559066 43.35546875 626.734375 C42.41147217 626.18072266 41.46747559 625.62707031 40.49487305 625.05664062 C39.48593994 624.46044922 38.47700684 623.86425781 37.4375 623.25 C35.28127353 621.98433491 33.12502282 620.71871113 30.96875 619.453125 C29.30779297 618.47569336 29.30779297 618.47569336 27.61328125 617.47851562 C22.22674278 614.30977958 16.83284246 611.15371476 11.4375 608 C10.47932373 607.43764648 9.52114746 606.87529297 8.53393555 606.29589844 C6.69100477 605.2180335 4.84432899 604.14654178 2.99365234 603.08203125 C1.10382475 601.99232821 -0.77557818 600.88441101 -2.64599609 599.76171875 C-9.73071154 595.49345488 -9.73071154 595.49345488 -17.75 595.5 C-21.4681279 597.2039461 -24.89908616 599.28887871 -28.375 601.4375 C-30.52707711 602.73091251 -32.67943306 604.02386115 -34.83203125 605.31640625 C-35.97230876 606.0077431 -37.11244351 606.69931546 -38.25244141 607.39111328 C-43.5439365 610.59291907 -48.89414542 613.69459912 -54.23699951 616.80960083 C-64.26684473 622.66322225 -74.26347112 628.57285699 -84.25 634.5 C-93.73528379 640.12946602 -103.23437514 645.73450336 -112.75 651.3125 C-113.36479218 651.67290375 -113.97958435 652.0333075 -114.61300659 652.40463257 C-121.99833857 656.7325151 -129.39644585 661.03742772 -136.8125 665.3125 C-145.72875354 670.45375437 -154.55654042 675.73942242 -163.36376953 681.06494141 C-165.06865206 682.09024318 -166.77854359 683.10723455 -168.49169922 684.11865234 C-169.39033691 684.65055176 -170.28897461 685.18245117 -171.21484375 685.73046875 C-172.44448853 686.45399536 -172.44448853 686.45399536 -173.69897461 687.19213867 C-175.86079538 688.46677628 -175.86079538 688.46677628 -177.75 690.5 C-179.4107505 691.18127086 -181.07827362 691.84612453 -182.75 692.5 C-184.3825714 693.38693225 -185.99676575 694.30829708 -187.59375 695.2578125 C-188.50479492 695.79768799 -189.41583984 696.33756348 -190.35449219 696.89379883 C-191.31000977 697.46509521 -192.26552734 698.0363916 -193.25 698.625 C-194.71808105 699.49644653 -194.71808105 699.49644653 -196.21582031 700.38549805 C-202.69369137 704.24022723 -209.12045642 708.16710912 -215.484375 712.20703125 C-217.75 713.5 -217.75 713.5 -219.75 713.5 C-220.08 714.16 -220.41 714.82 -220.75 715.5 C-222.859375 716.53515625 -222.859375 716.53515625 -225.5 717.5625 C-226.36109375 717.90410156 -227.2221875 718.24570312 -228.109375 718.59765625 C-235.02662861 720.96139232 -240.21182842 720.47204183 -246.8984375 717.56640625 C-252.51239832 714.45829384 -256.20546765 710.39105869 -258.75 704.5 C-260.41683157 693.22782736 -257.07443099 681.61257446 -254.76171875 670.65625 C-254.34244433 668.62342858 -253.92430746 666.59037225 -253.50723267 664.55709839 C-252.39530218 659.15220067 -251.26783282 653.75065779 -250.13711929 648.34966278 C-248.96214523 642.72407907 -247.80149927 637.09554071 -246.6394043 631.46728516 C-244.6075517 621.63600791 -242.56431257 611.80714582 -240.51538754 601.97941399 C-238.85393689 594.00716484 -237.20748859 586.03195544 -235.5703125 578.0546875 C-231.76603527 559.55104891 -227.8784898 541.06675215 -223.9069767 522.59831238 C-223.31346322 519.8365134 -222.72099738 517.07449198 -222.12895203 514.31237793 C-221.93297078 513.39806629 -221.73698954 512.48375465 -221.53506947 511.5417366 C-221.13806653 509.689391 -220.74112388 507.83703247 -220.34424114 505.9846611 C-219.17136768 500.51415993 -217.99060886 495.04543568 -216.80386543 489.57792759 C-216.06520511 486.16703489 -215.33329834 482.75471712 -214.6030426 479.34201622 C-214.25952184 477.74375808 -213.91313074 476.14611379 -213.56367493 474.54914284 C-213.08018392 472.33794736 -212.60696198 470.12477855 -212.13598633 467.91088867 C-211.86716141 466.66732101 -211.59833649 465.42375336 -211.32136536 464.14250183 C-210.43533344 458.49397444 -209.74029454 452.61649928 -212.75 447.5 C-213.62011719 447.08041016 -213.62011719 447.08041016 -214.5078125 446.65234375 C-217.41401522 445.15873782 -219.48537175 443.15949761 -221.875 440.9375 C-225.06507509 437.86280814 -225.06507509 437.86280814 -228.75 435.5 C-228.75 434.84 -228.75 434.18 -228.75 433.5 C-229.31589844 433.25378906 -229.88179687 433.00757813 -230.46484375 432.75390625 C-233.14248258 431.28463776 -235.08043612 429.52247565 -237.3125 427.4375 C-240.83042208 424.20801662 -244.40182375 421.11539482 -248.125 418.125 C-252.67700307 414.44492991 -256.98252248 410.57477116 -261.26464844 406.59082031 C-265.3953493 402.77025621 -269.70823845 399.21800211 -274.08984375 395.6875 C-277.63926792 392.7687371 -281.0341502 389.69635561 -284.43359375 386.60546875 C-293.56179974 378.30849905 -303.02862125 370.3780115 -312.4140625 362.375 C-317.64316218 357.91132439 -322.85185707 353.44019404 -327.9375 348.8125 C-333.91502328 343.38735511 -340.13633065 338.23399327 -346.57421875 333.36328125 C-347.29222656 332.74839844 -348.01023437 332.13351562 -348.75 331.5 C-348.75 330.84 -348.75 330.18 -348.75 329.5 C-349.30558594 329.26410156 -349.86117187 329.02820313 -350.43359375 328.78515625 C-353.31375591 327.1872248 -355.41369076 325.194995 -357.8125 322.9375 C-361.52478591 319.48537429 -365.29816138 316.18074816 -369.25 313 C-374.10635037 309.08157137 -378.72029535 304.9504966 -383.3046875 300.71875 C-385.22191527 298.97915675 -387.15254232 297.34524321 -389.1875 295.75 C-393.99924934 291.52504936 -396.39262709 287.27292057 -396.98828125 280.984375 C-397.18948781 273.57150182 -396.23683256 268.38406665 -391.20703125 262.78125 C-383.8265888 255.89058519 -375.11250237 254.90637518 -365.4375 253.875 C-363.29527992 253.63541798 -361.15333643 253.39334592 -359.01171875 253.1484375 C-358.07287842 253.04708496 -357.13403809 252.94573242 -356.16674805 252.84130859 C-353.61404562 252.55493628 -353.61404562 252.55493628 -350.75 251.5 C-348.432852 251.31700428 -346.11205908 251.17913839 -343.79052734 251.06445312 C-334.189907 250.53229737 -324.65777788 249.51340946 -315.1015625 248.46875 C-313.26836312 248.2705885 -311.43514123 248.0726351 -309.60189819 247.87487793 C-305.79813963 247.46371091 -301.99467544 247.04994585 -298.19140625 246.63427734 C-293.31176999 246.10120438 -288.43142082 245.57499569 -283.55083656 245.05068207 C-279.78286646 244.64511518 -276.01529899 244.23590502 -272.2478447 243.82557678 C-270.44658231 243.62985792 -268.64519313 243.4353023 -266.84367752 243.2419281 C-264.34279029 242.97295315 -261.84249006 242.6990634 -259.34228516 242.42382812 C-258.59850113 242.3448378 -257.8547171 242.26584747 -257.08839417 242.1844635 C-253.2971031 241.79727437 -253.2971031 241.79727437 -249.75 240.5 C-247.26716454 240.3117706 -244.79900349 240.17129844 -242.3125 240.0625 C-234.98337792 239.69651817 -227.72170651 239.03280403 -220.43579102 238.16040039 C-215.17317933 237.55636298 -210.04817792 237.42115807 -204.75 237.5 C-204.75 236.84 -204.75 236.18 -204.75 235.5 C-203.23164551 235.43413696 -203.23164551 235.43413696 -201.68261719 235.36694336 C-189.4816071 234.78865004 -177.36016783 233.6729776 -165.21386719 232.39819336 C-161.96367734 232.05870604 -158.71240991 231.73124562 -155.4609375 231.40429688 C-153.3749252 231.1882209 -151.28898474 230.97144997 -149.203125 230.75390625 C-147.75936493 230.61004234 -147.75936493 230.61004234 -146.28643799 230.46327209 C-138.22981249 229.69700105 -138.22981249 229.69700105 -131.0390625 226.25390625 C-129.24353441 223.81089984 -128.23997815 221.25230679 -127.125 218.4375 C-125.70530043 214.88825106 -124.24873046 211.47970549 -122.515625 208.07519531 C-119.04729464 201.2167508 -115.80939672 194.29924974 -112.75 187.25 C-111.80603673 185.087219 -110.86202362 182.92445976 -109.91796875 180.76171875 C-109.41571777 179.60849121 -108.9134668 178.45526367 -108.39599609 177.26708984 C-106.9095229 173.85948958 -105.41017329 170.45766161 -103.90823364 167.05685425 C-102.60984475 164.1165739 -101.31442284 161.17499087 -100.01928711 158.23327637 C-99.38242352 156.78834843 -98.7444059 155.34392858 -98.10522461 153.90002441 C-97.20864185 151.87364441 -96.31669127 149.84528538 -95.42578125 147.81640625 C-94.90927002 146.64537354 -94.39275879 145.47434082 -93.8605957 144.26782227 C-92.62586914 141.68769575 -92.62586914 141.68769575 -92.75 139.5 C-92.09 139.5 -91.43 139.5 -90.75 139.5 C-90.39164062 138.32050781 -90.03328125 137.14101563 -89.6640625 135.92578125 C-87.33955446 128.96177265 -84.18063839 122.35207263 -81.125 115.6875 C-80.48643031 114.28585742 -79.84833282 112.88399961 -79.21069336 111.48193359 C-77.95433646 108.72033759 -76.69602815 105.95964583 -75.43603516 103.19970703 C-73.37568995 98.68337424 -71.34219519 94.15517306 -69.3125 89.625 C-63.85622069 77.48274838 -58.34059995 65.36735899 -52.82139587 53.25361633 C-50.70465514 48.60506316 -48.59747256 43.95228876 -46.49617004 39.29673767 C-45.05773014 36.11202349 -43.6147002 32.92940105 -42.17092896 29.74710083 C-41.48131514 28.22430844 -40.7936669 26.70062417 -40.10812378 25.17599487 C-29.68496265 2.00332344 -29.68496265 2.00332344 -21.52734375 -1.4375 C-13.60755167 -4.17943729 -7.31461737 -4.34040931 0 0 Z " fill="#D79F48" transform="translate(524.75,156.5)"/>
<path d="M0 0 C337.92 0 675.84 0 1024 0 C1023.67 1.32 1023.34 2.64 1023 4 C1023 3.01 1023 2.02 1023 1 C685.74 1 348.48 1 1 1 C1 338.26 1 675.52 1 1023 C338.59 1023 676.18 1023 1024 1023 C1024 1023.33 1024 1023.66 1024 1024 C686.08 1024 348.16 1024 0 1024 C0 686.08 0 348.16 0 0 Z " fill="#A6A099" transform="translate(0,0)"/>
<path d="M0 0 C3.62846483 1.37541086 6.98035704 2.99773327 10.375 4.875 C11.81166016 5.66583984 11.81166016 5.66583984 13.27734375 6.47265625 C15.51402106 7.72737767 17.7285657 9.01003982 19.9375 10.3125 C22.7731727 12.04520289 22.7731727 12.04520289 25.25 12.5625 C27.56395465 13.14098866 28.43550007 14.23143486 30 16 C30.556875 16.556875 31.11375 17.11375 31.6875 17.6875 C32.120625 18.120625 32.55375 18.55375 33 19 C26.63033243 17.53810908 21.4138754 14.70456108 15.75 11.5 C14.40421875 10.75169922 14.40421875 10.75169922 13.03125 9.98828125 C9.61076936 8.07834221 6.26115969 6.17410646 3 4 C3 3.34 3 2.68 3 2 C2.01 1.67 1.02 1.34 0 1 C0 0.67 0 0.34 0 0 Z " fill="#D4983D" transform="translate(690,852)"/>
<path d="M0 0 C4.29185941 0.14047235 8.58343361 0.28836362 12.875 0.4375 C14.68097656 0.49647461 14.68097656 0.49647461 16.5234375 0.55664062 C36.0217836 1.24544089 36.0217836 1.24544089 43 4 C43 4.33 43 4.66 43 5 C33.42736068 5.32773658 24.20142561 4.30970697 14.75 3 C13.31129455 2.80657152 11.87249269 2.61385879 10.43359375 2.421875 C6.95458206 1.95613782 3.47696381 1.48081589 0 1 C0 0.67 0 0.34 0 0 Z " fill="#D59738" transform="translate(660,390)"/>
<path d="M0 0 C5.7319564 -0.58489351 9.86294357 -0.41367588 14.43359375 3.30859375 C17.35899487 6.46744334 19.18674476 10.12654814 21 14 C21.680625 15.3921875 21.680625 15.3921875 22.375 16.8125 C23.09343169 19.3270109 22.71303446 20.53538088 22 23 C21.45730469 21.92878906 20.91460938 20.85757813 20.35546875 19.75390625 C19.63332282 18.35650699 18.91063855 16.95938585 18.1875 15.5625 C17.65286133 14.50192383 17.65286133 14.50192383 17.10742188 13.41992188 C15.05386325 9.13405721 15.05386325 9.13405721 11 7 C10.67 6.01 10.34 5.02 10 4 C7.67108904 2.97299556 7.67108904 2.97299556 4.9375 2.3125 C4.01839844 2.06113281 3.09929688 1.80976563 2.15234375 1.55078125 C1.44207031 1.36902344 0.73179687 1.18726563 0 1 C0 0.67 0 0.34 0 0 Z " fill="#D39840" transform="translate(513,155)"/>
<path d="M0 0 C2.02067403 3.50775016 2.75754857 6.98860214 3.5625 10.9375 C3.81128906 12.14277344 4.06007813 13.34804688 4.31640625 14.58984375 C4.7114554 16.56057464 5.10451721 18.53171056 5.4921875 20.50390625 C5.89124704 22.46543738 6.31751944 24.42143417 6.75390625 26.375 C7.02074219 27.57125 7.28757812 28.7675 7.5625 30 C7.83191406 31.19625 8.10132813 32.3925 8.37890625 33.625 C8.91316727 36.52815424 9.12791634 39.06348575 9 42 C8.71125 41.401875 8.4225 40.80375 8.125 40.1875 C6.95257974 37.80672208 6.95257974 37.80672208 5 35 C3.44983886 28.91080492 2.83123075 22.66307525 2.28515625 16.41796875 C1.90647046 13.20692079 1.16194026 10.12516152 0.41015625 6.984375 C-0.07754559 4.62482704 -0.15495913 2.40186658 0 0 Z " fill="#DCAA5D" transform="translate(722,685)"/>
<path d="M0 0 C4.6883436 1.6981402 8.91856856 4.06162223 13.25 6.5 C13.9821875 6.90347656 14.714375 7.30695312 15.46875 7.72265625 C16.16484375 8.11324219 16.8609375 8.50382813 17.578125 8.90625 C18.21137695 9.26009766 18.84462891 9.61394531 19.49707031 9.97851562 C21 11 21 11 22 13 C20.68 13.33 19.36 13.66 18 14 C18 13.34 18 12.68 18 12 C16.95585938 11.61134766 16.95585938 11.61134766 15.890625 11.21484375 C12.69391441 9.87136133 9.75883934 8.28554224 6.75 6.5625 C5.16445313 5.66724609 5.16445313 5.66724609 3.546875 4.75390625 C1 3 1 3 0 0 Z " fill="#D5993F" transform="translate(560,776)"/>
<path d="M0 0 C3.56514876 1.53613553 6.03870356 3.6838452 8.875 6.3125 C12.51040019 9.64674278 16.1782939 12.8822924 20 16 C19.01 16.33 18.02 16.66 17 17 C15.31420898 15.98364258 15.31420898 15.98364258 13.49609375 14.39453125 C12.83802734 13.82283203 12.17996094 13.25113281 11.50195312 12.66210938 C10.82068359 12.05173828 10.13941406 11.44136719 9.4375 10.8125 C8.75236328 10.22146484 8.06722656 9.63042969 7.36132812 9.02148438 C4.13960151 6.18547969 1.75029541 3.98188144 0 0 Z " fill="#D5993E" transform="translate(259,557)"/>
<path d="M0 0 C0.33 0.99 0.66 1.98 1 3 C1.66 3 2.32 3 3 3 C4.95829294 11.08961486 6.51917486 18.65474478 6 27 C4.1538133 24.23071995 3.58803803 22.86301194 2.9296875 19.7265625 C2.75566406 18.9015625 2.58164062 18.0765625 2.40234375 17.2265625 C2.22832031 16.36804688 2.05429687 15.50953125 1.875 14.625 C1.60236328 13.34882812 1.60236328 13.34882812 1.32421875 12.046875 C0.48210601 7.98193981 -0.25778745 4.1761567 0 0 Z " fill="#D3983C" transform="translate(742,787)"/>
<path d="M0 0 C0 0.33 0 0.66 0 1 C2.475 1.495 2.475 1.495 5 2 C5 2.33 5 2.66 5 3 C-0.05002222 4.03590199 -4.87416389 4.10251672 -10 4 C-10 3.67 -10 3.34 -10 3 C-15.61 3 -21.22 3 -27 3 C-27 2.67 -27 2.34 -27 2 C-24.00051609 1.66134859 -21.00055074 1.32894927 -18 1 C-17.16082031 0.90460938 -16.32164062 0.80921875 -15.45703125 0.7109375 C-10.26859055 0.14785091 -5.21873039 -0.09664316 0 0 Z " fill="#DDAC62" transform="translate(375,388)"/>
<path d="M0 0 C1.4550293 0.01353516 1.4550293 0.01353516 2.93945312 0.02734375 C5.31406407 0.05073893 7.68814776 0.08351824 10.0625 0.125 C10.0625 0.455 10.0625 0.785 10.0625 1.125 C0.67554896 2.45918593 -8.42845101 3.44917212 -17.9375 3.125 C-17.9375 2.795 -17.9375 2.465 -17.9375 2.125 C-11.8759737 -0.01040594 -6.38873306 -0.11353866 0 0 Z " fill="#D29638" transform="translate(210.9375,405.875)"/>
<path d="M0 0 C0.33 0 0.66 0 1 0 C0.4533512 8.18088206 -1.17123868 16.01785939 -3 24 C-3.33 24 -3.66 24 -4 24 C-4.2494783 16.70968976 -3.72330907 10.09326321 -2 3 C-1.34 3 -0.68 3 0 3 C0 2.01 0 1.02 0 0 Z " fill="#D2963A" transform="translate(295,713)"/>
<path d="M0 0 C6.93 0 13.86 0 21 0 C21 0.33 21 0.66 21 1 C11.96301675 2.1741788 3.13338455 3.28994872 -6 3 C-6 2.67 -6 2.34 -6 2 C-4.02 2 -2.04 2 0 2 C0 1.34 0 0.68 0 0 Z " fill="#D69735" transform="translate(254,400)"/>
<path d="M0 0 C1.76462683 3.08809695 2 4.23312136 2 8 C2.66 8 3.32 8 4 8 C4.77916092 13.02125926 5.13016601 16.97703996 4 22 C3.34 22 2.68 22 2 22 C1.67 22.66 1.34 23.32 1 24 C1.01160156 23.10539063 1.02320313 22.21078125 1.03515625 21.2890625 C1.08867011 14.11820485 0.91804983 7.11488616 0 0 Z " fill="#D09234" transform="translate(753,839)"/>
<path d="M0 0 C3.06273831 -0.05410136 6.12451452 -0.09372225 9.1875 -0.125 C10.48397461 -0.15013672 10.48397461 -0.15013672 11.80664062 -0.17578125 C16.32208103 -0.21038233 19.90081483 -0.15567916 24 2 C24 2.33 24 2.66 24 3 C20.93722733 2.85873374 17.87486458 2.71215604 14.8125 2.5625 C13.94818359 2.52318359 13.08386719 2.48386719 12.19335938 2.44335938 C8.04085878 2.23652984 4.05462138 1.99896469 0 1 C0 0.67 0 0.34 0 0 Z " fill="#D29535" transform="translate(732,398)"/>
<path d="M0 0 C0.66 0.33 1.32 0.66 2 1 C-2.73328612 6.30128046 -7.88334735 9.30569242 -15 10 C-14.3125 8.0625 -14.3125 8.0625 -13 6 C-11.33524314 5.65725594 -9.66804677 5.32635698 -8 5 C-5.85676098 3.73709332 -3.8147398 2.3765503 -1.76953125 0.9609375 C-1.18558594 0.64382813 -0.60164063 0.32671875 0 0 Z " fill="#D5993D" transform="translate(414,803)"/>
<path d="M0 0 C4.12417063 1.6616804 7.06554039 4.62338018 10.25 7.625 C10.80429687 8.140625 11.35859375 8.65625 11.9296875 9.1875 C13.2902712 10.45425035 14.64565837 11.72657815 16 13 C15.01 13.33 14.02 13.66 13 14 C9.8125 11.6875 9.8125 11.6875 7 9 C7 8.34 7 7.68 7 7 C6.401875 6.773125 5.80375 6.54625 5.1875 6.3125 C2.43648112 4.66188867 1.47515363 2.8027919 0 0 Z " fill="#D4983D" transform="translate(289,583)"/>
<path d="M0 0 C0.33 0.66 0.66 1.32 1 2 C-0.0252494 4.7526037 -1.11134697 7.38836628 -2.3125 10.0625 C-2.63412109 10.80822266 -2.95574219 11.55394531 -3.28710938 12.32226562 C-5.7412992 17.8706496 -5.7412992 17.8706496 -8 19 C-6.86023728 12.65632066 -5.21994945 6.63491153 -2 1 C-1.34 0.67 -0.68 0.34 0 0 Z " fill="#D39639" transform="translate(480,195)"/>
<path d="M0 0 C4.04301175 1.48518799 7.61146256 3.42877998 11.3125 5.625 C12.38113281 6.25664063 13.44976563 6.88828125 14.55078125 7.5390625 C15.76314453 8.26222656 15.76314453 8.26222656 17 9 C14.580078 9.85728178 13.38412728 10.13770601 10.9296875 9.2578125 C10.25164063 8.88398437 9.57359375 8.51015625 8.875 8.125 C8.19179688 7.75632812 7.50859375 7.38765625 6.8046875 7.0078125 C5.91136719 6.50894531 5.91136719 6.50894531 5 6 C4.34 5.67 3.68 5.34 3 5 C1.9590934 3.35857037 0.95495674 1.69287785 0 0 Z " fill="#D5983D" transform="translate(589,793)"/>
<path d="M0 0 C0.66 0.33 1.32 0.66 2 1 C-1.47502547 5.07937773 -6.00964574 8.07590214 -11 10 C-13.13867188 9.5534668 -13.13867188 9.5534668 -15 9 C-12.54732365 7.46931512 -10.08866106 5.95031377 -7.625 4.4375 C-6.92632812 3.99986328 -6.22765625 3.56222656 -5.5078125 3.11132812 C-3.70814097 2.01249022 -1.85677657 0.99932133 0 0 Z " fill="#D5983C" transform="translate(455,779)"/>
<path d="M0 0 C9.13338455 -0.28994872 17.96301675 0.8258212 27 2 C27 2.33 27 2.66 27 3 C23.25014675 3.0871747 19.50055445 3.14045003 15.75 3.1875 C14.15478516 3.22520508 14.15478516 3.22520508 12.52734375 3.26367188 C11.50253906 3.27333984 10.47773437 3.28300781 9.421875 3.29296875 C8.47924805 3.3086792 7.53662109 3.32438965 6.56542969 3.34057617 C3.57689826 2.94383071 2.22310783 1.98295729 0 0 Z " fill="#DDAC5F" transform="translate(650,388)"/>
<path d="M0 0 C-1.4723801 3.79675543 -3.41927026 5.24624023 -6.875 7.3125 C-8.17050781 8.11107422 -8.17050781 8.11107422 -9.4921875 8.92578125 C-12.25237791 10.1081058 -13.26136178 10.08908636 -16 9 C-13.71180854 7.49445366 -11.41978831 5.99542957 -9.125 4.5 C-8.47402344 4.07074219 -7.82304687 3.64148438 -7.15234375 3.19921875 C-2.2265625 0 -2.2265625 0 0 0 Z " fill="#D4993D" transform="translate(341,847)"/>
<path d="M0 0 C2.48294996 1.28479962 4.96125909 2.5773869 7.4375 3.875 C8.14455078 4.23980469 8.85160156 4.60460937 9.58007812 4.98046875 C14.88671875 7.7734375 14.88671875 7.7734375 16 10 C10.04435839 8.83014183 4.61348312 7.13495694 0 3 C0 2.01 0 1.02 0 0 Z " fill="#D5983C" transform="translate(522,753)"/>
<path d="M0 0 C3.71045247 1.57780923 6.29906384 3.90703248 9.25 6.625 C10.14203125 7.44226563 11.0340625 8.25953125 11.953125 9.1015625 C12.96632812 10.04128906 12.96632812 10.04128906 14 11 C13.01 11.33 12.02 11.66 11 12 C9.34786411 10.56974806 7.70347411 9.13054455 6.0625 7.6875 C5.14597656 6.88699219 4.22945312 6.08648437 3.28515625 5.26171875 C1 3 1 3 0 0 Z " fill="#D79E46" transform="translate(199,505)"/>
<path d="M0 0 C1.07365377 3.2209613 0.93405499 4.23714565 0.22265625 7.44921875 C0.03896484 8.29677734 -0.14472656 9.14433594 -0.33398438 10.01757812 C-0.53314453 10.89865234 -0.73230469 11.77972656 -0.9375 12.6875 C-1.13279297 13.58017578 -1.32808594 14.47285156 -1.52929688 15.39257812 C-2.01255202 17.59669306 -2.50302834 19.7989445 -3 22 C-3.33 22 -3.66 22 -4 22 C-4.4089405 13.89691968 -3.64976813 7.29953625 0 0 Z " fill="#D1912E" transform="translate(290,739)"/>
<path d="M0 0 C0.33 0 0.66 0 1 0 C0.67 3.63 0.34 7.26 0 11 C0.66 10.01 1.32 9.02 2 8 C1.67 10.97 1.34 13.94 1 17 C0.01 16.67 -0.98 16.34 -2 16 C-2.33 16.99 -2.66 17.98 -3 19 C-2.48446121 12.50149789 -1.53332291 6.33773468 0 0 Z " fill="#DDAB61" transform="translate(297,697)"/>
<path d="M0 0 C2.25222832 2.25222832 2.76343694 3.83494656 3.8125 6.8125 C5.54623002 11.33328282 7.30194268 13.91828556 11 17 C6.71929301 16.52436589 4.6995915 14.19688467 2 11 C0.34381482 7.21443388 -0.24219598 4.11733163 0 0 Z " fill="#DBA552" transform="translate(623,369)"/>
<path d="M0 0 C0.33 0 0.66 0 1 0 C0.45136137 6.7857936 -0.54267938 13.35009036 -2 20 C-2.33 20 -2.66 20 -3 20 C-3.02725341 18.2709226 -3.04650987 16.54171824 -3.0625 14.8125 C-3.07410156 13.84957031 -3.08570313 12.88664063 -3.09765625 11.89453125 C-3.00486622 9.14423487 -2.62111685 6.67520409 -2 4 C-1.34 4 -0.68 4 0 4 C0 2.68 0 1.36 0 0 Z " fill="#D09538" transform="translate(272,824)"/>
<path d="M0 0 C-0.61875 0.268125 -1.2375 0.53625 -1.875 0.8125 C-4.2995233 1.95556848 -4.2995233 1.95556848 -6 5 C-7.32 5 -8.64 5 -10 5 C-10 4.34 -10 3.68 -10 3 C-12.31 2.67 -14.62 2.34 -17 2 C-17 1.67 -17 1.34 -17 1 C-11.30494264 0.3583034 -5.73266804 -0.12462322 0 0 Z " fill="#DBA857" transform="translate(309,395)"/>
<path d="M0 0 C0.33 0.99 0.66 1.98 1 3 C1.66 3 2.32 3 3 3 C3.66 9.27 4.32 15.54 5 22 C2.7523401 18.62851015 2.20201163 16.0762778 1.375 12.125 C0.98441406 10.30355469 0.98441406 10.30355469 0.5859375 8.4453125 C0.08998156 5.52909158 -0.12312593 2.94382903 0 0 Z " fill="#D2912D" transform="translate(716,662)"/>
<path d="M0 0 C0.33 0 0.66 0 1 0 C1.36504603 1.58086048 1.71660506 3.16483907 2.0625 4.75 C2.25972656 5.63171875 2.45695313 6.5134375 2.66015625 7.421875 C2.99825872 9.98679028 2.81158635 11.57091639 2 14 C2 13.34 2 12.68 2 12 C1.01 12.33 0.02 12.66 -1 13 C-0.979375 12.278125 -0.95875 11.55625 -0.9375 10.8125 C-0.9013926 8.00649664 -0.9013926 8.00649664 -1.625 5.375 C-2 3 -2 3 0 0 Z " fill="#D8A04D" transform="translate(710,626)"/>
<path d="M0 0 C0.33 0.66 0.66 1.32 1 2 C1.66 2 2.32 2 3 2 C7.59225513 10.261959 7.59225513 10.261959 7 15 C4.69145075 12.87666387 3.21587424 10.86387158 1.8125 8.0625 C1.29623047 7.05896484 1.29623047 7.05896484 0.76953125 6.03515625 C0 4 0 4 0 0 Z " fill="#D3963A" transform="translate(559,229)"/>
<path d="M0 0 C3.5895464 4.36988258 4.13599111 7.66467599 4.0625 13.25 C4.05347656 14.14203125 4.04445313 15.0340625 4.03515625 15.953125 C4.02355469 16.62859375 4.01195312 17.3040625 4 18 C2.05116862 15.07675293 1.51920273 13.48916982 0.875 10.125 C0.70742188 9.28195312 0.53984375 8.43890625 0.3671875 7.5703125 C0.00121155 5.00848085 -0.06482904 2.58390011 0 0 Z " fill="#D39839" transform="translate(712,642)"/>
<path d="M0 0 C2.94956528 1.36944102 5.52468811 2.87830409 8 5 C8 5.66 8 6.32 8 7 C9.32 7.66 10.64 8.32 12 9 C10.23046875 9.703125 10.23046875 9.703125 8 10 C6.11328125 8.671875 6.11328125 8.671875 4.3125 6.75 C3.71050781 6.12609375 3.10851562 5.5021875 2.48828125 4.859375 C1 3 1 3 0 0 Z " fill="#D3973C" transform="translate(228,530)"/>
<path d="M0 0 C0.78375 0.185625 1.5675 0.37125 2.375 0.5625 C4.97089775 1.25962266 4.97089775 1.25962266 7 0 C9.52588702 2.36292656 10.88820837 3.66462511 12 7 C7.69235185 5.43358249 3.93828536 3.31663844 0 1 C0 0.67 0 0.34 0 0 Z " fill="#D8A453" transform="translate(674,844)"/>
<path d="M0 0 C-1.67385496 2.03446037 -2.5571799 2.91948725 -5.19140625 3.3984375 C-6.36509766 3.38683594 -6.36509766 3.38683594 -7.5625 3.375 C-8.74005859 3.38660156 -8.74005859 3.38660156 -9.94140625 3.3984375 C-10.62074219 3.26695312 -11.30007813 3.13546875 -12 3 C-12.66 2.01 -13.32 1.02 -14 0 C-9.20699867 -1.39151652 -4.84864218 -0.68662689 0 0 Z " fill="#D9A558" transform="translate(520,154)"/>
<path d="M0 0 C0.66 0.66 1.32 1.32 2 2 C2.66 1.34 3.32 0.68 4 0 C4.33 3.3 4.66 6.6 5 10 C4.01 10.66 3.02 11.32 2 12 C0.86235649 7.73383684 0 4.43513689 0 0 Z " fill="#DAA757" transform="translate(713,655)"/>
<path d="M0 0 C4.30764815 1.56641751 8.06171464 3.68336156 12 6 C10.4375 6.75 10.4375 6.75 8 7 C5.45280141 5.97667131 3.13666413 4.72727704 1 3 C0.67 2.01 0.34 1.02 0 0 Z " fill="#D5983B" transform="translate(613,807)"/>
<path d="M0 0 C1.89575251 -0.02721176 3.79161979 -0.04649136 5.6875 -0.0625 C6.74324219 -0.07410156 7.79898437 -0.08570313 8.88671875 -0.09765625 C11.72410262 -0.00865425 14.2438919 0.35060162 17 1 C13.5980513 3.09350689 10.94727588 3.17942163 7 3 C7 2.67 7 2.34 7 2 C4.69 1.67 2.38 1.34 0 1 C0 0.67 0 0.34 0 0 Z " fill="#DBA757" transform="translate(311,394)"/>
<path d="M0 0 C2.33333333 2.33333333 4.66666667 4.66666667 7 7 C-0.63076923 5.52307692 -0.63076923 5.52307692 -2.5 2.875 C-2.665 2.25625 -2.83 1.6375 -3 1 C-2.01 0.67 -1.02 0.34 0 0 Z " fill="#D2963C" transform="translate(630,814)"/>
<path d="M0 0 C5.94 0.33 11.88 0.66 18 1 C18 1.33 18 1.66 18 2 C15.56305726 2.24878997 13.12761611 2.47463404 10.6875 2.6875 C9.65206055 2.79674805 9.65206055 2.79674805 8.59570312 2.90820312 C6.57421875 3.07421875 6.57421875 3.07421875 3 3 C2.01 2.01 1.02 1.02 0 0 Z " fill="#DFB066" transform="translate(752,399)"/>
<path d="M0 0 C1.32 0 2.64 0 4 0 C3.54917531 1.46067199 3.08906463 2.91848032 2.625 4.375 C2.36976563 5.18710937 2.11453125 5.99921875 1.8515625 6.8359375 C1 9 1 9 -1 11 C-1.08912219 7.16774573 -0.87867729 3.73437848 0 0 Z " fill="#D5993E" transform="translate(400,367)"/>
<path d="M0 0 C4.30764815 1.56641751 8.06171464 3.68336156 12 6 C10 7 10 7 7.87109375 6.328125 C7.06800781 5.97234375 6.26492188 5.6165625 5.4375 5.25 C4.22900391 4.73179687 4.22900391 4.73179687 2.99609375 4.203125 C1 3 1 3 0 0 Z " fill="#D39634" transform="translate(668,839)"/>
<path d="M0 0 C0.33 0 0.66 0 1 0 C2.38461538 7.84615385 2.38461538 7.84615385 1 12 C0.0298313 13.02896681 -0.96724026 14.03386992 -2 15 C-1.03644647 4.44191344 -1.03644647 4.44191344 0 0 Z " fill="#DCA958" transform="translate(305,659)"/>
<path d="M0 0 C1.60031344 3.20062687 0.03173691 5.72271806 -1 9 C-1.66 9 -2.32 9 -3 9 C-3.33 9.66 -3.66 10.32 -4 11 C-3.54177532 7.53058454 -3.10868317 4.32604951 -2 1 C-1.34 0.67 -0.68 0.34 0 0 Z " fill="#D4993B" transform="translate(414,342)"/>
<path d="M0 0 C0.66 0.33 1.32 0.66 2 1 C0.71034824 2.37562854 -0.62689293 3.70766393 -2 5 C-2.66 5 -3.32 5 -4 5 C-4.33 5.66 -4.66 6.32 -5 7 C-5.99 6.34 -6.98 5.68 -8 5 C-6.71475739 4.13619741 -5.42157581 3.28419631 -4.125 2.4375 C-3.04605469 1.72400391 -3.04605469 1.72400391 -1.9453125 0.99609375 C-1.30335938 0.66738281 -0.66140625 0.33867188 0 0 Z " fill="#D2943A" transform="translate(309,865)"/>
<path d="M0 0 C3.77545388 1.09068668 6.47043472 1.9083091 9 5 C8.67 5.66 8.34 6.32 8 7 C6.02 6.34 4.04 5.68 2 5 C2.99 4.67 3.98 4.34 5 4 C4.175 3.525625 3.35 3.05125 2.5 2.5625 C1.675 2.046875 0.85 1.53125 0 1 C0 0.67 0 0.34 0 0 Z " fill="#D8A554" transform="translate(717,866)"/>
<path d="M0 0 C0.33 0.99 0.66 1.98 1 3 C1.66 3 2.32 3 3 3 C3 6.63 3 10.26 3 14 C1.18751015 10.3750203 0.68111085 8.62740416 0.375 4.75 C0.30023437 3.85796875 0.22546875 2.9659375 0.1484375 2.046875 C0.09945312 1.37140625 0.05046875 0.6959375 0 0 Z " fill="#D29333" transform="translate(748,815)"/>
<path d="M0 0 C0.66 0.33 1.32 0.66 2 1 C-0.36797991 3.61724095 -2.89600354 5.32861729 -6 7 C-6.66 7 -7.32 7 -8 7 C-6.88424427 3.65273281 -6.48655378 3.37920252 -3.5625 1.75 C-2.386875 1.1725 -1.21125 0.595 0 0 Z " fill="#D6983C" transform="translate(484,762)"/>
<path d="M0 0 C1.98 0.66 3.96 1.32 6 2 C6 2.66 6 3.32 6 4 C5.34 4 4.68 4 4 4 C4 6.31 4 8.62 4 11 C3.67 11 3.34 11 3 11 C2.51171875 9.01432292 2.0234375 7.02864583 1.53515625 5.04296875 C1.08989295 3.34316798 0.55566015 1.66698046 0 0 Z " fill="#DAA656" transform="translate(312,604)"/>
<path d="M0 0 C-0.33 0.66 -0.66 1.32 -1 2 C-5.62 2 -10.24 2 -15 2 C-15 1.67 -15 1.34 -15 1 C-13.0641649 0.63684334 -11.12624752 0.28477269 -9.1875 -0.0625 C-8.10855469 -0.25972656 -7.02960938 -0.45695313 -5.91796875 -0.66015625 C-3 -1 -3 -1 0 0 Z " fill="#CB892A" transform="translate(299,873)"/>
<path d="M0 0 C3.59391114 1.33488128 6.75490696 2.96022723 10 5 C8.3125 5.6875 8.3125 5.6875 6 6 C3.3125 4.75 3.3125 4.75 1 3 C0.67 2.01 0.34 1.02 0 0 Z " fill="#D5993A" transform="translate(644,825)"/>
<path d="M0 0 C0.33 0 0.66 0 1 0 C0.88601335 1.62580966 0.75844341 3.25067157 0.625 4.875 C0.52058594 6.23238281 0.52058594 6.23238281 0.4140625 7.6171875 C0 10 0 10 -2 12 C-2.05422947 10.5629191 -2.09289723 9.12524538 -2.125 7.6875 C-2.14820313 6.88699219 -2.17140625 6.08648438 -2.1953125 5.26171875 C-2 3 -2 3 0 0 Z " fill="#D29434" transform="translate(310,642)"/>
<path d="M0 0 C0.99 0.33 1.98 0.66 3 1 C3 1.66 3 2.32 3 3 C3.66 3.33 4.32 3.66 5 4 C5 5.65 5 7.3 5 9 C4.34 9 3.68 9 3 9 C2.01 6.03 1.02 3.06 0 0 Z " fill="#D2983F" transform="translate(576,267)"/>
<path d="M0 0 C0.66 0.66 1.32 1.32 2 2 C2.66 1.67 3.32 1.34 4 1 C4.66 2.98 5.32 4.96 6 7 C5.01 7.33 4.02 7.66 3 8 C0 3.375 0 3.375 0 0 Z " fill="#D9A553" transform="translate(614,355)"/>
<path d="M0 0 C2.6855594 2.6855594 3.06049974 5.37621328 4 9 C3.01 9.66 2.02 10.32 1 11 C0.30710631 7.27569643 -0.11144596 3.78916254 0 0 Z " fill="#DAA554" transform="translate(587,288)"/>
<path d="M0 0 C0 0.33 0 0.66 0 1 C-5.36095333 2.12862175 -10.55306686 2.09688221 -16 2 C-16 1.67 -16 1.34 -16 1 C-10.26696495 -0.57300962 -5.84340558 -1.24327778 0 0 Z " fill="#E1B770" transform="translate(180,409)"/>
<path d="M0 0 C1.43655854 -0.08131463 2.8744483 -0.13933559 4.3125 -0.1875 C5.51326172 -0.23970703 5.51326172 -0.23970703 6.73828125 -0.29296875 C9.47851584 0.06198392 10.29171079 0.89366282 12 3 C7.97007218 2.44687265 3.97977076 1.8441938 0 1 C0 0.67 0 0.34 0 0 Z " fill="#D0943A" transform="translate(513,155)"/>
<path d="M0 0 C-1.36983503 3.16115776 -1.9890638 3.9927092 -5 6 C-5.99 5.67 -6.98 5.34 -8 5 C-2.25 0 -2.25 0 0 0 Z " fill="#D4983D" transform="translate(765,557)"/>
<path d="M0 0 C3.7952131 1.49097658 5.61042731 3.75700849 8 7 C6.25 6.875 6.25 6.875 4 6 C1.75 2.9375 1.75 2.9375 0 0 Z " fill="#D49534" transform="translate(205,510)"/>
<path d="M0 0 C0.99 0.99 1.98 1.98 3 3 C3 4.32 3 5.64 3 7 C2.01 7 1.02 7 0 7 C-0.33 7.66 -0.66 8.32 -1 9 C-0.67 6.03 -0.34 3.06 0 0 Z " fill="#D9A657" transform="translate(282,770)"/>
<path d="M0 0 C0.33 0 0.66 0 1 0 C1.33 2.97 1.66 5.94 2 9 C1.67 8.34 1.34 7.68 1 7 C0.01 7 -0.98 7 -2 7 C-1.42415568 4.61435923 -0.77772405 2.33317216 0 0 Z " fill="#DEAC5E" transform="translate(710,626)"/>
<path d="M0 0 C1 4 1 4 1 4 Z " fill="#D1984B" transform="translate(272,808)"/>
<path d="M0 0 C4 1 4 1 4 1 Z " fill="#D19D4D" transform="translate(239,400)"/>
<path d="M0 0 C3 1 3 1 3 1 Z " fill="#CC9749" transform="translate(374,831)"/>
<path d="" fill="#CE9747" transform="translate(0,0)"/>
<path d="M0 0 C0.66 0.66 1.32 1.32 2 2 C1.34 2 0.68 2 0 2 C0 1.34 0 0.68 0 0 Z " fill="#CE9645" transform="translate(641,826)"/>
<path d="" fill="#CE994A" transform="translate(0,0)"/>
<path d="" fill="#D39C4A" transform="translate(0,0)"/>
<path d="" fill="#D39D4A" transform="translate(0,0)"/>
<path d="" fill="#C9964A" transform="translate(0,0)"/>
<path d="M0 0 C3 1 3 1 3 1 Z " fill="#CE994E" transform="translate(854,408)"/>
<path d="M0 0 C3 1 3 1 3 1 Z " fill="#CE994B" transform="translate(168,408)"/>
<path d="M0 0 C3 1 3 1 3 1 Z " fill="#CF9B4D" transform="translate(782,400)"/>
<path d="" fill="#CD974C" transform="translate(0,0)"/>
<path d="M0 0 C2 1 2 1 2 1 Z " fill="#CE9849" transform="translate(332,855)"/>
<path d="" fill="#C4924C" transform="translate(0,0)"/>
<path d="M0 0 C2 1 2 1 2 1 Z " fill="#CA9547" transform="translate(648,831)"/>
<path d="M0 0 C2 1 2 1 2 1 Z " fill="#CD984A" transform="translate(391,821)"/>
<path d="M0 0 C2 1 2 1 2 1 Z " fill="#CD9645" transform="translate(621,815)"/>
<path d="" fill="#CA954A" transform="translate(0,0)"/>
<path d="" fill="#CF9748" transform="translate(0,0)"/>
<path d="M0 0 C2 1 2 1 2 1 Z " fill="#D19A49" transform="translate(549,775)"/>
<path d="" fill="#CD994B" transform="translate(0,0)"/>
<path d="" fill="#CF9547" transform="translate(0,0)"/>
<path d="M0 0 C2 1 2 1 2 1 Z " fill="#D29A4A" transform="translate(533,764)"/>
<path d="M0 0 C2 1 2 1 2 1 Z " fill="#CE9948" transform="translate(281,763)"/>
<path d="" fill="#CC9549" transform="translate(0,0)"/>
<path d="" fill="#D29A4A" transform="translate(0,0)"/>
<path d="" fill="#D19C4C" transform="translate(0,0)"/>
<path d="" fill="#D29C4B" transform="translate(0,0)"/>
<path d="" fill="#D39E4F" transform="translate(0,0)"/>
<path d="" fill="#CF994B" transform="translate(0,0)"/>
<path d="M0 0 C2 1 2 1 2 1 Z " fill="#D19D4B" transform="translate(786,400)"/>
<path d="M0 0 C2 1 2 1 2 1 Z " fill="#D09B4D" transform="translate(265,397)"/>
<path d="M0 0 C2 1 2 1 2 1 Z " fill="#D09C4A" transform="translate(706,392)"/>
<path d="" fill="#D29C4C" transform="translate(0,0)"/>
<path d="" fill="#CE9949" transform="translate(0,0)"/>
<path d="" fill="#CF9547" transform="translate(0,0)"/>
<path d="M0 0 C2 1 2 1 2 1 Z " fill="#CD9A49" transform="translate(448,256)"/>
<path d="" fill="#CC9649" transform="translate(0,0)"/>
<path d="" fill="#CC9548" transform="translate(0,0)"/>
<path d="" fill="#C69344" transform="translate(0,0)"/>
<path d="" fill="#C79547" transform="translate(0,0)"/>
<path d="" fill="#C39048" transform="translate(0,0)"/>
<path d="M0 0 C2 1 2 1 2 1 Z " fill="#C29448" transform="translate(491,161)"/>
<path d="M0 0 C2 1 2 1 2 1 Z " fill="#C19148" transform="translate(496,154)"/>
<path d="M0 0 C2 1 2 1 2 1 Z " fill="#9C8F7C" transform="translate(518,2)"/>
<path d="M0 0 C2 1 2 1 2 1 Z " fill="#9C8E7B" transform="translate(478,2)"/>
<path d="" fill="#C29046" transform="translate(0,0)"/>
<path d="" fill="#C29449" transform="translate(0,0)"/>
<path d="" fill="#C19048" transform="translate(0,0)"/>
<path d="" fill="#C5914A" transform="translate(0,0)"/>
<path d="" fill="#C29248" transform="translate(0,0)"/>
<path d="" fill="#C08D45" transform="translate(0,0)"/>
<path d="" fill="#C89449" transform="translate(0,0)"/>
<path d="" fill="#C89748" transform="translate(0,0)"/>
<path d="" fill="#CB9547" transform="translate(0,0)"/>
<path d="" fill="#CB9A4C" transform="translate(0,0)"/>
<path d="" fill="#CB9849" transform="translate(0,0)"/>
<path d="" fill="#CA9448" transform="translate(0,0)"/>
<path d="" fill="#D09A4A" transform="translate(0,0)"/>
<path d="" fill="#CA994A" transform="translate(0,0)"/>
<path d="" fill="#CF9947" transform="translate(0,0)"/>
<path d="" fill="#C4914B" transform="translate(0,0)"/>
<path d="" fill="#CE994A" transform="translate(0,0)"/>
<path d="" fill="#C99848" transform="translate(0,0)"/>
<path d="" fill="#CD9746" transform="translate(0,0)"/>
<path d="" fill="#CC994C" transform="translate(0,0)"/>
<path d="" fill="#CD994A" transform="translate(0,0)"/>
<path d="" fill="#CC974A" transform="translate(0,0)"/>
<path d="" fill="#CC9748" transform="translate(0,0)"/>
<path d="" fill="#C89249" transform="translate(0,0)"/>
<path d="" fill="#CD9847" transform="translate(0,0)"/>
<path d="" fill="#CF9446" transform="translate(0,0)"/>
<path d="" fill="#CC9847" transform="translate(0,0)"/>
<path d="" fill="#D29C49" transform="translate(0,0)"/>
<path d="" fill="#CD9646" transform="translate(0,0)"/>
<path d="" fill="#CF9A49" transform="translate(0,0)"/>
<path d="" fill="#D1994C" transform="translate(0,0)"/>
<path d="" fill="#D09948" transform="translate(0,0)"/>
<path d="" fill="#CF9747" transform="translate(0,0)"/>
<path d="" fill="#CC9549" transform="translate(0,0)"/>
<path d="" fill="#CA954C" transform="translate(0,0)"/>
<path d="" fill="#D29B4A" transform="translate(0,0)"/>
<path d="" fill="#CB9749" transform="translate(0,0)"/>
<path d="" fill="#D09949" transform="translate(0,0)"/>
<path d="" fill="#D19649" transform="translate(0,0)"/>
<path d="" fill="#CF994E" transform="translate(0,0)"/>
<path d="" fill="#CE9949" transform="translate(0,0)"/>
<path d="" fill="#CF9647" transform="translate(0,0)"/>
<path d="" fill="#CF9A48" transform="translate(0,0)"/>
<path d="" fill="#CF9D48" transform="translate(0,0)"/>
<path d="" fill="#CE9B4A" transform="translate(0,0)"/>
<path d="" fill="#CE9848" transform="translate(0,0)"/>
<path d="" fill="#CF994A" transform="translate(0,0)"/>
<path d="" fill="#CC9549" transform="translate(0,0)"/>
<path d="" fill="#CC9844" transform="translate(0,0)"/>
<path d="" fill="#CE994A" transform="translate(0,0)"/>
<path d="" fill="#CF964D" transform="translate(0,0)"/>
<path d="" fill="#CD9C47" transform="translate(0,0)"/>
<path d="" fill="#CE963E" transform="translate(0,0)"/>
<path d="" fill="#CD9A48" transform="translate(0,0)"/>
<path d="" fill="#D09746" transform="translate(0,0)"/>
<path d="" fill="#D29C4A" transform="translate(0,0)"/>
<path d="" fill="#CD994B" transform="translate(0,0)"/>
<path d="" fill="#CA964E" transform="translate(0,0)"/>
<path d="" fill="#CD994E" transform="translate(0,0)"/>
<path d="" fill="#CC9649" transform="translate(0,0)"/>
<path d="" fill="#CF9648" transform="translate(0,0)"/>
<path d="" fill="#CF9848" transform="translate(0,0)"/>
<path d="" fill="#CE9648" transform="translate(0,0)"/>
<path d="" fill="#D49849" transform="translate(0,0)"/>
<path d="" fill="#CF9A4A" transform="translate(0,0)"/>
<path d="" fill="#CD953D" transform="translate(0,0)"/>
<path d="" fill="#D29749" transform="translate(0,0)"/>
<path d="" fill="#CA974A" transform="translate(0,0)"/>
<path d="" fill="#CE994B" transform="translate(0,0)"/>
<path d="" fill="#D19641" transform="translate(0,0)"/>
<path d="" fill="#D09946" transform="translate(0,0)"/>
<path d="" fill="#D09B49" transform="translate(0,0)"/>
<path d="" fill="#CD974A" transform="translate(0,0)"/>
<path d="" fill="#D09949" transform="translate(0,0)"/>
<path d="" fill="#CE9A4D" transform="translate(0,0)"/>
<path d="" fill="#D19A4E" transform="translate(0,0)"/>
<path d="" fill="#D19C4A" transform="translate(0,0)"/>
<path d="" fill="#D19C49" transform="translate(0,0)"/>
<path d="" fill="#D19A47" transform="translate(0,0)"/>
<path d="" fill="#CD9748" transform="translate(0,0)"/>
<path d="" fill="#CF9A49" transform="translate(0,0)"/>
<path d="" fill="#CF994C" transform="translate(0,0)"/>
<path d="" fill="#D29A49" transform="translate(0,0)"/>
<path d="" fill="#D29949" transform="translate(0,0)"/>
<path d="" fill="#CF9A49" transform="translate(0,0)"/>
<path d="" fill="#D09C4C" transform="translate(0,0)"/>
<path d="" fill="#CE9A49" transform="translate(0,0)"/>
<path d="" fill="#D09C49" transform="translate(0,0)"/>
<path d="" fill="#D0994B" transform="translate(0,0)"/>
<path d="" fill="#D59E4A" transform="translate(0,0)"/>
<path d="" fill="#D49A4A" transform="translate(0,0)"/>
<path d="" fill="#D09749" transform="translate(0,0)"/>
<path d="" fill="#CE9B4A" transform="translate(0,0)"/>
<path d="" fill="#D19A4D" transform="translate(0,0)"/>
<path d="" fill="#CD9549" transform="translate(0,0)"/>
<path d="" fill="#D29C49" transform="translate(0,0)"/>
<path d="" fill="#D29C49" transform="translate(0,0)"/>
<path d="" fill="#D39A46" transform="translate(0,0)"/>
<path d="" fill="#CF984C" transform="translate(0,0)"/>
<path d="" fill="#CD9544" transform="translate(0,0)"/>
<path d="" fill="#CD9848" transform="translate(0,0)"/>
<path d="" fill="#CE9746" transform="translate(0,0)"/>
<path d="" fill="#CE984B" transform="translate(0,0)"/>
<path d="" fill="#CB9748" transform="translate(0,0)"/>
<path d="" fill="#CE9B4D" transform="translate(0,0)"/>
<path d="" fill="#D19A4B" transform="translate(0,0)"/>
<path d="" fill="#D0984C" transform="translate(0,0)"/>
<path d="" fill="#CE9849" transform="translate(0,0)"/>
<path d="" fill="#CF9A4A" transform="translate(0,0)"/>
<path d="" fill="#D29C4E" transform="translate(0,0)"/>
<path d="" fill="#D29B4E" transform="translate(0,0)"/>
<path d="" fill="#D19C4C" transform="translate(0,0)"/>
<path d="" fill="#D39D4D" transform="translate(0,0)"/>
<path d="" fill="#CD9A4B" transform="translate(0,0)"/>
<path d="" fill="#CC9A4B" transform="translate(0,0)"/>
<path d="" fill="#D19D4C" transform="translate(0,0)"/>
<path d="" fill="#CF984A" transform="translate(0,0)"/>
<path d="" fill="#D19947" transform="translate(0,0)"/>
<path d="" fill="#D39B4B" transform="translate(0,0)"/>
<path d="" fill="#D49D4E" transform="translate(0,0)"/>
<path d="" fill="#CE9A49" transform="translate(0,0)"/>
<path d="" fill="#CF9D4C" transform="translate(0,0)"/>
<path d="" fill="#D29D50" transform="translate(0,0)"/>
<path d="" fill="#D49C4C" transform="translate(0,0)"/>
<path d="" fill="#D49E4F" transform="translate(0,0)"/>
<path d="" fill="#D59E4C" transform="translate(0,0)"/>
<path d="" fill="#D2A04D" transform="translate(0,0)"/>
<path d="" fill="#D69E51" transform="translate(0,0)"/>
<path d="" fill="#D19D4C" transform="translate(0,0)"/>
<path d="" fill="#D49B4E" transform="translate(0,0)"/>
<path d="" fill="#D19E4F" transform="translate(0,0)"/>
<path d="" fill="#D39C4D" transform="translate(0,0)"/>
<path d="" fill="#D19B4E" transform="translate(0,0)"/>
<path d="" fill="#CF9B4F" transform="translate(0,0)"/>
<path d="" fill="#D29D4B" transform="translate(0,0)"/>
<path d="" fill="#D69D48" transform="translate(0,0)"/>
<path d="" fill="#D39E4A" transform="translate(0,0)"/>
<path d="" fill="#D39B4E" transform="translate(0,0)"/>
<path d="" fill="#D29E4B" transform="translate(0,0)"/>
<path d="" fill="#D19C4E" transform="translate(0,0)"/>
<path d="" fill="#D09944" transform="translate(0,0)"/>
<path d="" fill="#D09841" transform="translate(0,0)"/>
<path d="" fill="#CF9C4C" transform="translate(0,0)"/>
<path d="" fill="#D09C50" transform="translate(0,0)"/>
<path d="" fill="#CE9B4A" transform="translate(0,0)"/>
<path d="" fill="#CF9C4B" transform="translate(0,0)"/>
<path d="" fill="#CC984B" transform="translate(0,0)"/>
<path d="" fill="#CF9B4F" transform="translate(0,0)"/>
<path d="" fill="#CE9B4C" transform="translate(0,0)"/>
<path d="" fill="#CE9D4B" transform="translate(0,0)"/>
<path d="" fill="#CE9949" transform="translate(0,0)"/>
<path d="" fill="#CE984C" transform="translate(0,0)"/>
<path d="" fill="#CD944B" transform="translate(0,0)"/>
<path d="" fill="#CE994C" transform="translate(0,0)"/>
<path d="" fill="#CD9A4A" transform="translate(0,0)"/>
<path d="" fill="#CD964B" transform="translate(0,0)"/>
<path d="" fill="#D19948" transform="translate(0,0)"/>
<path d="" fill="#D09844" transform="translate(0,0)"/>
<path d="" fill="#CE994A" transform="translate(0,0)"/>
<path d="" fill="#CE9A4E" transform="translate(0,0)"/>
<path d="" fill="#CF9C4D" transform="translate(0,0)"/>
<path d="" fill="#CF994C" transform="translate(0,0)"/>
<path d="" fill="#CC9A49" transform="translate(0,0)"/>
<path d="" fill="#CF9C4D" transform="translate(0,0)"/>
<path d="" fill="#CB9849" transform="translate(0,0)"/>
<path d="" fill="#CF9849" transform="translate(0,0)"/>
<path d="" fill="#CE954D" transform="translate(0,0)"/>
<path d="" fill="#CF994A" transform="translate(0,0)"/>
<path d="" fill="#CE9B4E" transform="translate(0,0)"/>
<path d="" fill="#CC994B" transform="translate(0,0)"/>
<path d="" fill="#D09A4C" transform="translate(0,0)"/>
<path d="" fill="#CF9948" transform="translate(0,0)"/>
<path d="" fill="#D19A4F" transform="translate(0,0)"/>
<path d="" fill="#CF9C4D" transform="translate(0,0)"/>
<path d="" fill="#CF9D4B" transform="translate(0,0)"/>
<path d="" fill="#D09B4C" transform="translate(0,0)"/>
<path d="" fill="#CD994B" transform="translate(0,0)"/>
<path d="" fill="#C99447" transform="translate(0,0)"/>
<path d="" fill="#C8954C" transform="translate(0,0)"/>
<path d="" fill="#C8944C" transform="translate(0,0)"/>
<path d="" fill="#C5964D" transform="translate(0,0)"/>
<path d="" fill="#C99A4F" transform="translate(0,0)"/>
<path d="" fill="#BE8E43" transform="translate(0,0)"/>
<path d="" fill="#C4954E" transform="translate(0,0)"/>
<path d="" fill="#C3954C" transform="translate(0,0)"/>
<path d="" fill="#C89248" transform="translate(0,0)"/>
<path d="" fill="#C3944A" transform="translate(0,0)"/>
<path d="" fill="#C0934C" transform="translate(0,0)"/>
<path d="" fill="#BF934E" transform="translate(0,0)"/>
<path d="" fill="#C1934C" transform="translate(0,0)"/>
<path d="" fill="#BE914C" transform="translate(0,0)"/>
<path d="" fill="#C5924F" transform="translate(0,0)"/>
<path d="" fill="#C89549" transform="translate(0,0)"/>
<path d="" fill="#C9964D" transform="translate(0,0)"/>
<path d="" fill="#CC954C" transform="translate(0,0)"/>
<path d="" fill="#CA974A" transform="translate(0,0)"/>
<path d="" fill="#C9954B" transform="translate(0,0)"/>
<path d="" fill="#CB984B" transform="translate(0,0)"/>
<path d="" fill="#CC974B" transform="translate(0,0)"/>
<path d="" fill="#CB9848" transform="translate(0,0)"/>
<path d="" fill="#D09A49" transform="translate(0,0)"/>
<path d="" fill="#D29B4C" transform="translate(0,0)"/>
<path d="" fill="#CF994C" transform="translate(0,0)"/>
<path d="" fill="#CE9B4E" transform="translate(0,0)"/>
<path d="" fill="#CE9846" transform="translate(0,0)"/>
<path d="" fill="#CD9948" transform="translate(0,0)"/>
<path d="" fill="#D09B49" transform="translate(0,0)"/>
<path d="" fill="#CF9B4D" transform="translate(0,0)"/>
<path d="" fill="#CC994A" transform="translate(0,0)"/>
<path d="" fill="#D19D4D" transform="translate(0,0)"/>
<path d="" fill="#CE9A4C" transform="translate(0,0)"/>
<path d="" fill="#D39D4D" transform="translate(0,0)"/>
<path d="" fill="#D29D4B" transform="translate(0,0)"/>
<path d="" fill="#CF9A4C" transform="translate(0,0)"/>
<path d="" fill="#D19A4D" transform="translate(0,0)"/>
<path d="" fill="#D39A48" transform="translate(0,0)"/>
<path d="" fill="#D59E4F" transform="translate(0,0)"/>
<path d="" fill="#D29E4F" transform="translate(0,0)"/>
<path d="" fill="#D09745" transform="translate(0,0)"/>
<path d="" fill="#D19A4B" transform="translate(0,0)"/>
<path d="" fill="#D19B4A" transform="translate(0,0)"/>
<path d="" fill="#D49E4D" transform="translate(0,0)"/>
<path d="" fill="#D59D4E" transform="translate(0,0)"/>
<path d="" fill="#D39E4C" transform="translate(0,0)"/>
<path d="" fill="#D59E4D" transform="translate(0,0)"/>
<path d="" fill="#D7A154" transform="translate(0,0)"/>
<path d="" fill="#D49F4A" transform="translate(0,0)"/>
<path d="" fill="#D39F4E" transform="translate(0,0)"/>
<path d="" fill="#D79F4C" transform="translate(0,0)"/>
<path d="" fill="#D2A04F" transform="translate(0,0)"/>
<path d="" fill="#D89F4D" transform="translate(0,0)"/>
<path d="" fill="#D49E4E" transform="translate(0,0)"/>
<path d="" fill="#D5A050" transform="translate(0,0)"/>
<path d="" fill="#D29E4A" transform="translate(0,0)"/>
<path d="" fill="#D49F4D" transform="translate(0,0)"/>
<path d="" fill="#D49D50" transform="translate(0,0)"/>
<path d="" fill="#D19D4D" transform="translate(0,0)"/>
<path d="" fill="#CF9B50" transform="translate(0,0)"/>
<path d="" fill="#D39C4C" transform="translate(0,0)"/>
<path d="" fill="#D69B4D" transform="translate(0,0)"/>
<path d="" fill="#CF9A4B" transform="translate(0,0)"/>
<path d="" fill="#D09B4E" transform="translate(0,0)"/>
<path d="" fill="#CC9B4B" transform="translate(0,0)"/>
<path d="" fill="#D2984B" transform="translate(0,0)"/>
<path d="" fill="#CF984B" transform="translate(0,0)"/>
<path d="" fill="#CD9A4C" transform="translate(0,0)"/>
<path d="" fill="#CE9C4B" transform="translate(0,0)"/>
<path d="" fill="#CF984B" transform="translate(0,0)"/>
<path d="" fill="#D1984A" transform="translate(0,0)"/>
<path d="" fill="#CB9949" transform="translate(0,0)"/>
<path d="" fill="#CE984C" transform="translate(0,0)"/>
<path d="" fill="#CC984B" transform="translate(0,0)"/>
<path d="" fill="#CC9849" transform="translate(0,0)"/>
<path d="" fill="#CC9949" transform="translate(0,0)"/>
<path d="" fill="#D1994A" transform="translate(0,0)"/>
<path d="" fill="#CC9649" transform="translate(0,0)"/>
<path d="" fill="#CB9749" transform="translate(0,0)"/>
<path d="" fill="#CB984A" transform="translate(0,0)"/>
<path d="" fill="#CF9948" transform="translate(0,0)"/>
<path d="" fill="#CB964B" transform="translate(0,0)"/>
<path d="" fill="#CD984B" transform="translate(0,0)"/>
<path d="" fill="#CE9749" transform="translate(0,0)"/>
<path d="" fill="#CF9748" transform="translate(0,0)"/>
<path d="" fill="#D19A4F" transform="translate(0,0)"/>
<path d="" fill="#CE9647" transform="translate(0,0)"/>
<path d="" fill="#CC9647" transform="translate(0,0)"/>
<path d="" fill="#CB9543" transform="translate(0,0)"/>
<path d="" fill="#CC9446" transform="translate(0,0)"/>
<path d="" fill="#CA954B" transform="translate(0,0)"/>
<path d="" fill="#CC9246" transform="translate(0,0)"/>
<path d="" fill="#CB9447" transform="translate(0,0)"/>
<path d="" fill="#CA9547" transform="translate(0,0)"/>
<path d="" fill="#CC964C" transform="translate(0,0)"/>
<path d="" fill="#CD964D" transform="translate(0,0)"/>
<path d="" fill="#CB984A" transform="translate(0,0)"/>
<path d="" fill="#C8964A" transform="translate(0,0)"/>
<path d="" fill="#C99849" transform="translate(0,0)"/>
<path d="" fill="#CB9649" transform="translate(0,0)"/>
<path d="" fill="#C29349" transform="translate(0,0)"/>
<path d="" fill="#C08E47" transform="translate(0,0)"/>
<path d="" fill="#C4924B" transform="translate(0,0)"/>
<path d="" fill="#C39146" transform="translate(0,0)"/>
<path d="" fill="#C39349" transform="translate(0,0)"/>
<path d="" fill="#C28F4A" transform="translate(0,0)"/>
<path d="" fill="#C2924B" transform="translate(0,0)"/>
<path d="" fill="#C1914A" transform="translate(0,0)"/>
<path d="" fill="#C19149" transform="translate(0,0)"/>
<path d="" fill="#C59047" transform="translate(0,0)"/>
<path d="" fill="#8C8C8A" transform="translate(0,0)"/>
<path d="" fill="#948879" transform="translate(0,0)"/>
<path d="" fill="#8B8885" transform="translate(0,0)"/>
<path d="" fill="#888582" transform="translate(0,0)"/>
<path d="" fill="#878580" transform="translate(0,0)"/>
<path d="" fill="#847F78" transform="translate(0,0)"/>
<path d="" fill="#8C8377" transform="translate(0,0)"/>
<path d="" fill="#8D8478" transform="translate(0,0)"/>
<path d="" fill="#91867A" transform="translate(0,0)"/>
<path d="" fill="#978A79" transform="translate(0,0)"/>
<path d="" fill="#968B7A" transform="translate(0,0)"/>
<path d="" fill="#9B8E7B" transform="translate(0,0)"/>
<path d="" fill="#9C8F7B" transform="translate(0,0)"/>
<path d="" fill="#998B7B" transform="translate(0,0)"/>
<path d="" fill="#968A79" transform="translate(0,0)"/>
<path d="" fill="#8D8477" transform="translate(0,0)"/>
<path d="" fill="#887F78" transform="translate(0,0)"/>
<path d="" fill="#877F79" transform="translate(0,0)"/>
<path d="" fill="#989490" transform="translate(0,0)"/>
</svg>
