<?xml version="1.0" encoding="UTF-8"?>
<svg version="1.1" xmlns="http://www.w3.org/2000/svg" width="1024" height="1024">
<path d="M0 0 C4.34464536 0.60825035 8.67551867 1.26167392 13 2 C13 1.34 13 0.68 13 0 C14.25058291 0.24398781 14.25058291 0.24398781 15.52643013 0.49290466 C19.23663962 1.03454626 22.83909656 1.13313671 26.57711792 1.11352539 C27.31980647 1.11367425 28.06249502 1.11382311 28.82768929 1.11397648 C31.30556567 1.11328441 33.78336704 1.10545309 36.26123047 1.09765625 C38.04221556 1.09573621 39.82320119 1.09427282 41.60418701 1.0932312 C45.43464028 1.09007356 49.26507143 1.0838099 53.0955162 1.07516479 C59.15548283 1.06162818 65.21544212 1.05574509 71.27542114 1.05102539 C85.23535211 1.0389861 99.19526394 1.01694092 113.15518188 0.99479675 C125.94589129 0.97460635 138.73659422 0.95653748 151.52731621 0.94658184 C157.54806382 0.94160649 163.56877762 0.93175695 169.58951163 0.91815186 C173.33961918 0.91067759 177.08972212 0.90737363 180.83983612 0.9051857 C182.57482048 0.9033181 184.309804 0.89972597 186.04478073 0.89425278 C188.41951345 0.88699923 190.79417281 0.88600062 193.16891479 0.88647461 C193.84967193 0.88287965 194.53042907 0.87928469 195.23181522 0.87558079 C207.12742577 0.90088034 207.12742577 0.90088034 211.875 3.6875 C216.26029774 8.45973578 216.30841738 14.07841919 216.30078125 20.28515625 C216.30720894 21.4532206 216.30720894 21.4532206 216.31376648 22.6448822 C216.31948322 24.28285758 216.32002973 25.92085833 216.31567383 27.55883789 C216.31250501 30.05854551 216.33603537 32.55707825 216.36132812 35.05664062 C216.36360059 36.65364435 216.36430486 38.25065124 216.36328125 39.84765625 C216.372491 40.59048355 216.38170074 41.33331085 216.39118958 42.09864807 C216.35142411 46.57395098 215.77035294 49.44638396 213 53 C207.65321409 56.0965199 201.3261213 57.19636106 195.3125 58.3125 C153.98794707 66.12614145 109.14202309 84.19638844 75 109 C73.49373047 110.06347656 73.49373047 110.06347656 71.95703125 111.1484375 C48.79742054 128.13027142 31.30746558 149.89933395 26.43359375 178.71875 C24.20936882 195.55072244 29.31324753 212.35908762 39.44921875 225.84375 C40.88188343 227.83576739 41.97428526 229.77677594 43 232 C43.66 232 44.32 232 45 232 C45 232.66 45 233.32 45 234 C45.5775 234.26039063 46.155 234.52078125 46.75 234.7890625 C49.15973835 236.08597029 50.93761683 237.57799702 53 239.375 C58.03848075 243.50490226 63.44101429 246.72247169 69.0625 250 C89.83024448 262.23891617 89.83024448 262.23891617 93 274 C94.16682617 282.33943201 94.03044244 290.82446152 93.9765625 299.2265625 C93.97164795 300.05091797 93.9667334 300.87527344 93.96166992 301.72460938 C93.94584328 303.29640236 93.91782427 304.86813113 93.8762207 306.43945312 C93.84457519 308.29315782 93.91351911 310.14804331 94 312 C94.66 312.66 95.32 313.32 96 314 C95.01 314 94.02 314 93 314 C93.12375 315.11375 93.12375 315.11375 93.25 316.25 C93 319 93 319 91.5625 321.125 C85.41456457 325.62348934 78.42227386 326.44406409 70.99536133 326.35644531 C70.14537064 326.35848969 69.29537994 326.36053406 68.41963196 326.36264038 C65.64020499 326.36562219 62.86138665 326.34725174 60.08203125 326.328125 C58.13628791 326.325063 56.19054236 326.32319024 54.24479675 326.32244873 C50.18077106 326.31786218 46.11694533 326.30349778 42.05297852 326.28125 C36.8512249 326.25291257 31.64962794 326.2420306 26.44780445 326.2375679 C22.43546494 326.23340668 18.42315682 326.22358421 14.41083336 326.21169281 C12.49273616 326.2060089 10.57463601 326.20124407 8.65653419 326.19742584 C5.97645427 326.19053094 3.29649582 326.1768847 0.61645508 326.16113281 C-0.17069885 326.16001495 -0.95785278 326.15889709 -1.76885986 326.15774536 C-5.1155851 326.13176926 -8.1065698 325.98017319 -11.41352844 325.3649292 C-12.26706406 325.24450256 -13.12059967 325.12407593 -14 325 C-14.66 325.66 -15.32 326.32 -16 327 C-16.66 326.01 -17.32 325.02 -18 324 C-18.99 323.67 -19.98 323.34 -21 323 C-21.33 323.99 -21.66 324.98 -22 326 C-22.33 325.34 -22.66 324.68 -23 324 C-22.67 323.34 -22.34 322.68 -22 322 C-22.96486328 321.83564453 -22.96486328 321.83564453 -23.94921875 321.66796875 C-29.09609847 320.76487859 -34.17302417 319.73936089 -39.25 318.5 C-51.86456564 315.59348605 -63.7986494 314.78784789 -76.70043945 314.9855957 C-77.6874585 314.99937256 -78.67447754 315.01314941 -79.69140625 315.02734375 C-80.56998291 315.04531006 -81.44855957 315.06327637 -82.35375977 315.08178711 C-85 315 -85 315 -87.91259766 314.48803711 C-93.84052212 313.55098816 -99.84601933 314.25161529 -105.8125 314.625 C-106.51986298 314.66812317 -107.22722595 314.71124634 -107.95602417 314.75567627 C-125.83126927 315.8891019 -143.10277541 319.34396604 -160.3046875 324.30078125 C-163 325 -163 325 -166 325 C-166.66 325.66 -167.32 326.32 -168 327 C-168 326.34 -168 325.68 -168 325 C-177.405 325.495 -177.405 325.495 -187 326 C-187 326.33 -187 326.66 -187 327 C-188.98 327 -190.96 327 -193 327 C-193 326.67 -193 326.34 -193 326 C-207.19 326 -221.38 326 -236 326 C-236 326.33 -236 326.66 -236 327 C-238.875 327.625 -238.875 327.625 -242 328 C-242.66 327.34 -243.32 326.68 -244 326 C-244.5775 326.37125 -245.155 326.7425 -245.75 327.125 C-246.86375 327.558125 -246.86375 327.558125 -248 328 C-249.33333333 327.33333333 -250.66666667 326.66666667 -252 326 C-254.58532701 325.54935368 -254.58532701 325.54935368 -257.25 325.375 C-258.14203125 325.30023437 -259.0340625 325.22546875 -259.953125 325.1484375 C-260.62859375 325.09945313 -261.3040625 325.05046875 -262 325 C-262.33 325.66 -262.66 326.32 -263 327 C-263 326.01 -263 325.02 -263 324 C-264.11375 323.6596875 -264.11375 323.6596875 -265.25 323.3125 C-268.6961852 321.66772979 -269.94867398 320.22685637 -272 317 C-272.39152054 314.14540899 -272.5621719 311.68833133 -272.53125 308.83984375 C-272.5350769 308.05412491 -272.53890381 307.26840607 -272.54284668 306.45887756 C-272.5455625 304.79719766 -272.53822429 303.13547476 -272.52148438 301.47387695 C-272.50026856 298.9692051 -272.52118956 296.46746778 -272.546875 293.96289062 C-272.5675076 283.37177348 -271.97606978 273.74014927 -265.74609375 264.74609375 C-264.98425781 263.98425781 -264.22242188 263.22242188 -263.4375 262.4375 C-262.67308594 261.65246094 -261.90867187 260.86742187 -261.12109375 260.05859375 C-260.07115234 259.03958984 -260.07115234 259.03958984 -259 258 C-258.53150635 257.50790039 -258.0630127 257.01580078 -257.58032227 256.50878906 C-255.99706905 254.99720172 -254.46507513 253.92857959 -252.59375 252.80078125 C-251.93777832 252.40044678 -251.28180664 252.0001123 -250.60595703 251.58764648 C-249.91099121 251.16684814 -249.21602539 250.7460498 -248.5 250.3125 C-222.85120057 234.52441979 -222.85120057 234.52441979 -208.3125 209.125 C-208.209375 208.42375 -208.10625 207.7225 -208 207 C-207.34 207 -206.68 207 -206 207 C-203.83500044 192.31131067 -202.36038115 178.04915725 -211 165 C-211.82177734 164.18595703 -211.82177734 164.18595703 -212.66015625 163.35546875 C-214 162 -214 162 -214 160 C-214.804375 159.62875 -214.804375 159.62875 -215.625 159.25 C-218 158 -218 158 -220.71875 156.05078125 C-224.14323241 153.91047974 -226.97276285 152.9237328 -230.875 151.9375 C-231.51123291 151.77540039 -232.14746582 151.61330078 -232.80297852 151.44628906 C-240.13376499 149.62943194 -247.56154147 148.29024511 -255 147 C-254.67 147.99 -254.34 148.98 -254 150 C-255.32 149.67 -256.64 149.34 -258 149 C-257.67 148.34 -257.34 147.68 -257 147 C-259.64 147 -262.28 147 -265 147 C-265 146.34 -265 145.68 -265 145 C-265.56162842 144.96261719 -266.12325684 144.92523437 -266.7019043 144.88671875 C-274.24159028 144.26981473 -281.45784659 142.73316136 -288.8125 141 C-289.45806854 140.84827332 -290.10363708 140.69654663 -290.76876831 140.54022217 C-312.27781593 135.45169272 -333.24418503 129.05186841 -353.30541992 119.68334961 C-355.00461476 118.87533586 -355.00461476 118.87533586 -357 119 C-357 118.34 -357 117.68 -357 117 C-357.804375 116.7525 -358.60875 116.505 -359.4375 116.25 C-363.11041357 114.9612584 -366.54329185 113.3932796 -370.046875 111.70703125 C-370.69140625 111.47371094 -371.3359375 111.24039063 -372 111 C-372.99 111.495 -372.99 111.495 -374 112 C-374 111.01 -374 110.02 -374 109 C-376.42934686 107.30307409 -378.82027484 105.79716386 -381.375 104.3125 C-390.39808618 98.87777992 -398.31012513 92.60043738 -406.171875 85.6015625 C-407.91107979 84.07790018 -409.69394278 82.63065787 -411.5 81.1875 C-412.325 80.465625 -413.15 79.74375 -414 79 C-414 78.34 -414 77.68 -414 77 C-415.485 76.505 -415.485 76.505 -417 76 C-418.67067133 74.00334402 -420.33752986 72.00348966 -422 70 C-422.66 70 -423.32 70 -424 70 C-424.391875 68.906875 -424.78375 67.81375 -425.1875 66.6875 C-426.73480596 62.99321447 -428.54688653 61.99917096 -432 60 C-432.21462891 58.90558594 -432.21462891 58.90558594 -432.43359375 57.7890625 C-433.13437678 54.3383102 -434.59976402 51.99539502 -436.4375 49 C-438.63805192 45.39826158 -440.54838325 41.96823876 -442 38 C-442.66 38 -443.32 38 -444 38 C-444.38112327 34.99865424 -444.71756308 32.01114198 -445 29 C-445.11988281 27.79923828 -445.11988281 27.79923828 -445.2421875 26.57421875 C-445.47366162 22.52342158 -445.35579484 20.55741192 -443.125 17.0625 C-434.91706138 11.64526051 -424.78632492 12.90357716 -415.375 13.375 C-412.70201235 13.48933546 -410.02874186 13.59553348 -407.35546875 13.703125 C-406.08364746 13.75662109 -404.81182617 13.81011719 -403.50146484 13.86523438 C-395.25093423 14.18278373 -386.96001577 14.44897394 -378.75 13.4375 C-375 13 -375 13 -373.17285156 13.46655273 C-370.2420988 14.186069 -367.50044198 14.11136565 -364.484375 14.09765625 C-362.60878906 14.09282227 -362.60878906 14.09282227 -360.6953125 14.08789062 C-359.39335937 14.07951172 -358.09140625 14.07113281 -356.75 14.0625 C-355.43257813 14.05798828 -354.11515625 14.05347656 -352.7578125 14.04882812 C-349.50516259 14.03704316 -346.25260416 14.02059011 -343 14 C-342.67 13.34 -342.34 12.68 -342 12 C-342 12.66 -342 13.32 -342 14 C-338.54168414 14.02894547 -335.08339928 14.04678 -331.625 14.0625 C-330.64015625 14.07087891 -329.6553125 14.07925781 -328.640625 14.08789062 C-327.69960938 14.09111328 -326.75859375 14.09433594 -325.7890625 14.09765625 C-324.91975098 14.10289307 -324.05043945 14.10812988 -323.15478516 14.11352539 C-320.94950006 14.14122351 -320.94950006 14.14122351 -319 13 C-319 13.66 -319 14.32 -319 15 C-318.06510742 14.83628906 -317.13021484 14.67257812 -316.16699219 14.50390625 C-311.2244735 13.80247127 -306.31045078 13.89470623 -301.328125 13.9375 C-299.20906621 13.94623796 -297.09000694 13.95485993 -294.97094727 13.96337891 C-293.32172775 13.97271454 -293.32172775 13.97271454 -291.63919067 13.98223877 C-268.59742943 14.10639146 -268.59742943 14.10639146 -245.5625 13.625 C-244.49483398 13.5940625 -243.42716797 13.563125 -242.32714844 13.53125 C-241.37485352 13.49257813 -240.42255859 13.45390625 -239.44140625 13.4140625 C-238.64420166 13.3826416 -237.84699707 13.3512207 -237.02563477 13.31884766 C-234.69074739 13.09613684 -234.69074739 13.09613684 -232 11 C-232 10.01 -232 9.02 -232 8 C-231.34 8 -230.68 8 -230 8 C-229.731875 7.38125 -229.46375 6.7625 -229.1875 6.125 C-228 4 -228 4 -225 2 C-221.96483898 1.68325996 -221.96483898 1.68325996 -218.16825867 1.59060669 C-217.12509812 1.56203366 -217.12509812 1.56203366 -216.06086361 1.53288341 C-213.73299976 1.4726486 -211.40512519 1.42745741 -209.0769043 1.38330078 C-207.41297963 1.34556572 -205.74906059 1.30758171 -204.0851469 1.26936531 C-184.97747863 0.85732191 -165.86667002 0.85290119 -146.75547624 0.8656745 C-141.64766789 0.86826267 -136.53986105 0.86584431 -131.43205261 0.86428833 C-122.90497506 0.86249078 -114.37790629 0.86481449 -105.85083008 0.86962891 C-95.99634896 0.87512849 -86.14188836 0.87325855 -76.2874077 0.8678025 C-67.76610476 0.86327464 -59.244808 0.86261737 -50.72350425 0.86524117 C-45.65799508 0.86679793 -40.59249561 0.86701292 -35.52698708 0.86370468 C-30.79799103 0.86082873 -26.06902189 0.86279641 -21.34002876 0.86859894 C-19.60411372 0.8699254 -17.86819642 0.86953434 -16.13228226 0.86733627 C-13.77242734 0.86462188 -11.41265994 0.86800871 -9.05281067 0.87301636 C-8.3601584 0.87078564 -7.66750613 0.86855491 -6.9538644 0.86625659 C-2.22830853 0.88584574 -2.22830853 0.88584574 0 2 C0 1.34 0 0.68 0 0 Z " fill="#B1883C" transform="translate(624,512)"/>
<path d="M0 0 C2.31543494 2.12838015 4.1175075 4.49188874 6 7 C7.64740076 8.6857124 9.31066078 10.3563186 11 12 C11.53625 12.556875 12.0725 13.11375 12.625 13.6875 C14.17108027 15.23918941 14.17108027 15.23918941 17 17 C18.35307554 18.59109675 19.70422685 20.18386434 21.04638672 21.78417969 C25.31033173 26.62041624 29.98602117 31.08653298 34.5625 35.625 C35.60114656 36.65861797 36.63955967 37.69247059 37.67773438 38.7265625 C39.58914277 40.62987582 41.5021298 42.53154757 43.41625977 44.43212891 C46.82911551 47.82402314 50.2336921 51.22338303 53.61328125 54.6484375 C59.67606627 60.78008917 59.67606627 60.78008917 66.125 66.5 C74.14797447 73.41464604 81.02378914 81.29545314 82.234375 92.08984375 C82.68971514 103.9514544 76.19831726 111.90362558 68.76953125 120.3125 C67 122 67 122 65 122 C64.6596875 122.86625 64.6596875 122.86625 64.3125 123.75 C62.6591307 126.58434736 60.57036056 127.96762189 58 130 C56.31267723 131.98260426 54.64633943 133.9832342 53 136 C51.3540349 137.68711423 49.68762851 139.3545622 48 141 C47.113125 141.928125 46.22625 142.85625 45.3125 143.8125 C43 146 43 146 41 146 C40.7525 146.5775 40.505 147.155 40.25 147.75 C38.81700012 150.32939979 37.21575324 152.06121592 35 154 C34.34 154 33.68 154 33 154 C32.7525 154.5775 32.505 155.155 32.25 155.75 C30.81700012 158.32939979 29.21575324 160.06121592 27 162 C26.34 162 25.68 162 25 162 C24.74476563 162.59296875 24.48953125 163.1859375 24.2265625 163.796875 C22.88183502 166.21224538 21.50785633 167.51211706 19.375 169.25 C18.74335938 169.77078125 18.11171875 170.2915625 17.4609375 170.828125 C16.97882813 171.21484375 16.49671875 171.6015625 16 172 C16.35401103 175.18609925 16.83027036 176.79066678 18.875 179.3125 C20.93929931 181.31094107 20.93929931 181.31094107 24 181 C24.33 181.99 24.66 182.98 25 184 C25.66 184.33 26.32 184.66 27 185 C27.33 185.99 27.66 186.98 28 188 C29.09424128 189.16263136 30.2001941 190.31596325 31.35546875 191.41796875 C32.61086405 192.62565307 33.83763518 193.86316311 35.05078125 195.11328125 C38.56946814 198.72920301 42.00600637 202.13521521 46.125 205.0625 C49.63516836 207.58651104 52.24262226 210.40808399 55.0078125 213.71484375 C59.76752253 219.17451113 65.0698622 224.23182961 70.33203125 229.203125 C72 231 72 231 72 233 C72.53867203 233.21335495 73.07734406 233.4267099 73.63233948 233.64653015 C76.86759336 235.49595854 79.28605124 238.02434917 81.88256836 240.65551758 C82.46033524 241.2329924 83.03810211 241.81046722 83.63337708 242.40544128 C85.54031221 244.31376841 87.44006344 246.22908342 89.33984375 248.14453125 C90.6669257 249.47534617 91.99445201 250.8057181 93.32240295 252.13566589 C96.81835108 255.63924779 100.30825755 259.14878824 103.79693604 262.65960693 C107.33694719 266.22000765 110.88255509 269.77482472 114.42773438 273.33007812 C120.16050832 279.0804222 125.88986824 284.83414112 131.61465454 290.59243774 C133.98486951 292.97619316 136.35759303 295.35721409 138.7358551 297.73295593 C140.97259943 299.97256434 143.16505112 302.23710809 145.3125 304.5625 C146.35857422 305.67818359 146.35857422 305.67818359 147.42578125 306.81640625 C149 309 149 309 149 313 C145.65444933 314.11518356 142.98361118 314.2083164 139.45703125 314.31640625 C138.79382874 314.33727798 138.13062622 314.35814972 137.44732666 314.37965393 C135.23584448 314.44658899 133.02425531 314.5053347 130.8125 314.5625 C129.65945877 314.59376984 129.65945877 314.59376984 128.48312378 314.62567139 C97.30671677 315.45550581 66.16480165 315.07150379 35 314 C34.67 314.66 34.34 315.32 34 316 C34 315.34 34 314.68 34 314 C33.25492188 313.89945312 32.50984375 313.79890625 31.7421875 313.6953125 C28.69521887 312.92271931 27.4104211 311.98972575 25.125 309.875 C24.444375 309.25109375 23.76375 308.6271875 23.0625 307.984375 C20.47589505 305.49574751 17.9366311 302.96683133 15.4453125 300.3828125 C14.02890223 298.89145515 14.02890223 298.89145515 12 298 C12 297.34 12 296.68 12 296 C11.34 296 10.68 296 10 296 C8.59765625 294.5390625 8.59765625 294.5390625 7.0625 292.625 C5.08013383 290.16098476 3.69300345 288.79533563 1 287 C-1.28267425 284.7743926 -3.52075077 282.57509907 -5.5625 280.125 C-6.036875 279.75375 -6.51125 279.3825 -7 279 C-9.16299211 279.22757731 -9.16299211 279.22757731 -11 280 C-10.62875 279.13375 -10.62875 279.13375 -10.25 278.25 C-10.1675 277.5075 -10.085 276.765 -10 276 C-11.89586384 273.85410577 -11.89586384 273.85410577 -14 272 C-14 271.34 -14 270.68 -14 270 C-14.78375 269.9175 -15.5675 269.835 -16.375 269.75 C-17.24125 269.5025 -18.1075 269.255 -19 269 C-19.26570801 268.45061768 -19.53141602 267.90123535 -19.80517578 267.33520508 C-21.52266823 263.97847943 -24.11468654 261.54003371 -26.7421875 258.88671875 C-27.30696808 258.3129097 -27.87174866 257.73910065 -28.4536438 257.14790344 C-29.64621023 255.94086377 -30.84157854 254.73658677 -32.03955078 253.53491211 C-33.87395249 251.68855434 -35.6888764 249.8243635 -37.50390625 247.95898438 C-38.66551445 246.78791846 -39.82823757 245.61795719 -40.9921875 244.44921875 C-41.80488602 243.60722176 -41.80488602 243.60722176 -42.63400269 242.74821472 C-44.32789734 241.01657208 -44.32789734 241.01657208 -47 239 C-50.47802497 239.28429508 -52.16036168 240.80017082 -54.54345703 243.23461914 C-55.21740509 243.91524918 -55.89135315 244.59587921 -56.58572388 245.2971344 C-57.66090775 246.40495522 -57.66090775 246.40495522 -58.7578125 247.53515625 C-59.50207489 248.28840683 -60.24633728 249.04165741 -61.01315308 249.81773376 C-63.39101398 252.22564502 -65.75873952 254.64319189 -68.125 257.0625 C-70.49926465 259.48448013 -72.87566357 261.90420262 -75.25827026 264.31797791 C-76.74133401 265.8209096 -78.21943341 267.32875857 -79.69216919 268.84181213 C-80.35981293 269.51929001 -81.02745667 270.19676788 -81.71533203 270.89477539 C-82.30283234 271.49576553 -82.89033264 272.09675568 -83.49563599 272.71595764 C-85 274 -85 274 -87 274 C-87.22816406 274.54914063 -87.45632813 275.09828125 -87.69140625 275.6640625 C-92.58356603 284.39693279 -101.88647385 291.28077282 -111 295 C-119.58231961 297.0840927 -126.28016855 296.20468963 -134 292 C-143.16300393 284.81032743 -151.22362762 275.95761583 -159.45703125 267.74609375 C-160.18080145 267.02515093 -160.90457165 266.30420811 -161.65027428 265.56141853 C-165.47127822 261.75530098 -169.28947939 257.9463991 -173.10522461 254.13500977 C-177.03005228 250.21568991 -180.96409376 246.3057554 -184.9003191 242.39788723 C-187.94491977 239.3719472 -190.98275588 236.33928399 -194.01880455 233.3047657 C-195.46630865 231.86027456 -196.91629713 230.41826829 -198.3688755 228.97887993 C-200.40000262 226.96490522 -202.42134637 224.94156798 -204.44067383 222.91577148 C-205.32989281 222.04037468 -205.32989281 222.04037468 -206.23707581 221.14729309 C-213.35504831 213.95804549 -217.08095515 207.57609446 -217.375 197.375 C-217.42398438 196.22773438 -217.47296875 195.08046875 -217.5234375 193.8984375 C-216.00886513 182.61826421 -208.1134097 175.43769494 -200.35546875 167.8671875 C-199.21808685 166.73915077 -198.0818184 165.60999036 -196.9466095 164.47976685 C-193.98038391 161.53247684 -190.99944994 158.60052592 -188.01501465 155.67169189 C-184.96242968 152.67059164 -181.92424955 149.65498293 -178.88476562 146.640625 C-172.93704877 140.7462581 -166.97368802 134.86804425 -161 129 C-164.15066821 122.69866359 -170.031069 116.968931 -175 112 C-176.12108802 108.94248721 -176.01921146 107.06289889 -175 104 C-170.73271866 97.39620981 -165.11378377 91.88558174 -159.5 86.4375 C-154.74191878 81.79432772 -150.1667844 77.10947055 -145.83105469 72.0690918 C-142.33782962 68.12174747 -138.59947729 64.41506558 -134.875 60.6875 C-134.08996094 59.89021484 -133.30492187 59.09292969 -132.49609375 58.27148438 C-131.73167969 57.50513672 -130.96726562 56.73878906 -130.1796875 55.94921875 C-129.49632324 55.26174561 -128.81295898 54.57427246 -128.10888672 53.8659668 C-124.13187939 50.34706578 -120.65059832 48.24051306 -115.17578125 48.45703125 C-107.9168828 50.26849783 -101.97781788 57.7340769 -97 63 C-95.6696875 61.9171875 -95.6696875 61.9171875 -94.3125 60.8125 C-93.81363281 60.40644531 -93.31476563 60.00039062 -92.80078125 59.58203125 C-90.42432436 57.49425459 -88.22313455 55.24770334 -86 53 C-84.51110909 51.50972456 -83.02144766 50.02021876 -81.53125 48.53125 C-80.71269531 47.71269531 -79.89414062 46.89414063 -79.05078125 46.05078125 C-76.5234375 43.5234375 -73.99609375 40.99609375 -71.46875 38.46875 C-70.68927002 37.68846436 -69.90979004 36.90817871 -69.10668945 36.10424805 C-67.85856398 34.857569 -66.60804218 33.61326906 -65.35229492 32.37426758 C-63.50051965 30.54609899 -61.85086862 28.79563477 -60.3125 26.6875 C-59.879375 26.130625 -59.44625 25.57375 -59 25 C-58.34 25 -57.68 25 -57 25 C-57 24.34 -57 23.68 -57 23 C-55.37897032 21.28891311 -53.70496537 19.62746694 -52 18 C-51.278125 17.236875 -50.55625 16.47375 -49.8125 15.6875 C-48 14 -48 14 -46 14 C-46 13.34 -46 12.68 -46 12 C-42.74233396 8.47676336 -39.19404032 5.36838448 -35.5 2.3125 C-34.5821875 1.54550781 -33.664375 0.77851563 -32.71875 -0.01171875 C-22.86221935 -7.22001487 -10.22949654 -5.81300742 0 0 Z " fill="#B0883D" transform="translate(416,176)"/>
<path d="M0 0 C2.5 2.75 2.5 2.75 3.59375 4.234375 C7.45884581 9.08721752 12.29272066 13.26601102 16.71459961 17.61938477 C23.38892994 24.19540834 30.04775282 30.78691478 36.69808102 37.38720798 C40.7139345 41.37177262 44.73519602 45.35054444 48.76928711 49.31665039 C52.68523134 53.16704571 56.58601149 57.03223548 60.47705269 60.90778923 C61.9544238 62.37415228 63.43702885 63.83526317 64.92512321 65.29074287 C83.79451975 83.76274766 83.79451975 83.76274766 84.625 95.0625 C82.91281065 105.84929292 78.69242855 112.36089851 71 120 C70.39027344 120.64582031 69.78054688 121.29164063 69.15234375 121.95703125 C67.81947785 123.35539424 66.4168595 124.68681315 65 126 C64.34 126 63.68 126 63 126 C62.79632812 126.52722656 62.59265625 127.05445313 62.3828125 127.59765625 C60.390626 131.05865823 57.69995806 133.63882433 54.875 136.4375 C54.29186035 137.01790039 53.7087207 137.59830078 53.10791016 138.19628906 C47.05646456 144.10201759 41.06909895 149.08566896 32.25 149.25 C17.42856055 148.99298082 6.88938469 135.16640239 -2.8125 125.3125 C-3.92855931 124.18637587 -5.04509346 123.06072214 -6.16210938 121.93554688 C-8.20972715 119.87177695 -10.25456585 117.8053412 -12.29614258 115.7355957 C-16.21656616 111.7691536 -20.16593372 107.8323787 -24.12306213 103.90258789 C-26.22104599 101.81812905 -28.31624031 99.73087483 -30.41137695 97.64355469 C-31.51302531 96.54695603 -32.61556655 95.45125364 -33.71899414 94.35644531 C-35.32677742 92.76085126 -36.93125554 91.16199564 -38.53515625 89.5625 C-39.02379654 89.079021 -39.51243683 88.59554199 -40.0158844 88.09741211 C-46.43236056 81.68198031 -49.65758575 77.17028159 -50 68 C-49.25594663 57.43178483 -46.4398978 46.61245201 -42 37 C-41.01 36.505 -41.01 36.505 -40 36 C-39.773125 35.175 -39.54625 34.35 -39.3125 33.5 C-37.45885908 28.55695753 -34.35883409 25.02374615 -31 21 C-30.45085938 20.31550781 -29.90171875 19.63101563 -29.3359375 18.92578125 C-24.82326031 13.4827654 -19.66136123 9.2092869 -14 5 C-12.77990234 4.07380859 -12.77990234 4.07380859 -11.53515625 3.12890625 C-10.76042969 2.57074219 -9.98570312 2.01257813 -9.1875 1.4375 C-8.50042969 0.94121094 -7.81335938 0.44492187 -7.10546875 -0.06640625 C-4.30872354 -1.30652147 -2.86136696 -0.98490771 0 0 Z " fill="#B0883D" transform="translate(722,636)"/>
<path d="M0 0 C0.33 0.66 0.66 1.32 1 2 C4.45831586 2.02894547 7.91660072 2.04678 11.375 2.0625 C12.35984375 2.07087891 13.3446875 2.07925781 14.359375 2.08789062 C15.30039062 2.09111328 16.24140625 2.09433594 17.2109375 2.09765625 C18.08024902 2.10289307 18.94956055 2.10812988 19.84521484 2.11352539 C22.05049994 2.14122351 22.05049994 2.14122351 24 1 C24 1.66 24 2.32 24 3 C25.37973999 2.75552124 25.37973999 2.75552124 26.78735352 2.50610352 C31.97980575 1.76887591 37.16809197 1.87625914 42.40234375 1.90234375 C44.0188961 1.90446617 44.0188961 1.90446617 45.66810608 1.90663147 C49.09126629 1.91220389 52.51435975 1.92475132 55.9375 1.9375 C58.26627509 1.94251856 60.59505122 1.94708085 62.92382812 1.95117188 C68.61590798 1.96216429 74.30794922 1.97887486 80 2 C80 2.66 80 3.32 80 4 C69.66343573 4.02328162 59.32687781 4.04099513 48.99029255 4.05181217 C44.18940103 4.05700663 39.3885276 4.06404106 34.58764648 4.07543945 C29.94514478 4.08639148 25.30266035 4.09230265 20.66014671 4.09487724 C18.89854854 4.09670948 17.1369512 4.10028682 15.37536049 4.10573006 C5.52553005 4.13492506 -4.18845913 3.97077285 -14 3 C-14 2.67 -14 2.34 -14 2 C-9.38 2 -4.76 2 0 2 C0 1.34 0 0.68 0 0 Z " fill="#CDB078" transform="translate(281,524)"/>
<path d="M0 0 C27.72 0 55.44 0 84 0 C84 0.66 84 1.32 84 2 C63.54 2.33 43.08 2.66 22 3 C22 3.33 22 3.66 22 4 C12.76 4 3.52 4 -6 4 C-6 3.67 -6 3.34 -6 3 C-4.02 2.67 -2.04 2.34 0 2 C0 1.34 0 0.68 0 0 Z " fill="#B48E49" transform="translate(642,513)"/>
<path d="M0 0 C1.32 0 2.64 0 4 0 C4 0.66 4 1.32 4 2 C-0.87716302 3.27096493 -5.67570656 3.12655874 -10.67578125 3.09765625 C-11.6009404 3.0962413 -12.52609955 3.09482635 -13.47929382 3.09336853 C-16.42372927 3.08778715 -19.36808767 3.07523805 -22.3125 3.0625 C-24.31314994 3.05748259 -26.31380108 3.05292011 -28.31445312 3.04882812 C-33.20966494 3.03782381 -38.10481942 3.02057198 -43 3 C-43 2.67 -43 2.34 -43 2 C-42.24074219 1.93941406 -41.48148438 1.87882813 -40.69921875 1.81640625 C-39.70535156 1.73261719 -38.71148437 1.64882813 -37.6875 1.5625 C-36.20830078 1.44068359 -36.20830078 1.44068359 -34.69921875 1.31640625 C-31.90624401 1.08187441 -31.90624401 1.08187441 -29 0 C-26.42908733 -0.04575595 -23.8816614 -0.04484674 -21.3125 0 C-14.79360343 0.07147555 -14.79360343 0.07147555 -8.3125 -0.5625 C-5.12314551 -0.9837355 -3.07900171 -0.76975043 0 0 Z " fill="#A97F39" transform="translate(253,526)"/>
<path d="M0 0 C0.495 0.495 0.495 0.495 1 1 C2.48638992 1.15655027 3.97949127 1.25066943 5.47265625 1.31640625 C6.82133789 1.37924805 6.82133789 1.37924805 8.19726562 1.44335938 C9.61555664 1.50233398 9.61555664 1.50233398 11.0625 1.5625 C12.01189453 1.60568359 12.96128906 1.64886719 13.93945312 1.69335938 C16.29281353 1.79979276 18.64628354 1.90181008 21 2 C21 2.33 21 2.66 21 3 C-7.71 3.495 -7.71 3.495 -37 4 C-36.67 3.01 -36.34 2.02 -36 1 C-32.06265485 0.82954038 -28.12510476 0.66434447 -24.1875 0.5 C-23.08728516 0.45230469 -21.98707031 0.40460937 -20.85351562 0.35546875 C-5.17233734 -0.29213153 -5.17233734 -0.29213153 0 0 Z " fill="#A77A31" transform="translate(435,513)"/>
<path d="M0 0 C1.43655854 -0.08131463 2.8744483 -0.13933559 4.3125 -0.1875 C5.51326172 -0.23970703 5.51326172 -0.23970703 6.73828125 -0.29296875 C9.52059766 0.06743493 10.13213895 1.00656846 12 3 C12.99 3 13.98 3 15 3 C14.67 3.66 14.34 4.32 14 5 C14.71027344 5.18175781 15.42054688 5.36351562 16.15234375 5.55078125 C17.07144531 5.80214844 17.99054688 6.05351563 18.9375 6.3125 C19.85402344 6.55613281 20.77054687 6.79976562 21.71484375 7.05078125 C22.46894531 7.36402344 23.22304688 7.67726563 24 8 C24.33 8.99 24.66 9.98 25 11 C19.24894734 9.18387811 13.6139627 7.13604033 8 4.9375 C6.9934436 4.55150635 6.9934436 4.55150635 5.96655273 4.15771484 C1.11688291 2.23376582 1.11688291 2.23376582 0 0 Z " fill="#B7914F" transform="translate(267,629)"/>
<path d="M0 0 C1.65 1.32 3.3 2.64 5 4 C4.01 4 3.02 4 2 4 C2.12375 5.11375 2.12375 5.11375 2.25 6.25 C2 9 2 9 0.25 11.375 C-2 13 -2 13 -4.1875 12.9375 C-6 12 -6 12 -7 9 C-6.67 8.01 -6.34 7.02 -6 6 C-4.35 5.67 -2.7 5.34 -1 5 C-0.67 3.35 -0.34 1.7 0 0 Z " fill="#B28A40" transform="translate(715,822)"/>
<path d="M0 0 C4.05676492 -0.04954711 8.11341194 -0.085789 12.17041016 -0.10986328 C13.54967315 -0.11990253 14.92891496 -0.13353677 16.30810547 -0.15087891 C18.2938514 -0.17521754 20.2797545 -0.18543255 22.265625 -0.1953125 C24.05661621 -0.21102295 24.05661621 -0.21102295 25.88378906 -0.22705078 C28.85798164 -0.01034762 30.50318379 0.43813878 33 2 C28.78271077 2.16777849 24.56522682 2.32832034 20.34741211 2.48217773 C18.91276652 2.53552897 17.47819286 2.5908529 16.04370117 2.64819336 C13.98111481 2.730297 11.91837332 2.80528996 9.85546875 2.87890625 C7.99378052 2.94960327 7.99378052 2.94960327 6.09448242 3.02172852 C3 3 3 3 0 2 C0 1.34 0 0.68 0 0 Z " fill="#B58F4E" transform="translate(536,824)"/>
<path d="M0 0 C0.66 0 1.32 0 2 0 C4.59155675 7.77467026 4.86025018 14.17194687 2 22 C0.375 24.4375 0.375 24.4375 -1 26 C-1.14322484 22.41937895 -1.2113453 19.57639628 0.03125 16.1875 C1.14017255 12.5387871 1.01048619 9.90276465 0.625 6.125 C0.51414062 4.97257812 0.40328125 3.82015625 0.2890625 2.6328125 C0.19367188 1.76398438 0.09828125 0.89515625 0 0 Z " fill="#AB8645" transform="translate(494,259)"/>
<path d="M0 0 C0.98871094 0.03996094 1.97742188 0.07992187 2.99609375 0.12109375 C7.75024295 0.35912287 10.51674426 0.57087213 14.875 2.75 C4.315 2.75 -6.245 2.75 -17.125 2.75 C-17.125 2.42 -17.125 2.09 -17.125 1.75 C-11.38321457 -0.78027833 -6.11472092 -0.34550986 0 0 Z " fill="#A87E36" transform="translate(269.125,526.25)"/>
<path d="M0 0 C8.82994991 0.37879963 17.62781705 0.93557577 26 4 C26.33 4.66 26.66 5.32 27 6 C18.97284232 4.80039297 10.9762419 3.50253855 3 2 C3.33 2.99 3.66 3.98 4 5 C2.68 4.67 1.36 4.34 0 4 C0 2.66666667 0 1.33333333 0 0 Z " fill="#BE9A57" transform="translate(366,657)"/>
<path d="M0 0 C0.66 0 1.32 0 2 0 C1.96519531 1.41152344 1.96519531 1.41152344 1.9296875 2.8515625 C1.91164063 4.09679687 1.89359375 5.34203125 1.875 6.625 C1.85179687 7.85476563 1.82859375 9.08453125 1.8046875 10.3515625 C1.99743814 13.95214442 2.84624126 16.6162874 4 20 C3.67 20.99 3.34 21.98 3 23 C2.67 22.34 2.34 21.68 2 21 C1.34 21.33 0.68 21.66 0 22 C-2.38865388 14.17052339 -1.60037454 7.96494099 0 0 Z " fill="#BA9551" transform="translate(674,691)"/>
<path d="M0 0 C0.99 0.33 1.98 0.66 3 1 C4.70016844 1.08178114 6.40336297 1.10749501 8.10546875 1.09765625 C9.57983398 1.09282227 9.57983398 1.09282227 11.08398438 1.08789062 C12.10814453 1.07951172 13.13230469 1.07113281 14.1875 1.0625 C15.22326172 1.05798828 16.25902344 1.05347656 17.32617188 1.04882812 C19.88417266 1.0370401 22.44205733 1.02058515 25 1 C25 1.33 25 1.66 25 2 C24.38479492 2.01981934 23.76958984 2.03963867 23.13574219 2.06005859 C20.34007458 2.15549727 17.5451349 2.26509955 14.75 2.375 C13.29787109 2.42140625 13.29787109 2.42140625 11.81640625 2.46875 C10.88183594 2.50742187 9.94726562 2.54609375 8.984375 2.5859375 C8.12553711 2.6173584 7.26669922 2.6487793 6.38183594 2.68115234 C3.8379731 3.02168995 2.16179552 3.62809131 0 5 C-0.69632215 6.95365445 -0.69632215 6.95365445 -0.75 9.125 C-0.8325 10.40375 -0.915 11.6825 -1 13 C-1.66 13 -2.32 13 -3 13 C-3.4726477 4.80743982 -3.4726477 4.80743982 -1.5 1.4375 C-0.7575 0.7259375 -0.7575 0.7259375 0 0 Z " fill="#B48D46" transform="translate(182,528)"/>
<path d="M0 0 C-0.33 0.99 -0.66 1.98 -1 3 C-1.86625 2.896875 -2.7325 2.79375 -3.625 2.6875 C-8.28238905 3.11873973 -9.68789149 4.76491727 -13 8 C-13.33 8.66 -13.66 9.32 -14 10 C-15.64363134 10.72159424 -17.31050386 11.39351421 -19 12 C-18.45550236 8.20527027 -16.96207612 6.72968732 -14.0625 4.3125 C-13.35222656 3.71050781 -12.64195312 3.10851562 -11.91015625 2.48828125 C-7.93097823 -0.61205991 -4.91936037 -0.07934452 0 0 Z " fill="#B28C4A" transform="translate(303,225)"/>
<path d="M0 0 C11.22 0 22.44 0 34 0 C34 0.66 34 1.32 34 2 C30.30181667 3.19908346 26.9078215 3.02614574 23.046875 2.87890625 C22.38665344 2.85529526 21.72643188 2.83168427 21.04620361 2.80735779 C18.947231 2.7310719 16.84866051 2.64689847 14.75 2.5625 C13.32293603 2.5092441 11.89585272 2.45650396 10.46875 2.40429688 C6.97892267 2.27550501 3.48941202 2.13963981 0 2 C0 1.34 0 0.68 0 0 Z " fill="#B6904C" transform="translate(436,513)"/>
<path d="M0 0 C0.66 0 1.32 0 2 0 C2.53699151 7.11513755 0.69707634 12.44995746 -2 19 C-4.4294516 15.3558226 -4.16179575 13.28758728 -4 9 C-2.68 8.67 -1.36 8.34 0 8 C0 5.36 0 2.72 0 0 Z " fill="#B48D4C" transform="translate(804,727)"/>
<path d="M0 0 C0.33 0.99 0.66 1.98 1 3 C-0.98 3.33 -2.96 3.66 -5 4 C-5 4.99 -5 5.98 -5 7 C-10.625 9.125 -10.625 9.125 -14 8 C-12.23569031 6.65804628 -10.4633209 5.32668332 -8.6875 4 C-7.70136719 3.2575 -6.71523438 2.515 -5.69921875 1.75 C-3 0 -3 0 0 0 Z " fill="#B4904C" transform="translate(391,173)"/>
<path d="M0 0 C0.33 0.66 0.66 1.32 1 2 C2.26457031 1.96519531 2.26457031 1.96519531 3.5546875 1.9296875 C5.19824219 1.90261719 5.19824219 1.90261719 6.875 1.875 C8.51082031 1.84019531 8.51082031 1.84019531 10.1796875 1.8046875 C13 2 13 2 15 4 C5.27342548 4.11237377 -4.30429046 3.92972557 -14 3 C-14 2.67 -14 2.34 -14 2 C-9.38 2 -4.76 2 0 2 C0 1.34 0 0.68 0 0 Z " fill="#DBC290" transform="translate(281,524)"/>
<path d="M0 0 C0.73154297 0.09990234 1.46308594 0.19980469 2.21679688 0.30273438 C3.99988769 0.54747233 5.78138442 0.80377853 7.5625 1.0625 C7.5625 1.3925 7.5625 1.7225 7.5625 2.0625 C-0.6875 2.0625 -8.9375 2.0625 -17.4375 2.0625 C-12.92422621 -2.45077379 -5.81147195 -0.85603567 0 0 Z " fill="#A2752C" transform="translate(824.4375,513.9375)"/>
<path d="M0 0 C0.99 0.33 1.98 0.66 3 1 C4.72795352 1.06802967 6.45835365 1.08495645 8.1875 1.0625 C9.08855469 1.05347656 9.98960937 1.04445313 10.91796875 1.03515625 C11.94857422 1.01775391 11.94857422 1.01775391 13 1 C13 1.33 13 1.66 13 2 C12.22914063 2.12117187 11.45828125 2.24234375 10.6640625 2.3671875 C9.66117187 2.53476562 8.65828125 2.70234375 7.625 2.875 C6.12839844 3.11863281 6.12839844 3.11863281 4.6015625 3.3671875 C1.8574885 3.7958802 1.8574885 3.7958802 0 6 C-0.99 6 -1.98 6 -3 6 C-3.33 6.66 -3.66 7.32 -4 8 C-4.33 7.01 -4.66 6.02 -5 5 C-4.34 5 -3.68 5 -3 5 C-2.5359375 4.0409375 -2.5359375 4.0409375 -2.0625 3.0625 C-1 1 -1 1 0 0 Z " fill="#BC9753" transform="translate(397,515)"/>
<path d="M0 0 C4.52615993 3.67832017 8.39424999 7.41086363 12 12 C9 12 9 12 6.625 9.875 C3.98366265 6.98210671 1.47237848 4.03749356 -1 1 C-0.67 0.67 -0.34 0.34 0 0 Z " fill="#B78D48" transform="translate(700,739)"/>
<path d="M0 0 C0.66 0.99 1.32 1.98 2 3 C2.66 3.33 3.32 3.66 4 4 C4.33 4.99 4.66 5.98 5 7 C6.99665314 8.68538601 6.99665314 8.68538601 9 10 C8.67 10.66 8.34 11.32 8 12 C4.27382578 10.75794193 2.60708543 8.8889325 0 6 C0 5.34 0 4.68 0 4 C-0.99 3.67 -1.98 3.34 -3 3 C-3 2.34 -3 1.68 -3 1 C-2.01 0.67 -1.02 0.34 0 0 Z " fill="#BA9754" transform="translate(439,357)"/>
<path d="M0 0 C5.26964527 2.63482263 8.97903554 6.79943911 13 11 C12.67 11.66 12.34 12.32 12 13 C10.36828877 11.59106853 8.74486055 10.17254042 7.125 8.75 C6.22007812 7.96109375 5.31515625 7.1721875 4.3828125 6.359375 C2.25560007 4.25308597 1.09487694 2.74348474 0 0 Z " fill="#A57C32" transform="translate(446,368)"/>
<path d="M0 0 C3.30895005 0.98374191 4.72210986 1.5883109 6.6875 4.5 C7.120625 5.325 7.55375 6.15 8 7 C8.66 7.66 9.32 8.32 10 9 C6.1228498 9 4.65028928 7.5759705 1.8125 5.0625 C0 3 0 3 0 0 Z " fill="#B79250" transform="translate(413,456)"/>
<path d="M0 0 C0.66 0.33 1.32 0.66 2 1 C1.8125 2.8125 1.8125 2.8125 1 5 C-1.4375 6.8125 -1.4375 6.8125 -4 8 C-4.66 7.67 -5.32 7.34 -6 7 C-6 6.01 -6 5.02 -6 4 C-3 1.8125 -3 1.8125 0 0 Z " fill="#BC9957" transform="translate(385,756)"/>
<path d="M0 0 C4.62 0 9.24 0 14 0 C13.67 0.99 13.34 1.98 13 3 C11.39667209 3.08121924 9.79215974 3.13929134 8.1875 3.1875 C7.29417969 3.22230469 6.40085937 3.25710938 5.48046875 3.29296875 C3 3 3 3 0 0 Z " fill="#BA975A" transform="translate(746,782)"/>
<path d="M0 0 C0 0.33 0 0.66 0 1 C-1.7491497 1.33776684 -3.49936145 1.67003671 -5.25 2 C-6.71179688 2.2784375 -6.71179688 2.2784375 -8.203125 2.5625 C-11 3 -11 3 -15 3 C-15 2.34 -15 1.68 -15 1 C-9.4584498 -0.96263236 -5.79141983 -1.01603857 0 0 Z " fill="#B99450" transform="translate(495,828)"/>
<path d="M0 0 C0.66 0.33 1.32 0.66 2 1 C1.01 2.485 1.01 2.485 0 4 C-0.45394552 6.27912938 -0.45394552 6.27912938 -0.625 8.6875 C-0.69976562 9.49574219 -0.77453125 10.30398438 -0.8515625 11.13671875 C-0.90054688 11.75160156 -0.94953125 12.36648438 -1 13 C-1.66 13 -2.32 13 -3 13 C-3.4726477 4.80743982 -3.4726477 4.80743982 -1.5 1.4375 C-0.7575 0.7259375 -0.7575 0.7259375 0 0 Z " fill="#B79355" transform="translate(182,528)"/>
<path d="M0 0 C2.65664779 0.15180845 4.45217862 0.52011425 6.48046875 2.296875 C7.875 3.875 7.875 3.875 10 7 C9.67 7.99 9.34 8.98 9 10 C8.7525 9.38125 8.505 8.7625 8.25 8.125 C6.75710375 5.58707638 5.59572059 5.2585312 3 4 C1.25 1.875 1.25 1.875 0 0 Z " fill="#A88038" transform="translate(459,223)"/>
<path d="M0 0 C-3.70401128 2.46934085 -6.70587865 2.44928433 -11 2 C-13.5 1 -13.5 1 -15 0 C-9.77254141 -1.2063366 -5.23471686 -0.75612577 0 0 Z " fill="#BD9A5A" transform="translate(406,172)"/>
<path d="M0 0 C4.29 0.33 8.58 0.66 13 1 C13 1.33 13 1.66 13 2 C9.7 2 6.4 2 3 2 C3.33 2.99 3.66 3.98 4 5 C2.68 4.67 1.36 4.34 0 4 C0 2.66666667 0 1.33333333 0 0 Z " fill="#BA934F" transform="translate(366,657)"/>
<path d="M0 0 C0.66 0.33 1.32 0.66 2 1 C0.6875 3.9375 0.6875 3.9375 -1 7 C-1.99 7.33 -2.98 7.66 -4 8 C-4 7.34 -4 6.68 -4 6 C-4.99 6.33 -5.98 6.66 -7 7 C-7 6.34 -7 5.68 -7 5 C-5.46875 3.7109375 -5.46875 3.7109375 -3.5 2.375 C-2.8503125 1.92898438 -2.200625 1.48296875 -1.53125 1.0234375 C-1.0259375 0.68570313 -0.520625 0.34796875 0 0 Z " fill="#BB954F" transform="translate(708,641)"/>
<path d="M0 0 C6.52307692 1.35384615 6.52307692 1.35384615 8.9375 4.625 C9.288125 5.40875 9.63875 6.1925 10 7 C6.65580848 7 5.93159679 6.52480606 3.3125 4.625 C2.68988281 4.18414062 2.06726563 3.74328125 1.42578125 3.2890625 C0.95527344 2.86367187 0.48476563 2.43828125 0 2 C0 1.34 0 0.68 0 0 Z " fill="#B28E4E" transform="translate(409,174)"/>
<path d="M0 0 C0.66 0.33 1.32 0.66 2 1 C2 1.99 2 2.98 2 4 C1.34 4 0.68 4 0 4 C0 4.66 0 5.32 0 6 C-2.31 6.33 -4.62 6.66 -7 7 C-4.66666667 4.66666667 -2.33333333 2.33333333 0 0 Z " fill="#BC9957" transform="translate(397,747)"/>
<path d="M0 0 C0.33 0.66 0.66 1.32 1 2 C-1.33333333 4.33333333 -3.66666667 6.66666667 -6 9 C-6.33 8.01 -6.66 7.02 -7 6 C-4.84656811 2.76985216 -3.72940389 1.24313463 0 0 Z " fill="#A67C32" transform="translate(210,352)"/>
<path d="M0 0 C0 2 0 2 -2.3125 4.4375 C-3.199375 5.283125 -4.08625 6.12875 -5 7 C-5.556875 7.598125 -6.11375 8.19625 -6.6875 8.8125 C-8 10 -8 10 -10 10 C-8.50006099 6.10015857 -4.53875449 0 0 0 Z " fill="#A37B34" transform="translate(344,217)"/>
<path d="M0 0 C0.33 0 0.66 0 1 0 C1.39169887 2.66355234 1.40564529 4.39224373 -0.11328125 6.66796875 C-1.36389317 8.1510888 -2.67864514 9.57954352 -4 11 C-4.66 10.34 -5.32 9.68 -6 9 C-5.34 8.401875 -4.68 7.80375 -4 7.1875 C-1.6626154 5.12498166 -1.6626154 5.12498166 -2 2 C-1.34 1.34 -0.68 0.68 0 0 Z " fill="#BB9955" transform="translate(376,182)"/>
<path d="M0 0 C1.32 0.66 2.64 1.32 4 2 C1.69 4.31 -0.62 6.62 -3 9 C-3.33 8.01 -3.66 7.02 -4 6 C-3.525625 5.566875 -3.05125 5.13375 -2.5625 4.6875 C-0.76313043 2.97690387 -0.76313043 2.97690387 0 0 Z " fill="#BA9553" transform="translate(350,425)"/>
<path d="M0 0 C0.66 0.66 1.32 1.32 2 2 C0.9171875 2.61875 0.9171875 2.61875 -0.1875 3.25 C-2.97969862 4.98736803 -5.47012585 6.90381857 -8 9 C-7.45712148 5.19985035 -5.88535357 3.46103687 -3 1 C-2.01 0.67 -1.02 0.34 0 0 Z " fill="#C29F5E" transform="translate(367,412)"/>
<path d="M0 0 C1.32 0 2.64 0 4 0 C4 0.66 4 1.32 4 2 C-1.77759884 2.12036664 -7.27959989 1.8320582 -13 1 C-13 0.67 -13 0.34 -13 0 C-8.27070027 -0.7214186 -4.68000466 -1.17000116 0 0 Z " fill="#D9C08D" transform="translate(253,526)"/>
<path d="M0 0 C0.66 1.32 1.32 2.64 2 4 C-0.5654594 6.5654594 -2.47686668 6.54046087 -6 7 C-4.02 4.69 -2.04 2.38 0 0 Z " fill="#BA995A" transform="translate(276,242)"/>
<path d="M0 0 C0.33 0.66 0.66 1.32 1 2 C1.66 2 2.32 2 3 2 C2.67 4.64 2.34 7.28 2 10 C1.67 9.01 1.34 8.02 1 7 C0.34 7 -0.32 7 -1 7 C-0.67 4.69 -0.34 2.38 0 0 Z " fill="#B48F49" transform="translate(354,785)"/>
<path d="M0 0 C4.79280002 0.80904103 6.13520113 3.25984591 9 7 C6 7 6 7 4.39453125 5.46875 C3.87246094 4.8190625 3.35039063 4.169375 2.8125 3.5 C2.28269531 2.8503125 1.75289062 2.200625 1.20703125 1.53125 C0.80871094 1.0259375 0.41039062 0.520625 0 0 Z " fill="#B9934F" transform="translate(727,768)"/>
<path d="M0 0 C2.3125 -0.25 2.3125 -0.25 5 0 C6.8125 2 6.8125 2 8 4 C7.67 4.66 7.34 5.32 7 6 C6.01 6 5.02 6 4 6 C1.8125 3 1.8125 3 0 0 Z " fill="#BC9550" transform="translate(410,673)"/>
<path d="M0 0 C0.33 0.66 0.66 1.32 1 2 C-0.28524261 2.86380259 -1.57842419 3.71580369 -2.875 4.5625 C-3.59429688 5.03816406 -4.31359375 5.51382813 -5.0546875 6.00390625 C-5.69664062 6.33261719 -6.33859375 6.66132812 -7 7 C-7.66 6.67 -8.32 6.34 -9 6 C-6.22719294 2.91910327 -3.93673644 1.31224548 0 0 Z " fill="#A87D2F" transform="translate(718,636)"/>
<path d="M0 0 C0 3 0 3 -2.3125 5.5625 C-5 8 -5 8 -8 10 C-7.44449305 6.40094092 -6.25112752 5.00090201 -3.4375 2.75 C-2.79683594 2.22921875 -2.15617187 1.7084375 -1.49609375 1.171875 C-1.00238281 0.78515625 -0.50867188 0.3984375 0 0 Z " fill="#A07529" transform="translate(367,769)"/>
<path d="M0 0 C0.99 0.33 1.98 0.66 3 1 C0.69 3.31 -1.62 5.62 -4 8 C-4.33 7.01 -4.66 6.02 -5 5 C-3.35 3.35 -1.7 1.7 0 0 Z " fill="#BB9756" transform="translate(775,770)"/>
<path d="M0 0 C0.99 0.33 1.98 0.66 3 1 C0.69 3.31 -1.62 5.62 -4 8 C-4.33 7.01 -4.66 6.02 -5 5 C-3.35 3.35 -1.7 1.7 0 0 Z " fill="#BE9A5C" transform="translate(791,754)"/>
<path d="M0 0 C0.99 0.33 1.98 0.66 3 1 C3 1.99 3 2.98 3 4 C2.34 4 1.68 4 1 4 C0.67 5.32 0.34 6.64 0 8 C-0.66 8 -1.32 8 -2 8 C-2 6.35 -2 4.7 -2 3 C-1.34 3 -0.68 3 0 3 C0 2.01 0 1.02 0 0 Z " fill="#BC9857" transform="translate(418,716)"/>
<path d="M0 0 C0.99 0.33 1.98 0.66 3 1 C2.46930939 4.82097239 1.50298434 7.06171403 -1 10 C-1.125 3.375 -1.125 3.375 0 0 Z " fill="#BA9757" transform="translate(494,275)"/>
<path d="M0 0 C3.08089673 2.77280706 4.68775452 5.06326356 6 9 C2.56225537 7.85408512 1.82586841 7.04311402 0 4 C0 2.68 0 1.36 0 0 Z " fill="#B89452" transform="translate(709,774)"/>
<path d="M0 0 C1.875 0.625 1.875 0.625 4 2 C5.25 5.125 5.25 5.125 6 8 C5.34 8 4.68 8 4 8 C0 2.58823529 0 2.58823529 0 0 Z " fill="#A77E3A" transform="translate(798,716)"/>
<path d="M0 0 C0.99 0.33 1.98 0.66 3 1 C0.69 3.64 -1.62 6.28 -4 9 C-4.33 8.01 -4.66 7.02 -5 6 C-3.59554165 3.7363436 -1.8032087 1.9791315 0 0 Z " fill="#A2782E" transform="translate(694,653)"/>
<path d="M0 0 C1.65 1.32 3.3 2.64 5 4 C4.01 4 3.02 4 2 4 C2 5.65 2 7.3 2 9 C0 7 0 7 -0.125 3.375 C-0.08375 2.26125 -0.0425 1.1475 0 0 Z " fill="#BC9856" transform="translate(715,822)"/>
<path d="M0 0 C0.66 0.33 1.32 0.66 2 1 C1.67 1.99 1.34 2.98 1 4 C0.34 4 -0.32 4 -1 4 C-1 4.66 -1 5.32 -1 6 C-2.65 5.67 -4.3 5.34 -6 5 C-5.34 4.67 -4.68 4.34 -4 4 C-3.67 3.34 -3.34 2.68 -3 2 C-2.67 2.33 -2.34 2.66 -2 3 C-1.34 2.01 -0.68 1.02 0 0 Z " fill="#B6914A" transform="translate(686,668)"/>
<path d="M0 0 C0.66 0 1.32 0 2 0 C3.38938077 1.96147874 4.7260411 3.96166576 6 6 C3 6 3 6 0 5 C0 3.35 0 1.7 0 0 Z " fill="#BE9A5B" transform="translate(200,577)"/>
<path d="M0 0 C1.32 0.33 2.64 0.66 4 1 C4 1.66 4 2.32 4 3 C4.66 3 5.32 3 6 3 C6 3.66 6 4.32 6 5 C5.34 5 4.68 5 4 5 C3.67 5.66 3.34 6.32 3 7 C0 2.25 0 2.25 0 0 Z " fill="#B99352" transform="translate(186,557)"/>
<path d="M0 0 C1.98 1.65 3.96 3.3 6 5 C5.01 5.66 4.02 6.32 3 7 C1.5 5.75 1.5 5.75 0 4 C0 2.68 0 1.36 0 0 Z " fill="#B89451" transform="translate(537,457)"/>
<path d="M0 0 C0.66 0 1.32 0 2 0 C2.66 0.99 3.32 1.98 4 3 C3.67 3.99 3.34 4.98 3 6 C1 6 1 6 -2 5 C-1.34 3.35 -0.68 1.7 0 0 Z " fill="#CBAB6C" transform="translate(407,450)"/>
<path d="M0 0 C2.62187494 1.04874998 3.79371361 1.64931313 5.25 4.125 C5.4975 4.74375 5.745 5.3625 6 6 C4.35 6 2.7 6 1 6 C0.67 4.02 0.34 2.04 0 0 Z " fill="#B99250" transform="translate(396,439)"/>
<path d="M0 0 C1.65 0 3.3 0 5 0 C5 0.66 5 1.32 5 2 C5.66 2 6.32 2 7 2 C7 2.66 7 3.32 7 4 C6.01 4.33 5.02 4.66 4 5 C2.68 3.35 1.36 1.7 0 0 Z " fill="#B7904B" transform="translate(247,433)"/>
<path d="M0 0 C1.38111722 2.2747813 2.05694702 3.50171361 1.75 6.1875 C1 8 1 8 -1 9 C-1.09765625 2.84765625 -1.09765625 2.84765625 -1 1 C-0.67 0.67 -0.34 0.34 0 0 Z " fill="#A57525" transform="translate(422,702)"/>
<path d="M0 0 C1.98 1.65 3.96 3.3 6 5 C5.01 5.66 4.02 6.32 3 7 C0 3.375 0 3.375 0 0 Z " fill="#B89453" transform="translate(744,660)"/>
<path d="M0 0 C0.66 0.66 1.32 1.32 2 2 C0.35 4.31 -1.3 6.62 -3 9 C-3.33 7.68 -3.66 6.36 -4 5 C-2.0625 2.25 -2.0625 2.25 0 0 Z " fill="#B48E49" transform="translate(667,647)"/>
<path d="M0 0 C1 3 1 3 0.0625 5.1875 C-0.4634375 6.0846875 -0.4634375 6.0846875 -1 7 C-1.66 6.67 -2.32 6.34 -3 6 C-3 3 -3 3 -1.5 1.3125 C-0.7575 0.6628125 -0.7575 0.6628125 0 0 Z " fill="#B99655" transform="translate(254,265)"/>
<path d="M0 0 C3.83736322 0.95934081 4.59660228 1.23609263 7 4 C6.67 4.99 6.34 5.98 6 7 C4.02 4.69 2.04 2.38 0 0 Z " fill="#A88039" transform="translate(448,212)"/>
<path d="M0 0 C4.75 0.875 4.75 0.875 7 2 C7 2.66 7 3.32 7 4 C6.21625 3.814375 5.4325 3.62875 4.625 3.4375 C2.02910225 2.74037734 2.02910225 2.74037734 0 4 C0 2.68 0 1.36 0 0 Z " fill="#C5A266" transform="translate(250,620)"/>
<path d="M0 0 C3.3 0 6.6 0 10 0 C5.64467851 2.17766075 4.53374042 2.03039555 0 1 C0 0.67 0 0.34 0 0 Z " fill="#E7D09F" transform="translate(680,838)"/>
<path d="M0 0 C2.97 0 5.94 0 9 0 C9 0.33 9 0.66 9 1 C6.03 1 3.06 1 0 1 C0 0.67 0 0.34 0 0 Z " fill="#E7D1A1" transform="translate(404,838)"/>
<path d="M0 0 C1.32 0.33 2.64 0.66 4 1 C3.01 2.485 3.01 2.485 2 4 C2 3.34 2 2.68 2 2 C1.34 2 0.68 2 0 2 C0 1.34 0 0.68 0 0 Z " fill="#E5CD9B" transform="translate(736,780)"/>
<path d="M0 0 C0.33 1.32 0.66 2.64 1 4 C0.01 4.495 0.01 4.495 -1 5 C-0.67 3.35 -0.34 1.7 0 0 Z " fill="#E4CB95" transform="translate(417,688)"/>
<path d="M0 0 C1.98 0 3.96 0 6 0 C4.02 0.99 4.02 0.99 2 2 C1.34 1.34 0.68 0.68 0 0 Z " fill="#E8D0A1" transform="translate(416,838)"/>
<path d="M0 0 C1.32 0 2.64 0 4 0 C3.67 0.66 3.34 1.32 3 2 C2.01 2 1.02 2 0 2 C0 1.34 0 0.68 0 0 Z " fill="#E9D5A8" transform="translate(216,336)"/>
<path d="M0 0 C1.32 0.33 2.64 0.66 4 1 C2.02 1.99 2.02 1.99 0 3 C0 2.01 0 1.02 0 0 Z " fill="#EBD6A8" transform="translate(241,292)"/>
<path d="M0 0 C0.33 0 0.66 0 1 0 C1 1.65 1 3.3 1 5 C0.34 4.67 -0.32 4.34 -1 4 C-0.67 2.68 -0.34 1.36 0 0 Z " fill="#E4CA95" transform="translate(418,692)"/>
<path d="M0 0 C0.66 0.99 1.32 1.98 2 3 C1.01 3 0.02 3 -1 3 C-0.67 2.01 -0.34 1.02 0 0 Z " fill="#E8D4A5" transform="translate(394,512)"/>
<path d="M0 0 C0.99 0.495 0.99 0.495 2 1 C1.67 1.99 1.34 2.98 1 4 C0.67 2.68 0.34 1.36 0 0 Z " fill="#EBD8AC" transform="translate(208,345)"/>
<path d="M0 0 C1.65 0 3.3 0 5 0 C5 0.33 5 0.66 5 1 C3.35 1 1.7 1 0 1 C0 0.67 0 0.34 0 0 Z " fill="#E5CD9C" transform="translate(395,838)"/>
<path d="M0 0 C1.32 0.33 2.64 0.66 4 1 C2.68 1.33 1.36 1.66 0 2 C0 1.34 0 0.68 0 0 Z " fill="#E7D3A0" transform="translate(392,744)"/>
<path d="M0 0 C1.32 0.33 2.64 0.66 4 1 C3.01 1.495 3.01 1.495 2 2 C1.34 1.34 0.68 0.68 0 0 Z " fill="#E0C38A" transform="translate(696,741)"/>
<path d="M0 0 C0.66 0.66 1.32 1.32 2 2 C1.01 2 0.02 2 -1 2 C-0.67 1.34 -0.34 0.68 0 0 Z " fill="#E5CD97" transform="translate(401,668)"/>
<path d="M0 0 C1.98 0.99 1.98 0.99 4 2 C2.68 2 1.36 2 0 2 C0 1.34 0 0.68 0 0 Z " fill="#E9D4A6" transform="translate(279,636)"/>
<path d="M0 0 C1.98 0.99 1.98 0.99 4 2 C2.68 1.67 1.36 1.34 0 1 C0 0.67 0 0.34 0 0 Z " fill="#EAD6A8" transform="translate(257,626)"/>
<path d="M0 0 C0.66 0 1.32 0 2 0 C1.67 0.99 1.34 1.98 1 3 C0.67 2.01 0.34 1.02 0 0 Z " fill="#EEDAAE" transform="translate(177,541)"/>
<path d="M0 0 C0.33 0.99 0.66 1.98 1 3 C0.01 3.495 0.01 3.495 -1 4 C-0.67 2.68 -0.34 1.36 0 0 Z " fill="#EFDAAF" transform="translate(177,537)"/>
<path d="M0 0 C0.99 0 1.98 0 3 0 C3 0.66 3 1.32 3 2 C2.01 2 1.02 2 0 2 C0 1.34 0 0.68 0 0 Z " fill="#ECD9AE" transform="translate(200,352)"/>
<path d="M0 0 C0.99 0.33 1.98 0.66 3 1 C2.01 1 1.02 1 0 1 C0 0.67 0 0.34 0 0 Z " fill="#E8CF9F" transform="translate(647,838)"/>
<path d="M0 0 C4 1 4 1 4 1 Z " fill="#E6CE9C" transform="translate(654,838)"/>
<path d="M0 0 C4 1 4 1 4 1 Z " fill="#E7CF9F" transform="translate(443,838)"/>
<path d="M0 0 C0.99 0.33 1.98 0.66 3 1 C2.01 1 1.02 1 0 1 C0 0.67 0 0.34 0 0 Z " fill="#EFDDB4" transform="translate(357,836)"/>
<path d="M0 0 C0.99 0.33 1.98 0.66 3 1 C2.01 1.33 1.02 1.66 0 2 C0 1.34 0 0.68 0 0 Z " fill="#E5CC98" transform="translate(522,827)"/>
<path d="M0 0 C0.66 0.66 1.32 1.32 2 2 C1.01 1.67 0.02 1.34 -1 1 C-0.67 0.67 -0.34 0.34 0 0 Z " fill="#E1C58C" transform="translate(681,724)"/>
<path d="M0 0 C0 3 0 3 0 3 Z " fill="#E6CD98" transform="translate(417,711)"/>
<path d="M0 0 C4 1 4 1 4 1 Z " fill="#E7CF9C" transform="translate(375,661)"/>
<path d="M0 0 C0.66 0.33 1.32 0.66 2 1 C1.01 1 0.02 1 -1 1 C-0.67 0.67 -0.34 0.34 0 0 Z " fill="#DFC38D" transform="translate(696,648)"/>
<path d="M0 0 C0.33 0.66 0.66 1.32 1 2 C0.01 1.67 -0.98 1.34 -2 1 C-1.34 0.67 -0.68 0.34 0 0 Z " fill="#EBD7AC" transform="translate(234,612)"/>
<path d="M0 0 C0.99 1.485 0.99 1.485 2 3 C1.34 3 0.68 3 0 3 C0 2.01 0 1.02 0 0 Z " fill="#EEDBB4" transform="translate(176,543)"/>
<path d="M0 0 C0.66 0.66 1.32 1.32 2 2 C1.01 2.495 1.01 2.495 0 3 C0 2.01 0 1.02 0 0 Z " fill="#ECD6A8" transform="translate(281,468)"/>
<path d="M0 0 C0.66 0.66 1.32 1.32 2 2 C1.01 1.67 0.02 1.34 -1 1 C-0.67 0.67 -0.34 0.34 0 0 Z " fill="#E6CD97" transform="translate(351,430)"/>
<path d="M0 0 C0 3 0 3 0 3 Z " fill="#E3CA98" transform="translate(471,387)"/>
<path d="M0 0 C0 3 0 3 0 3 Z " fill="#EAD6A5" transform="translate(353,202)"/>
<path d="M0 0 C0.66 0 1.32 0 2 0 C1.67 0.66 1.34 1.32 1 2 C0.67 1.34 0.34 0.68 0 0 Z " fill="#E9D4A4" transform="translate(702,838)"/>
<path d="M0 0 C0.99 0.495 0.99 0.495 2 1 C1.01 1.495 1.01 1.495 0 2 C0 1.34 0 0.68 0 0 Z " fill="#E9D4A4" transform="translate(697,838)"/>
<path d="M0 0 C3 1 3 1 3 1 Z " fill="#E6CF9D" transform="translate(676,838)"/>
<path d="M0 0 C3 1 3 1 3 1 Z " fill="#E5CC9B" transform="translate(665,838)"/>
<path d="M0 0 C3 1 3 1 3 1 Z " fill="#E6CD9C" transform="translate(659,838)"/>
<path d="M0 0 C0.66 0.66 1.32 1.32 2 2 C1.34 2 0.68 2 0 2 C0 1.34 0 0.68 0 0 Z " fill="#E7D09F" transform="translate(458,837)"/>
<path d="M0 0 C3 1 3 1 3 1 Z " fill="#E7D0A1" transform="translate(452,838)"/>
<path d="M0 0 C3 1 3 1 3 1 Z " fill="#E7CF9F" transform="translate(438,838)"/>
<path d="M0 0 C0.99 0.495 0.99 0.495 2 1 C1.01 1.495 1.01 1.495 0 2 C0 1.34 0 0.68 0 0 Z " fill="#E8CF9E" transform="translate(470,835)"/>
<path d="M0 0 C0.66 0 1.32 0 2 0 C1.67 0.66 1.34 1.32 1 2 C0.67 1.34 0.34 0.68 0 0 Z " fill="#E7CE9B" transform="translate(477,833)"/>
<path d="M0 0 C0.66 0 1.32 0 2 0 C1.67 0.66 1.34 1.32 1 2 C0.67 1.34 0.34 0.68 0 0 Z " fill="#E6CA97" transform="translate(491,830)"/>
<path d="M0 0 C0.66 0.66 1.32 1.32 2 2 C1.34 2 0.68 2 0 2 C0 1.34 0 0.68 0 0 Z " fill="#E2C68F" transform="translate(723,766)"/>
<path d="M0 0 C3 1 3 1 3 1 Z " fill="#E3C78F" transform="translate(688,733)"/>
<path d="M0 0 C0.99 0.495 0.99 0.495 2 1 C1.01 1.495 1.01 1.495 0 2 C0 1.34 0 0.68 0 0 Z " fill="#E4CB96" transform="translate(408,732)"/>
<path d="" fill="#E5CD9A" transform="translate(0,0)"/>
<path d="" fill="#E4CC93" transform="translate(0,0)"/>
<path d="" fill="#E7CE99" transform="translate(0,0)"/>
<path d="" fill="#DFC489" transform="translate(0,0)"/>
<path d="M0 0 C0.66 0.66 1.32 1.32 2 2 C1.34 2 0.68 2 0 2 C0 1.34 0 0.68 0 0 Z " fill="#E4C897" transform="translate(403,670)"/>
<path d="M0 0 C0.99 0.495 0.99 0.495 2 1 C1.01 1.495 1.01 1.495 0 2 C0 1.34 0 0.68 0 0 Z " fill="#E9D2A1" transform="translate(362,659)"/>
<path d="M0 0 C0.99 0.495 0.99 0.495 2 1 C1.01 1.495 1.01 1.495 0 2 C0 1.34 0 0.68 0 0 Z " fill="#EBD8AC" transform="translate(272,634)"/>
<path d="M0 0 C0.66 0 1.32 0 2 0 C1.67 0.66 1.34 1.32 1 2 C0.67 1.34 0.34 0.68 0 0 Z " fill="#E4CD98" transform="translate(713,634)"/>
<path d="M0 0 C3 1 3 1 3 1 Z " fill="#E3CF9F" transform="translate(216,599)"/>
<path d="" fill="#ECD9AC" transform="translate(0,0)"/>
<path d="M0 0 C3 1 3 1 3 1 Z " fill="#EFDAAE" transform="translate(185,563)"/>
<path d="M0 0 C3 1 3 1 3 1 Z " fill="#F4E3BC" transform="translate(184,525)"/>
<path d="M0 0 C0.66 0 1.32 0 2 0 C1.67 0.66 1.34 1.32 1 2 C0.67 1.34 0.34 0.68 0 0 Z " fill="#ECD7A9" transform="translate(560,492)"/>
<path d="M0 0 C3 1 3 1 3 1 Z " fill="#E6CD99" transform="translate(477,491)"/>
<path d="M0 0 C3 1 3 1 3 1 Z " fill="#E7CE9A" transform="translate(466,491)"/>
<path d="" fill="#EDDCAE" transform="translate(0,0)"/>
<path d="M0 0 C0.99 0.495 0.99 0.495 2 1 C1.01 1.495 1.01 1.495 0 2 C0 1.34 0 0.68 0 0 Z " fill="#E9D19C" transform="translate(438,486)"/>
<path d="M0 0 C0.33 0.66 0.66 1.32 1 2 C0.34 1.67 -0.32 1.34 -1 1 C-0.67 0.67 -0.34 0.34 0 0 Z " fill="#E7CE99" transform="translate(327,454)"/>
<path d="M0 0 C0.33 0.66 0.66 1.32 1 2 C0.34 1.67 -0.32 1.34 -1 1 C-0.67 0.67 -0.34 0.34 0 0 Z " fill="#E9D19F" transform="translate(401,450)"/>
<path d="M0 0 C0.33 0.66 0.66 1.32 1 2 C0.34 1.67 -0.32 1.34 -1 1 C-0.67 0.67 -0.34 0.34 0 0 Z " fill="#E7CE9A" transform="translate(487,401)"/>
<path d="" fill="#EDDAAC" transform="translate(0,0)"/>
<path d="M0 0 C0.66 0 1.32 0 2 0 C1.67 0.66 1.34 1.32 1 2 C0.67 1.34 0.34 0.68 0 0 Z " fill="#E6CD9B" transform="translate(310,229)"/>
<path d="M0 0 C3 1 3 1 3 1 Z " fill="#EBD9AB" transform="translate(288,224)"/>
<path d="" fill="#EDDAAD" transform="translate(0,0)"/>
<path d="" fill="#EAD5A9" transform="translate(0,0)"/>
<path d="M0 0 C2 1 2 1 2 1 Z " fill="#F0DFB8" transform="translate(358,839)"/>
<path d="M0 0 C2 1 2 1 2 1 Z " fill="#E6CFA2" transform="translate(694,838)"/>
<path d="M0 0 C2 1 2 1 2 1 Z " fill="#E5CF9E" transform="translate(691,838)"/>
<path d="M0 0 C2 1 2 1 2 1 Z " fill="#E5CD9C" transform="translate(642,838)"/>
<path d="M0 0 C2 1 2 1 2 1 Z " fill="#E6CF9E" transform="translate(626,838)"/>
<path d="M0 0 C2 1 2 1 2 1 Z " fill="#E7D09E" transform="translate(428,838)"/>
<path d="M0 0 C2 1 2 1 2 1 Z " fill="#E8D1A0" transform="translate(424,838)"/>
<path d="M0 0 C2 1 2 1 2 1 Z " fill="#E8D1A5" transform="translate(389,838)"/>
<path d="M0 0 C2 1 2 1 2 1 Z " fill="#E9D7A9" transform="translate(708,837)"/>
<path d="M0 0 C2 1 2 1 2 1 Z " fill="#E5CE9F" transform="translate(464,837)"/>
<path d="M0 0 C2 1 2 1 2 1 Z " fill="#F1E2C0" transform="translate(352,837)"/>
<path d="" fill="#EBD6AA" transform="translate(0,0)"/>
<path d="M0 0 C2 1 2 1 2 1 Z " fill="#E9CF9B" transform="translate(575,831)"/>
<path d="M0 0 C2 1 2 1 2 1 Z " fill="#E5CF9F" transform="translate(518,831)"/>
<path d="M0 0 C2 1 2 1 2 1 Z " fill="#E6CC96" transform="translate(579,830)"/>
<path d="M0 0 C2 1 2 1 2 1 Z " fill="#EAD1A2" transform="translate(543,829)"/>
<path d="M0 0 C2 1 2 1 2 1 Z " fill="#E5CC97" transform="translate(565,828)"/>
<path d="M0 0 C2 1 2 1 2 1 Z " fill="#E8CE99" transform="translate(560,827)"/>
<path d="" fill="#EAD3A3" transform="translate(0,0)"/>
<path d="" fill="#E9D4A1" transform="translate(0,0)"/>
<path d="" fill="#E3CC98" transform="translate(0,0)"/>
<path d="" fill="#EDD8A9" transform="translate(0,0)"/>
<path d="M0 0 C2 1 2 1 2 1 Z " fill="#EBD9AE" transform="translate(353,776)"/>
<path d="" fill="#E5CB96" transform="translate(0,0)"/>
<path d="" fill="#E4CA94" transform="translate(0,0)"/>
<path d="" fill="#E8CF9E" transform="translate(0,0)"/>
<path d="M0 0 C2 1 2 1 2 1 Z " fill="#E0C48B" transform="translate(701,766)"/>
<path d="M0 0 C2 1 2 1 2 1 Z " fill="#E5CA98" transform="translate(376,760)"/>
<path d="" fill="#E5D0A0" transform="translate(0,0)"/>
<path d="" fill="#E7CF9B" transform="translate(0,0)"/>
<path d="" fill="#E4CA98" transform="translate(0,0)"/>
<path d="M0 0 C2 1 2 1 2 1 Z " fill="#E7CD9A" transform="translate(416,705)"/>
<path d="M0 0 C2 1 2 1 2 1 Z " fill="#E3C88F" transform="translate(672,688)"/>
<path d="" fill="#DFC28D" transform="translate(0,0)"/>
<path d="" fill="#E5CB94" transform="translate(0,0)"/>
<path d="" fill="#EBD6A6" transform="translate(0,0)"/>
<path d="M0 0 C2 1 2 1 2 1 Z " fill="#E9CE9E" transform="translate(381,662)"/>
<path d="M0 0 C2 1 2 1 2 1 Z " fill="#E9D4A3" transform="translate(339,655)"/>
<path d="" fill="#EBD4A4" transform="translate(0,0)"/>
<path d="" fill="#EAD4A7" transform="translate(0,0)"/>
<path d="" fill="#E7D09F" transform="translate(0,0)"/>
<path d="M0 0 C2 1 2 1 2 1 Z " fill="#E9D3A7" transform="translate(320,650)"/>
<path d="" fill="#E5CB97" transform="translate(0,0)"/>
<path d="M0 0 C2 1 2 1 2 1 Z " fill="#E2C58C" transform="translate(671,647)"/>
<path d="" fill="#EBD5A8" transform="translate(0,0)"/>
<path d="M0 0 C2 1 2 1 2 1 Z " fill="#EDD8AC" transform="translate(278,639)"/>
<path d="" fill="#EEDAAC" transform="translate(0,0)"/>
<path d="M0 0 C2 1 2 1 2 1 Z " fill="#EAD5A7" transform="translate(276,635)"/>
<path d="M0 0 C2 1 2 1 2 1 Z " fill="#EAD6AA" transform="translate(261,628)"/>
<path d="M0 0 C2 1 2 1 2 1 Z " fill="#EEDCB2" transform="translate(244,622)"/>
<path d="" fill="#ECD9AB" transform="translate(0,0)"/>
<path d="M0 0 C2 1 2 1 2 1 Z " fill="#E8D19E" transform="translate(783,581)"/>
<path d="M0 0 C2 1 2 1 2 1 Z " fill="#E2CE9B" transform="translate(801,575)"/>
<path d="M0 0 C2 1 2 1 2 1 Z " fill="#ECD6AA" transform="translate(192,575)"/>
<path d="M0 0 C2 1 2 1 2 1 Z " fill="#EFDDB7" transform="translate(833,513)"/>
<path d="M0 0 C2 1 2 1 2 1 Z " fill="#E7D0A1" transform="translate(422,512)"/>
<path d="M0 0 C2 1 2 1 2 1 Z " fill="#E7D19D" transform="translate(550,491)"/>
<path d="M0 0 C2 1 2 1 2 1 Z " fill="#E6CC95" transform="translate(517,491)"/>
<path d="M0 0 C2 1 2 1 2 1 Z " fill="#E7CC96" transform="translate(502,491)"/>
<path d="M0 0 C2 1 2 1 2 1 Z " fill="#E6CC98" transform="translate(485,491)"/>
<path d="M0 0 C2 1 2 1 2 1 Z " fill="#E9D29F" transform="translate(440,487)"/>
<path d="" fill="#E9D09C" transform="translate(0,0)"/>
<path d="M0 0 C2 1 2 1 2 1 Z " fill="#EED9B1" transform="translate(279,467)"/>
<path d="M0 0 C2 1 2 1 2 1 Z " fill="#EAD2A1" transform="translate(265,454)"/>
<path d="" fill="#E7D19E" transform="translate(0,0)"/>
<path d="M0 0 C2 1 2 1 2 1 Z " fill="#E6CE98" transform="translate(386,434)"/>
<path d="" fill="#E5CD97" transform="translate(0,0)"/>
<path d="" fill="#ECD6A3" transform="translate(0,0)"/>
<path d="M0 0 C2 1 2 1 2 1 Z " fill="#E8CD9B" transform="translate(509,424)"/>
<path d="M0 0 C2 1 2 1 2 1 Z " fill="#DFC488" transform="translate(366,415)"/>
<path d="M0 0 C2 1 2 1 2 1 Z " fill="#EBD2A1" transform="translate(224,413)"/>
<path d="" fill="#EBD3A3" transform="translate(0,0)"/>
<path d="" fill="#E8D3A5" transform="translate(0,0)"/>
<path d="M0 0 C2 1 2 1 2 1 Z " fill="#E4CC9A" transform="translate(478,396)"/>
<path d="M0 0 C2 1 2 1 2 1 Z " fill="#EFDEB3" transform="translate(196,372)"/>
<path d="" fill="#EDDAAD" transform="translate(0,0)"/>
<path d="M0 0 C2 1 2 1 2 1 Z " fill="#E7D5A5" transform="translate(226,328)"/>
<path d="M0 0 C2 1 2 1 2 1 Z " fill="#E4CE9C" transform="translate(249,307)"/>
<path d="M0 0 C2 1 2 1 2 1 Z " fill="#E8D09D" transform="translate(481,301)"/>
<path d="M0 0 C2 1 2 1 2 1 Z " fill="#E8CF9A" transform="translate(493,287)"/>
<path d="M0 0 C2 1 2 1 2 1 Z " fill="#E8D1A3" transform="translate(498,277)"/>
<path d="" fill="#E8D5A7" transform="translate(0,0)"/>
<path d="M0 0 C2 1 2 1 2 1 Z " fill="#E4CD9C" transform="translate(486,240)"/>
<path d="M0 0 C2 1 2 1 2 1 Z " fill="#E7CE9C" transform="translate(481,240)"/>
<path d="" fill="#E7D19F" transform="translate(0,0)"/>
<path d="" fill="#EAD6A8" transform="translate(0,0)"/>
<path d="" fill="#E8D39D" transform="translate(0,0)"/>
<path d="M0 0 C2 1 2 1 2 1 Z " fill="#E7D09C" transform="translate(452,212)"/>
<path d="M0 0 C2 1 2 1 2 1 Z " fill="#E7D2A4" transform="translate(360,193)"/>
<path d="" fill="#EBD7A8" transform="translate(0,0)"/>
<path d="" fill="#F0DEB7" transform="translate(0,0)"/>
<path d="" fill="#EDDAB0" transform="translate(0,0)"/>
<path d="" fill="#EAD6A6" transform="translate(0,0)"/>
<path d="" fill="#E7D1A1" transform="translate(0,0)"/>
<path d="" fill="#E9D4AA" transform="translate(0,0)"/>
<path d="" fill="#E8D1A2" transform="translate(0,0)"/>
<path d="" fill="#E7D3A4" transform="translate(0,0)"/>
<path d="" fill="#E9D7A8" transform="translate(0,0)"/>
<path d="" fill="#F4E4C0" transform="translate(0,0)"/>
<path d="" fill="#F3E6C5" transform="translate(0,0)"/>
<path d="" fill="#EBD9AC" transform="translate(0,0)"/>
<path d="" fill="#EBD8AA" transform="translate(0,0)"/>
<path d="" fill="#E6D0A1" transform="translate(0,0)"/>
<path d="" fill="#E5C999" transform="translate(0,0)"/>
<path d="" fill="#E4CC9B" transform="translate(0,0)"/>
<path d="" fill="#E5CB9A" transform="translate(0,0)"/>
<path d="" fill="#E7D19D" transform="translate(0,0)"/>
<path d="" fill="#E6D29C" transform="translate(0,0)"/>
<path d="" fill="#E5CD9C" transform="translate(0,0)"/>
<path d="" fill="#E8CF9F" transform="translate(0,0)"/>
<path d="" fill="#E9CF9C" transform="translate(0,0)"/>
<path d="" fill="#E8D19E" transform="translate(0,0)"/>
<path d="" fill="#E9D6A7" transform="translate(0,0)"/>
<path d="" fill="#E7D1A2" transform="translate(0,0)"/>
<path d="" fill="#E7D1A2" transform="translate(0,0)"/>
<path d="" fill="#E6CF9F" transform="translate(0,0)"/>
<path d="" fill="#ECD9B0" transform="translate(0,0)"/>
<path d="" fill="#E9D6A7" transform="translate(0,0)"/>
<path d="" fill="#F1E1BC" transform="translate(0,0)"/>
<path d="" fill="#E8D1A2" transform="translate(0,0)"/>
<path d="" fill="#E9D3A3" transform="translate(0,0)"/>
<path d="" fill="#E6CE9C" transform="translate(0,0)"/>
<path d="" fill="#E7CF99" transform="translate(0,0)"/>
<path d="" fill="#EBD9B1" transform="translate(0,0)"/>
<path d="" fill="#EBD8AB" transform="translate(0,0)"/>
<path d="" fill="#E5CB96" transform="translate(0,0)"/>
<path d="" fill="#E9D3A3" transform="translate(0,0)"/>
<path d="" fill="#E8D1A5" transform="translate(0,0)"/>
<path d="" fill="#E8D0A2" transform="translate(0,0)"/>
<path d="" fill="#E6CE9A" transform="translate(0,0)"/>
<path d="" fill="#E0C995" transform="translate(0,0)"/>
<path d="" fill="#DDC692" transform="translate(0,0)"/>
<path d="" fill="#E4CC9B" transform="translate(0,0)"/>
<path d="" fill="#E5CB98" transform="translate(0,0)"/>
<path d="" fill="#E8CE98" transform="translate(0,0)"/>
<path d="" fill="#EAD09C" transform="translate(0,0)"/>
<path d="" fill="#E5CD97" transform="translate(0,0)"/>
<path d="" fill="#E0C996" transform="translate(0,0)"/>
<path d="" fill="#E7CE98" transform="translate(0,0)"/>
<path d="" fill="#E7CE97" transform="translate(0,0)"/>
<path d="" fill="#E9D4A3" transform="translate(0,0)"/>
<path d="" fill="#EACF9A" transform="translate(0,0)"/>
<path d="" fill="#E8CF9B" transform="translate(0,0)"/>
<path d="" fill="#EAD19F" transform="translate(0,0)"/>
<path d="" fill="#E6D09C" transform="translate(0,0)"/>
<path d="" fill="#E8CE9D" transform="translate(0,0)"/>
<path d="" fill="#E5CE9D" transform="translate(0,0)"/>
<path d="" fill="#E3CB9A" transform="translate(0,0)"/>
<path d="" fill="#EBD9B0" transform="translate(0,0)"/>
<path d="" fill="#E3C993" transform="translate(0,0)"/>
<path d="" fill="#E1C790" transform="translate(0,0)"/>
<path d="" fill="#EDD7AE" transform="translate(0,0)"/>
<path d="" fill="#EDD7A9" transform="translate(0,0)"/>
<path d="" fill="#DEC38A" transform="translate(0,0)"/>
<path d="" fill="#E8D1A2" transform="translate(0,0)"/>
<path d="" fill="#E8D4AA" transform="translate(0,0)"/>
<path d="" fill="#EDD8AF" transform="translate(0,0)"/>
<path d="" fill="#E9D6AA" transform="translate(0,0)"/>
<path d="" fill="#EDDFAE" transform="translate(0,0)"/>
<path d="" fill="#E8D5A5" transform="translate(0,0)"/>
<path d="" fill="#ECDDB4" transform="translate(0,0)"/>
<path d="" fill="#ECD8AF" transform="translate(0,0)"/>
<path d="" fill="#E1C68E" transform="translate(0,0)"/>
<path d="" fill="#E8D2A2" transform="translate(0,0)"/>
<path d="" fill="#E5C78E" transform="translate(0,0)"/>
<path d="" fill="#FFFEFF" transform="translate(0,0)"/>
<path d="" fill="#DABD85" transform="translate(0,0)"/>
<path d="" fill="#DFC389" transform="translate(0,0)"/>
<path d="" fill="#ECD9AB" transform="translate(0,0)"/>
<path d="" fill="#E2C288" transform="translate(0,0)"/>
<path d="" fill="#E1C58B" transform="translate(0,0)"/>
<path d="" fill="#E5C795" transform="translate(0,0)"/>
<path d="" fill="#E6D09F" transform="translate(0,0)"/>
<path d="" fill="#DFC58D" transform="translate(0,0)"/>
<path d="" fill="#DBBE84" transform="translate(0,0)"/>
<path d="" fill="#DEC58F" transform="translate(0,0)"/>
<path d="" fill="#EBD5A7" transform="translate(0,0)"/>
<path d="" fill="#EBD9AF" transform="translate(0,0)"/>
<path d="" fill="#DEBF8C" transform="translate(0,0)"/>
<path d="" fill="#E0C286" transform="translate(0,0)"/>
<path d="" fill="#EAD5A2" transform="translate(0,0)"/>
<path d="" fill="#DABE88" transform="translate(0,0)"/>
<path d="" fill="#DDBE85" transform="translate(0,0)"/>
<path d="" fill="#E6CE9D" transform="translate(0,0)"/>
<path d="" fill="#E9D5A5" transform="translate(0,0)"/>
<path d="" fill="#E1C28A" transform="translate(0,0)"/>
<path d="" fill="#E2C68E" transform="translate(0,0)"/>
<path d="" fill="#E0C189" transform="translate(0,0)"/>
<path d="" fill="#E6CE9A" transform="translate(0,0)"/>
<path d="" fill="#EDD49D" transform="translate(0,0)"/>
<path d="" fill="#E6D09A" transform="translate(0,0)"/>
<path d="" fill="#E0C38C" transform="translate(0,0)"/>
<path d="" fill="#E4CD98" transform="translate(0,0)"/>
<path d="" fill="#ECD9AC" transform="translate(0,0)"/>
<path d="" fill="#ECD9AE" transform="translate(0,0)"/>
<path d="" fill="#DEC188" transform="translate(0,0)"/>
<path d="" fill="#E5D09D" transform="translate(0,0)"/>
<path d="" fill="#E1C28B" transform="translate(0,0)"/>
<path d="" fill="#E5D19D" transform="translate(0,0)"/>
<path d="" fill="#E1C58F" transform="translate(0,0)"/>
<path d="" fill="#E4C78C" transform="translate(0,0)"/>
<path d="" fill="#E4C58E" transform="translate(0,0)"/>
<path d="" fill="#E1C68D" transform="translate(0,0)"/>
<path d="" fill="#E7CF9C" transform="translate(0,0)"/>
<path d="" fill="#DCC186" transform="translate(0,0)"/>
<path d="" fill="#E8CD9C" transform="translate(0,0)"/>
<path d="" fill="#E1C48D" transform="translate(0,0)"/>
<path d="" fill="#E3C98E" transform="translate(0,0)"/>
<path d="" fill="#E0C48B" transform="translate(0,0)"/>
<path d="" fill="#E5CD96" transform="translate(0,0)"/>
<path d="" fill="#E4C690" transform="translate(0,0)"/>
<path d="" fill="#E8D5AD" transform="translate(0,0)"/>
<path d="" fill="#E5CE9A" transform="translate(0,0)"/>
<path d="" fill="#EFDBAD" transform="translate(0,0)"/>
<path d="" fill="#E8D5A2" transform="translate(0,0)"/>
<path d="" fill="#E0C58D" transform="translate(0,0)"/>
<path d="" fill="#E1C58C" transform="translate(0,0)"/>
<path d="" fill="#E1C68B" transform="translate(0,0)"/>
<path d="" fill="#E0C68D" transform="translate(0,0)"/>
<path d="" fill="#E5CB94" transform="translate(0,0)"/>
<path d="" fill="#E0C489" transform="translate(0,0)"/>
<path d="" fill="#E7D0A0" transform="translate(0,0)"/>
<path d="" fill="#DCC087" transform="translate(0,0)"/>
<path d="" fill="#E9D3A6" transform="translate(0,0)"/>
<path d="" fill="#E1C58B" transform="translate(0,0)"/>
<path d="" fill="#E9D5A7" transform="translate(0,0)"/>
<path d="" fill="#E9D3A2" transform="translate(0,0)"/>
<path d="" fill="#E8D2A4" transform="translate(0,0)"/>
<path d="" fill="#E4CD96" transform="translate(0,0)"/>
<path d="" fill="#E8D1A1" transform="translate(0,0)"/>
<path d="" fill="#E7CE9A" transform="translate(0,0)"/>
<path d="" fill="#DFC38C" transform="translate(0,0)"/>
<path d="" fill="#E4CB98" transform="translate(0,0)"/>
<path d="" fill="#E1CC98" transform="translate(0,0)"/>
<path d="" fill="#E5CA96" transform="translate(0,0)"/>
<path d="" fill="#E6CB98" transform="translate(0,0)"/>
<path d="" fill="#E2CD98" transform="translate(0,0)"/>
<path d="" fill="#E5CD98" transform="translate(0,0)"/>
<path d="" fill="#DEC48B" transform="translate(0,0)"/>
<path d="" fill="#DBC087" transform="translate(0,0)"/>
<path d="" fill="#E7D3A3" transform="translate(0,0)"/>
<path d="" fill="#E1C48B" transform="translate(0,0)"/>
<path d="" fill="#E5CD98" transform="translate(0,0)"/>
<path d="" fill="#E4CD95" transform="translate(0,0)"/>
<path d="" fill="#E7D1A1" transform="translate(0,0)"/>
<path d="" fill="#E4CC93" transform="translate(0,0)"/>
<path d="" fill="#E5C995" transform="translate(0,0)"/>
<path d="" fill="#E0C792" transform="translate(0,0)"/>
<path d="" fill="#E7CE9A" transform="translate(0,0)"/>
<path d="" fill="#E3C790" transform="translate(0,0)"/>
<path d="" fill="#E1CA90" transform="translate(0,0)"/>
<path d="" fill="#DEC38A" transform="translate(0,0)"/>
<path d="" fill="#E3C78E" transform="translate(0,0)"/>
<path d="" fill="#E7D2A2" transform="translate(0,0)"/>
<path d="" fill="#E2CB93" transform="translate(0,0)"/>
<path d="" fill="#E1C48B" transform="translate(0,0)"/>
<path d="" fill="#E7D09D" transform="translate(0,0)"/>
<path d="" fill="#E8D29D" transform="translate(0,0)"/>
<path d="" fill="#EAD09F" transform="translate(0,0)"/>
<path d="" fill="#E9D0A3" transform="translate(0,0)"/>
<path d="" fill="#E0C788" transform="translate(0,0)"/>
<path d="" fill="#E6CE9B" transform="translate(0,0)"/>
<path d="" fill="#ECD7A4" transform="translate(0,0)"/>
<path d="" fill="#E4C692" transform="translate(0,0)"/>
<path d="" fill="#F7EED4" transform="translate(0,0)"/>
<path d="" fill="#E7CF9D" transform="translate(0,0)"/>
<path d="" fill="#E1C890" transform="translate(0,0)"/>
<path d="" fill="#E6C992" transform="translate(0,0)"/>
<path d="" fill="#E9D5A7" transform="translate(0,0)"/>
<path d="" fill="#ECD9AD" transform="translate(0,0)"/>
<path d="" fill="#E3C790" transform="translate(0,0)"/>
<path d="" fill="#E4C890" transform="translate(0,0)"/>
<path d="" fill="#E7D0A0" transform="translate(0,0)"/>
<path d="" fill="#E2C88F" transform="translate(0,0)"/>
<path d="" fill="#E8D0A2" transform="translate(0,0)"/>
<path d="" fill="#ECD8AA" transform="translate(0,0)"/>
<path d="" fill="#EBD7AA" transform="translate(0,0)"/>
<path d="" fill="#E3C98E" transform="translate(0,0)"/>
<path d="" fill="#E7CF9A" transform="translate(0,0)"/>
<path d="" fill="#E5D3A1" transform="translate(0,0)"/>
<path d="" fill="#EBD5A9" transform="translate(0,0)"/>
<path d="" fill="#EBD6A6" transform="translate(0,0)"/>
<path d="" fill="#ECDAAC" transform="translate(0,0)"/>
<path d="" fill="#E5D1A5" transform="translate(0,0)"/>
<path d="" fill="#EAD3A6" transform="translate(0,0)"/>
<path d="" fill="#E3CD99" transform="translate(0,0)"/>
<path d="" fill="#E9D4A6" transform="translate(0,0)"/>
<path d="" fill="#ECD8AD" transform="translate(0,0)"/>
<path d="" fill="#EDDAAA" transform="translate(0,0)"/>
<path d="" fill="#EDDCAC" transform="translate(0,0)"/>
<path d="" fill="#E5CE98" transform="translate(0,0)"/>
<path d="" fill="#E2C88F" transform="translate(0,0)"/>
<path d="" fill="#E8D4A4" transform="translate(0,0)"/>
<path d="" fill="#E5CB95" transform="translate(0,0)"/>
<path d="" fill="#EEDEB0" transform="translate(0,0)"/>
<path d="" fill="#E2CA95" transform="translate(0,0)"/>
<path d="" fill="#E1C78E" transform="translate(0,0)"/>
<path d="" fill="#E4CB97" transform="translate(0,0)"/>
<path d="" fill="#E5C992" transform="translate(0,0)"/>
<path d="" fill="#E9D7A7" transform="translate(0,0)"/>
<path d="" fill="#EEDCAE" transform="translate(0,0)"/>
<path d="" fill="#E0CB94" transform="translate(0,0)"/>
<path d="" fill="#EEDBAF" transform="translate(0,0)"/>
<path d="" fill="#ECDAB1" transform="translate(0,0)"/>
<path d="" fill="#EED7A8" transform="translate(0,0)"/>
<path d="" fill="#EED7AE" transform="translate(0,0)"/>
<path d="" fill="#E0C58F" transform="translate(0,0)"/>
<path d="" fill="#E5CA90" transform="translate(0,0)"/>
<path d="" fill="#E7CC95" transform="translate(0,0)"/>
<path d="" fill="#E4CB95" transform="translate(0,0)"/>
<path d="" fill="#EAD6A9" transform="translate(0,0)"/>
<path d="" fill="#E2C892" transform="translate(0,0)"/>
<path d="" fill="#E8D5A5" transform="translate(0,0)"/>
<path d="" fill="#EFDBB0" transform="translate(0,0)"/>
<path d="" fill="#EEDEB6" transform="translate(0,0)"/>
<path d="" fill="#E7D1A5" transform="translate(0,0)"/>
<path d="" fill="#ECD7AA" transform="translate(0,0)"/>
<path d="" fill="#E9D6AA" transform="translate(0,0)"/>
<path d="" fill="#E5CE97" transform="translate(0,0)"/>
<path d="" fill="#EDD9AE" transform="translate(0,0)"/>
<path d="" fill="#E4C691" transform="translate(0,0)"/>
<path d="" fill="#E3CC96" transform="translate(0,0)"/>
<path d="" fill="#ECD8AF" transform="translate(0,0)"/>
<path d="" fill="#E6D09D" transform="translate(0,0)"/>
<path d="" fill="#E4CF9F" transform="translate(0,0)"/>
<path d="" fill="#E6D19C" transform="translate(0,0)"/>
<path d="" fill="#EDDAAD" transform="translate(0,0)"/>
<path d="" fill="#E8D1A2" transform="translate(0,0)"/>
<path d="" fill="#E5D09C" transform="translate(0,0)"/>
<path d="" fill="#E8D09E" transform="translate(0,0)"/>
<path d="" fill="#E1CFA6" transform="translate(0,0)"/>
<path d="" fill="#E3CB94" transform="translate(0,0)"/>
<path d="" fill="#EBD9AC" transform="translate(0,0)"/>
<path d="" fill="#E4C99A" transform="translate(0,0)"/>
<path d="" fill="#EACD9D" transform="translate(0,0)"/>
<path d="" fill="#E9D3A5" transform="translate(0,0)"/>
<path d="" fill="#E6CA9B" transform="translate(0,0)"/>
<path d="" fill="#E9D09F" transform="translate(0,0)"/>
<path d="" fill="#E6D19D" transform="translate(0,0)"/>
<path d="" fill="#F0E3BF" transform="translate(0,0)"/>
<path d="" fill="#E8D3A6" transform="translate(0,0)"/>
<path d="" fill="#E6D09D" transform="translate(0,0)"/>
<path d="" fill="#E7D29F" transform="translate(0,0)"/>
<path d="" fill="#EFDCB3" transform="translate(0,0)"/>
<path d="" fill="#EDDAB1" transform="translate(0,0)"/>
<path d="" fill="#E8CE9D" transform="translate(0,0)"/>
<path d="" fill="#E8D4A6" transform="translate(0,0)"/>
<path d="" fill="#E7CC9B" transform="translate(0,0)"/>
<path d="" fill="#F0DBAF" transform="translate(0,0)"/>
<path d="" fill="#E7D09B" transform="translate(0,0)"/>
<path d="" fill="#ECD1A3" transform="translate(0,0)"/>
<path d="" fill="#E7D3A2" transform="translate(0,0)"/>
<path d="" fill="#EDDCB3" transform="translate(0,0)"/>
<path d="" fill="#EEDDB5" transform="translate(0,0)"/>
<path d="" fill="#ECD7AA" transform="translate(0,0)"/>
<path d="" fill="#EFDCB0" transform="translate(0,0)"/>
<path d="" fill="#E7D0AB" transform="translate(0,0)"/>
<path d="" fill="#EEE0B8" transform="translate(0,0)"/>
<path d="" fill="#EFDDB6" transform="translate(0,0)"/>
<path d="" fill="#EEDFB6" transform="translate(0,0)"/>
<path d="" fill="#EFDEB1" transform="translate(0,0)"/>
<path d="" fill="#EEDCB2" transform="translate(0,0)"/>
<path d="" fill="#ECD9B3" transform="translate(0,0)"/>
<path d="" fill="#EFDEB6" transform="translate(0,0)"/>
<path d="" fill="#EFE4BC" transform="translate(0,0)"/>
<path d="" fill="#F2E2BE" transform="translate(0,0)"/>
<path d="" fill="#EDD7AB" transform="translate(0,0)"/>
<path d="" fill="#EEDAAB" transform="translate(0,0)"/>
<path d="" fill="#EAD19E" transform="translate(0,0)"/>
<path d="" fill="#EED8A8" transform="translate(0,0)"/>
<path d="" fill="#ECD9AA" transform="translate(0,0)"/>
<path d="" fill="#EBD8AB" transform="translate(0,0)"/>
<path d="" fill="#EFDDB7" transform="translate(0,0)"/>
<path d="" fill="#EDD9A9" transform="translate(0,0)"/>
<path d="" fill="#EEDAAA" transform="translate(0,0)"/>
<path d="" fill="#F5E4BF" transform="translate(0,0)"/>
<path d="" fill="#EDDAB2" transform="translate(0,0)"/>
<path d="" fill="#E9D2A0" transform="translate(0,0)"/>
<path d="" fill="#F0E1BD" transform="translate(0,0)"/>
<path d="" fill="#E8CE9B" transform="translate(0,0)"/>
<path d="" fill="#F3DEB9" transform="translate(0,0)"/>
<path d="" fill="#EEDDB4" transform="translate(0,0)"/>
<path d="" fill="#EAD7A9" transform="translate(0,0)"/>
<path d="" fill="#ECDBAC" transform="translate(0,0)"/>
<path d="" fill="#EDD9AD" transform="translate(0,0)"/>
<path d="" fill="#EEDEB5" transform="translate(0,0)"/>
<path d="" fill="#ECD9A6" transform="translate(0,0)"/>
<path d="" fill="#ECDCA9" transform="translate(0,0)"/>
<path d="" fill="#EAD4A2" transform="translate(0,0)"/>
<path d="" fill="#EBD5A4" transform="translate(0,0)"/>
<path d="" fill="#E7D09F" transform="translate(0,0)"/>
<path d="" fill="#E7CE9D" transform="translate(0,0)"/>
<path d="" fill="#E9D19F" transform="translate(0,0)"/>
<path d="" fill="#E4CF9D" transform="translate(0,0)"/>
<path d="" fill="#E5CD99" transform="translate(0,0)"/>
<path d="" fill="#E8CB9A" transform="translate(0,0)"/>
<path d="" fill="#E3CC97" transform="translate(0,0)"/>
<path d="" fill="#E3D09B" transform="translate(0,0)"/>
<path d="" fill="#E2C893" transform="translate(0,0)"/>
<path d="" fill="#E4CB95" transform="translate(0,0)"/>
<path d="" fill="#E2CB97" transform="translate(0,0)"/>
<path d="" fill="#E3CC96" transform="translate(0,0)"/>
<path d="" fill="#E4CB98" transform="translate(0,0)"/>
<path d="" fill="#E8D09B" transform="translate(0,0)"/>
<path d="" fill="#E6D19D" transform="translate(0,0)"/>
<path d="" fill="#EBD5A5" transform="translate(0,0)"/>
<path d="" fill="#E8D2A4" transform="translate(0,0)"/>
<path d="" fill="#EBD6A6" transform="translate(0,0)"/>
<path d="" fill="#E8CE9C" transform="translate(0,0)"/>
<path d="" fill="#E5CB96" transform="translate(0,0)"/>
<path d="" fill="#E8CC99" transform="translate(0,0)"/>
<path d="" fill="#E7CE9B" transform="translate(0,0)"/>
<path d="" fill="#EAD3A1" transform="translate(0,0)"/>
<path d="" fill="#EDDDB0" transform="translate(0,0)"/>
<path d="" fill="#EAD5A6" transform="translate(0,0)"/>
<path d="" fill="#E5CF99" transform="translate(0,0)"/>
<path d="" fill="#E7CD98" transform="translate(0,0)"/>
<path d="" fill="#E7CC98" transform="translate(0,0)"/>
<path d="" fill="#E7CE98" transform="translate(0,0)"/>
<path d="" fill="#E6CB96" transform="translate(0,0)"/>
<path d="" fill="#E9CD9B" transform="translate(0,0)"/>
<path d="" fill="#E7CF9A" transform="translate(0,0)"/>
<path d="" fill="#E8CC98" transform="translate(0,0)"/>
<path d="" fill="#E7D19E" transform="translate(0,0)"/>
<path d="" fill="#EDD7A8" transform="translate(0,0)"/>
<path d="" fill="#EBD5A5" transform="translate(0,0)"/>
<path d="" fill="#E7CE9C" transform="translate(0,0)"/>
<path d="" fill="#E7D099" transform="translate(0,0)"/>
<path d="" fill="#E8CF98" transform="translate(0,0)"/>
<path d="" fill="#E6CE98" transform="translate(0,0)"/>
<path d="" fill="#E8CD97" transform="translate(0,0)"/>
<path d="" fill="#E5CA95" transform="translate(0,0)"/>
<path d="" fill="#E4CB95" transform="translate(0,0)"/>
<path d="" fill="#E3CC93" transform="translate(0,0)"/>
<path d="" fill="#E6CE96" transform="translate(0,0)"/>
<path d="" fill="#E8D19C" transform="translate(0,0)"/>
<path d="" fill="#E6CD99" transform="translate(0,0)"/>
<path d="" fill="#E6CF9A" transform="translate(0,0)"/>
<path d="" fill="#E6CE9B" transform="translate(0,0)"/>
<path d="" fill="#E7D09E" transform="translate(0,0)"/>
<path d="" fill="#EAD29D" transform="translate(0,0)"/>
<path d="" fill="#E8D19E" transform="translate(0,0)"/>
<path d="" fill="#E8D3A1" transform="translate(0,0)"/>
<path d="" fill="#EEDBAE" transform="translate(0,0)"/>
<path d="" fill="#EAD29F" transform="translate(0,0)"/>
<path d="" fill="#E8CF9C" transform="translate(0,0)"/>
<path d="" fill="#EBD4A1" transform="translate(0,0)"/>
<path d="" fill="#E8D19D" transform="translate(0,0)"/>
<path d="" fill="#E5CA96" transform="translate(0,0)"/>
<path d="" fill="#E7D29D" transform="translate(0,0)"/>
<path d="" fill="#E8D1A2" transform="translate(0,0)"/>
<path d="" fill="#EAD4A5" transform="translate(0,0)"/>
<path d="" fill="#EBD4A3" transform="translate(0,0)"/>
<path d="" fill="#E8D3A2" transform="translate(0,0)"/>
<path d="" fill="#EACF9D" transform="translate(0,0)"/>
<path d="" fill="#ECD8AB" transform="translate(0,0)"/>
<path d="" fill="#E9D3A3" transform="translate(0,0)"/>
<path d="" fill="#ECD7A9" transform="translate(0,0)"/>
<path d="" fill="#E8D4A5" transform="translate(0,0)"/>
<path d="" fill="#ECD9AD" transform="translate(0,0)"/>
<path d="" fill="#EEDCB4" transform="translate(0,0)"/>
<path d="" fill="#EED9A7" transform="translate(0,0)"/>
<path d="" fill="#EEDDB4" transform="translate(0,0)"/>
<path d="" fill="#E7CE9E" transform="translate(0,0)"/>
<path d="" fill="#EEDBAF" transform="translate(0,0)"/>
<path d="" fill="#E9D0A1" transform="translate(0,0)"/>
<path d="" fill="#EAD39E" transform="translate(0,0)"/>
<path d="" fill="#EBD3A5" transform="translate(0,0)"/>
<path d="" fill="#E5CE9E" transform="translate(0,0)"/>
<path d="" fill="#E9D4A0" transform="translate(0,0)"/>
<path d="" fill="#EEDCB3" transform="translate(0,0)"/>
<path d="" fill="#E7CE9C" transform="translate(0,0)"/>
<path d="" fill="#E6D39E" transform="translate(0,0)"/>
<path d="" fill="#E4CB9D" transform="translate(0,0)"/>
<path d="" fill="#ECD3A2" transform="translate(0,0)"/>
<path d="" fill="#E9D2A6" transform="translate(0,0)"/>
<path d="" fill="#E8D1A2" transform="translate(0,0)"/>
<path d="" fill="#E2CE97" transform="translate(0,0)"/>
<path d="" fill="#EAD2A0" transform="translate(0,0)"/>
<path d="" fill="#EBD8AB" transform="translate(0,0)"/>
<path d="" fill="#E7D19F" transform="translate(0,0)"/>
<path d="" fill="#E8D2A0" transform="translate(0,0)"/>
<path d="" fill="#E9D19D" transform="translate(0,0)"/>
<path d="" fill="#E5CC9B" transform="translate(0,0)"/>
<path d="" fill="#E8D09D" transform="translate(0,0)"/>
<path d="" fill="#E9D4A3" transform="translate(0,0)"/>
<path d="" fill="#E8D29E" transform="translate(0,0)"/>
<path d="" fill="#E1CA95" transform="translate(0,0)"/>
<path d="" fill="#EAD19F" transform="translate(0,0)"/>
<path d="" fill="#E5CF9B" transform="translate(0,0)"/>
<path d="" fill="#E4CD99" transform="translate(0,0)"/>
<path d="" fill="#E9D6AC" transform="translate(0,0)"/>
<path d="" fill="#E8D19B" transform="translate(0,0)"/>
<path d="" fill="#ECD6A7" transform="translate(0,0)"/>
<path d="" fill="#E8D09D" transform="translate(0,0)"/>
<path d="" fill="#E9D5A2" transform="translate(0,0)"/>
<path d="" fill="#EBD7A4" transform="translate(0,0)"/>
<path d="" fill="#E7D09A" transform="translate(0,0)"/>
<path d="" fill="#E7D09B" transform="translate(0,0)"/>
<path d="" fill="#E7CF98" transform="translate(0,0)"/>
<path d="" fill="#ECD9AE" transform="translate(0,0)"/>
<path d="" fill="#E4CB95" transform="translate(0,0)"/>
<path d="" fill="#E8D199" transform="translate(0,0)"/>
<path d="" fill="#E9D49F" transform="translate(0,0)"/>
<path d="" fill="#E8D19C" transform="translate(0,0)"/>
<path d="" fill="#E6D09B" transform="translate(0,0)"/>
<path d="" fill="#E5CE9F" transform="translate(0,0)"/>
<path d="" fill="#E6CF99" transform="translate(0,0)"/>
<path d="" fill="#E7CD96" transform="translate(0,0)"/>
<path d="" fill="#EAD39B" transform="translate(0,0)"/>
<path d="" fill="#EEDBB3" transform="translate(0,0)"/>
<path d="" fill="#E5CB97" transform="translate(0,0)"/>
<path d="" fill="#E8CF99" transform="translate(0,0)"/>
<path d="" fill="#E5CD9A" transform="translate(0,0)"/>
<path d="" fill="#E2C692" transform="translate(0,0)"/>
<path d="" fill="#E8CC9A" transform="translate(0,0)"/>
<path d="" fill="#E5CD96" transform="translate(0,0)"/>
<path d="" fill="#E6D09C" transform="translate(0,0)"/>
<path d="" fill="#E0CB95" transform="translate(0,0)"/>
<path d="" fill="#E5CA92" transform="translate(0,0)"/>
<path d="" fill="#E5CF96" transform="translate(0,0)"/>
<path d="" fill="#EDD5A3" transform="translate(0,0)"/>
<path d="" fill="#E5CC93" transform="translate(0,0)"/>
<path d="" fill="#E4CA95" transform="translate(0,0)"/>
<path d="" fill="#E4CC94" transform="translate(0,0)"/>
<path d="" fill="#E5CA94" transform="translate(0,0)"/>
<path d="" fill="#DEC58C" transform="translate(0,0)"/>
<path d="" fill="#DEC38B" transform="translate(0,0)"/>
<path d="" fill="#E4CB92" transform="translate(0,0)"/>
<path d="" fill="#ECD6A9" transform="translate(0,0)"/>
<path d="" fill="#F0DAAB" transform="translate(0,0)"/>
<path d="" fill="#E6CB90" transform="translate(0,0)"/>
<path d="" fill="#ECD9AE" transform="translate(0,0)"/>
<path d="" fill="#E1C78D" transform="translate(0,0)"/>
<path d="" fill="#EFD6A3" transform="translate(0,0)"/>
<path d="" fill="#EBD3A4" transform="translate(0,0)"/>
<path d="" fill="#E6CF97" transform="translate(0,0)"/>
<path d="" fill="#EFDEB8" transform="translate(0,0)"/>
<path d="" fill="#E6CE9C" transform="translate(0,0)"/>
<path d="" fill="#EAD5A5" transform="translate(0,0)"/>
<path d="" fill="#E5CD9A" transform="translate(0,0)"/>
<path d="" fill="#EDDAB7" transform="translate(0,0)"/>
<path d="" fill="#E7CD9E" transform="translate(0,0)"/>
<path d="" fill="#EBD7AB" transform="translate(0,0)"/>
<path d="" fill="#F0E0B7" transform="translate(0,0)"/>
<path d="" fill="#EBD6AA" transform="translate(0,0)"/>
<path d="" fill="#F0DDB3" transform="translate(0,0)"/>
<path d="" fill="#E6CC98" transform="translate(0,0)"/>
<path d="" fill="#EFDDB7" transform="translate(0,0)"/>
<path d="" fill="#EEDBAF" transform="translate(0,0)"/>
<path d="" fill="#F0DBB6" transform="translate(0,0)"/>
<path d="" fill="#EFDCB1" transform="translate(0,0)"/>
<path d="" fill="#EFD9AC" transform="translate(0,0)"/>
<path d="" fill="#EED8AD" transform="translate(0,0)"/>
<path d="" fill="#E5C993" transform="translate(0,0)"/>
<path d="" fill="#EAD9B1" transform="translate(0,0)"/>
<path d="" fill="#F1E0B9" transform="translate(0,0)"/>
<path d="" fill="#E3CB9B" transform="translate(0,0)"/>
<path d="" fill="#E6CA97" transform="translate(0,0)"/>
<path d="" fill="#E3C795" transform="translate(0,0)"/>
<path d="" fill="#E0C690" transform="translate(0,0)"/>
<path d="" fill="#E3C68F" transform="translate(0,0)"/>
<path d="" fill="#E1C58F" transform="translate(0,0)"/>
<path d="" fill="#EDD9B3" transform="translate(0,0)"/>
<path d="" fill="#EFDBAD" transform="translate(0,0)"/>
<path d="" fill="#ECD8A9" transform="translate(0,0)"/>
<path d="" fill="#EAD4AC" transform="translate(0,0)"/>
<path d="" fill="#E0C287" transform="translate(0,0)"/>
<path d="" fill="#E6D4A7" transform="translate(0,0)"/>
<path d="" fill="#EBD9AB" transform="translate(0,0)"/>
<path d="" fill="#EAD5AC" transform="translate(0,0)"/>
<path d="" fill="#EBD6A9" transform="translate(0,0)"/>
<path d="" fill="#E1CA90" transform="translate(0,0)"/>
<path d="" fill="#EBD8A9" transform="translate(0,0)"/>
<path d="" fill="#ECD7AA" transform="translate(0,0)"/>
<path d="" fill="#E4CD97" transform="translate(0,0)"/>
<path d="" fill="#E6D29F" transform="translate(0,0)"/>
<path d="" fill="#E8D5A5" transform="translate(0,0)"/>
<path d="" fill="#E8D4A5" transform="translate(0,0)"/>
<path d="" fill="#E9D3A4" transform="translate(0,0)"/>
<path d="" fill="#E7D2A2" transform="translate(0,0)"/>
<path d="" fill="#E5CFA1" transform="translate(0,0)"/>
<path d="" fill="#EDD4A2" transform="translate(0,0)"/>
<path d="" fill="#E8D4A0" transform="translate(0,0)"/>
<path d="" fill="#E6D29F" transform="translate(0,0)"/>
<path d="" fill="#E9D4A2" transform="translate(0,0)"/>
<path d="" fill="#E6CF99" transform="translate(0,0)"/>
<path d="" fill="#E4CC94" transform="translate(0,0)"/>
<path d="" fill="#E8D09D" transform="translate(0,0)"/>
<path d="" fill="#E4CF9B" transform="translate(0,0)"/>
<path d="" fill="#E5CE97" transform="translate(0,0)"/>
<path d="" fill="#EBD4A3" transform="translate(0,0)"/>
<path d="" fill="#E9D3A0" transform="translate(0,0)"/>
<path d="" fill="#EAD3A1" transform="translate(0,0)"/>
<path d="" fill="#E5D09E" transform="translate(0,0)"/>
<path d="" fill="#E6D098" transform="translate(0,0)"/>
<path d="" fill="#EAD39D" transform="translate(0,0)"/>
<path d="" fill="#EAD3A1" transform="translate(0,0)"/>
<path d="" fill="#E8D4A3" transform="translate(0,0)"/>
<path d="" fill="#E2CD99" transform="translate(0,0)"/>
<path d="" fill="#E8D4A8" transform="translate(0,0)"/>
<path d="" fill="#E6D2A0" transform="translate(0,0)"/>
<path d="" fill="#E9D3A2" transform="translate(0,0)"/>
<path d="" fill="#E8D1A0" transform="translate(0,0)"/>
<path d="" fill="#EBD6A6" transform="translate(0,0)"/>
<path d="" fill="#EDDDB2" transform="translate(0,0)"/>
<path d="" fill="#E9D3A8" transform="translate(0,0)"/>
<path d="" fill="#EBD8A9" transform="translate(0,0)"/>
<path d="" fill="#E8D4A3" transform="translate(0,0)"/>
<path d="" fill="#E5CFA1" transform="translate(0,0)"/>
<path d="" fill="#EFD9B1" transform="translate(0,0)"/>
<path d="" fill="#EAD4A8" transform="translate(0,0)"/>
<path d="" fill="#EDD9A8" transform="translate(0,0)"/>
<path d="" fill="#EBD7A5" transform="translate(0,0)"/>
<path d="" fill="#EBDAAA" transform="translate(0,0)"/>
<path d="" fill="#E3C692" transform="translate(0,0)"/>
<path d="" fill="#E7D5A1" transform="translate(0,0)"/>
<path d="" fill="#E3CB9A" transform="translate(0,0)"/>
<path d="" fill="#E7CFA1" transform="translate(0,0)"/>
<path d="" fill="#E7CE9D" transform="translate(0,0)"/>
<path d="" fill="#E2CB98" transform="translate(0,0)"/>
<path d="" fill="#EBD4A3" transform="translate(0,0)"/>
<path d="" fill="#E7D09C" transform="translate(0,0)"/>
<path d="" fill="#E8CF9D" transform="translate(0,0)"/>
<path d="" fill="#E4CC94" transform="translate(0,0)"/>
<path d="" fill="#E7D39D" transform="translate(0,0)"/>
<path d="" fill="#E8CF98" transform="translate(0,0)"/>
<path d="" fill="#EBD6A0" transform="translate(0,0)"/>
<path d="" fill="#E7CF9C" transform="translate(0,0)"/>
<path d="" fill="#E6CE9B" transform="translate(0,0)"/>
<path d="" fill="#E2CD95" transform="translate(0,0)"/>
<path d="" fill="#E5CE9B" transform="translate(0,0)"/>
<path d="" fill="#E5CD9A" transform="translate(0,0)"/>
<path d="" fill="#E8D09E" transform="translate(0,0)"/>
<path d="" fill="#E9D2A4" transform="translate(0,0)"/>
<path d="" fill="#EAD7AB" transform="translate(0,0)"/>
<path d="" fill="#EACF9D" transform="translate(0,0)"/>
<path d="" fill="#E6D09D" transform="translate(0,0)"/>
<path d="" fill="#E6CF9E" transform="translate(0,0)"/>
<path d="" fill="#E6D19B" transform="translate(0,0)"/>
<path d="" fill="#E6CE9D" transform="translate(0,0)"/>
<path d="" fill="#E6D29E" transform="translate(0,0)"/>
<path d="" fill="#E8D09F" transform="translate(0,0)"/>
<path d="" fill="#E2CB97" transform="translate(0,0)"/>
<path d="" fill="#E7D09D" transform="translate(0,0)"/>
<path d="" fill="#E6D3A1" transform="translate(0,0)"/>
<path d="" fill="#E5D09B" transform="translate(0,0)"/>
<path d="" fill="#E8D3A1" transform="translate(0,0)"/>
<path d="" fill="#E9D6A9" transform="translate(0,0)"/>
<path d="" fill="#E9D6A8" transform="translate(0,0)"/>
<path d="" fill="#ECD7AD" transform="translate(0,0)"/>
<path d="" fill="#EAD5A5" transform="translate(0,0)"/>
<path d="" fill="#EAD7A6" transform="translate(0,0)"/>
<path d="" fill="#EAD7AE" transform="translate(0,0)"/>
<path d="" fill="#ECD9AB" transform="translate(0,0)"/>
<path d="" fill="#EAD5A8" transform="translate(0,0)"/>
<path d="" fill="#EBD8AA" transform="translate(0,0)"/>
<path d="" fill="#EBDCB0" transform="translate(0,0)"/>
<path d="" fill="#EADAB0" transform="translate(0,0)"/>
<path d="" fill="#EFDBB1" transform="translate(0,0)"/>
<path d="" fill="#EAD8AC" transform="translate(0,0)"/>
<path d="" fill="#EEDDB4" transform="translate(0,0)"/>
</svg>
