<?xml version="1.0" encoding="UTF-8"?>
<svg version="1.1" xmlns="http://www.w3.org/2000/svg" width="1024" height="1024">
<path d="M0 0 C38.34895113 41.24608859 52.7180716 116.26969859 59 170 C59.08900574 170.73881409 59.17801147 171.47762817 59.26971436 172.23883057 C60.8790347 185.79836804 61.40103159 199.22535837 61.375 212.875 C61.37478851 213.91025818 61.37457703 214.94551636 61.37435913 216.012146 C61.33358991 236.21242298 59.83555674 256.00973219 57 276 C56.90569702 276.67274963 56.81139404 277.34549927 56.7142334 278.03863525 C52.62282799 307.02341385 45.71509728 335.26490568 37.73193359 363.38623047 C35.42602955 371.54167641 33.2273735 379.59513421 32 388 C32.29543701 387.44352783 32.59087402 386.88705566 32.89526367 386.3137207 C42.8920381 367.55706413 53.53443132 349.23850695 66 332 C66.51143555 331.28634277 67.02287109 330.57268555 67.54980469 329.83740234 C75.24458601 319.12109841 83.25185609 308.87271846 92 299 C93.25019913 297.54183738 94.50023235 296.08353245 95.75 294.625 C99.31554783 290.56375406 103.14648346 286.78551331 107 283 C109.69405131 280.31491392 112.37734555 277.61964288 115.05078125 274.9140625 C120.85360769 269.05294283 126.64485976 263.26889819 133 258 C133.76957031 257.35289062 134.53914063 256.70578125 135.33203125 256.0390625 C152.77262785 241.55316967 170.99837683 228.37731778 190.6953125 217.12036133 C194.59170303 214.89238247 194.59170303 214.89238247 198 212 C199.65503987 211.30497105 201.32368445 210.642019 203 210 C204.7358305 209.1701061 206.46330108 208.3225781 208.18359375 207.4609375 C225.53881664 198.87153024 242.77956797 191.54760872 261.625 186.9375 C262.50833008 186.72101807 263.39166016 186.50453613 264.30175781 186.28149414 C265.12256836 186.09449951 265.94337891 185.90750488 266.7890625 185.71484375 C267.50787598 185.55105225 268.22668945 185.38726074 268.96728516 185.21850586 C271.22645457 184.97565736 272.845161 185.32422746 275 186 C276.50675304 190.77894062 275.12396222 194.31711535 273.75 199 C273.35433838 200.3627002 273.35433838 200.3627002 272.95068359 201.75292969 C264.69850829 229.11371945 252.40900968 254.4374445 238 279 C237.55897949 279.75200684 237.11795898 280.50401367 236.66357422 281.27880859 C223.81293364 302.97542406 207.85611747 322.8744192 190.6015625 341.21484375 C188.4877514 343.47782771 186.4457392 345.76936397 184.4375 348.125 C181.47686886 351.53998543 178.35941011 354.78244721 175.1875 358 C174.70659912 358.49387207 174.22569824 358.98774414 173.73022461 359.49658203 C172.52563052 360.70438494 171.26657019 361.85735625 170 363 C169.34 363 168.68 363 168 363 C168 363.66 168 364.32 168 365 C166.7421875 366.3046875 166.7421875 366.3046875 164.875 367.875 C164.13507813 368.50148438 163.39515625 369.12796875 162.6328125 369.7734375 C161.76398438 370.50820313 160.89515625 371.24296875 160 372 C159.02804687 372.85851562 158.05609375 373.71703125 157.0546875 374.6015625 C137.15712585 392.13439874 115.09295336 406.83084674 92.6875 420.9375 C92.04200195 421.34460205 91.39650391 421.7517041 90.73144531 422.17114258 C88.16707719 423.76280723 85.87614925 425.04128358 83 426 C88.04923445 425.01461777 93.08536999 423.99432168 98.1015625 422.8515625 C119.79880045 417.98216328 142.04272881 414.87194486 164.28515625 414.17578125 C168.0186489 414.0652975 168.0186489 414.0652975 171.74609375 413.41796875 C174.88597241 413.014647 176.0601882 413.25208652 179 414 C181.00755059 414.1789704 183.0188615 414.3175166 185.03125 414.4296875 C186.82042847 414.53651855 186.82042847 414.53651855 188.64575195 414.64550781 C189.91765381 414.72124023 191.18955566 414.79697266 192.5 414.875 C253.34531908 418.87172801 253.34531908 418.87172801 274 436 C269.50798943 449.88659182 246.99345516 458.97670583 234.86157227 465.27929688 C186.11307443 489.87313362 133.90178817 497.91687686 80 491 C81.00417969 491.59425781 82.00835938 492.18851563 83.04296875 492.80078125 C92.44663863 498.46101824 100.93117555 504.55980909 109 512 C109.88300781 512.81210937 110.76601563 513.62421875 111.67578125 514.4609375 C124.75252981 527.02925883 139.38625933 545.77913914 143 564 C143 567 143 567 141.9375 568.875 C136.39044825 572.09586876 130.14685557 570.77145393 124.125 569.875 C123.19896973 569.73884277 122.27293945 569.60268555 121.31884766 569.46240234 C108.82735731 567.49345942 97.33489467 563.64343273 86 558 C85.67 558.99 85.34 559.98 85 561 C85 559.68 85 558.36 85 557 C84.26652344 556.7215625 83.53304688 556.443125 82.77734375 556.15625 C69.21663307 550.51072207 56.48246838 540.10753657 46 530 C45.20360107 529.24227295 45.20360107 529.24227295 44.39111328 528.46923828 C31.5213823 516.18036962 21.18421725 502.53625803 11 488 C10.29323881 493.88858761 9.81117638 499.70767163 9.60546875 505.6328125 C9.53942997 507.31814253 9.47266386 509.00344418 9.40527344 510.6887207 C9.37042847 511.57177887 9.3355835 512.45483704 9.29968262 513.36465454 C7.95442203 546.4658965 5.16818939 579.39268238 0.9375 612.25 C0.81370972 613.22385651 0.68991943 614.19771301 0.56237793 615.20108032 C-3.46532717 646.5714259 -3.46532717 646.5714259 -12.0625 653.9375 C-16.70891124 656.96167283 -21.66017294 656.86983608 -27 656 C-31.47663127 653.84162421 -33.98940477 651.55029447 -36 647 C-37.67787806 640.67569039 -36.68603449 634.25114543 -35 628 C-34.34 627.67 -33.68 627.34 -33 627 C-32.76301895 625.22817908 -32.53914462 623.45416914 -32.35791016 621.67578125 C-31.65455156 616.41738413 -30.33609367 611.26457405 -29.16125488 606.09460449 C-21.60010807 572.6646333 -17.96447507 539.30621527 -16.33203125 505.109375 C-16.29782578 504.40835663 -16.2636203 503.70733826 -16.2283783 502.9850769 C-16.01623612 498.31724842 -15.97225051 493.67105487 -16 489 C-17.84305016 490.84305016 -19.13615182 493.11832625 -20.59228516 495.26904297 C-27.91936923 506.07594446 -35.61808409 516.85165876 -45 526 C-45.66 526 -46.32 526 -47 526 C-47.36931641 526.86625 -47.36931641 526.86625 -47.74609375 527.75 C-58.15077188 546.42007664 -89.29939209 560.01375277 -108.73828125 565.81640625 C-118.63915975 568.61124215 -128.02507899 570.2448641 -138.3125 570.3125 C-139.14386475 570.31813965 -139.97522949 570.3237793 -140.83178711 570.32958984 C-146.74306201 570.25693799 -146.74306201 570.25693799 -149 568 C-149 551.91708782 -135.21904615 533.5146463 -125 522 C-124.33508545 521.22873779 -124.33508545 521.22873779 -123.65673828 520.44189453 C-114.26649947 509.56124539 -103.68232301 500.76725279 -91.57421875 493.0234375 C-90.02367193 492.09281156 -90.02367193 492.09281156 -89 491 C-90.11890625 491.144375 -91.2378125 491.28875 -92.390625 491.4375 C-133.30850163 496.33354459 -181.42651334 492.78674333 -219 474 C-219.33 474.66 -219.66 475.32 -220 476 C-220 475.01 -220 474.02 -220 473 C-221.07060669 472.82585571 -221.07060669 472.82585571 -222.1628418 472.64819336 C-227.36492582 471.45969555 -232.02684523 468.87308502 -236.8125 466.5625 C-238.49230957 465.75159912 -238.49230957 465.75159912 -240.20605469 464.92431641 C-254.28395004 458.02318861 -266.80425061 449.81507228 -279 440 C-278.46542794 435.98402738 -278.31701041 435.25757096 -275 432.5625 C-228.3269709 406.16410234 -161.4966949 410.75735312 -111.34106445 422.10620117 C-109.59829224 422.49449097 -109.59829224 422.49449097 -107.8203125 422.890625 C-106.79180176 423.12813477 -105.76329102 423.36564453 -104.70361328 423.61035156 C-102.06356853 423.99083842 -100.49232113 423.86721768 -98 423 C-97.67 423.66 -97.34 424.32 -97 425 C-94.6859378 425.73075648 -92.35171131 426.40138258 -90 427 C-91.57974609 425.98292969 -91.57974609 425.98292969 -93.19140625 424.9453125 C-129.77045961 401.36094329 -129.77045961 401.36094329 -146 388 C-147.97880178 386.37455568 -149.95797223 384.74956009 -151.9375 383.125 C-153.28134766 382.01511719 -153.28134766 382.01511719 -154.65234375 380.8828125 C-157.05145848 378.90225342 -157.05145848 378.90225342 -160 377 C-160.66 377.33 -161.32 377.66 -162 378 C-162.21269531 377.28585937 -162.42539062 376.57171875 -162.64453125 375.8359375 C-164.34132793 372.28586722 -166.76911619 370.15409334 -169.6875 367.625 C-180.03947174 358.36255493 -190.06616612 348.65037838 -199 338 C-199.90735883 336.95442962 -200.81637826 335.91029925 -201.7265625 334.8671875 C-209.21940278 326.25337112 -216.65870371 317.51194444 -223 308 C-223.99 307.34 -224.98 306.68 -226 306 C-226.68001514 304.33873493 -227.3437054 302.67077815 -228 301 C-229.48420463 298.53677434 -231.12014069 296.18110063 -232.75 293.8125 C-236.69707469 287.97741847 -240.48134579 282.10616329 -244 276 C-244.64066406 274.91460937 -245.28132813 273.82921875 -245.94140625 272.7109375 C-250.88162966 264.2300704 -255.29048066 255.522784 -259.5625 246.6875 C-260.3680835 245.0312561 -260.3680835 245.0312561 -261.18994141 243.34155273 C-261.6854248 242.30458252 -262.1809082 241.2676123 -262.69140625 240.19921875 C-263.35958374 238.80449341 -263.35958374 238.80449341 -264.04125977 237.3815918 C-265 235 -265 235 -265 232 C-265.66 231.67 -266.32 231.34 -267 231 C-267.88208008 229.02905273 -267.88208008 229.02905273 -268.76953125 226.43359375 C-269.09896729 225.48025146 -269.42840332 224.52690918 -269.76782227 223.54467773 C-270.11256592 222.51930908 -270.45730957 221.49394043 -270.8125 220.4375 C-271.16562256 219.39859619 -271.51874512 218.35969238 -271.88256836 217.28930664 C-272.59445345 215.18514639 -273.30224096 213.07959524 -274.00585938 210.97265625 C-274.88217383 208.35232108 -275.77504832 205.73835734 -276.671875 203.125 C-277.13707366 201.72971803 -277.60074221 200.33392448 -278.0625 198.9375 C-278.46597656 197.72964844 -278.86945313 196.52179688 -279.28515625 195.27734375 C-280.04555418 191.79114778 -279.83317327 189.44273484 -279 186 C-274.55464594 184.62751385 -270.99662399 185.73719215 -266.625 186.9375 C-265.37456909 187.27648315 -265.37456909 187.27648315 -264.09887695 187.62231445 C-200.31393497 205.4707471 -135.47335911 249.09389166 -94.2265625 301.21484375 C-92.24752671 303.69037448 -90.20220001 306.09004187 -88.12133789 308.47998047 C-71.50879587 327.65080072 -57.00038224 349.67236574 -45 372 C-44.34 372 -43.68 372 -43 372 C-42.88785156 372.54398438 -42.77570313 373.08796875 -42.66015625 373.6484375 C-41.58568566 377.47584161 -39.75512548 380.95375748 -38.05859375 384.5390625 C-37 387 -37 387 -37 389 C-36.34 389 -35.68 389 -35 389 C-35.33 388.2575 -35.66 387.515 -36 386.75 C-37 384 -37 384 -37 380 C-37.66 379.67 -38.32 379.34 -39 379 C-39.48779297 377.03881836 -39.48779297 377.03881836 -39.8671875 374.40234375 C-40.97648481 367.70671133 -42.74388952 361.23340554 -44.54043579 354.69796753 C-57.45868975 307.50638201 -66.25223775 259.69178645 -66.1875 210.625 C-66.18656342 209.70180969 -66.18562683 208.77861938 -66.18466187 207.82745361 C-66.10874485 173.16067817 -61.92595967 139.51576296 -53 106 C-52.76700195 105.10313477 -52.53400391 104.20626953 -52.29394531 103.28222656 C-43.62280973 70.10198562 -29.92514917 27.36863866 -7 1 C-4.37010363 -0.31494818 -2.91666291 -0.4390208 0 0 Z M30 390 C31 392 31 392 31 392 Z M-35 391 C-34 393 -34 393 -34 393 Z " fill="#7A5731" transform="translate(515,187)"/>
<path d="M0 0 C337.92 0 675.84 0 1024 0 C1024 337.92 1024 675.84 1024 1024 C686.08 1024 348.16 1024 0 1024 C0 686.08 0 348.16 0 0 Z M1 1 C1 338.26 1 675.52 1 1023 C338.26 1023 675.52 1023 1023 1023 C1023 685.74 1023 348.48 1023 1 C685.74 1 348.48 1 1 1 Z " fill="#C3C1BE" transform="translate(0,0)"/>
<path d="M0 0 C0.33 0 0.66 0 1 0 C1.81612915 67.37459994 1.81612915 67.37459994 -4 85 C-4.33 85 -4.66 85 -5 85 C-5.2183146 78.12309002 -4.65221109 71.51246302 -3.78613281 64.70166016 C-2.84685758 57.15236079 -2.38842954 49.59481968 -2 42 C-1.67 42 -1.34 42 -1 42 C-0.67 28.14 -0.34 14.28 0 0 Z " fill="#937553" transform="translate(575,377)"/>
<path d="M0 0 C0.66 0 1.32 0 2 0 C2 0.66 2 1.32 2 2 C2.59369385 2.27457031 3.1873877 2.54914062 3.79907227 2.83203125 C5.90770577 3.95102212 7.44496327 5.10050446 9.21484375 6.6875 C9.81176025 7.21625732 10.40867676 7.74501465 11.02368164 8.28979492 C11.6552417 8.8541626 12.28680176 9.41853027 12.9375 10 C24.06627016 19.78482683 35.89472523 28.47004626 48 37 C47.01 37.33 46.02 37.66 45 38 C42.40930502 36.50746846 40.05031865 34.97997343 37.625 33.25 C36.91472656 32.75282471 36.20445312 32.25564941 35.47265625 31.7434082 C29.66589695 27.61622027 24.23264981 23.135176 18.86328125 18.4609375 C15.36236987 15.45196865 11.73504154 12.70973602 8 10 C7.01 10.495 7.01 10.495 6 11 C5.7525 10.278125 5.505 9.55625 5.25 8.8125 C3.89114931 5.75508594 2.13272347 3.55926816 0 1 C0 0.67 0 0.34 0 0 Z " fill="#684929" transform="translate(347,554)"/>
<path d="M0 0 C2.19593485 0.05838096 4.39189873 0.11568061 6.58789062 0.171875 C11.91315894 0.31046554 17.23791504 0.46234873 22.5625 0.625 C22.5625 0.955 22.5625 1.285 22.5625 1.625 C21.27786865 1.64481934 19.9932373 1.66463867 18.66967773 1.68505859 C13.83307632 1.76201913 8.99674102 1.85058452 4.16040039 1.94238281 C2.08037631 1.98030368 0.00029482 2.01521549 -2.07983398 2.046875 C-12.93238467 2.21403824 -23.56611732 2.45289852 -34.29663086 4.20947266 C-37.70837452 4.66083587 -40.99997644 4.69169539 -44.4375 4.625 C-43.798125 4.315625 -43.15875 4.00625 -42.5 3.6875 C-40.50139179 2.7904837 -40.50139179 2.7904837 -39.4375 1.625 C-26.42922543 -1.20579011 -13.20814589 -0.40391272 0 0 Z " fill="#573717" transform="translate(333.4375,602.375)"/>
<path d="M0 0 C0.66 0 1.32 0 2 0 C3.20448437 3.6134531 3.0580513 6.83814324 2.94921875 10.58984375 C2.92091728 11.70124474 2.92091728 11.70124474 2.89204407 12.83509827 C2.85020176 14.40112973 2.80546837 15.96708624 2.75805664 17.53295898 C2.6878721 19.92481884 2.63350263 22.31669883 2.58007812 24.70898438 C2.53742528 26.23179822 2.49383642 27.7545862 2.44921875 29.27734375 C2.43453049 29.99099594 2.41984222 30.70464813 2.40470886 31.43992615 C2.26886792 35.38458493 1.8180318 37.36393641 0 41 C0 27.47 0 13.94 0 0 Z " fill="#6D4E2E" transform="translate(522,670)"/>
<path d="M0 0 C6.52803466 0.79872424 11.446913 7.61278372 16 12 C16.60279785 12.57556641 17.2055957 13.15113281 17.82666016 13.74414062 C19.64470563 15.48585412 21.44954115 17.24012679 23.25 19 C23.82290771 19.55139648 24.39581543 20.10279297 24.98608398 20.67089844 C26.38324502 22.05670392 27.69940223 23.52319221 29 25 C29 25.99 29 26.98 29 28 C28.34 28 27.68 28 27 28 C25.66015625 26.63671875 25.66015625 26.63671875 24.0625 24.6875 C20.91673088 20.9842528 17.61924083 17.49761908 14.1875 14.0625 C13.70740479 13.5780542 13.22730957 13.0936084 12.73266602 12.59448242 C10.11528876 9.96667347 10.11528876 9.96667347 7 8 C7 7.34 7 6.68 7 6 C6.401875 5.7525 5.80375 5.505 5.1875 5.25 C2.71352479 3.83629988 1.56629745 2.34944617 0 0 Z " fill="#6D4F2E" transform="translate(384,454)"/>
<path d="M0 0 C0.86890869 0.05986084 1.73781738 0.11972168 2.63305664 0.18139648 C12.89753381 0.87828803 23.16576567 1.48361554 33.4375 2.0625 C35.05534238 2.15422915 36.67318095 2.24602568 38.29101562 2.33789062 C42.19396703 2.55936707 46.09696827 2.77994396 50 3 C50 3.33 50 3.66 50 4 C25.03714075 5.47889085 25.03714075 5.47889085 13.1875 4.1875 C12.42526123 4.10516113 11.66302246 4.02282227 10.87768555 3.93798828 C6.97837955 3.44763781 3.56715005 2.66093234 0 1 C0 0.67 0 0.34 0 0 Z " fill="#593A1C" transform="translate(354,675)"/>
<path d="M0 0 C1.81757812 0.13341797 1.81757812 0.13341797 3.671875 0.26953125 C4.94546875 0.36878906 6.2190625 0.46804688 7.53125 0.5703125 C9.39523437 0.70759766 9.39523437 0.70759766 11.296875 0.84765625 C18.21931049 1.3661087 25.12860778 1.9580396 32.03125 2.6953125 C32.03125 3.0253125 32.03125 3.3553125 32.03125 3.6953125 C23.61625 4.1903125 23.61625 4.1903125 15.03125 4.6953125 C15.03125 4.3653125 15.03125 4.0353125 15.03125 3.6953125 C1.17125 3.3653125 -12.68875 3.0353125 -26.96875 2.6953125 C-26.96875 2.3653125 -26.96875 2.0353125 -26.96875 1.6953125 C-26.12111084 1.65772827 -26.12111084 1.65772827 -25.25634766 1.61938477 C-22.70191258 1.50351294 -20.1478545 1.38074713 -17.59375 1.2578125 C-16.25957031 1.19883789 -16.25957031 1.19883789 -14.8984375 1.13867188 C-14.04765625 1.09677734 -13.196875 1.05488281 -12.3203125 1.01171875 C-11.53479004 0.97506104 -10.74926758 0.93840332 -9.93994141 0.90063477 C-0.75105036 -0.05649396 -0.75105036 -0.05649396 0 0 Z " fill="#90704A" transform="translate(690.96875,600.3046875)"/>
<path d="M0 0 C0.99 0 1.98 0 3 0 C4.56225586 1.81665039 4.56225586 1.81665039 6.21484375 4.34765625 C6.81876953 5.26353516 7.42269531 6.17941406 8.04492188 7.12304688 C8.66947266 8.09306641 9.29402344 9.06308594 9.9375 10.0625 C10.86852539 11.47692383 10.86852539 11.47692383 11.81835938 12.91992188 C13.57084383 15.59810633 15.29298193 18.29265786 17 21 C17.45133301 21.70624512 17.90266602 22.41249023 18.36767578 23.14013672 C19.50390625 24.99609375 19.50390625 24.99609375 21 28 C20.67 28.99 20.34 29.98 20 31 C17.14876976 26.74779958 14.30052516 22.49362139 11.45507812 18.23754883 C10.48585331 16.78875287 9.51580232 15.34050926 8.54492188 13.89282227 C7.15279117 11.81670082 5.76360464 9.73863719 4.375 7.66015625 C3.93752441 7.00910416 3.50004883 6.35805206 3.04931641 5.68727112 C0 1.11387171 0 1.11387171 0 0 Z " fill="#674829" transform="translate(440,516)"/>
<path d="M0 0 C3.73670914 3.73670914 4.29514472 9.71549218 5.6237793 14.74853516 C6.18436254 16.86316488 6.7623308 18.97250877 7.34179688 21.08203125 C7.70158912 22.42679797 8.06034744 23.77184183 8.41796875 25.1171875 C8.74563232 26.34034668 9.0732959 27.56350586 9.41088867 28.82373047 C9.95490987 31.75689075 10.04517312 33.26030853 9 36 C8.15838146 33.91999989 7.32699237 31.83585854 6.5 29.75 C6.0359375 28.58984375 5.571875 27.4296875 5.09375 26.234375 C4 23 4 23 4 19 C3.34 18.67 2.68 18.34 2 18 C0.34844122 12.10740139 -0.27098599 6.09718475 0 0 Z " fill="#624223" transform="translate(474,548)"/>
<path d="M0 0 C3.95563172 1.90194057 7.7458909 4.08746409 11.5625 6.25 C18.01048533 9.89172663 24.4845482 13.47999956 31 17 C28.57131794 17.87346134 27.36719658 18.12937562 24.89697266 17.2590332 C24.1601123 16.86031006 23.42325195 16.46158691 22.6640625 16.05078125 C21.84679687 15.61443359 21.02953125 15.17808594 20.1875 14.72851562 C19.341875 14.26123047 18.49625 13.79394531 17.625 13.3125 C16.78710938 12.86455078 15.94921875 12.41660156 15.0859375 11.95507812 C1.68469363 4.71714217 1.68469363 4.71714217 0 0 Z " fill="#6A4C2F" transform="translate(250,635)"/>
<path d="M0 0 C8.90979391 1.55724274 16.72288466 12.40316609 22.5625 18.8125 C23.036875 19.534375 23.51125 20.25625 24 21 C23.67 21.99 23.34 22.98 23 24 C21.5 22.625 21.5 22.625 20 21 C20 20.34 20 19.68 20 19 C19.34 19 18.68 19 18 19 C16.51953125 17.49609375 16.51953125 17.49609375 14.8125 15.4375 C11.39363658 11.41321286 7.77339262 7.68933189 4 4 C2.66666667 2.66666667 1.33333333 1.33333333 0 0 Z " fill="#6D4E2D" transform="translate(614,693)"/>
<path d="M0 0 C2.68643872 2.67652566 5.35973183 5.36362945 8.0078125 8.078125 C9.04682909 9.13546178 10.08589205 10.192753 11.125 11.25 C11.64964844 11.79140625 12.17429687 12.3328125 12.71484375 12.890625 C15.12025044 15.32647988 16.70534405 16.90178135 20 18 C19.67 18.99 19.34 19.98 19 21 C14.80998385 19.36437924 12.01766101 16.27696844 8.9375 13.125 C8.40833984 12.59519531 7.87917969 12.06539062 7.33398438 11.51953125 C0 4.10272898 0 4.10272898 0 0 Z " fill="#6A4B2B" transform="translate(544,696)"/>
<path d="M0 0 C0 4.01145419 -1.38164615 4.77299847 -4.125 7.625 C-8.31685523 12.12809882 -11.77806133 16.76908781 -15 22 C-15.78515625 20.40234375 -15.78515625 20.40234375 -16 18 C-14.5635082 15.66159443 -13.15425771 13.67524683 -11.4375 11.5625 C-11.00630859 11.00240234 -10.57511719 10.44230469 -10.13085938 9.86523438 C-7.10436138 6.03405449 -3.83755175 3.01481672 0 0 Z " fill="#674829" transform="translate(395,705)"/>
<path d="M0 0 C0.33 0 0.66 0 1 0 C1.6754914 3.54004203 2.33880798 7.08226169 3 10.625 C3.19078125 11.62402344 3.3815625 12.62304688 3.578125 13.65234375 C4.47527136 18.49052593 5.27009288 23.05392418 5 28 C4.34 28 3.68 28 3 28 C0.7549974 18.72065591 0.39327237 9.5006324 0 0 Z " fill="#5D3E21" transform="translate(456,467)"/>
<path d="M0 0 C0.99 0.495 0.99 0.495 2 1 C2 1.66 2 2.32 2 3 C2.5878125 3.25136719 3.175625 3.50273438 3.78125 3.76171875 C6.27682175 5.15449383 7.66530515 6.63171498 9.5 8.8125 C10.09941406 9.52019531 10.69882812 10.22789062 11.31640625 10.95703125 C13.23559869 13.2858889 15.14207754 15.62185925 17 18 C11.51693065 17.15739023 8.60162504 12.8940342 5 9 C4.46246094 8.41992188 3.92492187 7.83984375 3.37109375 7.2421875 C0 3.41969373 0 3.41969373 0 0 Z " fill="#6A4A2A" transform="translate(318,524)"/>
<path d="M0 0 C1.05960938 0.22139648 1.05960938 0.22139648 2.140625 0.44726562 C3.88668749 0.81299493 5.63101884 1.18697121 7.375 1.5625 C7.375 2.2225 7.375 2.8825 7.375 3.5625 C8.035 3.8925 8.695 4.2225 9.375 4.5625 C8.56675781 4.418125 7.75851563 4.27375 6.92578125 4.125 C5.85714844 3.939375 4.78851563 3.75375 3.6875 3.5625 C2.63175781 3.376875 1.57601562 3.19125 0.48828125 3 C-2.30363148 2.60766095 -4.81688973 2.32644169 -7.625 2.5625 C-8.285 3.2225 -8.945 3.8825 -9.625 4.5625 C-9.625 2.9125 -9.625 1.2625 -9.625 -0.4375 C-6.44119067 -2.02940467 -3.34423676 -0.72499598 0 0 Z " fill="#694E30" transform="translate(245.625,373.4375)"/>
<path d="M0 0 C0.33 0.99 0.66 1.98 1 3 C7.27 3.33 13.54 3.66 20 4 C20 4.66 20 5.32 20 6 C16.85418577 6.02888514 13.70840531 6.04675923 10.5625 6.0625 C9.21575195 6.07506836 9.21575195 6.07506836 7.84179688 6.08789062 C6.56079102 6.09272461 6.56079102 6.09272461 5.25390625 6.09765625 C4.46314697 6.10289307 3.6723877 6.10812988 2.85766602 6.11352539 C1 6 1 6 0 5 C-0.04063832 3.33382885 -0.042721 1.66611905 0 0 Z " fill="#6A4E31" transform="translate(367,751)"/>
<path d="M0 0 C0.99 0.33 1.98 0.66 3 1 C2.34 9.58 1.68 18.16 1 27 C0.67 27 0.34 27 0 27 C-0.33 24.36 -0.66 21.72 -1 19 C-1.33 19 -1.66 19 -2 19 C-2 16.03 -2 13.06 -2 10 C-1.34 10.66 -0.68 11.32 0 12 C0 8.04 0 4.08 0 0 Z " fill="#856743" transform="translate(520,726)"/>
<path d="M0 0 C2.33058639 3.49587959 3.19132 6.92041315 4.1875 10.9375 C4.47270508 12.01161133 4.47270508 12.01161133 4.76367188 13.10742188 C5.6919477 16.80339833 6.1215946 19.36551019 5 23 C1.44377837 15.24097099 -0.30602349 8.56865784 0 0 Z " fill="#5F4124" transform="translate(461,496)"/>
<path d="M0 0 C1.45839897 3.95705456 0.67906093 7.69831388 0.0625 11.75 C-0.03740234 12.44738281 -0.13730469 13.14476562 -0.24023438 13.86328125 C-0.48665873 15.57651726 -0.74240955 17.28840725 -1 19 C-1.66 19 -2.32 19 -3 19 C-4.22037624 13.26423168 -3.85161943 8.58734284 -2 3 C-1.34 2.01 -0.68 1.02 0 0 Z " fill="#6A4D2F" transform="translate(482,815)"/>
<path d="M0 0 C4.9987005 0.48207052 7.87567176 1.94071339 11.875 4.9375 C12.84179688 5.64777344 13.80859375 6.35804688 14.8046875 7.08984375 C15.52914063 7.72019531 16.25359375 8.35054688 17 9 C17 9.66 17 10.32 17 11 C12.80591769 9.5137853 9.37332677 7.41721984 5.6875 4.9375 C4.61886719 4.22464844 3.55023438 3.51179688 2.44921875 2.77734375 C1.64097656 2.19082031 0.83273437 1.60429687 0 1 C0 0.67 0 0.34 0 0 Z " fill="#6F502F" transform="translate(330,413)"/>
<path d="M0 0 C3.31938559 3.13666712 6.05462121 6.58007057 8.75 10.25 C9.36681641 11.08144531 9.36681641 11.08144531 9.99609375 11.9296875 C11.00035358 13.28427052 12.00059353 14.64183224 13 16 C12.01 16.33 11.02 16.66 10 17 C8.32457538 14.73518493 6.65960984 12.46385674 5 10.1875 C4.52304687 9.54490234 4.04609375 8.90230469 3.5546875 8.24023438 C3.10351562 7.61826172 2.65234375 6.99628906 2.1875 6.35546875 C1.76855469 5.78465576 1.34960938 5.21384277 0.91796875 4.62573242 C0 3 0 3 0 0 Z " fill="#644527" transform="translate(529,676)"/>
<path d="M0 0 C0.66 0 1.32 0 2 0 C3.20250158 2.24307028 4.3869162 4.4928791 5.5625 6.75 C6.07586914 7.70132813 6.07586914 7.70132813 6.59960938 8.671875 C9.06382218 13.45095438 9.06382218 13.45095438 8.71484375 16.453125 C8.47894531 16.96359375 8.24304688 17.4740625 8 18 C6.84583494 15.94178919 5.70164153 13.87900528 4.5625 11.8125 C3.92441406 10.66394531 3.28632812 9.51539063 2.62890625 8.33203125 C1.21240965 5.43449743 0.42360107 3.16805872 0 0 Z " fill="#684929" transform="translate(528,212)"/>
<path d="M0 0 C0.33 0 0.66 0 1 0 C1.05454409 2.35448675 1.0939279 4.70767875 1.125 7.0625 C1.14820313 8.37347656 1.17140625 9.68445313 1.1953125 11.03515625 C0.99417522 15.11824299 0.27165462 18.14999053 -1 22 C-1.33 22 -1.66 22 -2 22 C-2.30071865 14.44862068 -1.42625566 7.41143564 0 0 Z " fill="#593C1E" transform="translate(572,440)"/>
<path d="M0 0 C2.56679483 2.56679483 3.33348554 5.05010682 4.625 8.4375 C5.07101563 9.59121094 5.51703125 10.74492187 5.9765625 11.93359375 C7 15 7 15 7 18 C4 17 4 17 2.83203125 14.70703125 C-0.55146185 5.10102211 -0.55146185 5.10102211 0 0 Z " fill="#63482D" transform="translate(244,401)"/>
<path d="M0 0 C4.25209792 4.12324647 8.13635705 8.51282966 12 13 C11.67 13.66 11.34 14.32 11 15 C6.42233121 11.76870438 2.87034157 7.80363005 0 3 C0 2.01 0 1.02 0 0 Z " fill="#634426" transform="translate(303,506)"/>
<path d="M0 0 C0.33 0 0.66 0 1 0 C1 6.27 1 12.54 1 19 C0.34 19 -0.32 19 -1 19 C-1.22237877 16.58388467 -1.42832339 14.1682283 -1.625 11.75 C-1.72167969 10.72712891 -1.72167969 10.72712891 -1.8203125 9.68359375 C-2.11594735 5.8772951 -2.17561392 3.22190154 0 0 Z " fill="#694B2D" transform="translate(451,415)"/>
<path d="M0 0 C5.84891393 0.46175636 11.11742835 2.81851264 16 6 C16.33 6.99 16.66 7.98 17 9 C13.10391502 7.51095825 9.40902982 5.75621287 5.6875 3.875 C4.61886719 3.33617187 3.55023438 2.79734375 2.44921875 2.2421875 C1.64097656 1.83226562 0.83273437 1.42234375 0 1 C0 0.67 0 0.34 0 0 Z " fill="#664829" transform="translate(294,393)"/>
<path d="M0 0 C1.5625 1.1875 1.5625 1.1875 3 3 C2.6875 5.6875 2.6875 5.6875 2 8 C-4.09339169 9.88341198 -8.72532201 10.0748291 -15 9 C-15 8.67 -15 8.34 -15 8 C-8.565 7.505 -8.565 7.505 -2 7 C-1.34 4.69 -0.68 2.38 0 0 Z " fill="#7E6344" transform="translate(655,748)"/>
<path d="M0 0 C0.99 0.33 1.98 0.66 3 1 C1.79157144 5.43090471 0.48331435 7.98112756 -3 11 C-3.75 9.4375 -3.75 9.4375 -4 7 C-2.86915563 4.49713591 -1.47860484 2.32992278 0 0 Z " fill="#6F4F2D" transform="translate(553,564)"/>
<path d="M0 0 C0.99 0 1.98 0 3 0 C4.73595179 1.90423283 6.23750432 3.74415023 7.75 5.8125 C8.17410156 6.35970703 8.59820312 6.90691406 9.03515625 7.47070312 C10.234375 9.08203125 10.234375 9.08203125 12 12 C11.67 12.99 11.34 13.98 11 15 C9.16374012 12.68977044 7.33088988 10.37697874 5.5 8.0625 C4.71302734 7.0734668 4.71302734 7.0734668 3.91015625 6.06445312 C0 1.11328125 0 1.11328125 0 0 Z " fill="#654728" transform="translate(427,499)"/>
<path d="M0 0 C0.33 0 0.66 0 1 0 C2.44796872 8.73952546 3.29211698 17.13911833 3 26 C-1.23987948 18.26135818 -0.11917355 8.56725393 0 0 Z " fill="#705435" transform="translate(454,453)"/>
<path d="M0 0 C0.66 0.33 1.32 0.66 2 1 C1.49770926 5.26947129 1.02851102 9.16836808 -1 13 C-1.99 13.33 -2.98 13.66 -4 14 C-3.52372025 12.04096255 -3.04388577 10.08278903 -2.5625 8.125 C-2.29566406 7.03445313 -2.02882813 5.94390625 -1.75390625 4.8203125 C-1 2 -1 2 0 0 Z " fill="#674A2B" transform="translate(774,415)"/>
<path d="M0 0 C6.15222436 0.43173504 9.81917949 1.65405342 15 5 C15 5.99 15 6.98 15 8 C12 8 12 8 10.60546875 6.63671875 C10.07566406 6.09660156 9.54585937 5.55648437 9 5 C6.73972655 3.7951851 6.73972655 3.7951851 4.3125 2.8125 C3.50425781 2.46832031 2.69601562 2.12414062 1.86328125 1.76953125 C1.24839844 1.51558594 0.63351562 1.26164063 0 1 C0 0.67 0 0.34 0 0 Z " fill="#654728" transform="translate(772,616)"/>
<path d="M0 0 C1.32 0.33 2.64 0.66 4 1 C0.37 4.3 -3.26 7.6 -7 11 C-7.66 10.67 -8.32 10.34 -9 10 C-6.03 6.7 -3.06 3.4 0 0 Z " fill="#694A2A" transform="translate(649,444)"/>
<path d="M0 0 C4.8665386 0.41713188 6.79230533 2.45465326 10 6 C10.598125 6.598125 11.19625 7.19625 11.8125 7.8125 C12.204375 8.204375 12.59625 8.59625 13 9 C8.14533714 8.55866701 4.51449983 6.26886275 1 3 C0.67 2.01 0.34 1.02 0 0 Z " fill="#6A4A29" transform="translate(574,726)"/>
<path d="M0 0 C1.51953125 1.17578125 1.51953125 1.17578125 3 3 C3.07421875 5.48046875 3.07421875 5.48046875 2.6875 8.1875 C2.50767578 9.53908203 2.50767578 9.53908203 2.32421875 10.91796875 C2.21722656 11.60503906 2.11023438 12.29210937 2 13 C1.34 12.67 0.68 12.34 0 12 C-0.66 12.66 -1.32 13.32 -2 14 C-1.03644647 4.58997722 -1.03644647 4.58997722 0 0 Z " fill="#805F3A" transform="translate(565,480)"/>
<path d="M0 0 C0.99 0.33 1.98 0.66 3 1 C-0.63 4.3 -4.26 7.6 -8 11 C-8.66 10.67 -9.32 10.34 -10 10 C-8.90033225 8.70450101 -7.79508199 7.41373929 -6.6875 6.125 C-6.07261719 5.40570312 -5.45773437 4.68640625 -4.82421875 3.9453125 C-3 2 -3 2 0 0 Z " fill="#624221" transform="translate(411,689)"/>
<path d="M0 0 C-1 2 -1 2 -2.671875 2.62109375 C-5.56208656 3.09148053 -8.32272535 3.0943182 -11.25 3.0625 C-12.32765625 3.05347656 -13.4053125 3.04445313 -14.515625 3.03515625 C-15.33546875 3.02355469 -16.1553125 3.01195312 -17 3 C-17 2.67 -17 2.34 -17 2 C-14.54316882 1.47097431 -12.08497874 0.95149191 -9.625 0.4375 C-8.92632813 0.28603516 -8.22765625 0.13457031 -7.5078125 -0.02148438 C-2.2265625 -1.11328125 -2.2265625 -1.11328125 0 0 Z " fill="#644627" transform="translate(688,673)"/>
<path d="M0 0 C0 3 0 3 -1.96875 5.26171875 C-2.8040625 6.06222656 -3.639375 6.86273438 -4.5 7.6875 C-5.3353125 8.49574219 -6.170625 9.30398438 -7.03125 10.13671875 C-7.6809375 10.75160156 -8.330625 11.36648438 -9 12 C-9.33 11.01 -9.66 10.02 -10 9 C-8.71142987 7.68445979 -7.41904109 6.37265903 -6.125 5.0625 C-5.04605469 3.96615234 -5.04605469 3.96615234 -3.9453125 2.84765625 C-2 1 -2 1 0 0 Z " fill="#624223" transform="translate(624,469)"/>
<path d="M0 0 C3.19624262 1.53837846 6.21605574 3.28866532 9.25 5.125 C10.14203125 5.66382813 11.0340625 6.20265625 11.953125 6.7578125 C12.96632813 7.37269531 12.96632813 7.37269531 14 8 C11.52489914 8.90457722 10.40762047 9.16843185 7.9296875 8.14453125 C7.25164062 7.70496094 6.57359375 7.26539063 5.875 6.8125 C5.19179687 6.38582031 4.50859375 5.95914063 3.8046875 5.51953125 C1.81379415 3.84321629 0.99020762 2.38364413 0 0 Z " fill="#644629" transform="translate(250,635)"/>
<path d="M0 0 C-1 3 -1 3 -2.8125 4.25 C-5.36879605 5.12644436 -6.52281003 5.02504413 -9 4 C-9.33 3.34 -9.66 2.68 -10 2 C-6.49223216 0.39644899 -3.85645121 -0.22036864 0 0 Z " fill="#71502E" transform="translate(751,384)"/>
<path d="M0 0 C-2.31 1.32 -4.62 2.64 -7 4 C-7 5.65 -7 7.3 -7 9 C-7.99 8.34 -8.98 7.68 -10 7 C-8.54347826 1.41666667 -8.54347826 1.41666667 -6.125 -0.4375 C-3.68444196 -1.08353007 -2.35343441 -0.84051229 0 0 Z " fill="#5A4024" transform="translate(247,619)"/>
<path d="M0 0 C-1.65 0.66 -3.3 1.32 -5 2 C-5 2.66 -5 3.32 -5 4 C-7.31 4.33 -9.62 4.66 -12 5 C-12 4.34 -12 3.68 -12 3 C-10.75823305 2.29773859 -9.50614401 1.61370891 -8.25 0.9375 C-7.20585938 0.36322266 -7.20585938 0.36322266 -6.140625 -0.22265625 C-3.63859372 -1.1312406 -2.4667645 -0.88336837 0 0 Z " fill="#68492A" transform="translate(734,392)"/>
<path d="M0 0 C2 1 2 1 3 3 C1.02 3.66 -0.96 4.32 -3 5 C-3.33 4.34 -3.66 3.68 -4 3 C-4.33 4.32 -4.66 5.64 -5 7 C-6.32 7.33 -7.64 7.66 -9 8 C-8.01 7.01 -7.02 6.02 -6 5 C-6.33 4.34 -6.66 3.68 -7 3 C-4.69631264 1.93347808 -2.35981813 0.93578995 0 0 Z " fill="#80603C" transform="translate(739,387)"/>
<path d="M0 0 C2.45605371 2.55274874 2.98802939 3.85890643 3.29296875 7.453125 C3.25816406 8.70609375 3.22335937 9.9590625 3.1875 11.25 C3.16042969 12.51328125 3.13335938 13.7765625 3.10546875 15.078125 C3.07066406 16.04234375 3.03585937 17.0065625 3 18 C2.67 18 2.34 18 2 18 C1.66191314 15.93827387 1.32972639 13.8755797 1 11.8125 C0.814375 10.66394531 0.62875 9.51539063 0.4375 8.33203125 C0.06510523 5.49584607 -0.08596021 2.85280436 0 0 Z " fill="#53371C" transform="translate(568,329)"/>
<path d="M0 0 C1.3805087 3.76668598 0.59568159 6.44789173 -0.4375 10.25 C-0.72496094 11.32765625 -1.01242187 12.4053125 -1.30859375 13.515625 C-1.53675781 14.33546875 -1.76492188 15.1553125 -2 16 C-2.33 16 -2.66 16 -3 16 C-3.37952295 9.80112515 -2.8352113 5.5522888 0 0 Z " fill="#5C3F22" transform="translate(462,297)"/>
<path d="M0 0 C3.92168514 1.30722838 5.19070756 3.38141513 7 7 C7.0396713 8.66619446 7.04384447 10.33391013 7 12 C5.0625 11.3125 5.0625 11.3125 3 10 C2.375 7.6875 2.375 7.6875 2 5 C1.36562656 3.3207762 0.70710678 1.64991582 0 0 Z " fill="#644425" transform="translate(465,554)"/>
<path d="M0 0 C0 3.77910478 -0.99703962 4.46106101 -3.5 7.1875 C-4.47453125 8.26064453 -4.47453125 8.26064453 -5.46875 9.35546875 C-5.9740625 9.89816406 -6.479375 10.44085938 -7 11 C-7.33 10.01 -7.66 9.02 -8 8 C-6.85546875 6.2109375 -6.85546875 6.2109375 -5.1875 4.375 C-4.64480469 3.76398438 -4.10210938 3.15296875 -3.54296875 2.5234375 C-2 1 -2 1 0 0 Z " fill="#644628" transform="translate(600,496)"/>
<path d="M0 0 C3.27235512 3.15115678 6.2025724 6.42550918 9 10 C9 10.66 9 11.32 9 12 C4.7835599 10.43835552 2.58130177 7.58514135 0 4 C0 2.68 0 1.36 0 0 Z " fill="#644528" transform="translate(293,493)"/>
<path d="M0 0 C5.40049736 0.31767632 7.52337065 3.19996327 11 7 C10.67 7.66 10.34 8.32 10 9 C8.33043913 7.69118353 6.66441696 6.37785174 5 5.0625 C4.071875 4.33160156 3.14375 3.60070312 2.1875 2.84765625 C1.465625 2.23792969 0.74375 1.62820313 0 1 C0 0.67 0 0.34 0 0 Z " fill="#664727" transform="translate(364,437)"/>
<path d="M0 0 C-1.6188996 1.03048037 -3.24532489 2.04914678 -4.875 3.0625 C-5.77992188 3.63097656 -6.68484375 4.19945312 -7.6171875 4.78515625 C-8.40351562 5.18605469 -9.18984375 5.58695312 -10 6 C-10.66 5.67 -11.32 5.34 -12 5 C-5.60587432 -1.7397541 -5.60587432 -1.7397541 0 0 Z " fill="#68492A" transform="translate(720,399)"/>
<path d="M0 0 C0.33 0 0.66 0 1 0 C1.5326514 6.258654 -0.18150494 10.45108785 -3 16 C-4.31225809 12.06322574 -3.3393954 10.2205738 -2.0625 6.3125 C-1.68222656 5.13300781 -1.30195312 3.95351563 -0.91015625 2.73828125 C-0.60980469 1.83464844 -0.30945313 0.93101562 0 0 Z " fill="#563B21" transform="translate(788,378)"/>
<path d="M0 0 C2.33333333 0 4.66666667 0 7 0 C7 0.66 7 1.32 7 2 C6.01 2.495 6.01 2.495 5 3 C5 4.65 5 6.3 5 8 C3.68 7.67 2.36 7.34 1 7 C0.67 4.69 0.34 2.38 0 0 Z " fill="#846643" transform="translate(235,375)"/>
<path d="M0 0 C0.33 0 0.66 0 1 0 C1.33 4.29 1.66 8.58 2 13 C1.01 13.495 1.01 13.495 0 14 C-0.99 11.03 -1.98 8.06 -3 5 C-2.34 4.67 -1.68 4.34 -1 4 C-0.34786708 1.97536745 -0.34786708 1.97536745 0 0 Z " fill="#7F613E" transform="translate(571,340)"/>
<path d="M0 0 C3.40756081 2.27170721 3.8695411 3.17383143 5 7 C5.125 10.3125 5.125 10.3125 5 13 C2.03472242 10.5546615 1.44417786 8.55397653 0.8125 4.8125 C0.65394531 3.91144531 0.49539063 3.01039063 0.33203125 2.08203125 C0.22246094 1.39496094 0.11289062 0.70789063 0 0 Z " fill="#5F4123" transform="translate(550,262)"/>
<path d="M0 0 C0.33 0 0.66 0 1 0 C1 4.29 1 8.58 1 13 C0.34 13 -0.32 13 -1 13 C-1.33 14.32 -1.66 15.64 -2 17 C-1.85786703 15.10388566 -1.71113093 13.20811606 -1.5625 11.3125 C-1.48128906 10.25675781 -1.40007812 9.20101562 -1.31640625 8.11328125 C-1.03548319 5.34913703 -0.59843148 2.71054259 0 0 Z " fill="#5D3E21" transform="translate(512,807)"/>
<path d="M0 0 C-0.66 0 -1.32 0 -2 0 C-2 0.66 -2 1.32 -2 2 C-6.50353262 3.75747614 -10.17639811 4.19294408 -15 4 C-12.39457984 2.26305323 -10.41657225 1.30899552 -7.5 0.3125 C-6.33984375 -0.09548828 -6.33984375 -0.09548828 -5.15625 -0.51171875 C-3 -1 -3 -1 0 0 Z " fill="#634526" transform="translate(414,749)"/>
<path d="M0 0 C3.96 0 7.92 0 12 0 C12 0.66 12 1.32 12 2 C13.32 2.33 14.64 2.66 16 3 C12.37 3 8.74 3 5 3 C5 2.67 5 2.34 5 2 C3.35 1.67 1.7 1.34 0 1 C0 0.67 0 0.34 0 0 Z " fill="#85643D" transform="translate(654,603)"/>
<path d="M0 0 C0.33 0 0.66 0 1 0 C1.19243024 4.81075606 0.86687649 8.54023951 -1 13 C-1.66 13.66 -2.32 14.32 -3 15 C-2.44854729 9.76119922 -1.57077907 5.02649303 0 0 Z " fill="#593B1F" transform="translate(548,557)"/>
<path d="M0 0 C2.12966005 2.12966005 2.47624662 3.04068204 3.1875 5.875 C3.36667969 6.55304687 3.54585938 7.23109375 3.73046875 7.9296875 C4.02970718 10.22818556 3.69377386 11.80550964 3 14 C3 13.34 3 12.68 3 12 C2.34 12 1.68 12 1 12 C-0.3271261 8.0186217 -0.06915913 4.14954773 0 0 Z " fill="#5F4124" transform="translate(468,525)"/>
<path d="M0 0 C0.33 0 0.66 0 1 0 C1.66 5.28 2.32 10.56 3 16 C2.67 15.34 2.34 14.68 2 14 C1.01 14 0.02 14 -1 14 C-1.125 11.625 -1.125 11.625 -1 9 C-0.34 8.34 0.32 7.68 1 7 C0.34 6.67 -0.32 6.34 -1 6 C-0.67 4.02 -0.34 2.04 0 0 Z " fill="#8A6C49" transform="translate(567,315)"/>
<path d="M0 0 C0.66 0.33 1.32 0.66 2 1 C1.25 7.75 1.25 7.75 -1 10 C-2 9 -2 9 -2.0625 5.4375 C-2.041875 4.303125 -2.02125 3.16875 -2 2 C-1.34 2 -0.68 2 0 2 C0 1.34 0 0.68 0 0 Z " fill="#6A4B2A" transform="translate(469,273)"/>
<path d="M0 0 C0.33 0 0.66 0 1 0 C0.67 5.28 0.34 10.56 0 16 C-3.16130459 11.78492722 -3.3367697 10.93928888 -3 6 C-2.01 6.33 -1.02 6.66 0 7 C0 4.69 0 2.38 0 0 Z " fill="#8E6E4A" transform="translate(518,766)"/>
<path d="M0 0 C1.75128818 0.28382946 3.50100003 0.57739529 5.25 0.875 C6.71179688 1.11863281 6.71179688 1.11863281 8.203125 1.3671875 C10.77264117 1.94855848 12.72071056 2.70840265 15 4 C13.58344207 4.0272415 12.16672955 4.04650467 10.75 4.0625 C9.56664062 4.07990234 9.56664062 4.07990234 8.359375 4.09765625 C6.09308998 4.00385306 4.1711105 3.63241063 2 3 C2 2.34 2 1.68 2 1 C1.34 0.67 0.68 0.34 0 0 Z " fill="#614326" transform="translate(326,669)"/>
<path d="M0 0 C0.66 0 1.32 0 2 0 C2.33 0.66 2.66 1.32 3 2 C5.08807 2.61272305 5.08807 2.61272305 7.5 3 C9.96875 3.4375 9.96875 3.4375 12 4 C12.33 4.66 12.66 5.32 13 6 C9.71303767 6.79953138 8.28976808 7.09658936 5 6 C5 5.34 5 4.68 5 4 C2.03 3.505 2.03 3.505 -1 3 C-0.67 2.01 -0.34 1.02 0 0 Z " fill="#907049" transform="translate(415,610)"/>
<path d="M0 0 C2.36762941 2.36762941 2.58455766 3.70059833 3.25 6.9375 C3.44078125 7.81277344 3.6315625 8.68804688 3.828125 9.58984375 C4 12 4 12 2 15 C0.53329887 9.77487721 -0.22577402 5.4185766 0 0 Z " fill="#6B4B2C" transform="translate(474,548)"/>
<path d="M0 0 C0 3.63195496 -0.95453155 4.74713911 -3 7.6875 C-3.556875 8.49574219 -4.11375 9.30398438 -4.6875 10.13671875 C-5.120625 10.75160156 -5.55375 11.36648438 -6 12 C-6.609375 10.1953125 -6.609375 10.1953125 -7 8 C-4.97708454 4.38765096 -3.46128121 2.3075208 0 0 Z " fill="#604123" transform="translate(573,533)"/>
<path d="M0 0 C2.67200728 1.63768188 3.83969229 2.41706288 4.6875 5.5 C4.790625 6.325 4.89375 7.15 5 8 C5.33 8.99 5.66 9.98 6 11 C5.01 11 4.02 11 3 11 C0 4.5 0 4.5 0 0 Z " fill="#624729" transform="translate(252,422)"/>
<path d="M0 0 C1.32 0.33 2.64 0.66 4 1 C-0.455 4.465 -0.455 4.465 -5 8 C-5.66 7.67 -6.32 7.34 -7 7 C-4.78071806 4.09197539 -3.07030857 2.04687238 0 0 Z " fill="#654727" transform="translate(676,423)"/>
<path d="M0 0 C0.33 0 0.66 0 1 0 C0.67 3.96 0.34 7.92 0 12 C-0.99 11.34 -1.98 10.68 -3 10 C-3.40843923 7.28796348 -3.13336867 4.7562858 -3 2 C-2.01 2.495 -2.01 2.495 -1 3 C-0.67 2.01 -0.34 1.02 0 0 Z " fill="#856642" transform="translate(514,800)"/>
<path d="M0 0 C0.66 0.33 1.32 0.66 2 1 C-0.37277818 6.02470674 -3.21097855 7.56030983 -8 10 C-6.34908222 5.70761377 -3.26245434 3.1206085 0 0 Z " fill="#806141" transform="translate(402,696)"/>
<path d="M0 0 C-2.95074112 1.56779517 -5.87119234 2.70074575 -9.0625 3.6875 C-9.91972656 3.95949219 -10.77695312 4.23148438 -11.66015625 4.51171875 C-14 5 -14 5 -17 4 C-11.06561592 0.92291196 -6.70126536 -0.48736475 0 0 Z " fill="#543416" transform="translate(609,613)"/>
<path d="M0 0 C0.9435441 2.53899138 1.16906025 3.60909275 0.07421875 6.140625 C-0.61220703 7.18476563 -0.61220703 7.18476563 -1.3125 8.25 C-1.76238281 8.95640625 -2.21226562 9.6628125 -2.67578125 10.390625 C-3.11277344 10.92171875 -3.54976562 11.4528125 -4 12 C-4.66 12 -5.32 12 -6 12 C-4.43358249 7.69235185 -2.31663844 3.93828536 0 0 Z " fill="#66482B" transform="translate(752,462)"/>
<path d="M0 0 C0.33 0 0.66 0 1 0 C0.67 3.63 0.34 7.26 0 11 C-0.66 11 -1.32 11 -2 11 C-2.33 7.7 -2.66 4.4 -3 1 C-2.67 1.99 -2.34 2.98 -2 4 C-1.34 4 -0.68 4 0 4 C0 2.68 0 1.36 0 0 Z " fill="#7E5F3B" transform="translate(571,458)"/>
<path d="M0 0 C0.99 0.33 1.98 0.66 3 1 C-0.96 4.465 -0.96 4.465 -5 8 C-5.66 7.67 -6.32 7.34 -7 7 C-2.25 1.125 -2.25 1.125 0 0 Z " fill="#634525" transform="translate(662,434)"/>
<path d="M0 0 C1.45880109 0.14107747 2.91703551 0.28802415 4.375 0.4375 C5.59316406 0.55931641 5.59316406 0.55931641 6.8359375 0.68359375 C9 1 9 1 11 2 C10.67 3.32 10.34 4.64 10 6 C9.67 5.34 9.34 4.68 9 4 C6.88672575 3.09274566 6.88672575 3.09274566 4.4375 2.375 C3.61121094 2.11460937 2.78492188 1.85421875 1.93359375 1.5859375 C1.29550781 1.39257812 0.65742188 1.19921875 0 1 C0 0.67 0 0.34 0 0 Z " fill="#674A2B" transform="translate(270,383)"/>
<path d="M0 0 C2 1 4 2 6 3 C6 3.66 6 4.32 6 5 C6.66 5.33 7.32 5.66 8 6 C4.1936543 5.32829194 0.64793184 4.27253436 -3 3 C-2.01 2.67 -1.02 2.34 0 2 C0 1.34 0 0.68 0 0 Z " fill="#7F603D" transform="translate(612,746)"/>
<path d="M0 0 C0.33 0 0.66 0 1 0 C1.34615998 5.65394631 0.43425238 9.03006806 -2 14 C-3.25127906 10.45332822 -2.72285053 8.27746562 -1.5625 4.75 C-1.27503906 3.85796875 -0.98757813 2.9659375 -0.69140625 2.046875 C-0.46324219 1.37140625 -0.23507812 0.6959375 0 0 Z " fill="#5F3F22" transform="translate(552,542)"/>
<path d="M0 0 C0.33 0 0.66 0 1 0 C2.4002792 5.46108889 1.42705634 9.69276568 0 15 C-0.33 15 -0.66 15 -1 15 C-1.18451025 4.44191344 -1.18451025 4.44191344 0 0 Z " fill="#6C4D2E" transform="translate(458,308)"/>
<path d="M0 0 C-1.35513665 4.06540996 -3.30796918 4.97300269 -7 7 C-9.19921875 6.609375 -9.19921875 6.609375 -11 6 C-9.54550599 4.9944239 -8.08627557 3.99569565 -6.625 3 C-5.40683594 2.1646875 -5.40683594 2.1646875 -4.1640625 1.3125 C-2 0 -2 0 0 0 Z " fill="#6B4B2B" transform="translate(632,590)"/>
<path d="M0 0 C0.33 0.66 0.66 1.32 1 2 C1.66 2 2.32 2 3 2 C2.34 4.64 1.68 7.28 1 10 C0.01 9.34 -0.98 8.68 -2 8 C-1.47731534 5.23723823 -0.89130413 2.6739124 0 0 Z " fill="#7E5E3C" transform="translate(473,258)"/>
<path d="M0 0 C0.99 0 1.98 0 3 0 C5.25 2.75 5.25 2.75 7 6 C6.609375 8.203125 6.609375 8.203125 6 10 C4.99723227 8.52270825 3.99785546 7.04311423 3 5.5625 C2.443125 4.73878906 1.88625 3.91507813 1.3125 3.06640625 C0 1 0 1 0 0 Z " fill="#67492A" transform="translate(515,191)"/>
<path d="M0 0 C0.66 0 1.32 0 2 0 C4.15305957 3.85756507 5.39253254 6.55129785 5 11 C0 4.63636364 0 4.63636364 0 0 Z " fill="#624424" transform="translate(649,734)"/>
<path d="M0 0 C-1 3 -1 3 -3.3125 4.75 C-6.32190521 6.14972335 -6.98041673 5.95287489 -10 5 C-8.71186658 4.16121545 -7.41936744 3.32913217 -6.125 2.5 C-5.40570313 2.0359375 -4.68640625 1.571875 -3.9453125 1.09375 C-2 0 -2 0 0 0 Z " fill="#694928" transform="translate(443,733)"/>
<path d="M0 0 C3.3 0 6.6 0 10 0 C7.50494038 2.49505962 6.32671112 2.35948376 2.875 2.625 C1.96492187 2.69976563 1.05484375 2.77453125 0.1171875 2.8515625 C-0.93082031 2.92503906 -0.93082031 2.92503906 -2 3 C-1.34 2.67 -0.68 2.34 0 2 C0 1.34 0 0.68 0 0 Z " fill="#5E3F20" transform="translate(616,609)"/>
<path d="M0 0 C3.33557632 2.9905167 5.15083921 5.93184627 7 10 C3.64501065 8.61172854 1.84949545 7.14414226 0 4 C0 2.68 0 1.36 0 0 Z " fill="#624325" transform="translate(284,480)"/>
<path d="M0 0 C0.66 0 1.32 0 2 0 C2 3.3 2 6.6 2 10 C1.67 9.34 1.34 8.68 1 8 C0.34 8 -0.32 8 -1 8 C-0.67 5.36 -0.34 2.72 0 0 Z " fill="#684724" transform="translate(500,672)"/>
<path d="M0 0 C1.4835001 0.42257276 2.96176424 0.86356322 4.4375 1.3125 C5.67306641 1.67794922 5.67306641 1.67794922 6.93359375 2.05078125 C7.61550781 2.36402344 8.29742188 2.67726563 9 3 C9.33 3.99 9.66 4.98 10 6 C6.40992874 4.66654496 3.20429093 3.1056769 0 1 C0 0.67 0 0.34 0 0 Z " fill="#664625" transform="translate(590,677)"/>
<path d="M0 0 C0.66 0.33 1.32 0.66 2 1 C-3.14285714 5.42857143 -3.14285714 5.42857143 -7 6 C-7.33 5.34 -7.66 4.68 -8 4 C-6.71349294 3.30289269 -5.42059335 2.61757124 -4.125 1.9375 C-3.40570312 1.55464844 -2.68640625 1.17179688 -1.9453125 0.77734375 C-1.30335938 0.52082031 -0.66140625 0.26429688 0 0 Z " fill="#6F5132" transform="translate(748,650)"/>
<path d="M0 0 C0 0.66 0 1.32 0 2 C-4.15267176 5.11450382 -4.15267176 5.11450382 -7.3125 4.6875 C-7.869375 4.460625 -8.42625 4.23375 -9 4 C-8 2 -8 2 -5.0625 0.875 C-2 0 -2 0 0 0 Z " fill="#684929" transform="translate(763,643)"/>
<path d="M0 0 C4.43458973 1.3937282 6.87378374 3.60582235 10 7 C5.58738468 5.79655946 2.95916118 4.52823064 0 1 C0 0.67 0 0.34 0 0 Z " fill="#5F4021" transform="translate(420,608)"/>
<path d="M0 0 C2.97069541 2.54631035 4.4775751 5.42230149 6 9 C5.67 9.66 5.34 10.32 5 11 C2.65808437 8.8709858 1.16445046 6.95591271 0 4 C0 2.68 0 1.36 0 0 Z " fill="#5A3E22" transform="translate(261,441)"/>
<path d="M0 0 C1.125 1.625 1.125 1.625 2 4 C1.125 7.25 1.125 7.25 0 10 C-0.99 9.34 -1.98 8.68 -3 8 C-1.125 2.25 -1.125 2.25 0 0 Z " fill="#83633E" transform="translate(766,433)"/>
<path d="M0 0 C0.8971875 0.309375 0.8971875 0.309375 1.8125 0.625 C0.69176138 1.46405565 -0.43424547 2.29607831 -1.5625 3.125 C-2.18898438 3.5890625 -2.81546875 4.053125 -3.4609375 4.53125 C-5.1875 5.625 -5.1875 5.625 -7.1875 5.625 C-5.69046729 2.17030914 -4.27938051 -0.73360809 0 0 Z " fill="#664728" transform="translate(688.1875,416.375)"/>
<path d="M0 0 C3.48330216 0.64505596 6.09432866 1.98217268 9 4 C9 4.66 9 5.32 9 6 C5.9168649 4.80100302 2.93720508 3.52299523 0 2 C0 1.34 0 0.68 0 0 Z " fill="#6C4E2E" transform="translate(313,402)"/>
<path d="M0 0 C3.63 0.33 7.26 0.66 11 1 C9.515 2.485 9.515 2.485 8 4 C6.68 4 5.36 4 4 4 C4 3.01 4 2.02 4 1 C2.68 0.67 1.36 0.34 0 0 Z " fill="#886A45" transform="translate(732,605)"/>
<path d="M0 0 C3.93673644 1.31224548 6.22719294 2.91910327 9 6 C5.37546731 6 3.92079805 5.07530387 1 3 C0.67 2.01 0.34 1.02 0 0 Z " fill="#6A4C2C" transform="translate(407,600)"/>
<path d="M0 0 C0 4.24645065 -1.81750806 6.38524772 -4 10 C-4.6875 8.3125 -4.6875 8.3125 -5 6 C-2.73846154 1.36923077 -2.73846154 1.36923077 0 0 Z " fill="#614122" transform="translate(564,547)"/>
<path d="M0 0 C2.61500768 2.36595933 4.38999603 4.86049226 6 8 C5.67 8.66 5.34 9.32 5 10 C2.9754262 8.06745228 1.57894208 6.36841312 0 4 C0 2.68 0 1.36 0 0 Z " fill="#705030" transform="translate(461,545)"/>
<path d="M0 0 C3.34249629 0.59687434 5.46436342 1.73603877 8 4 C8 4.66 8 5.32 8 6 C5.0280615 4.87548273 2.66559313 3.77706209 0 2 C0 1.34 0 0.68 0 0 Z " fill="#6C4C2B" transform="translate(350,426)"/>
<path d="M0 0 C3.78786597 0.5260925 6.17152224 1.38103911 9 4 C9 4.66 9 5.32 9 6 C5.06326356 4.68775452 2.77280706 3.08089673 0 0 Z " fill="#654727" transform="translate(338,418)"/>
<path d="M0 0 C-1.25125384 3.75376152 -2.5652404 4.24073289 -6 6 C-6.66 6 -7.32 6 -8 6 C-6.72879117 2.18637351 -4.19078006 0 0 0 Z " fill="#6B4C2C" transform="translate(615,601)"/>
<path d="M0 0 C0.33 0.99 0.66 1.98 1 3 C-0.8125 6.1875 -0.8125 6.1875 -3 9 C-3.66 9 -4.32 9 -5 9 C-3.7508258 5.54074837 -2.32472205 2.85306797 0 0 Z " fill="#65482A" transform="translate(738,484)"/>
<path d="M0 0 C6.75 0.875 6.75 0.875 9 2 C9 2.66 9 3.32 9 4 C5.65626525 3.44271087 2.96687001 2.64826111 0 1 C0 0.67 0 0.34 0 0 Z " fill="#66492A" transform="translate(283,388)"/>
<path d="M0 0 C0.99 0.33 1.98 0.66 3 1 C2.46930939 4.82097239 1.50298434 7.06171403 -1 10 C-0.814375 9.236875 -0.62875 8.47375 -0.4375 7.6875 C0.22819173 4.91032625 0.22819173 4.91032625 -1 2 C-0.67 1.34 -0.34 0.68 0 0 Z " fill="#7E5E3A" transform="translate(482,236)"/>
<path d="M0 0 C0.33 0 0.66 0 1 0 C0.67 2.97 0.34 5.94 0 9 C-0.99 9.33 -1.98 9.66 -3 10 C-2.01 6.7 -1.02 3.4 0 0 Z " fill="#624121" transform="translate(509,825)"/>
<path d="M0 0 C-0.99 0.33 -1.98 0.66 -3 1 C-2.67 1.99 -2.34 2.98 -2 4 C-4.92879371 3.37240135 -7.36095629 2.41377341 -10 1 C-6.59437148 0.22157062 -3.49234244 -0.09978121 0 0 Z " fill="#8D6D49" transform="translate(637,606)"/>
<path d="M0 0 C-1.36983503 3.16115776 -1.9890638 3.9927092 -5 6 C-5.99 5.67 -6.98 5.34 -8 5 C-2.25 0 -2.25 0 0 0 Z " fill="#674829" transform="translate(658,571)"/>
<path d="M0 0 C0.33 0.99 0.66 1.98 1 3 C-0.8125 5.6875 -0.8125 5.6875 -3 8 C-3.66 8 -4.32 8 -5 8 C-3.62845496 5.04590299 -2.01136276 2.55991624 0 0 Z " fill="#664929" transform="translate(727,499)"/>
<path d="M0 0 C0.33 0.99 0.66 1.98 1 3 C-0.65 4.65 -2.3 6.3 -4 8 C-4 4.09161134 -2.49432124 2.88405893 0 0 Z " fill="#5E3F22" transform="translate(485,691)"/>
<path d="M0 0 C0.66 0.66 1.32 1.32 2 2 C-0.31 4.31 -2.62 6.62 -5 9 C-5 4.61031544 -2.87194899 3.23094261 0 0 Z " fill="#836138" transform="translate(598,500)"/>
<path d="M0 0 C2.46800047 1.15173355 4.04783565 2.04783565 6 4 C5.67 4.99 5.34 5.98 5 7 C3.29115995 5.37660195 1.62553283 3.70680947 0 2 C0 1.34 0 0.68 0 0 Z " fill="#644627" transform="translate(414,483)"/>
<path d="M0 0 C0.99 0.33 1.98 0.66 3 1 C1.37660195 2.70884005 -0.29319053 4.37446717 -2 6 C-2.66 6 -3.32 6 -4 6 C-2.84826645 3.53199953 -1.95216435 1.95216435 0 0 Z " fill="#5D3E21" transform="translate(633,459)"/>
<path d="M0 0 C2.31 0.33 4.62 0.66 7 1 C5 3 5 3 1.875 3.125 C0.451875 3.063125 0.451875 3.063125 -1 3 C-0.67 2.01 -0.34 1.02 0 0 Z " fill="#6E4F2B" transform="translate(756,380)"/>
<path d="M0 0 C0.66 0 1.32 0 2 0 C3.42944945 2.35438733 4.08661261 3.48032433 3.625 6.25 C3.41875 6.8275 3.2125 7.405 3 8 C0 3.375 0 3.375 0 0 Z " fill="#5F4225" transform="translate(533,222)"/>
<path d="M0 0 C0.33 0 0.66 0 1 0 C1 1.98 1 3.96 1 6 C0.67 6 0.34 6 0 6 C0 4.02 0 2.04 0 0 Z " fill="#8E6A42" transform="translate(448,427)"/>
<path d="M0 0 C0.66 0 1.32 0 2 0 C1.67 0.99 1.34 1.98 1 3 C0.67 2.01 0.34 1.02 0 0 Z " fill="#8C6942" transform="translate(280,481)"/>
<path d="M0 0 C1 4 1 4 1 4 Z " fill="#8D683D" transform="translate(497,692)"/>
<path d="M0 0 C0.99 0 1.98 0 3 0 C2.67 0.66 2.34 1.32 2 2 C1.34 1.34 0.68 0.68 0 0 Z " fill="#8C6A43" transform="translate(336,675)"/>
<path d="M0 0 C0.99 0.33 1.98 0.66 3 1 C2.01 1.33 1.02 1.66 0 2 C0 1.34 0 0.68 0 0 Z " fill="#8E6E4A" transform="translate(259,608)"/>
<path d="M0 0 C4 1 4 1 4 1 Z " fill="#8C6841" transform="translate(322,600)"/>
<path d="M0 0 C0 3 0 3 0 3 Z " fill="#8C6740" transform="translate(361,573)"/>
<path d="M0 0 C1 4 1 4 1 4 Z " fill="#8D6941" transform="translate(464,521)"/>
<path d="M0 0 C1 4 1 4 1 4 Z " fill="#8D6941" transform="translate(457,491)"/>
<path d="M0 0 C0.99 0.33 1.98 0.66 3 1 C2.01 1.33 1.02 1.66 0 2 C0 1.34 0 0.68 0 0 Z " fill="#8E6A41" transform="translate(632,456)"/>
<path d="M0 0 C0.66 0 1.32 0 2 0 C1.67 0.99 1.34 1.98 1 3 C0.67 2.01 0.34 1.02 0 0 Z " fill="#886642" transform="translate(258,443)"/>
<path d="M0 0 C1 4 1 4 1 4 Z " fill="#8B6840" transform="translate(449,354)"/>
<path d="M0 0 C0.33 0.66 0.66 1.32 1 2 C0.34 1.67 -0.32 1.34 -1 1 C-0.67 0.67 -0.34 0.34 0 0 Z " fill="#927149" transform="translate(482,796)"/>
<path d="" fill="#896A46" transform="translate(0,0)"/>
<path d="M0 0 C0.99 0.495 0.99 0.495 2 1 C1.01 1.495 1.01 1.495 0 2 C0 1.34 0 0.68 0 0 Z " fill="#8D6C44" transform="translate(399,696)"/>
<path d="M0 0 C0.66 0.66 1.32 1.32 2 2 C1.34 2 0.68 2 0 2 C0 1.34 0 0.68 0 0 Z " fill="#8E6B41" transform="translate(418,610)"/>
<path d="" fill="#8C704C" transform="translate(0,0)"/>
<path d="M0 0 C3 1 3 1 3 1 Z " fill="#8D6840" transform="translate(634,604)"/>
<path d="M0 0 C3 1 3 1 3 1 Z " fill="#906E46" transform="translate(736,603)"/>
<path d="M0 0 C3 1 3 1 3 1 Z " fill="#906A40" transform="translate(672,600)"/>
<path d="M0 0 C3 1 3 1 3 1 Z " fill="#946E45" transform="translate(312,600)"/>
<path d="" fill="#896842" transform="translate(0,0)"/>
<path d="M0 0 C0.33 0.66 0.66 1.32 1 2 C0.34 1.67 -0.32 1.34 -1 1 C-0.67 0.67 -0.34 0.34 0 0 Z " fill="#8B6943" transform="translate(257,440)"/>
<path d="" fill="#8F6C43" transform="translate(0,0)"/>
<path d="M0 0 C2 1 2 1 2 1 Z " fill="#8F6E49" transform="translate(481,805)"/>
<path d="" fill="#8E6B41" transform="translate(0,0)"/>
<path d="" fill="#906C44" transform="translate(0,0)"/>
<path d="M0 0 C2 1 2 1 2 1 Z " fill="#8B6C47" transform="translate(379,758)"/>
<path d="M0 0 C2 1 2 1 2 1 Z " fill="#8F6E48" transform="translate(625,755)"/>
<path d="" fill="#8C6B44" transform="translate(0,0)"/>
<path d="" fill="#8A6E4C" transform="translate(0,0)"/>
<path d="M0 0 C2 1 2 1 2 1 Z " fill="#8D6A45" transform="translate(604,748)"/>
<path d="M0 0 C2 1 2 1 2 1 Z " fill="#8D6B45" transform="translate(602,747)"/>
<path d="M0 0 C2 1 2 1 2 1 Z " fill="#8A6743" transform="translate(592,742)"/>
<path d="M0 0 C2 1 2 1 2 1 Z " fill="#8E6A43" transform="translate(584,739)"/>
<path d="M0 0 C2 1 2 1 2 1 Z " fill="#8A6641" transform="translate(384,712)"/>
<path d="" fill="#8C663B" transform="translate(0,0)"/>
<path d="" fill="#916A41" transform="translate(0,0)"/>
<path d="M0 0 C2 1 2 1 2 1 Z " fill="#90693F" transform="translate(603,680)"/>
<path d="M0 0 C2 1 2 1 2 1 Z " fill="#8C663F" transform="translate(355,678)"/>
<path d="M0 0 C2 1 2 1 2 1 Z " fill="#8D6844" transform="translate(679,677)"/>
<path d="" fill="#8D6A41" transform="translate(0,0)"/>
<path d="M0 0 C2 1 2 1 2 1 Z " fill="#8C6843" transform="translate(703,671)"/>
<path d="M0 0 C2 1 2 1 2 1 Z " fill="#886841" transform="translate(323,671)"/>
<path d="M0 0 C2 1 2 1 2 1 Z " fill="#8B6A45" transform="translate(312,671)"/>
<path d="M0 0 C2 1 2 1 2 1 Z " fill="#8B6A43" transform="translate(317,670)"/>
<path d="M0 0 C2 1 2 1 2 1 Z " fill="#8A6A44" transform="translate(288,659)"/>
<path d="" fill="#8B7455" transform="translate(0,0)"/>
<path d="M0 0 C2 1 2 1 2 1 Z " fill="#8F683F" transform="translate(610,609)"/>
<path d="M0 0 C2 1 2 1 2 1 Z " fill="#89653A" transform="translate(405,608)"/>
<path d="M0 0 C2 1 2 1 2 1 Z " fill="#8D6C47" transform="translate(742,603)"/>
<path d="M0 0 C2 1 2 1 2 1 Z " fill="#906D48" transform="translate(728,602)"/>
<path d="M0 0 C2 1 2 1 2 1 Z " fill="#8F6B41" transform="translate(372,602)"/>
<path d="M0 0 C2 1 2 1 2 1 Z " fill="#8F6E46" transform="translate(294,602)"/>
<path d="M0 0 C2 1 2 1 2 1 Z " fill="#8F6C41" transform="translate(651,601)"/>
<path d="M0 0 C2 1 2 1 2 1 Z " fill="#8D673F" transform="translate(702,600)"/>
<path d="M0 0 C2 1 2 1 2 1 Z " fill="#8D693D" transform="translate(678,600)"/>
<path d="M0 0 C2 1 2 1 2 1 Z " fill="#956C43" transform="translate(667,600)"/>
<path d="M0 0 C2 1 2 1 2 1 Z " fill="#8F6A3F" transform="translate(317,600)"/>
<path d="M0 0 C2 1 2 1 2 1 Z " fill="#906C43" transform="translate(309,600)"/>
<path d="M0 0 C2 1 2 1 2 1 Z " fill="#8B673E" transform="translate(395,596)"/>
<path d="M0 0 C2 1 2 1 2 1 Z " fill="#8B6740" transform="translate(363,575)"/>
<path d="" fill="#8E6941" transform="translate(0,0)"/>
<path d="M0 0 C2 1 2 1 2 1 Z " fill="#8E6941" transform="translate(460,536)"/>
<path d="" fill="#8F6A41" transform="translate(0,0)"/>
<path d="M0 0 C2 1 2 1 2 1 Z " fill="#906943" transform="translate(464,530)"/>
<path d="" fill="#8D6A3F" transform="translate(0,0)"/>
<path d="M0 0 C2 1 2 1 2 1 Z " fill="#8C6941" transform="translate(438,504)"/>
<path d="" fill="#8D6B42" transform="translate(0,0)"/>
<path d="" fill="#8B683E" transform="translate(0,0)"/>
<path d="" fill="#8D6840" transform="translate(0,0)"/>
<path d="" fill="#845F39" transform="translate(0,0)"/>
<path d="" fill="#8B663F" transform="translate(0,0)"/>
<path d="" fill="#8F6942" transform="translate(0,0)"/>
<path d="" fill="#8D6A3E" transform="translate(0,0)"/>
<path d="" fill="#87633B" transform="translate(0,0)"/>
<path d="M0 0 C2 1 2 1 2 1 Z " fill="#8D6941" transform="translate(333,411)"/>
<path d="M0 0 C2 1 2 1 2 1 Z " fill="#8E6C45" transform="translate(695,408)"/>
<path d="M0 0 C2 1 2 1 2 1 Z " fill="#8F6B43" transform="translate(692,408)"/>
<path d="M0 0 C2 1 2 1 2 1 Z " fill="#8E6D44" transform="translate(688,408)"/>
<path d="M0 0 C2 1 2 1 2 1 Z " fill="#8B6741" transform="translate(705,402)"/>
<path d="" fill="#8A6840" transform="translate(0,0)"/>
<path d="M0 0 C2 1 2 1 2 1 Z " fill="#8E6E49" transform="translate(753,379)"/>
<path d="" fill="#8C6B46" transform="translate(0,0)"/>
<path d="" fill="#8D714E" transform="translate(0,0)"/>
<path d="" fill="#8E7555" transform="translate(0,0)"/>
<path d="" fill="#896642" transform="translate(0,0)"/>
<path d="" fill="#896A43" transform="translate(0,0)"/>
<path d="M0 0 C2 1 2 1 2 1 Z " fill="#896942" transform="translate(464,273)"/>
<path d="" fill="#8B6B46" transform="translate(0,0)"/>
<path d="" fill="#8D6943" transform="translate(0,0)"/>
<path d="M0 0 C2 1 2 1 2 1 Z " fill="#8B6B46" transform="translate(533,215)"/>
<path d="" fill="#8C6D46" transform="translate(0,0)"/>
<path d="M0 0 C2 1 2 1 2 1 Z " fill="#917552" transform="translate(504,184)"/>
<path d="" fill="#8F7455" transform="translate(0,0)"/>
<path d="" fill="#8E7250" transform="translate(0,0)"/>
<path d="" fill="#8C6E4A" transform="translate(0,0)"/>
<path d="" fill="#8F6E47" transform="translate(0,0)"/>
<path d="" fill="#937149" transform="translate(0,0)"/>
<path d="" fill="#917047" transform="translate(0,0)"/>
<path d="" fill="#8D6841" transform="translate(0,0)"/>
<path d="" fill="#916C45" transform="translate(0,0)"/>
<path d="" fill="#8F6C40" transform="translate(0,0)"/>
<path d="" fill="#86633C" transform="translate(0,0)"/>
<path d="" fill="#8D6F4A" transform="translate(0,0)"/>
<path d="" fill="#8C6E49" transform="translate(0,0)"/>
<path d="" fill="#886F48" transform="translate(0,0)"/>
<path d="" fill="#876C46" transform="translate(0,0)"/>
<path d="" fill="#8C7049" transform="translate(0,0)"/>
<path d="" fill="#8B704A" transform="translate(0,0)"/>
<path d="" fill="#8B6D49" transform="translate(0,0)"/>
<path d="" fill="#8B7251" transform="translate(0,0)"/>
<path d="" fill="#8E6F4D" transform="translate(0,0)"/>
<path d="" fill="#8E6F4B" transform="translate(0,0)"/>
<path d="" fill="#8B6F49" transform="translate(0,0)"/>
<path d="" fill="#8F704D" transform="translate(0,0)"/>
<path d="" fill="#8A714D" transform="translate(0,0)"/>
<path d="" fill="#8E6D47" transform="translate(0,0)"/>
<path d="" fill="#8E6A42" transform="translate(0,0)"/>
<path d="" fill="#8C6B46" transform="translate(0,0)"/>
<path d="" fill="#8B6945" transform="translate(0,0)"/>
<path d="" fill="#8A6A44" transform="translate(0,0)"/>
<path d="" fill="#8E6A45" transform="translate(0,0)"/>
<path d="" fill="#896A44" transform="translate(0,0)"/>
<path d="" fill="#8A6B4B" transform="translate(0,0)"/>
<path d="" fill="#8A6B48" transform="translate(0,0)"/>
<path d="" fill="#8B6742" transform="translate(0,0)"/>
<path d="" fill="#87643D" transform="translate(0,0)"/>
<path d="" fill="#8B663F" transform="translate(0,0)"/>
<path d="" fill="#8A6C41" transform="translate(0,0)"/>
<path d="" fill="#8F6A43" transform="translate(0,0)"/>
<path d="" fill="#8B6E47" transform="translate(0,0)"/>
<path d="" fill="#8A663F" transform="translate(0,0)"/>
<path d="" fill="#8C6A43" transform="translate(0,0)"/>
<path d="" fill="#886847" transform="translate(0,0)"/>
<path d="" fill="#8E6842" transform="translate(0,0)"/>
<path d="" fill="#8B6943" transform="translate(0,0)"/>
<path d="" fill="#88643D" transform="translate(0,0)"/>
<path d="" fill="#8E6B48" transform="translate(0,0)"/>
<path d="" fill="#906F49" transform="translate(0,0)"/>
<path d="" fill="#855F3A" transform="translate(0,0)"/>
<path d="" fill="#8F6A44" transform="translate(0,0)"/>
<path d="" fill="#8A6740" transform="translate(0,0)"/>
<path d="" fill="#936C43" transform="translate(0,0)"/>
<path d="" fill="#8C6540" transform="translate(0,0)"/>
<path d="" fill="#916E45" transform="translate(0,0)"/>
<path d="" fill="#8C6A40" transform="translate(0,0)"/>
<path d="" fill="#88633C" transform="translate(0,0)"/>
<path d="" fill="#8B6740" transform="translate(0,0)"/>
<path d="" fill="#886242" transform="translate(0,0)"/>
<path d="" fill="#8A663F" transform="translate(0,0)"/>
<path d="" fill="#8D6A3F" transform="translate(0,0)"/>
<path d="" fill="#8E683F" transform="translate(0,0)"/>
<path d="" fill="#855E34" transform="translate(0,0)"/>
<path d="" fill="#8E6B42" transform="translate(0,0)"/>
<path d="" fill="#8D6742" transform="translate(0,0)"/>
<path d="" fill="#8C6B42" transform="translate(0,0)"/>
<path d="" fill="#906A42" transform="translate(0,0)"/>
<path d="" fill="#8D663E" transform="translate(0,0)"/>
<path d="" fill="#8D683E" transform="translate(0,0)"/>
<path d="" fill="#89653B" transform="translate(0,0)"/>
<path d="" fill="#8D6B42" transform="translate(0,0)"/>
<path d="" fill="#916B40" transform="translate(0,0)"/>
<path d="" fill="#8F6B41" transform="translate(0,0)"/>
<path d="" fill="#8F6A40" transform="translate(0,0)"/>
<path d="" fill="#8D6540" transform="translate(0,0)"/>
<path d="" fill="#906B40" transform="translate(0,0)"/>
<path d="" fill="#8E6C44" transform="translate(0,0)"/>
<path d="" fill="#8F6941" transform="translate(0,0)"/>
<path d="" fill="#8F6F48" transform="translate(0,0)"/>
<path d="" fill="#946E49" transform="translate(0,0)"/>
<path d="" fill="#916941" transform="translate(0,0)"/>
<path d="" fill="#8C6840" transform="translate(0,0)"/>
<path d="" fill="#8B6843" transform="translate(0,0)"/>
<path d="" fill="#8C6A42" transform="translate(0,0)"/>
<path d="" fill="#8E6C46" transform="translate(0,0)"/>
<path d="" fill="#906C47" transform="translate(0,0)"/>
<path d="" fill="#8D6940" transform="translate(0,0)"/>
<path d="" fill="#8F6A47" transform="translate(0,0)"/>
<path d="" fill="#8E6B45" transform="translate(0,0)"/>
<path d="" fill="#8B6841" transform="translate(0,0)"/>
<path d="" fill="#8F6D47" transform="translate(0,0)"/>
<path d="" fill="#8C6B44" transform="translate(0,0)"/>
<path d="" fill="#8E6D46" transform="translate(0,0)"/>
<path d="" fill="#876742" transform="translate(0,0)"/>
<path d="" fill="#8D6941" transform="translate(0,0)"/>
<path d="" fill="#8D6B44" transform="translate(0,0)"/>
<path d="" fill="#886740" transform="translate(0,0)"/>
<path d="" fill="#896940" transform="translate(0,0)"/>
<path d="" fill="#8E6C46" transform="translate(0,0)"/>
<path d="" fill="#8E6D4A" transform="translate(0,0)"/>
<path d="" fill="#8D6C46" transform="translate(0,0)"/>
<path d="" fill="#8D6A46" transform="translate(0,0)"/>
<path d="" fill="#8B6C49" transform="translate(0,0)"/>
<path d="" fill="#8B6745" transform="translate(0,0)"/>
<path d="" fill="#8B6A44" transform="translate(0,0)"/>
<path d="" fill="#886946" transform="translate(0,0)"/>
<path d="" fill="#886A46" transform="translate(0,0)"/>
<path d="" fill="#8E6D49" transform="translate(0,0)"/>
<path d="" fill="#8C6E49" transform="translate(0,0)"/>
<path d="" fill="#8E724E" transform="translate(0,0)"/>
<path d="" fill="#8E7151" transform="translate(0,0)"/>
<path d="" fill="#8A6F4C" transform="translate(0,0)"/>
<path d="" fill="#8C6F4F" transform="translate(0,0)"/>
<path d="" fill="#8D7355" transform="translate(0,0)"/>
<path d="" fill="#907454" transform="translate(0,0)"/>
<path d="" fill="#8C714F" transform="translate(0,0)"/>
<path d="" fill="#8E7251" transform="translate(0,0)"/>
<path d="" fill="#8D704D" transform="translate(0,0)"/>
<path d="" fill="#876C49" transform="translate(0,0)"/>
<path d="" fill="#8D6D4C" transform="translate(0,0)"/>
<path d="" fill="#8E704F" transform="translate(0,0)"/>
<path d="" fill="#8E714A" transform="translate(0,0)"/>
<path d="" fill="#91724A" transform="translate(0,0)"/>
<path d="" fill="#926E41" transform="translate(0,0)"/>
<path d="" fill="#906B41" transform="translate(0,0)"/>
<path d="" fill="#926E41" transform="translate(0,0)"/>
<path d="" fill="#8E6E49" transform="translate(0,0)"/>
<path d="" fill="#8E704D" transform="translate(0,0)"/>
<path d="" fill="#8C6741" transform="translate(0,0)"/>
<path d="" fill="#8F6A43" transform="translate(0,0)"/>
<path d="" fill="#88613C" transform="translate(0,0)"/>
<path d="" fill="#87643A" transform="translate(0,0)"/>
<path d="" fill="#8E6C45" transform="translate(0,0)"/>
<path d="" fill="#8E6D45" transform="translate(0,0)"/>
<path d="" fill="#8C6C44" transform="translate(0,0)"/>
<path d="" fill="#906C42" transform="translate(0,0)"/>
<path d="" fill="#8E7047" transform="translate(0,0)"/>
<path d="" fill="#907048" transform="translate(0,0)"/>
<path d="" fill="#8E6B42" transform="translate(0,0)"/>
<path d="" fill="#8E6A41" transform="translate(0,0)"/>
<path d="" fill="#91683D" transform="translate(0,0)"/>
<path d="" fill="#8F6941" transform="translate(0,0)"/>
<path d="" fill="#936F45" transform="translate(0,0)"/>
<path d="" fill="#8F683E" transform="translate(0,0)"/>
<path d="" fill="#8E673C" transform="translate(0,0)"/>
<path d="" fill="#8D6B42" transform="translate(0,0)"/>
<path d="" fill="#966E42" transform="translate(0,0)"/>
<path d="" fill="#916C42" transform="translate(0,0)"/>
<path d="" fill="#936C42" transform="translate(0,0)"/>
<path d="" fill="#8F683D" transform="translate(0,0)"/>
<path d="" fill="#906A3F" transform="translate(0,0)"/>
<path d="" fill="#906A3F" transform="translate(0,0)"/>
<path d="" fill="#8F6942" transform="translate(0,0)"/>
<path d="" fill="#8D683F" transform="translate(0,0)"/>
<path d="" fill="#8C673B" transform="translate(0,0)"/>
<path d="" fill="#8E6941" transform="translate(0,0)"/>
<path d="" fill="#8D6A3F" transform="translate(0,0)"/>
<path d="" fill="#8F6B44" transform="translate(0,0)"/>
<path d="" fill="#8F6B3F" transform="translate(0,0)"/>
<path d="" fill="#8D693E" transform="translate(0,0)"/>
<path d="" fill="#8B683E" transform="translate(0,0)"/>
<path d="" fill="#8D6840" transform="translate(0,0)"/>
<path d="" fill="#89633C" transform="translate(0,0)"/>
<path d="" fill="#8D673E" transform="translate(0,0)"/>
<path d="" fill="#8B653B" transform="translate(0,0)"/>
<path d="" fill="#8B6940" transform="translate(0,0)"/>
<path d="" fill="#8B633C" transform="translate(0,0)"/>
<path d="" fill="#8D683E" transform="translate(0,0)"/>
<path d="" fill="#87623E" transform="translate(0,0)"/>
<path d="" fill="#89653F" transform="translate(0,0)"/>
<path d="" fill="#936D43" transform="translate(0,0)"/>
<path d="" fill="#8C6841" transform="translate(0,0)"/>
<path d="" fill="#90693F" transform="translate(0,0)"/>
<path d="" fill="#916D40" transform="translate(0,0)"/>
<path d="" fill="#906B41" transform="translate(0,0)"/>
<path d="" fill="#89643F" transform="translate(0,0)"/>
<path d="" fill="#8C6843" transform="translate(0,0)"/>
<path d="" fill="#91693E" transform="translate(0,0)"/>
<path d="" fill="#906C44" transform="translate(0,0)"/>
<path d="" fill="#8E6A43" transform="translate(0,0)"/>
<path d="" fill="#916B40" transform="translate(0,0)"/>
<path d="" fill="#8E6A41" transform="translate(0,0)"/>
<path d="" fill="#8B6D45" transform="translate(0,0)"/>
<path d="" fill="#886038" transform="translate(0,0)"/>
<path d="" fill="#855E37" transform="translate(0,0)"/>
<path d="" fill="#8B643D" transform="translate(0,0)"/>
<path d="" fill="#8F6A42" transform="translate(0,0)"/>
<path d="" fill="#89663E" transform="translate(0,0)"/>
<path d="" fill="#8B6941" transform="translate(0,0)"/>
<path d="" fill="#88673E" transform="translate(0,0)"/>
<path d="" fill="#8E6B40" transform="translate(0,0)"/>
<path d="" fill="#926D42" transform="translate(0,0)"/>
<path d="" fill="#8B633B" transform="translate(0,0)"/>
<path d="" fill="#8E6843" transform="translate(0,0)"/>
<path d="" fill="#906A41" transform="translate(0,0)"/>
<path d="" fill="#916641" transform="translate(0,0)"/>
<path d="" fill="#8D6941" transform="translate(0,0)"/>
<path d="" fill="#8C673F" transform="translate(0,0)"/>
<path d="" fill="#8D6940" transform="translate(0,0)"/>
<path d="" fill="#866038" transform="translate(0,0)"/>
<path d="" fill="#88613A" transform="translate(0,0)"/>
<path d="" fill="#8E6942" transform="translate(0,0)"/>
<path d="" fill="#8C693F" transform="translate(0,0)"/>
<path d="" fill="#85603B" transform="translate(0,0)"/>
<path d="" fill="#886741" transform="translate(0,0)"/>
<path d="" fill="#8B6640" transform="translate(0,0)"/>
<path d="" fill="#8B6943" transform="translate(0,0)"/>
<path d="" fill="#8D653B" transform="translate(0,0)"/>
<path d="" fill="#8C663F" transform="translate(0,0)"/>
<path d="" fill="#896641" transform="translate(0,0)"/>
<path d="" fill="#8C6A41" transform="translate(0,0)"/>
<path d="" fill="#8A6640" transform="translate(0,0)"/>
<path d="" fill="#85633B" transform="translate(0,0)"/>
<path d="" fill="#85643D" transform="translate(0,0)"/>
<path d="" fill="#8D673F" transform="translate(0,0)"/>
<path d="" fill="#8E6A44" transform="translate(0,0)"/>
<path d="" fill="#8C683F" transform="translate(0,0)"/>
<path d="" fill="#8A683E" transform="translate(0,0)"/>
<path d="" fill="#89633C" transform="translate(0,0)"/>
<path d="" fill="#8C6742" transform="translate(0,0)"/>
<path d="" fill="#8C6741" transform="translate(0,0)"/>
<path d="" fill="#8D6B43" transform="translate(0,0)"/>
<path d="" fill="#8A6740" transform="translate(0,0)"/>
<path d="" fill="#886841" transform="translate(0,0)"/>
<path d="" fill="#8A6A44" transform="translate(0,0)"/>
<path d="" fill="#8D6B41" transform="translate(0,0)"/>
<path d="" fill="#8C6740" transform="translate(0,0)"/>
<path d="" fill="#896941" transform="translate(0,0)"/>
<path d="" fill="#906B43" transform="translate(0,0)"/>
<path d="" fill="#8B6847" transform="translate(0,0)"/>
<path d="" fill="#8A6641" transform="translate(0,0)"/>
<path d="" fill="#8E6C41" transform="translate(0,0)"/>
<path d="" fill="#88653F" transform="translate(0,0)"/>
<path d="" fill="#957550" transform="translate(0,0)"/>
<path d="" fill="#8A6840" transform="translate(0,0)"/>
<path d="" fill="#8D6B42" transform="translate(0,0)"/>
<path d="" fill="#8E6A42" transform="translate(0,0)"/>
<path d="" fill="#8B6940" transform="translate(0,0)"/>
<path d="" fill="#8B6843" transform="translate(0,0)"/>
<path d="" fill="#8E6C43" transform="translate(0,0)"/>
<path d="" fill="#87643D" transform="translate(0,0)"/>
<path d="" fill="#8D6840" transform="translate(0,0)"/>
<path d="" fill="#8B683F" transform="translate(0,0)"/>
<path d="" fill="#8F6B44" transform="translate(0,0)"/>
<path d="" fill="#896842" transform="translate(0,0)"/>
<path d="" fill="#89643B" transform="translate(0,0)"/>
<path d="" fill="#8B683F" transform="translate(0,0)"/>
<path d="" fill="#8E6841" transform="translate(0,0)"/>
<path d="" fill="#8A663A" transform="translate(0,0)"/>
<path d="" fill="#8D6B41" transform="translate(0,0)"/>
<path d="" fill="#8C6B3F" transform="translate(0,0)"/>
<path d="" fill="#8A6844" transform="translate(0,0)"/>
<path d="" fill="#896B44" transform="translate(0,0)"/>
<path d="" fill="#8A6D43" transform="translate(0,0)"/>
<path d="" fill="#8B683D" transform="translate(0,0)"/>
<path d="" fill="#8F693F" transform="translate(0,0)"/>
<path d="" fill="#88673D" transform="translate(0,0)"/>
<path d="" fill="#8B6540" transform="translate(0,0)"/>
<path d="" fill="#8F6C42" transform="translate(0,0)"/>
<path d="" fill="#8B6741" transform="translate(0,0)"/>
<path d="" fill="#89663D" transform="translate(0,0)"/>
<path d="" fill="#896742" transform="translate(0,0)"/>
<path d="" fill="#8C6941" transform="translate(0,0)"/>
<path d="" fill="#8D6A49" transform="translate(0,0)"/>
<path d="" fill="#906B41" transform="translate(0,0)"/>
<path d="" fill="#866546" transform="translate(0,0)"/>
<path d="" fill="#8A6644" transform="translate(0,0)"/>
<path d="" fill="#8D6A45" transform="translate(0,0)"/>
<path d="" fill="#8E6A42" transform="translate(0,0)"/>
<path d="" fill="#8C6943" transform="translate(0,0)"/>
<path d="" fill="#8B6744" transform="translate(0,0)"/>
<path d="" fill="#866941" transform="translate(0,0)"/>
<path d="" fill="#906C46" transform="translate(0,0)"/>
<path d="" fill="#8A6C47" transform="translate(0,0)"/>
<path d="" fill="#86643D" transform="translate(0,0)"/>
<path d="" fill="#8B6B3F" transform="translate(0,0)"/>
<path d="" fill="#8C6C43" transform="translate(0,0)"/>
<path d="" fill="#896A42" transform="translate(0,0)"/>
<path d="" fill="#8B6943" transform="translate(0,0)"/>
<path d="" fill="#8B6C47" transform="translate(0,0)"/>
<path d="" fill="#8E6B44" transform="translate(0,0)"/>
<path d="" fill="#8F6B44" transform="translate(0,0)"/>
<path d="" fill="#8E6942" transform="translate(0,0)"/>
<path d="" fill="#8D6841" transform="translate(0,0)"/>
<path d="" fill="#8D6F4A" transform="translate(0,0)"/>
<path d="" fill="#8E6943" transform="translate(0,0)"/>
<path d="" fill="#8E6945" transform="translate(0,0)"/>
<path d="" fill="#8B6941" transform="translate(0,0)"/>
<path d="" fill="#906D4E" transform="translate(0,0)"/>
<path d="" fill="#8D704E" transform="translate(0,0)"/>
<path d="" fill="#8E6E4B" transform="translate(0,0)"/>
<path d="" fill="#8B6A46" transform="translate(0,0)"/>
<path d="" fill="#846846" transform="translate(0,0)"/>
<path d="" fill="#89673F" transform="translate(0,0)"/>
<path d="" fill="#8B6B45" transform="translate(0,0)"/>
<path d="" fill="#8B6944" transform="translate(0,0)"/>
<path d="" fill="#8B714F" transform="translate(0,0)"/>
<path d="" fill="#8B6840" transform="translate(0,0)"/>
<path d="" fill="#8E6845" transform="translate(0,0)"/>
<path d="" fill="#8C6944" transform="translate(0,0)"/>
<path d="" fill="#866947" transform="translate(0,0)"/>
<path d="" fill="#8D6F4E" transform="translate(0,0)"/>
<path d="" fill="#8A6B46" transform="translate(0,0)"/>
<path d="" fill="#8B704F" transform="translate(0,0)"/>
<path d="" fill="#8D6B48" transform="translate(0,0)"/>
<path d="" fill="#886A47" transform="translate(0,0)"/>
<path d="" fill="#8E7051" transform="translate(0,0)"/>
<path d="" fill="#8B6C47" transform="translate(0,0)"/>
<path d="" fill="#8E6C4A" transform="translate(0,0)"/>
<path d="" fill="#906E48" transform="translate(0,0)"/>
<path d="" fill="#8C6B47" transform="translate(0,0)"/>
<path d="" fill="#906D4A" transform="translate(0,0)"/>
<path d="" fill="#8B6C48" transform="translate(0,0)"/>
<path d="" fill="#886948" transform="translate(0,0)"/>
<path d="" fill="#8A6D4D" transform="translate(0,0)"/>
<path d="" fill="#8D7453" transform="translate(0,0)"/>
<path d="" fill="#8B6E4D" transform="translate(0,0)"/>
<path d="" fill="#8C7250" transform="translate(0,0)"/>
<path d="" fill="#8B6F4C" transform="translate(0,0)"/>
<path d="" fill="#8E7554" transform="translate(0,0)"/>
<path d="" fill="#8D6E4E" transform="translate(0,0)"/>
<path d="" fill="#8D7453" transform="translate(0,0)"/>
<path d="" fill="#8F704E" transform="translate(0,0)"/>
<path d="" fill="#8D7251" transform="translate(0,0)"/>
<path d="" fill="#8B6742" transform="translate(0,0)"/>
<path d="" fill="#8C6741" transform="translate(0,0)"/>
<path d="" fill="#8C6742" transform="translate(0,0)"/>
<path d="" fill="#8A6A42" transform="translate(0,0)"/>
<path d="" fill="#886540" transform="translate(0,0)"/>
<path d="" fill="#8B6B43" transform="translate(0,0)"/>
<path d="" fill="#8E6E43" transform="translate(0,0)"/>
<path d="" fill="#87623E" transform="translate(0,0)"/>
<path d="" fill="#8D6A43" transform="translate(0,0)"/>
<path d="" fill="#8A6943" transform="translate(0,0)"/>
<path d="" fill="#8B6B44" transform="translate(0,0)"/>
<path d="" fill="#87633F" transform="translate(0,0)"/>
<path d="" fill="#84653D" transform="translate(0,0)"/>
<path d="" fill="#8B6A44" transform="translate(0,0)"/>
<path d="" fill="#8A6A44" transform="translate(0,0)"/>
<path d="" fill="#8B6946" transform="translate(0,0)"/>
<path d="" fill="#8A6B42" transform="translate(0,0)"/>
<path d="" fill="#8C6C44" transform="translate(0,0)"/>
<path d="" fill="#8B6A46" transform="translate(0,0)"/>
<path d="" fill="#876542" transform="translate(0,0)"/>
<path d="" fill="#8D6C44" transform="translate(0,0)"/>
<path d="" fill="#8B6942" transform="translate(0,0)"/>
<path d="" fill="#8C6A43" transform="translate(0,0)"/>
<path d="" fill="#8C6C43" transform="translate(0,0)"/>
<path d="" fill="#80603D" transform="translate(0,0)"/>
<path d="" fill="#8B6A45" transform="translate(0,0)"/>
<path d="" fill="#8B6B44" transform="translate(0,0)"/>
<path d="" fill="#8C6846" transform="translate(0,0)"/>
<path d="" fill="#8E6B44" transform="translate(0,0)"/>
<path d="" fill="#8C6B47" transform="translate(0,0)"/>
<path d="" fill="#8A6A45" transform="translate(0,0)"/>
<path d="" fill="#8D6B45" transform="translate(0,0)"/>
<path d="" fill="#8C6E47" transform="translate(0,0)"/>
<path d="" fill="#8D6D48" transform="translate(0,0)"/>
<path d="" fill="#896944" transform="translate(0,0)"/>
<path d="" fill="#8E6F47" transform="translate(0,0)"/>
<path d="" fill="#8D6B46" transform="translate(0,0)"/>
<path d="" fill="#8A6A43" transform="translate(0,0)"/>
<path d="" fill="#886B46" transform="translate(0,0)"/>
<path d="" fill="#8C6F48" transform="translate(0,0)"/>
<path d="" fill="#8F6E47" transform="translate(0,0)"/>
<path d="" fill="#8F704B" transform="translate(0,0)"/>
<path d="" fill="#8A6C48" transform="translate(0,0)"/>
<path d="" fill="#886B47" transform="translate(0,0)"/>
<path d="" fill="#8F744F" transform="translate(0,0)"/>
<path d="" fill="#BEBBB7" transform="translate(0,0)"/>
<path d="" fill="#BBB7B1" transform="translate(0,0)"/>
</svg>
