<?xml version="1.0" encoding="UTF-8"?>
<svg version="1.1" xmlns="http://www.w3.org/2000/svg" width="1024" height="1024">
<path d="M0 0 C0.33 0.66 0.66 1.32 1 2 C1.804375 1.96519531 2.60875 1.93039062 3.4375 1.89453125 C15.77957643 1.6103387 27.8137477 3.14090703 40 5 C41.269646 5.19287598 41.269646 5.19287598 42.56494141 5.38964844 C74.07563138 10.4452521 104.00629092 26.09711686 123.00634766 52.03344727 C132.73579133 65.85264143 136.59064972 81.47159778 136.4375 98.25 C136.42614014 100.0148877 136.42614014 100.0148877 136.41455078 101.81542969 C135.73788202 137.82211069 114.20708712 167.16969519 90 192 C88.87078125 193.19882812 88.87078125 193.19882812 87.71875 194.421875 C86 196 86 196 84 196 C84 196.66 84 197.32 84 198 C82.47162731 199.39599396 80.87349901 200.71587649 79.25 202 C78.23679687 202.80824219 77.22359375 203.61648438 76.1796875 204.44921875 C75.64956055 204.87122559 75.11943359 205.29323242 74.57324219 205.72802734 C72.12942095 207.70386668 69.7607136 209.76713059 67.375 211.8125 C43.30037939 231.84381895 15.28590458 248.44740543 -12.89648438 261.98291016 C-15.16387375 263.07923608 -17.41759059 264.20121032 -19.671875 265.32421875 C-56.14028974 283.31035381 -95.22353371 295.47778718 -135.0625 303.3125 C-136.28557861 303.55508545 -137.50865723 303.7976709 -138.76879883 304.04760742 C-154.98887123 307.1241468 -170.93350079 308.37340464 -187.43041992 308.37060547 C-190.29992015 308.37498082 -193.16787844 308.41148183 -196.03710938 308.44921875 C-221.96182388 308.606559 -245.24027755 302.1636782 -268 290 C-268.66 289.67 -269.32 289.34 -270 289 C-286.97363182 276.07062703 -301.12853733 260.66576313 -305 239 C-306.92099696 223.8887214 -306.92099696 223.8887214 -307 217 C-306.67 216.67 -306.34 216.34 -306 216 C-305.50408761 213.37704169 -305.05147324 210.7593462 -304.625 208.125 C-303.60954931 202.05391474 -302.37932931 196.18573748 -300.55078125 190.296875 C-299.88260725 187.97009168 -299.88260725 187.97009168 -300.10546875 185.390625 C-299.97190117 182.36309322 -299.15327619 182.0151801 -297 180 C-296.16508386 178.15264403 -295.40093255 176.27258347 -294.6875 174.375 C-292.7954986 169.68417997 -290.7057931 165.71490052 -287.7890625 161.6015625 C-285.90849241 158.86693438 -284.19104801 156.06421331 -282.46923828 153.22827148 C-277.83915814 145.63053045 -272.81006706 138.7563652 -267 132 C-265.41199628 130.06632607 -263.82863518 128.12882987 -262.25 126.1875 C-261.5075 125.28257812 -260.765 124.37765625 -260 123.4453125 C-258.82533891 122.00910577 -257.65612107 120.56836031 -256.5 119.1171875 C-254.65664847 116.82451903 -252.87122232 114.89763825 -250.5625 113.0625 C-247.71371516 110.76957562 -245.60175701 108.24125683 -243.33203125 105.390625 C-242.89246094 104.93171875 -242.45289063 104.4728125 -242 104 C-241.34 104 -240.68 104 -240 104 C-240 103.34 -240 102.68 -240 102 C-239.34 102 -238.68 102 -238 102 C-237.505 100.515 -237.505 100.515 -237 99 C-234.57490972 96.42011672 -231.72569398 94.2533436 -229 92 C-228.43796875 91.53239258 -227.8759375 91.06478516 -227.296875 90.58300781 C-206.90167206 73.64770537 -185.36774607 59.38464661 -162.31005859 46.31591797 C-160.06885535 45.03922324 -157.84049052 43.74232054 -155.61328125 42.44140625 C-113.13512202 17.88617895 -63.6840187 4.17938618 -14.8828125 1.18945312 C-9.91625448 0.86306008 -4.95854049 0.42956573 0 0 Z M-54 32 C-53.64707062 34.67300613 -53.26606628 35.76697463 -51.20703125 37.5703125 C-50.41683594 38.08335937 -49.62664062 38.59640625 -48.8125 39.125 C-47.45125 40.03378906 -47.45125 40.03378906 -46.0625 40.9609375 C-44.5465625 41.97027344 -44.5465625 41.97027344 -43 43 C-40.7640683 44.57482689 -38.53464136 46.15603132 -36.3125 47.75 C-35.72533203 48.17031494 -35.13816406 48.59062988 -34.53320312 49.02368164 C-32.68716401 50.34685849 -30.84316614 51.67282438 -29 53 C-28.05253906 53.6818335 -28.05253906 53.6818335 -27.0859375 54.37744141 C-18.83331353 60.33094114 -10.77842804 66.43082337 -3 73 C-2.48147461 73.4336084 -1.96294922 73.8672168 -1.42871094 74.31396484 C9.65096292 83.58624648 20.42849175 93.25842621 30.5390625 103.5859375 C31.0841748 104.14216797 31.62928711 104.69839844 32.19091797 105.27148438 C33.20026982 106.30960259 34.20243096 107.35478157 35.19580078 108.40820312 C37.6163641 110.91012256 39.41652801 112.75787351 43 113 C44.54826786 111.45173214 44.31977152 110.03692295 44.4375 107.875 C44.28345766 92.51477836 33.37180885 78.24617062 24 67 C23.48824219 66.35289062 22.97648437 65.70578125 22.44921875 65.0390625 C21.34678671 63.65370542 20.18054154 62.31942878 19 61 C18.34 61 17.68 61 17 61 C17 60.34 17 59.68 17 59 C10.38870487 52.72118779 2.84721967 47.59200111 -5 43 C-5.56734863 42.66581055 -6.13469727 42.33162109 -6.71923828 41.98730469 C-19.54321295 34.51843426 -39.42116035 24.71058018 -54 32 Z M-138 61 C-137.6261454 63.47802741 -137.31965075 64.7072292 -135.44384766 66.42529297 C-134.77401855 66.85986816 -134.10418945 67.29444336 -133.4140625 67.7421875 C-132.65738281 68.24395508 -131.90070313 68.74572266 -131.12109375 69.26269531 C-129.88552734 70.06078613 -129.88552734 70.06078613 -128.625 70.875 C-126.88609464 72.03096182 -125.14917187 73.18991062 -123.4140625 74.3515625 C-122.51848633 74.95000977 -121.62291016 75.54845703 -120.70019531 76.16503906 C-109.37214692 83.86319564 -98.48974188 92.20054828 -88 101 C-86.14668577 102.50105309 -84.29250268 104.001034 -82.4375 105.5 C-77.93593925 109.17959245 -73.5955241 113.00386398 -69.30078125 116.921875 C-67.21416753 118.80655836 -65.09116786 120.63034896 -62.9375 122.4375 C-60 125 -60 125 -59 127 C-58.34 127 -57.68 127 -57 127 C-56.77957031 127.54914063 -56.55914063 128.09828125 -56.33203125 128.6640625 C-54.58536598 131.72712945 -52.21095293 133.95945103 -49.6875 136.375 C-46.6435014 139.33473055 -43.66196926 142.25713416 -41.0625 145.625 C-38.99567696 148.00497804 -38.10549839 148.76996308 -35 149 C-32.02969317 138.68107693 -39.43402213 124.79728467 -44.20703125 115.69921875 C-45.10595394 114.11419252 -46.04696597 112.55309249 -47 111 C-47.66 111 -48.32 111 -49 111 C-49.09539062 110.27039063 -49.19078125 109.54078125 -49.2890625 108.7890625 C-52.97696329 94.321144 -72.9713531 81.01909794 -85 73 C-85.99 73 -86.98 73 -88 73 C-88 72.34 -88 71.68 -88 71 C-101.07571467 63.8361776 -123.41719132 52.15120832 -138 61 Z M-207 107 C-207.3402613 109.98282428 -207.3402613 109.98282428 -205.57421875 111.53515625 C-204.95160156 112.03917969 -204.32898438 112.54320312 -203.6875 113.0625 C-203.07261719 113.56910156 -202.45773437 114.07570313 -201.82421875 114.59765625 C-200.26414544 115.79694173 -198.63728268 116.90847821 -197 118 C-186.63257039 125.48062689 -176.64246033 133.4192252 -166.77636719 141.54394531 C-165.19567002 142.83961297 -163.60257855 144.12012633 -162.0078125 145.3984375 C-156.38340279 149.91426791 -151.02367381 154.64449388 -145.76489258 159.57641602 C-142.95628234 162.20985306 -140.10973387 164.77071254 -137.18359375 167.2734375 C-134.1152547 169.94050684 -131.24840501 172.73422308 -128.421875 175.65625 C-127.65359375 176.4503125 -126.8853125 177.244375 -126.09375 178.0625 C-124.50811439 179.71156103 -122.93017435 181.36805068 -121.359375 183.03125 C-120.59625 183.815 -119.833125 184.59875 -119.046875 185.40625 C-118.02352051 186.47842773 -118.02352051 186.47842773 -116.97949219 187.57226562 C-115.0969652 189.27064336 -115.0969652 189.27064336 -112.74707031 188.72460938 C-112.17053711 188.48548828 -111.59400391 188.24636719 -111 188 C-109.62443508 172.04344695 -119.11784826 157.19009002 -128.9765625 145.3671875 C-129.64429688 144.58601563 -130.31203125 143.80484375 -131 143 C-131.62648438 142.23945312 -132.25296875 141.47890625 -132.8984375 140.6953125 C-138.00248879 134.67461526 -143.7795903 129.83299188 -150 125 C-150.65613281 124.46632813 -151.31226563 123.93265625 -151.98828125 123.3828125 C-166.17661212 112.14152252 -182.70910947 105 -201 105 C-203.08428209 105 -205.09817964 106.21976601 -207 107 Z " fill="#7C5933" transform="translate(684,500)"/>
<path d="M0 0 C2.40397059 1.842082 2.40397059 1.842082 5.04296875 3.30078125 C7.48006604 4.8234701 8.94112533 6.27153328 10.75 8.484375 C13.08682287 11.26750095 15.47257292 13.8150397 18.125 16.296875 C48.94923755 47.06194894 68.26670166 96.82698613 77.4375 138.796875 C77.4375 140.116875 77.4375 141.436875 77.4375 142.796875 C78.0975 143.126875 78.7575 143.456875 79.4375 143.796875 C79.98461914 146.24169922 79.98461914 146.24169922 80.41015625 149.4765625 C81.07348576 154.22794324 81.78798326 158.95492388 82.62109375 163.6796875 C87.49822594 191.74053335 91.64536998 220.07684067 89.9375 248.609375 C89.7619446 251.67144766 89.59514216 254.7338279 89.4375 257.796875 C89.40060059 258.50408691 89.36370117 259.21129883 89.32568359 259.93994141 C88.94789947 268.12913878 89.03236504 273.80048417 93.4375 280.796875 C94.12959998 282.45314184 94.80156705 284.11824118 95.4375 285.796875 C88.98934152 289.81155454 82.51779024 293.76618011 75.94946289 297.58129883 C69.6937811 301.21638532 63.60892891 304.91709481 57.7421875 309.1640625 C55.27743409 310.91027763 52.75093231 312.5118737 50.1875 314.109375 C41.04118559 319.88057057 32.33400544 326.28790596 23.75 332.859375 C23.21044678 333.26841064 22.67089355 333.67744629 22.11499023 334.09887695 C19.53206843 336.08069953 17.10455078 338.11293549 14.7421875 340.35546875 C7.23779827 347.35583184 0.3110468 348.3800783 -9.5625 348.796875 C-11.20325789 348.88960488 -12.84388249 348.98471934 -14.484375 349.08203125 C-16.89314024 349.22295318 -19.30038617 349.35625602 -21.71118164 349.45703125 C-24.88287739 349.59321946 -27.5328346 349.78698653 -30.5625 350.796875 C-33.24021286 350.89331805 -35.88565677 350.9361642 -38.5625 350.921875 C-39.28695312 350.92574219 -40.01140625 350.92960937 -40.7578125 350.93359375 C-43.95532879 350.92769427 -46.50832607 350.81493298 -49.5625 349.796875 C-52.32872498 349.47154464 -55.08667167 349.18545382 -57.859375 348.9296875 C-59.55861625 348.76455429 -61.25783423 348.59918144 -62.95703125 348.43359375 C-65.61544788 348.17839742 -68.27402806 347.92546629 -70.93310547 347.67724609 C-80.98127856 346.73351593 -90.76406857 345.57204308 -100.60253906 343.28076172 C-103.44142571 342.81666791 -104.90238153 342.85153746 -107.5625 343.796875 C-108.89583333 344.13020833 -110.22916667 344.46354167 -111.5625 344.796875 C-111.2325 343.806875 -110.9025 342.816875 -110.5625 341.796875 C-112.91533375 341.14583349 -115.26958449 340.50095378 -117.625 339.859375 C-118.28177734 339.67697266 -118.93855469 339.49457031 -119.61523438 339.30664062 C-123.9212782 338.13997851 -128.13409654 337.34394695 -132.5625 336.796875 C-132.5625 336.136875 -132.5625 335.476875 -132.5625 334.796875 C-133.13790527 334.70398193 -133.71331055 334.61108887 -134.30615234 334.51538086 C-141.5761508 333.21547118 -148.28583046 330.95501596 -155.1875 328.359375 C-156.35667969 327.92197998 -157.52585937 327.48458496 -158.73046875 327.03393555 C-166.78665891 323.96886805 -174.71362227 320.671328 -182.5625 317.109375 C-183.50947754 316.68277588 -184.45645508 316.25617676 -185.43212891 315.81665039 C-204.52690807 306.93586926 -225.54742326 292.6212425 -238.5625 275.796875 C-239.50996094 274.58644531 -239.50996094 274.58644531 -240.4765625 273.3515625 C-244.36600185 268.20068336 -247.82925743 262.87532125 -251.0625 257.296875 C-251.41304443 256.6972998 -251.76358887 256.09772461 -252.12475586 255.47998047 C-253.70020477 252.69267832 -254.5625 251.05386487 -254.5625 247.796875 C-255.2225 247.466875 -255.8825 247.136875 -256.5625 246.796875 C-257.32067311 244.55493343 -257.96831366 242.27524188 -258.5625 239.984375 C-258.8925 238.74042969 -259.2225 237.49648438 -259.5625 236.21484375 C-261.91656226 226.24298478 -262.92509738 216.60357292 -262.875 206.359375 C-262.86936035 205.13653809 -262.8637207 203.91370117 -262.85791016 202.65380859 C-262.41459754 169.07178037 -251.45412907 137.15899217 -235.5625 107.796875 C-235.21364746 107.14460937 -234.86479492 106.49234375 -234.50537109 105.8203125 C-223.97192 86.21967428 -211.32548183 67.56612489 -196.00390625 51.38671875 C-193.99545245 49.25615096 -192.07779927 47.09336505 -190.1875 44.859375 C-181.81465011 35.24461915 -172.58141652 26.66671879 -162.5625 18.796875 C-161.81226563 18.1678125 -161.06203125 17.53875 -160.2890625 16.890625 C-148.10631853 6.74526824 -134.75378218 -1.64613425 -120.39770508 -8.32836914 C-118.46039206 -9.25179505 -116.56402736 -10.24013638 -114.66015625 -11.23046875 C-77.3742156 -29.9184704 -32.84468599 -25.03405944 0 0 Z M-151.5625 41.796875 C-152.74779297 42.8178125 -152.74779297 42.8178125 -153.95703125 43.859375 C-167.00028494 55.23611417 -179.73296767 67.50340982 -189.5625 81.796875 C-190.45533691 83.08489014 -190.45533691 83.08489014 -191.36621094 84.39892578 C-218.58272887 123.86885405 -242.56548278 171.40127987 -233.5625 220.796875 C-230.67639148 234.11964821 -224.8938405 247.52865398 -214.5625 256.796875 C-213.9025 256.796875 -213.2425 256.796875 -212.5625 256.796875 C-212.2325 257.786875 -211.9025 258.776875 -211.5625 259.796875 C-195.68422321 272.12976303 -175.48908067 274.73251039 -155.93652344 272.49658203 C-141.6168896 270.36033867 -128.07566702 266.14188191 -115.5625 258.796875 C-114.86125 258.44753906 -114.16 258.09820312 -113.4375 257.73828125 C-101.52922646 251.75933558 -90.71967962 243.0233398 -80.98046875 234.02734375 C-79.39990787 232.56934656 -77.79883404 231.13319804 -76.17578125 229.72265625 C-50.98598152 207.77791929 -29.66280703 177.97533277 -17.5625 146.796875 C-17.09328125 145.70761719 -16.6240625 144.61835938 -16.140625 143.49609375 C-12.94549206 135.96117974 -10.43554486 128.37356182 -8.25 120.484375 C-7.99549072 119.57768066 -7.74098145 118.67098633 -7.47875977 117.73681641 C-6.04626485 112.38629913 -5.16839604 107.23452113 -4.78442383 101.70629883 C-4.5625 99.796875 -4.5625 99.796875 -3.5625 98.796875 C-2.27364928 92.33446859 -2.41445593 85.86443526 -2.4375 79.296875 C-2.43363281 78.19472656 -2.42976562 77.09257812 -2.42578125 75.95703125 C-2.4365442 66.99149506 -3.52573195 59.19633485 -6.0625 50.609375 C-6.3203125 49.72894531 -6.578125 48.84851563 -6.84375 47.94140625 C-7.3708494 45.8399431 -7.3708494 45.8399431 -8.5625 44.796875 C-8.84480469 43.8996875 -9.12710938 43.0025 -9.41796875 42.078125 C-13.43653722 30.55731436 -21.87673267 21.77849409 -31.5625 14.796875 C-32.50416016 14.09691406 -32.50416016 14.09691406 -33.46484375 13.3828125 C-39.29203165 9.36661111 -45.78539381 7.62561794 -52.5625 5.796875 C-53.23410156 5.59835938 -53.90570313 5.39984375 -54.59765625 5.1953125 C-57.17284946 4.67310632 -59.62450498 4.66486433 -62.25 4.671875 C-63.22324219 4.66929687 -64.19648438 4.66671875 -65.19921875 4.6640625 C-67.51887611 4.53114538 -67.51887611 4.53114538 -68.5625 5.796875 C-68.5625 5.466875 -68.5625 5.136875 -68.5625 4.796875 C-98.78186575 2.94670975 -129.96088867 22.41599007 -151.5625 41.796875 Z " fill="#7C5A33" transform="translate(437.5625,239.203125)"/>
<path d="M0 0 C0 0.66 0 1.32 0 2 C1.0828125 2.804375 1.0828125 2.804375 2.1875 3.625 C8.55899827 9.00537632 11.3180299 15.83791304 12.21875 23.9765625 C13.19403813 45.67672349 1.65408689 67.06596239 -12 83 C-12.67675781 83.82242188 -13.35351562 84.64484375 -14.05078125 85.4921875 C-24.50394211 97.76079677 -39.65242009 109.94080057 -56.078125 111.91796875 C-63.49365583 112.12615879 -70.31499662 111.02395648 -76 106 C-83.02986173 98.22480353 -84.42573469 91.11126944 -84.25 80.75390625 C-82.75893824 58.36468208 -70.97855708 38.75035485 -56.25 22.4375 C-55.79020752 21.92453369 -55.33041504 21.41156738 -54.85668945 20.88305664 C-52.44642025 18.27796502 -50.32346923 16.31230444 -47 15 C-47 14.34 -47 13.68 -47 13 C-31.68960152 1.44443309 -18.62824305 -1.71028534 0 0 Z " fill="#7C5A33" transform="translate(351,323)"/>
<path d="M0 0 C3 1 3 1 4.3515625 3.58984375 C10.37369233 19.42102555 10.37369233 19.42102555 8.0625 27.125 C7.711875 27.74375 7.36125 28.3625 7 29 C4.69 28.67 2.38 28.34 0 28 C-0.66 26.02 -1.32 24.04 -2 22 C-1.401875 22.495 -0.80375 22.99 -0.1875 23.5 C1.97029994 25.28276418 1.97029994 25.28276418 5 25 C5.64537641 17.51363366 3.76871731 11.82944707 1.09375 4.94140625 C0 2 0 2 0 0 Z M2 29 C5 30 5 30 5 30 Z " fill="#7E5B35" transform="translate(567,663)"/>
<path d="M0 0 C1.98 0 3.96 0 6 0 C5.01 0.495 5.01 0.495 4 1 C4 1.66 4 2.32 4 3 C7.3 2.67 10.6 2.34 14 2 C14 1.67 14 1.34 14 1 C17.96 1 21.92 1 26 1 C25.67 1.66 25.34 2.32 25 3 C30.445 3.495 30.445 3.495 36 4 C32.25573254 6.49617831 29.32624928 6.26063055 25 6.1875 C23.91332031 6.1865332 23.91332031 6.1865332 22.8046875 6.18554688 C19.61660553 6.15907756 17.04334371 6.0144479 14 5 C12.3022542 4.78626703 10.59928184 4.61265449 8.89453125 4.46484375 C7.91162109 4.37783203 6.92871094 4.29082031 5.91601562 4.20117188 C4.89185547 4.11416016 3.86769531 4.02714844 2.8125 3.9375 C1.77673828 3.84662109 0.74097656 3.75574219 -0.32617188 3.66210938 C-2.88385044 3.43816517 -5.44177459 3.21759327 -8 3 C-8 2.67 -8 2.34 -8 2 C-5.36 1.67 -2.72 1.34 0 1 C0 0.67 0 0.34 0 0 Z " fill="#9D7E58" transform="translate(374,584)"/>
<path d="M0 0 C0.33 0 0.66 0 1 0 C1.13339991 11.70954775 0.76532392 23.31514365 0 35 C-0.33 35 -0.66 35 -1 35 C-3.71649078 23.67766643 -1.97871475 11.30694141 0 0 Z " fill="#6F4B24" transform="translate(202,417)"/>
<path d="M0 0 C0.66 0.33 1.32 0.66 2 1 C-0.07410541 5.03904738 -1.88720024 7.04152393 -6 9 C-7.66519519 9.34060811 -9.33157466 9.67558396 -11 10 C-11.33 10.66 -11.66 11.32 -12 12 C-13.65 11.67 -15.3 11.34 -17 11 C-16.38125 10.54625 -15.7625 10.0925 -15.125 9.625 C-12.94080167 8.02891081 -12.94080167 8.02891081 -11 6 C-10.01 5.67 -9.02 5.34 -8 5 C-5.91182451 3.70160969 -3.87865358 2.33533072 -1.83984375 0.9609375 C-1.23269531 0.64382813 -0.62554687 0.32671875 0 0 Z " fill="#85633D" transform="translate(332,491)"/>
<path d="M0 0 C1.48306641 -0.01836914 1.48306641 -0.01836914 2.99609375 -0.03710938 C3.94871094 -0.03904297 4.90132813 -0.04097656 5.8828125 -0.04296875 C7.17662842 -0.04913208 7.17662842 -0.04913208 8.49658203 -0.05541992 C10.875 0.1875 10.875 0.1875 14.875 2.1875 C9.595 2.1875 4.315 2.1875 -1.125 2.1875 C-1.125 2.8475 -1.125 3.5075 -1.125 4.1875 C-1.785 3.8575 -2.445 3.5275 -3.125 3.1875 C-5.49623246 2.95720044 -7.87241943 2.77630058 -10.25 2.625 C-11.53132813 2.54121094 -12.81265625 2.45742187 -14.1328125 2.37109375 C-15.61394531 2.28021484 -15.61394531 2.28021484 -17.125 2.1875 C-17.125 1.8575 -17.125 1.5275 -17.125 1.1875 C-11.42052216 -0.02107581 -5.80227066 0.00381227 0 0 Z " fill="#78522C" transform="translate(371.125,241.8125)"/>
<path d="M0 0 C1.125 3.703125 1.125 3.703125 0 6.375 C-2.5973442 9.78401427 -5.66118655 12.33809668 -9 15 C-9.80859375 13.359375 -9.80859375 13.359375 -10 11 C-8.41429339 8.87782068 -6.90709742 7.1166444 -5.0625 5.25 C-4.34030273 4.49009766 -4.34030273 4.49009766 -3.60351562 3.71484375 C-2.41346046 2.46587496 -1.20813387 1.2314897 0 0 Z " fill="#82613A" transform="translate(379,450)"/>
<path d="M0 0 C0.33 0 0.66 0 1 0 C1.33 11.55 1.66 23.1 2 35 C0.19537622 31.39075245 -0.32481372 29.68376434 -0.66796875 25.83203125 C-0.75626953 24.85685547 -0.84457031 23.88167969 -0.93554688 22.87695312 C-1.01869141 21.86568359 -1.10183594 20.85441406 -1.1875 19.8125 C-1.28224609 18.78962891 -1.37699219 17.76675781 -1.47460938 16.71289062 C-1.96072251 11.12073415 -1.96072251 11.12073415 -2 9 C-1.67 8.67 -1.34 8.34 -1 8 C-0.76924918 6.65252916 -0.58846937 5.29622435 -0.4375 3.9375 C-0.293125 2.638125 -0.14875 1.33875 0 0 Z " fill="#A38661" transform="translate(379,708)"/>
<path d="M0 0 C0.33 0.99 0.66 1.98 1 3 C1.66 3 2.32 3 3 3 C3.20753906 3.51949219 3.41507812 4.03898437 3.62890625 4.57421875 C6.14557465 10.27094513 8.82513269 12.61643291 14 16 C14 16.66 14 17.32 14 18 C14.66 18.33 15.32 18.66 16 19 C10.69781047 18.67865518 7.43887288 15.78927936 4 12 C1.30071208 7.88792688 0 4.96964305 0 0 Z " fill="#82613C" transform="translate(268,414)"/>
<path d="M0 0 C1.01739372 3.15890077 0.91377147 5.06746875 0.0625 8.25 C-1.54486846 15.43461341 -1.16339284 22.6836319 -1 30 C-1.33 29.01 -1.66 28.02 -2 27 C-2.66 27 -3.32 27 -4 27 C-4.0544452 24.79194476 -4.09299283 22.58349446 -4.125 20.375 C-4.14820313 19.14523437 -4.17140625 17.91546875 -4.1953125 16.6484375 C-4.00123349 13.02304151 -3.28800907 10.37155315 -2 7 C-1.61482578 5.71133069 -1.23765253 4.4201876 -0.875 3.125 C-0.58625 2.09375 -0.2975 1.0625 0 0 Z " fill="#734F2A" transform="translate(271,387)"/>
<path d="M0 0 C0.33 0 0.66 0 1 0 C2.79378744 6.95092634 2.19107603 14.0024283 1 21 C-0.48828125 19.91796875 -0.48828125 19.91796875 -2 18 C-2.29296875 14.86328125 -2.29296875 14.86328125 -2.1875 11.3125 C-2.16042969 10.13300781 -2.13335937 8.95351563 -2.10546875 7.73828125 C-2.07066406 6.83464844 -2.03585937 5.93101562 -2 5 C-1.67 5 -1.34 5 -1 5 C-0.67 3.35 -0.34 1.7 0 0 Z " fill="#91714B" transform="translate(361,340)"/>
<path d="M0 0 C7.8822202 0.51599184 15.34458305 2.0921453 23 4 C23 4.33 23 4.66 23 5 C22.08476562 4.97679687 21.16953125 4.95359375 20.2265625 4.9296875 C19.03804688 4.91164063 17.84953125 4.89359375 16.625 4.875 C15.44164062 4.85179687 14.25828125 4.82859375 13.0390625 4.8046875 C9.88846183 4.67133771 9.88846183 4.67133771 8 7 C7.01 6.67 6.02 6.34 5 6 C5.33 5.34 5.66 4.68 6 4 C5.34 3.67 4.68 3.34 4 3 C4 2.34 4 1.68 4 1 C2.68 0.67 1.36 0.34 0 0 Z " fill="#57310D" transform="translate(321,577)"/>
<path d="M0 0 C1.22602512 3.67807537 0.70295577 5.88243927 0.0625 9.6875 C-0.13214844 10.86699219 -0.32679688 12.04648437 -0.52734375 13.26171875 C-0.68332031 14.16535156 -0.83929688 15.06898438 -1 16 C-1.66 15.67 -2.32 15.34 -3 15 C-3.66 16.32 -4.32 17.64 -5 19 C-5.05391993 17.20866022 -5.09275571 15.41686101 -5.125 13.625 C-5.14820313 12.62726563 -5.17140625 11.62953125 -5.1953125 10.6015625 C-5 8 -5 8 -3 6 C-3 4.68 -3 3.36 -3 2 C-2.01 2 -1.02 2 0 2 C0 1.34 0 0.68 0 0 Z " fill="#886842" transform="translate(205,408)"/>
<path d="M0 0 C3.17079934 4.75619901 3.41970196 9.33402355 3 15 C1.5 16.9375 1.5 16.9375 0 18 C-1.98 17.34 -3.96 16.68 -6 16 C-5.67 15.34 -5.34 14.68 -5 14 C-2.525 14.99 -2.525 14.99 0 16 C0 10.72 0 5.44 0 0 Z " fill="#6A441E" transform="translate(649,634)"/>
<path d="M0 0 C1.77556142 2.66334212 3.50086607 5.34225193 5.1875 8.0625 C5.73792969 8.94035156 6.28835937 9.81820313 6.85546875 10.72265625 C7.23316406 11.47417969 7.61085937 12.22570312 8 13 C7.67 13.66 7.34 14.32 7 15 C6.01 14.34 5.02 13.68 4 13 C4 12.34 4 11.68 4 11 C2.68 10.34 1.36 9.68 0 9 C0 7.35 0 5.7 0 4 C-0.66 4 -1.32 4 -2 4 C-1.34 2.68 -0.68 1.36 0 0 Z " fill="#82603B" transform="translate(208,473)"/>
<path d="M0 0 C0.99 0 1.98 0 3 0 C3 0.99 3 1.98 3 3 C2.401875 3.4125 1.80375 3.825 1.1875 4.25 C-1.91183829 6.72947063 -2.60789655 9.31092585 -4 13 C-4.99 12.67 -5.98 12.34 -7 12 C-5.52410328 7.57230983 -3.26930159 3.3663135 0 0 Z " fill="#815F3A" transform="translate(286,356)"/>
<path d="M0 0 C2.5 0.375 2.5 0.375 5 1 C5.99 0.67 6.98 0.34 8 0 C8.99 0.66 9.98 1.32 11 2 C9.39850114 2.67305018 7.79368971 3.33822227 6.1875 4 C5.29417969 4.37125 4.40085937 4.7425 3.48046875 5.125 C1 6 1 6 -2 6 C-2.33 5.01 -2.66 4.02 -3 3 C-1.8125 1.4375 -1.8125 1.4375 0 0 Z " fill="#83613B" transform="translate(328,248)"/>
<path d="M0 0 C-0.66 0 -1.32 0 -2 0 C-2 0.66 -2 1.32 -2 2 C-4.64 2 -7.28 2 -10 2 C-10 2.66 -10 3.32 -10 4 C-14.61073111 5.29676812 -18.33840089 4.71109139 -23 4 C-23 3.67 -23 3.34 -23 3 C-19.73172393 2.29994196 -16.46007824 1.61713756 -13.1875 0.9375 C-11.7943457 0.63875977 -11.7943457 0.63875977 -10.37304688 0.33398438 C-9.0340332 0.05844727 -9.0340332 0.05844727 -7.66796875 -0.22265625 C-6.84578857 -0.39547119 -6.0236084 -0.56828613 -5.17651367 -0.74633789 C-3 -1 -3 -1 0 0 Z " fill="#92724D" transform="translate(302,508)"/>
<path d="M0 0 C0.928125 0.165 1.85625 0.33 2.8125 0.5 C5.95621353 1.07748388 5.95621353 1.07748388 9 1 C11 2 11 2 12.125 5.0625 C12.41375 6.031875 12.7025 7.00125 13 8 C11.02 7.34 9.04 6.68 7 6 C7 5.34 7 4.68 7 4 C6.030625 3.71125 5.06125 3.4225 4.0625 3.125 C1 2 1 2 0 0 Z " fill="#835E38" transform="translate(589,567)"/>
<path d="M0 0 C5.95324421 1.39331247 10.75741484 3.88535757 16 7 C13.25840627 8.06798426 12.08944404 8.02884475 9.23828125 7.109375 C8.27277344 6.66078125 7.30726563 6.2121875 6.3125 5.75 C5.33925781 5.31171875 4.36601563 4.8734375 3.36328125 4.421875 C1 3 1 3 0 0 Z " fill="#7D5A35" transform="translate(759,516)"/>
<path d="M0 0 C0 0.33 0 0.66 0 1 C-0.62648438 1.02578125 -1.25296875 1.0515625 -1.8984375 1.078125 C-2.71570313 1.13484375 -3.53296875 1.1915625 -4.375 1.25 C-5.18710937 1.29640625 -5.99921875 1.3428125 -6.8359375 1.390625 C-9.1494825 1.7942693 -9.1494825 1.7942693 -10.2890625 3.859375 C-11.15759425 6.09858209 -11.15759425 6.09858209 -11 9 C-11.99 8.67 -12.98 8.34 -14 8 C-14.33 6.35 -14.66 4.7 -15 3 C-10.27805833 -0.77755334 -5.74071928 -0.30096975 0 0 Z " fill="#69431F" transform="translate(642,528)"/>
<path d="M0 0 C0.66 0.33 1.32 0.66 2 1 C-0.15914778 4.9773775 -2.50221067 8.09939422 -6 11 C-7.32 10.67 -8.64 10.34 -10 10 C-6.7 6.7 -3.4 3.4 0 0 Z " fill="#866542" transform="translate(264,267)"/>
<path d="M0 0 C2.64 0 5.28 0 8 0 C8 0.66 8 1.32 8 2 C8.66 2.33 9.32 2.66 10 3 C10 3.99 10 4.98 10 6 C7.36 5.34 4.72 4.68 2 4 C2 3.01 2 2.02 2 1 C1.34 0.67 0.68 0.34 0 0 Z " fill="#88653E" transform="translate(343,323)"/>
<path d="M0 0 C3.99996286 1.33332095 4.83782337 3.4957827 7 7 C6.67 7.66 6.34 8.32 6 9 C5.34 9 4.68 9 4 9 C4 8.34 4 7.68 4 7 C2.02 6.34 0.04 5.68 -2 5 C-1.34 3.35 -0.68 1.7 0 0 Z " fill="#87663F" transform="translate(442,243)"/>
<path d="M0 0 C-0.66 0 -1.32 0 -2 0 C-2.04125 0.61875 -2.0825 1.2375 -2.125 1.875 C-3 4 -3 4 -5.875 5.375 C-6.90625 5.58125 -7.9375 5.7875 -9 6 C-9.99 5.34 -10.98 4.68 -12 4 C-10.56988027 3.13353333 -9.13059381 2.28218171 -7.6875 1.4375 C-6.48673828 0.72400391 -6.48673828 0.72400391 -5.26171875 -0.00390625 C-3 -1 -3 -1 0 0 Z " fill="#83613A" transform="translate(545,536)"/>
<path d="M0 0 C2 1 2 1 3.1875 3.375 C4.31136315 8.38915868 3.66567435 12.94447319 3 18 C2.67 18 2.34 18 2 18 C1.93941406 17.32453125 1.87882813 16.6490625 1.81640625 15.953125 C1.73261719 15.06109375 1.64882813 14.1690625 1.5625 13.25 C1.48128906 12.36828125 1.40007813 11.4865625 1.31640625 10.578125 C1.03486592 8.28409266 0.74405173 6.18780774 0 4 C-0.66 3.67 -1.32 3.34 -2 3 C-1.34 3 -0.68 3 0 3 C0 2.01 0 1.02 0 0 Z " fill="#947551" transform="translate(726,594)"/>
<path d="M0 0 C5.66104589 0.49658297 9.87674471 1.54510684 15 4 C15 4.33 15 4.66 15 5 C13.58297487 4.85769192 12.1663904 4.71099254 10.75 4.5625 C9.56664062 4.44068359 9.56664062 4.44068359 8.359375 4.31640625 C6.17635361 4.02365007 4.1226818 3.57935581 2 3 C2 2.34 2 1.68 2 1 C1.34 0.67 0.68 0.34 0 0 Z " fill="#846441" transform="translate(310,574)"/>
<path d="M0 0 C3.83325416 1.45399296 5.28279605 3.3080115 7 7 C7.1875 9.8125 7.1875 9.8125 7 12 C6.71125 11.360625 6.4225 10.72125 6.125 10.0625 C5.17176549 7.84793921 5.17176549 7.84793921 3 7 C2.34 6.01 1.68 5.02 1 4 C0.34 3.67 -0.32 3.34 -1 3 C-0.67 2.01 -0.34 1.02 0 0 Z " fill="#8A6742" transform="translate(635,608)"/>
<path d="M0 0 C4.12838068 0.60711481 7.40422382 1.87522317 11 4 C11.33 4.99 11.66 5.98 12 7 C7.52761347 5.58192622 3.28853694 3.88695626 -1 2 C-0.67 1.34 -0.34 0.68 0 0 Z " fill="#82603A" transform="translate(662,533)"/>
<path d="M0 0 C0.99 0.33 1.98 0.66 3 1 C2.45773019 4.79588866 0.79872437 6.47211993 -2 9 C-2.66 8.67 -3.32 8.34 -4 8 C-2.87548273 5.0280615 -1.77706209 2.66559313 0 0 Z " fill="#82623C" transform="translate(212,330)"/>
<path d="M0 0 C5.63689034 1.32632714 7.93185683 5.46631765 11 10 C8.45892488 8.7997475 6.58880497 7.66712783 4.375 5.875 C2.24269401 3.7934519 2.24269401 3.7934519 0 4 C0 2.68 0 1.36 0 0 Z " fill="#886642" transform="translate(404,251)"/>
<path d="M0 0 C0.33 0.66 0.66 1.32 1 2 C0.00390625 4.1640625 0.00390625 4.1640625 -1.4375 6.625 C-1.91058594 7.44226563 -2.38367188 8.25953125 -2.87109375 9.1015625 C-3.24363281 9.72804688 -3.61617188 10.35453125 -4 11 C-5.19873962 7.05272168 -4.6900877 4.80269732 -3 1 C-2.01 0.67 -1.02 0.34 0 0 Z " fill="#82603A" transform="translate(354,380)"/>
<path d="M0 0 C0 3.96130371 -1.34877125 4.82914401 -4 7.6875 C-4.7425 8.49574219 -5.485 9.30398438 -6.25 10.13671875 C-6.8275 10.75160156 -7.405 11.36648438 -8 12 C-8.33 10.68 -8.66 9.36 -9 8 C-6.03 5.36 -3.06 2.72 0 0 Z " fill="#734F29" transform="translate(296,346)"/>
<path d="M0 0 C1.48831242 0.00667405 2.97660807 0.01863442 4.46484375 0.03515625 C5.22345703 0.03966797 5.98207031 0.04417969 6.76367188 0.04882812 C8.64326246 0.06064945 10.52281274 0.07858547 12.40234375 0.09765625 C12.40234375 0.42765625 12.40234375 0.75765625 12.40234375 1.09765625 C11.57089844 1.14664063 10.73945312 1.195625 9.8828125 1.24609375 C8.79613281 1.32085938 7.70945312 1.395625 6.58984375 1.47265625 C5.51089844 1.54226563 4.43195312 1.611875 3.3203125 1.68359375 C0.21608189 1.90961358 0.21608189 1.90961358 -2.59765625 4.09765625 C-2.92765625 4.75765625 -3.25765625 5.41765625 -3.59765625 6.09765625 C-3.97984392 4.44150968 -4.31160727 2.77308601 -4.59765625 1.09765625 C-3.59765625 0.09765625 -3.59765625 0.09765625 0 0 Z " fill="#9B7A56" transform="translate(549.59765625,557.90234375)"/>
<path d="M0 0 C0.66 0.33 1.32 0.66 2 1 C1.175 1.763125 0.35 2.52625 -0.5 3.3125 C-3.34055197 5.75434142 -3.34055197 5.75434142 -3 9 C-3.99 9.66 -4.98 10.32 -6 11 C-6.66 10.67 -7.32 10.34 -8 10 C-8 8 -8 8 -5.6875 5.5625 C-4.800625 4.716875 -3.91375 3.87125 -3 3 C-2.401875 2.401875 -1.80375 1.80375 -1.1875 1.1875 C-0.795625 0.795625 -0.40375 0.40375 0 0 Z " fill="#92734D" transform="translate(442,604)"/>
<path d="M0 0 C0.5775 0.495 1.155 0.99 1.75 1.5 C4.10400629 3.36980013 4.10400629 3.36980013 8 3 C8.33 4.32 8.66 5.64 9 7 C6.69 6.67 4.38 6.34 2 6 C1.34 4.02 0.68 2.04 0 0 Z M4 7 C7 8 7 8 7 8 Z " fill="#8D6C46" transform="translate(565,685)"/>
<path d="M0 0 C5.13623978 4.95912807 5.13623978 4.95912807 7 8 C6.67 8.99 6.34 9.98 6 11 C3.37997275 8.62949916 1.64180091 6.12723983 0 3 C0 2.01 0 1.02 0 0 Z " fill="#724E28" transform="translate(562,653)"/>
<path d="M0 0 C0.66 0.33 1.32 0.66 2 1 C2 1.99 2 2.98 2 4 C-0.3125 5.125 -0.3125 5.125 -3 6 C-3.99 5.34 -4.98 4.68 -6 4 C-4.02 2.68 -2.04 1.36 0 0 Z " fill="#86663F" transform="translate(508,554)"/>
<path d="M0 0 C0.66 0 1.32 0 2 0 C0.515 5.445 0.515 5.445 -1 11 C-3.08954032 6.82091936 -3.16552619 6.19589427 -2 2 C-1.34 2 -0.68 2 0 2 C0 1.34 0 0.68 0 0 Z " fill="#84623E" transform="translate(213,379)"/>
<path d="M0 0 C0.66 0 1.32 0 2 0 C1.03644647 9.41002278 1.03644647 9.41002278 0 14 C-0.33 14 -0.66 14 -1 14 C-1.027193 12.41676312 -1.04648306 10.83338938 -1.0625 9.25 C-1.07410156 8.36828125 -1.08570313 7.4865625 -1.09765625 6.578125 C-1.00826198 4.2181162 -0.66912821 2.25501476 0 0 Z " fill="#6D4924" transform="translate(382,695)"/>
<path d="M0 0 C3.7952131 1.49097658 5.61042731 3.75700849 8 7 C6.35 7 4.7 7 3 7 C2.01 4.69 1.02 2.38 0 0 Z " fill="#86653F" transform="translate(533,655)"/>
<path d="M0 0 C0.66 0 1.32 0 2 0 C2.53229326 1.26607607 3.05044544 2.53810412 3.5625 3.8125 C3.85253906 4.52019531 4.14257812 5.22789062 4.44140625 5.95703125 C5 8 5 8 4 11 C4 10.34 4 9.68 4 9 C3.34 9 2.68 9 2 9 C1.01 6.36 0.02 3.72 -1 1 C-0.67 0.67 -0.34 0.34 0 0 Z " fill="#85643E" transform="translate(812,564)"/>
<path d="M0 0 C0.66 0.33 1.32 0.66 2 1 C2 1.99 2 2.98 2 4 C-1.303314 4.88935377 -4.62294375 5.46274105 -8 6 C-5.38485683 3.87961365 -2.80362384 1.86908256 0 0 Z " fill="#876740" transform="translate(518,548)"/>
<path d="M0 0 C1.25127906 3.54667178 0.72285053 5.72253438 -0.4375 9.25 C-0.72496094 10.14203125 -1.01242187 11.0340625 -1.30859375 11.953125 C-1.53675781 12.62859375 -1.76492188 13.3040625 -2 14 C-2.33 14 -2.66 14 -3 14 C-3.29341888 8.32723489 -3.00559652 5.00932754 0 0 Z " fill="#6C4823" transform="translate(432,351)"/>
<path d="M0 0 C-0.66 0 -1.32 0 -2 0 C-2.33 0.99 -2.66 1.98 -3 3 C-5.6352539 4.42446157 -7.19404974 5.16845087 -10.16796875 4.546875 C-11.07482422 4.27617187 -11.07482422 4.27617187 -12 4 C-10.56988027 3.13353333 -9.13059381 2.28218171 -7.6875 1.4375 C-6.48673828 0.72400391 -6.48673828 0.72400391 -5.26171875 -0.00390625 C-3 -1 -3 -1 0 0 Z " fill="#85643F" transform="translate(319,232)"/>
<path d="M0 0 C1.0828125 1.11375 1.0828125 1.11375 2.1875 2.25 C4.68592573 4.69290515 7.23643202 6.8681047 10 9 C5.62214594 8.49967382 3.11840922 7.11840922 0 4 C0 2.68 0 1.36 0 0 Z " fill="#906E49" transform="translate(639,641)"/>
<path d="M0 0 C0.99 0 1.98 0 3 0 C3 3.10551666 2.4606285 4.35261084 1 7 C-0.32 7 -1.64 7 -3 7 C-1.125 2.25 -1.125 2.25 0 0 Z " fill="#84633E" transform="translate(204,343)"/>
<path d="M0 0 C0.99 0.33 1.98 0.66 3 1 C3.33333333 2.33333333 3.66666667 3.66666667 4 5 C4.99 5.33 5.98 5.66 7 6 C6.67 6.99 6.34 7.98 6 9 C6 8.34 6 7.68 6 7 C4.68 7.33 3.36 7.66 2 8 C1.34 5.36 0.68 2.72 0 0 Z " fill="#87643F" transform="translate(425,274)"/>
<path d="M0 0 C-4.74354436 2.22656164 -8.72250715 3.46148032 -14 4 C-11 2 -11 2 -8 2 C-8 1.34 -8 0.68 -8 0 C-4.94736336 -0.98120464 -3.05263664 -0.98120464 0 0 Z " fill="#8C6B44" transform="translate(353,245)"/>
<path d="M0 0 C0 0.66 0 1.32 0 2 C1.65 2 3.3 2 5 2 C5 2.33 5 2.66 5 3 C-0.28 2.67 -5.56 2.34 -11 2 C-11 1.67 -11 1.34 -11 1 C-7.26513121 0.4254048 -3.78706732 0 0 0 Z " fill="#9A7C58" transform="translate(360,583)"/>
<path d="M0 0 C1.46015291 0.28241641 2.91809793 0.57626614 4.375 0.875 C5.18710937 1.03742187 5.99921875 1.19984375 6.8359375 1.3671875 C9 2 9 2 11 4 C4.375 4.125 4.375 4.125 1 3 C0.67 2.01 0.34 1.02 0 0 Z " fill="#74522D" transform="translate(291,568)"/>
<path d="M0 0 C4.83256305 0.41421969 6.82679218 2.46413986 10 6 C6.62972148 6 5.93297304 5.50175992 3.3125 3.5625 C2.68988281 3.11003906 2.06726563 2.65757812 1.42578125 2.19140625 C0.95527344 1.79824219 0.48476562 1.40507813 0 1 C0 0.67 0 0.34 0 0 Z " fill="#84623F" transform="translate(226,538)"/>
<path d="M0 0 C-0.66 0 -1.32 0 -2 0 C-2 0.66 -2 1.32 -2 2 C-2.66 2 -3.32 2 -4 2 C-4 2.66 -4 3.32 -4 4 C-6 3 -6 3 -7 2 C-7 2.99 -7 3.98 -7 5 C-8.32 4.34 -9.64 3.68 -11 3 C-4.33333333 -1.44444444 -4.33333333 -1.44444444 0 0 Z " fill="#8E6C45" transform="translate(581,521)"/>
<path d="M0 0 C0.66 0.33 1.32 0.66 2 1 C1.43628586 4.26954202 0.50037734 5.82575883 -2 8 C-2.66 7.67 -3.32 7.34 -4 7 C-3.43628586 3.73045798 -2.50037734 2.17424117 0 0 Z " fill="#886741" transform="translate(278,255)"/>
<path d="M0 0 C3.1875 0.3125 3.1875 0.3125 6 1 C6 1.99 6 2.98 6 4 C3.03 3.67 0.06 3.34 -3 3 C-2.01 2.01 -1.02 1.02 0 0 Z " fill="#8C6A43" transform="translate(384,242)"/>
<path d="M0 0 C3.81684226 1.55500981 6.19195732 4.03595495 9 7 C8.67 7.66 8.34 8.32 8 9 C1.42857143 3.85714286 1.42857143 3.85714286 0 0 Z " fill="#6D471F" transform="translate(543,631)"/>
<path d="M0 0 C0.71929688 0.29003906 1.43859375 0.58007812 2.1796875 0.87890625 C2.90414062 1.16636719 3.62859375 1.45382812 4.375 1.75 C4.92929687 1.97816406 5.48359375 2.20632813 6.0546875 2.44140625 C5.7246875 3.10140625 5.3946875 3.76140625 5.0546875 4.44140625 C2.7446875 4.11140625 0.4346875 3.78140625 -1.9453125 3.44140625 C-1.9453125 2.78140625 -1.9453125 2.12140625 -1.9453125 1.44140625 C-2.6053125 1.11140625 -3.2653125 0.78140625 -3.9453125 0.44140625 C-1.9453125 -0.55859375 -1.9453125 -0.55859375 0 0 Z " fill="#896A44" transform="translate(744.9453125,509.55859375)"/>
<path d="M0 0 C0.33 0 0.66 0 1 0 C1.33 4.62 1.66 9.24 2 14 C-1 11 -1 11 -1.07421875 8.30078125 C-0.94660156 7.31464844 -0.81898438 6.32851563 -0.6875 5.3125 C-0.56761719 4.31863281 -0.44773437 3.32476562 -0.32421875 2.30078125 C-0.21722656 1.54152344 -0.11023438 0.78226562 0 0 Z " fill="#9F825B" transform="translate(523,426)"/>
<path d="M0 0 C0.33 0 0.66 0 1 0 C1.33895656 1.72807318 1.67091525 3.45751974 2 5.1875 C2.185625 6.15042969 2.37125 7.11335938 2.5625 8.10546875 C2.96877612 10.7934206 3.07933572 13.28771019 3 16 C-0.13107836 12.61416198 -0.33550778 10.28890538 -0.1875 5.75 C-0.14689453 4.13351562 -0.14689453 4.13351562 -0.10546875 2.484375 C-0.07066406 1.66453125 -0.03585937 0.8446875 0 0 Z " fill="#A28664" transform="translate(519,401)"/>
<path d="M0 0 C0.33 0.99 0.66 1.98 1 3 C1.66 3 2.32 3 3 3 C3 6.3 3 9.6 3 13 C1.26315467 9.52630934 0.69915888 7.92380063 0.375 4.25 C0.30023437 3.45078125 0.22546875 2.6515625 0.1484375 1.828125 C0.09945312 1.22484375 0.05046875 0.6215625 0 0 Z " fill="#6D4822" transform="translate(514,383)"/>
<path d="M0 0 C0.33 0.99 0.66 1.98 1 3 C1.66 3 2.32 3 3 3 C2.67 4.32 2.34 5.64 2 7 C0.68 7.33 -0.64 7.66 -2 8 C-1.125 2.25 -1.125 2.25 0 0 Z " fill="#8A6A43" transform="translate(425,371)"/>
<path d="M0 0 C0.33 0.66 0.66 1.32 1 2 C0.06421005 4.35981813 -0.93347808 6.69631264 -2 9 C-3.36741555 6.74778616 -4.04066478 5.47442242 -3.8125 2.8125 C-3.544375 2.214375 -3.27625 1.61625 -3 1 C-2.01 0.67 -1.02 0.34 0 0 Z " fill="#876641" transform="translate(218,370)"/>
<path d="M0 0 C4.455 0.99 4.455 0.99 9 2 C8.01 3.485 8.01 3.485 7 5 C4.69 4.67 2.38 4.34 0 4 C0.66 3.67 1.32 3.34 2 3 C2 2.34 2 1.68 2 1 C1.34 0.67 0.68 0.34 0 0 Z " fill="#8C6D45" transform="translate(397,220)"/>
<path d="M0 0 C0 0.33 0 0.66 0 1 C-3.63 1.33 -7.26 1.66 -11 2 C-11.33 1.34 -11.66 0.68 -12 0 C-7.74433453 -1.16063604 -4.3164922 -0.76173392 0 0 Z " fill="#8A6945" transform="translate(551,802)"/>
<path d="M0 0 C0.99 0.33 1.98 0.66 3 1 C3 1.66 3 2.32 3 3 C3.66 3 4.32 3 5 3 C5.33 3.99 5.66 4.98 6 6 C0.25 4.25 0.25 4.25 -2 2 C-1.34 2 -0.68 2 0 2 C0 1.34 0 0.68 0 0 Z " fill="#87653F" transform="translate(426,791)"/>
<path d="M0 0 C3.59391114 1.33488128 6.75490696 2.96022723 10 5 C8.3125 5.6875 8.3125 5.6875 6 6 C3.3125 4.75 3.3125 4.75 1 3 C0.67 2.01 0.34 1.02 0 0 Z " fill="#76522C" transform="translate(416,787)"/>
<path d="M0 0 C0.66 0 1.32 0 2 0 C2 0.66 2 1.32 2 2 C2.928125 2.37125 2.928125 2.37125 3.875 2.75 C6.35068687 4.20628639 6.95125002 5.37812506 8 8 C5.04987143 6.63029745 2.4347778 5.17390875 0 3 C0 2.01 0 1.02 0 0 Z " fill="#815F3C" transform="translate(403,777)"/>
<path d="M0 0 C0.66 0.33 1.32 0.66 2 1 C2 1.99 2 2.98 2 4 C-0.31 4.66 -2.62 5.32 -5 6 C-4.75 4.125 -4.75 4.125 -4 2 C-2.0625 0.6875 -2.0625 0.6875 0 0 Z " fill="#85633D" transform="translate(646,769)"/>
<path d="M0 0 C1 3 1 3 0.0625 5.1875 C-0.4634375 6.0846875 -0.4634375 6.0846875 -1 7 C-2.32 6.34 -3.64 5.68 -5 5 C-3.35 3.35 -1.7 1.7 0 0 Z " fill="#84623C" transform="translate(430,617)"/>
<path d="M0 0 C0.66 0.33 1.32 0.66 2 1 C0.35 2.98 -1.3 4.96 -3 7 C-3.66 6.67 -4.32 6.34 -5 6 C-5 5.01 -5 4.02 -5 3 C-2.625 1.25 -2.625 1.25 0 0 Z " fill="#85633D" transform="translate(500,559)"/>
<path d="M0 0 C1.2077558 3.62326739 0.54311128 4.64146369 -1 8 C-1.99 8 -2.98 8 -4 8 C-4 4.09161134 -2.49432124 2.88405893 0 0 Z " fill="#84653F" transform="translate(392,434)"/>
<path d="M0 0 C0.66 0.33 1.32 0.66 2 1 C2 3 2 3 0 5.125 C-0.66 5.74375 -1.32 6.3625 -2 7 C-2.66 6.67 -3.32 6.34 -4 6 C-4 5.01 -4 4.02 -4 3 C-2 1.3125 -2 1.3125 0 0 Z " fill="#84633D" transform="translate(289,247)"/>
<path d="M0 0 C-0.66 0 -1.32 0 -2 0 C-2 0.66 -2 1.32 -2 2 C-4.97 2 -7.94 2 -11 2 C-6.98764085 -0.6749061 -4.6342454 -1.48957888 0 0 Z " fill="#714B26" transform="translate(572,797)"/>
<path d="M0 0 C0.99 0.33 1.98 0.66 3 1 C0.36 2.65 -2.28 4.3 -5 6 C-5 5.34 -5 4.68 -5 4 C-5.66 3.67 -6.32 3.34 -7 3 C-3.535 2.505 -3.535 2.505 0 2 C0 1.34 0 0.68 0 0 Z " fill="#876741" transform="translate(723,729)"/>
<path d="M0 0 C2.64 0.33 5.28 0.66 8 1 C6.68 2.32 5.36 3.64 4 5 C3.01 4.67 2.02 4.34 1 4 C1.33 3.34 1.66 2.68 2 2 C1.34 1.34 0.68 0.68 0 0 Z " fill="#9F8059" transform="translate(325,579)"/>
<path d="M0 0 C3.8063457 0.67170806 7.35206816 1.72746564 11 3 C11 3.33 11 3.66 11 4 C9.54054712 3.91291331 8.08234132 3.80473093 6.625 3.6875 C5.81289063 3.62949219 5.00078125 3.57148437 4.1640625 3.51171875 C2 3 2 3 0 0 Z " fill="#6D4923" transform="translate(279,564)"/>
<path d="M0 0 C2.125 0.9375 2.125 0.9375 4 2 C3.67 3.32 3.34 4.64 3 6 C1.35 4.35 -0.3 2.7 -2 1 C-1.34 0.67 -0.68 0.34 0 0 Z " fill="#81613C" transform="translate(216,528)"/>
<path d="M0 0 C3 1 3 1 4.25 2.8125 C5.11637742 5.33943414 4.88492145 6.52221994 4 9 C0 2.25 0 2.25 0 0 Z " fill="#876743" transform="translate(184,490)"/>
<path d="M0 0 C0 3.57575896 -1.08840607 5.05295935 -3 8 C-3.99 7.67 -4.98 7.34 -6 7 C-4.19587357 3.73539027 -3.16605307 2.11070205 0 0 Z " fill="#6C4923" transform="translate(384,446)"/>
<path d="M0 0 C1.98 0 3.96 0 6 0 C6 3 6 3 5 5 C2.53721199 3.768606 1.57502313 2.21935077 0 0 Z " fill="#886842" transform="translate(411,785)"/>
<path d="M0 0 C1.13643966 3.40931897 0.86747764 4.00335456 -0.4375 7.1875 C-0.86869141 8.26064453 -0.86869141 8.26064453 -1.30859375 9.35546875 C-1.53675781 9.89816406 -1.76492188 10.44085937 -2 11 C-2.33 11 -2.66 11 -3 11 C-3.32613618 6.32538149 -2.70582788 3.83325617 0 0 Z " fill="#67441F" transform="translate(387,683)"/>
<path d="M0 0 C0.99 0.33 1.98 0.66 3 1 C4.1875 4.0625 4.1875 4.0625 5 7 C4.34 7.66 3.68 8.32 3 9 C2.01 6.03 1.02 3.06 0 0 Z " fill="#88663F" transform="translate(567,663)"/>
<path d="M0 0 C6.52307692 -0.36923077 6.52307692 -0.36923077 8.9375 1.5 C9.288125 1.995 9.63875 2.49 10 3 C8 4 8 4 6.0546875 3.44140625 C5.33539063 3.15136719 4.61609375 2.86132812 3.875 2.5625 C3.15054687 2.27503906 2.42609375 1.98757813 1.6796875 1.69140625 C0.84824219 1.34916016 0.84824219 1.34916016 0 1 C0 0.67 0 0.34 0 0 Z " fill="#8B6C47" transform="translate(270,562)"/>
<path d="M0 0 C-0.99 0.33 -1.98 0.66 -3 1 C-3 1.99 -3 2.98 -3 4 C-5.96175123 3.38722388 -7.38058783 2.74627478 -10 1 C-6.59437148 0.22157062 -3.49234244 -0.09978121 0 0 Z " fill="#957650" transform="translate(640,505)"/>
<path d="M0 0 C0.33 0.99 0.66 1.98 1 3 C1.66 3 2.32 3 3 3 C3.33 5.31 3.66 7.62 4 10 C1.2027092 7.93243723 0.97307727 6.85559629 0.3125 3.3125 C0.209375 2.219375 0.10625 1.12625 0 0 Z " fill="#8C6C47" transform="translate(268,414)"/>
<path d="M0 0 C0.98120464 3.05263664 0.98120464 4.94736336 0 8 C-0.99 7.67 -1.98 7.34 -3 7 C-1.125 1.125 -1.125 1.125 0 0 Z " fill="#896843" transform="translate(414,398)"/>
<path d="M0 0 C0.66 0.33 1.32 0.66 2 1 C0.515 3.475 0.515 3.475 -1 6 C-2.32 5.67 -3.64 5.34 -5 5 C-3.35 3.35 -1.7 1.7 0 0 Z " fill="#8C6A44" transform="translate(302,338)"/>
<path d="M0 0 C2.15377564 2.62198774 3.40072174 4.64404172 4 8 C3.01 7.67 2.02 7.34 1 7 C1 6.34 1 5.68 1 5 C0.34 5 -0.32 5 -1 5 C-0.67 3.35 -0.34 1.7 0 0 Z " fill="#85643E" transform="translate(484,298)"/>
<path d="M0 0 C2.4375 1.1875 2.4375 1.1875 5 3 C5.8125 5.6875 5.8125 5.6875 6 8 C1.125 3.375 1.125 3.375 0 0 Z " fill="#73512C" transform="translate(458,261)"/>
<path d="M0 0 C-0.33 0.99 -0.66 1.98 -1 3 C-1.99 3.33 -2.98 3.66 -4 4 C-4.99 3.01 -5.98 2.02 -7 1 C-3.375 -1.125 -3.375 -1.125 0 0 Z " fill="#8C6C46" transform="translate(326,229)"/>
<path d="M0 0 C0.33 0.66 0.66 1.32 1 2 C-0.4375 4.625 -0.4375 4.625 -2 7 C-2.66 6.34 -3.32 5.68 -4 5 C-3 2 -3 2 0 0 Z " fill="#846340" transform="translate(809,642)"/>
<path d="M0 0 C2 3 2 3 1.625 5.6875 C1.41875 6.450625 1.2125 7.21375 1 8 C0.01 7.34 -0.98 6.68 -2 6 C-1.49396008 3.83125748 -1.00016187 2.00032373 0 0 Z " fill="#86643E" transform="translate(810,634)"/>
<path d="M0 0 C2.31 1.65 4.62 3.3 7 5 C6.01 5.33 5.02 5.66 4 6 C1.8125 4.75 1.8125 4.75 0 3 C0 2.01 0 1.02 0 0 Z " fill="#82603B" transform="translate(588,594)"/>
<path d="M0 0 C3.37462715 0.54723683 5.08235 1.0549 8 3 C7.67 3.99 7.34 4.98 7 6 C5.83054208 5.19152271 4.66449539 4.37810888 3.5 3.5625 C2.8503125 3.11003906 2.200625 2.65757812 1.53125 2.19140625 C1.0259375 1.79824219 0.520625 1.40507813 0 1 C0 0.67 0 0.34 0 0 Z " fill="#714C26" transform="translate(551,569)"/>
<path d="M0 0 C2.88437779 1.29299694 4.87219421 2.65941363 7 5 C6.67 5.66 6.34 6.32 6 7 C1.2 4.53846154 1.2 4.53846154 0.1875 1.8125 C0.125625 1.214375 0.06375 0.61625 0 0 Z " fill="#714C24" transform="translate(700,557)"/>
<path d="M0 0 C2.35171131 0.59861742 4.6859378 1.26924352 7 2 C7.33 2.66 7.66 3.32 8 4 C5 5 5 5 2.875 4.25 C1 3 1 3 0 0 Z " fill="#866540" transform="translate(759,516)"/>
<path d="M0 0 C1.60080151 4.00200378 0.29279692 7.04556236 -1 11 C-2.42944945 8.64561267 -3.08661261 7.51967567 -2.625 4.75 C-2.41875 4.1725 -2.2125 3.595 -2 3 C-1.34 3 -0.68 3 0 3 C0 2.01 0 1.02 0 0 Z " fill="#91724F" transform="translate(208,396)"/>
<path d="M0 0 C1.25541557 3.76624671 0.37061958 5.37188934 -1 9 C-1.33 9 -1.66 9 -2 9 C-2 6.36 -2 3.72 -2 1 C-1.34 0.67 -0.68 0.34 0 0 Z " fill="#6E4C28" transform="translate(185,390)"/>
<path d="M0 0 C2.76223278 2.76223278 2.57856291 5.20706617 3 9 C2.01 8.67 1.02 8.34 0 8 C-0.79953138 4.71303767 -1.09658936 3.28976808 0 0 Z " fill="#8C6C47" transform="translate(506,351)"/>
<path d="M0 0 C0.33 0.66 0.66 1.32 1 2 C1.66 2 2.32 2 3 2 C3.33 2.99 3.66 3.98 4 5 C3.01 6.485 3.01 6.485 2 8 C1.566875 7.0409375 1.566875 7.0409375 1.125 6.0625 C0.17176549 3.84793921 0.17176549 3.84793921 -2 3 C-1.34 2.01 -0.68 1.02 0 0 Z " fill="#957650" transform="translate(429,282)"/>
<path d="M0 0 C2.5 2.3125 2.5 2.3125 5 5 C5 5.99 5 6.98 5 8 C2.5 5.6875 2.5 5.6875 0 3 C0 2.01 0 1.02 0 0 Z " fill="#886842" transform="translate(464,267)"/>
<path d="M0 0 C-0.33 0.66 -0.66 1.32 -1 2 C-3.06640625 2.4140625 -3.06640625 2.4140625 -5.5625 2.625 C-6.38878906 2.69976562 -7.21507812 2.77453125 -8.06640625 2.8515625 C-9.02353516 2.92503906 -9.02353516 2.92503906 -10 3 C-9 1 -9 1 -5.5625 -0.1875 C-2 -1 -2 -1 0 0 Z " fill="#906F49" transform="translate(336,225)"/>
<path d="M0 0 C0.99 0 1.98 0 3 0 C2.67 1.65 2.34 3.3 2 5 C1.34 4.34 0.68 3.68 0 3 C0 2.01 0 1.02 0 0 Z " fill="#9A7B55" transform="translate(176,479)"/>
<path d="M0 0 C0.33 0 0.66 0 1 0 C1 2.31 1 4.62 1 7 C0.67 7 0.34 7 0 7 C0 4.69 0 2.38 0 0 Z " fill="#98744B" transform="translate(433,313)"/>
<path d="M0 0 C0.66 0 1.32 0 2 0 C1.67 0.99 1.34 1.98 1 3 C0.67 2.01 0.34 1.02 0 0 Z " fill="#9B7A54" transform="translate(378,697)"/>
<path d="M0 0 C0 3 0 3 0 3 Z " fill="#9C7B53" transform="translate(378,739)"/>
<path d="M0 0 C0.99 0.495 0.99 0.495 2 1 C1.67 1.66 1.34 2.32 1 3 C0.67 2.01 0.34 1.02 0 0 Z " fill="#99754A" transform="translate(712,579)"/>
<path d="M0 0 C0.99 0.33 1.98 0.66 3 1 C2.01 1.33 1.02 1.66 0 2 C0 1.34 0 0.68 0 0 Z " fill="#9A764D" transform="translate(312,498)"/>
<path d="M0 0 C0 3 0 3 0 3 Z " fill="#9A7850" transform="translate(507,344)"/>
<path d="M0 0 C3 1 3 1 3 1 Z " fill="#96774C" transform="translate(626,782)"/>
<path d="M0 0 C0.66 0 1.32 0 2 0 C1.67 0.66 1.34 1.32 1 2 C0.67 1.34 0.34 0.68 0 0 Z " fill="#9D7C56" transform="translate(376,731)"/>
<path d="" fill="#906D42" transform="translate(0,0)"/>
<path d="M0 0 C3 1 3 1 3 1 Z " fill="#9A784F" transform="translate(399,590)"/>
<path d="M0 0 C3 1 3 1 3 1 Z " fill="#98754D" transform="translate(417,589)"/>
<path d="M0 0 C3 1 3 1 3 1 Z " fill="#947349" transform="translate(385,589)"/>
<path d="M0 0 C0.66 0 1.32 0 2 0 C1.67 0.66 1.34 1.32 1 2 C0.67 1.34 0.34 0.68 0 0 Z " fill="#95754D" transform="translate(369,588)"/>
<path d="M0 0 C0.66 0.66 1.32 1.32 2 2 C1.34 2 0.68 2 0 2 C0 1.34 0 0.68 0 0 Z " fill="#917047" transform="translate(609,582)"/>
<path d="M0 0 C3 1 3 1 3 1 Z " fill="#987349" transform="translate(464,579)"/>
<path d="M0 0 C0.33 0.66 0.66 1.32 1 2 C0.34 1.67 -0.32 1.34 -1 1 C-0.67 0.67 -0.34 0.34 0 0 Z " fill="#9C7E56" transform="translate(821,578)"/>
<path d="M0 0 C3 1 3 1 3 1 Z " fill="#95744C" transform="translate(536,536)"/>
<path d="M0 0 C0.33 0.66 0.66 1.32 1 2 C0.34 1.67 -0.32 1.34 -1 1 C-0.67 0.67 -0.34 0.34 0 0 Z " fill="#9C7C56" transform="translate(178,484)"/>
<path d="M0 0 C0.33 0.66 0.66 1.32 1 2 C0.34 1.67 -0.32 1.34 -1 1 C-0.67 0.67 -0.34 0.34 0 0 Z " fill="#9B7C56" transform="translate(177,476)"/>
<path d="M0 0 C3 1 3 1 3 1 Z " fill="#9A7A4F" transform="translate(288,437)"/>
<path d="M0 0 C0.33 0.66 0.66 1.32 1 2 C0.34 1.67 -0.32 1.34 -1 1 C-0.67 0.67 -0.34 0.34 0 0 Z " fill="#95734A" transform="translate(263,305)"/>
<path d="M0 0 C3 1 3 1 3 1 Z " fill="#9A794D" transform="translate(379,246)"/>
<path d="M0 0 C0.99 0.495 0.99 0.495 2 1 C1.01 1.495 1.01 1.495 0 2 C0 1.34 0 0.68 0 0 Z " fill="#9B7B52" transform="translate(444,240)"/>
<path d="M0 0 C3 1 3 1 3 1 Z " fill="#9D7C53" transform="translate(290,241)"/>
<path d="M0 0 C2 1 2 1 2 1 Z " fill="#9C7A52" transform="translate(460,807)"/>
<path d="M0 0 C2 1 2 1 2 1 Z " fill="#997851" transform="translate(430,798)"/>
<path d="" fill="#9A7A52" transform="translate(0,0)"/>
<path d="M0 0 C2 1 2 1 2 1 Z " fill="#987651" transform="translate(412,788)"/>
<path d="M0 0 C2 1 2 1 2 1 Z " fill="#94714A" transform="translate(623,783)"/>
<path d="M0 0 C2 1 2 1 2 1 Z " fill="#977850" transform="translate(404,782)"/>
<path d="M0 0 C2 1 2 1 2 1 Z " fill="#95764F" transform="translate(638,777)"/>
<path d="" fill="#9E7D57" transform="translate(0,0)"/>
<path d="M0 0 C2 1 2 1 2 1 Z " fill="#97754F" transform="translate(653,771)"/>
<path d="M0 0 C2 1 2 1 2 1 Z " fill="#9D7B55" transform="translate(392,771)"/>
<path d="" fill="#9D7C54" transform="translate(0,0)"/>
<path d="" fill="#9F7D56" transform="translate(0,0)"/>
<path d="M0 0 C2 1 2 1 2 1 Z " fill="#997851" transform="translate(750,714)"/>
<path d="" fill="#997751" transform="translate(0,0)"/>
<path d="M0 0 C2 1 2 1 2 1 Z " fill="#997A54" transform="translate(799,663)"/>
<path d="" fill="#9C7D53" transform="translate(0,0)"/>
<path d="" fill="#957348" transform="translate(0,0)"/>
<path d="M0 0 C2 1 2 1 2 1 Z " fill="#97774F" transform="translate(414,632)"/>
<path d="" fill="#96724A" transform="translate(0,0)"/>
<path d="" fill="#99764D" transform="translate(0,0)"/>
<path d="M0 0 C2 1 2 1 2 1 Z " fill="#96724A" transform="translate(520,623)"/>
<path d="M0 0 C2 1 2 1 2 1 Z " fill="#96744A" transform="translate(520,619)"/>
<path d="" fill="#9A7C55" transform="translate(0,0)"/>
<path d="" fill="#957045" transform="translate(0,0)"/>
<path d="M0 0 C2 1 2 1 2 1 Z " fill="#957148" transform="translate(452,592)"/>
<path d="" fill="#99784F" transform="translate(0,0)"/>
<path d="" fill="#96734A" transform="translate(0,0)"/>
<path d="" fill="#98734C" transform="translate(0,0)"/>
<path d="" fill="#96744A" transform="translate(0,0)"/>
<path d="" fill="#97744B" transform="translate(0,0)"/>
<path d="M0 0 C2 1 2 1 2 1 Z " fill="#937147" transform="translate(688,577)"/>
<path d="" fill="#99744C" transform="translate(0,0)"/>
<path d="" fill="#977148" transform="translate(0,0)"/>
<path d="" fill="#98764E" transform="translate(0,0)"/>
<path d="M0 0 C2 1 2 1 2 1 Z " fill="#96734C" transform="translate(704,567)"/>
<path d="" fill="#99754B" transform="translate(0,0)"/>
<path d="" fill="#9A7549" transform="translate(0,0)"/>
<path d="" fill="#97754E" transform="translate(0,0)"/>
<path d="M0 0 C2 1 2 1 2 1 Z " fill="#9B774D" transform="translate(528,539)"/>
<path d="M0 0 C2 1 2 1 2 1 Z " fill="#97754C" transform="translate(532,537)"/>
<path d="" fill="#957851" transform="translate(0,0)"/>
<path d="" fill="#957146" transform="translate(0,0)"/>
<path d="" fill="#9B7C56" transform="translate(0,0)"/>
<path d="M0 0 C2 1 2 1 2 1 Z " fill="#9B7B51" transform="translate(632,504)"/>
<path d="M0 0 C2 1 2 1 2 1 Z " fill="#9B7B54" transform="translate(184,496)"/>
<path d="" fill="#9A774E" transform="translate(0,0)"/>
<path d="" fill="#987A53" transform="translate(0,0)"/>
<path d="M0 0 C2 1 2 1 2 1 Z " fill="#99774F" transform="translate(265,397)"/>
<path d="" fill="#9C784F" transform="translate(0,0)"/>
<path d="" fill="#9C7851" transform="translate(0,0)"/>
<path d="" fill="#9B7B55" transform="translate(0,0)"/>
<path d="" fill="#95734B" transform="translate(0,0)"/>
<path d="M0 0 C2 1 2 1 2 1 Z " fill="#9A7A53" transform="translate(516,378)"/>
<path d="" fill="#98744B" transform="translate(0,0)"/>
<path d="" fill="#99754F" transform="translate(0,0)"/>
<path d="" fill="#9B7950" transform="translate(0,0)"/>
<path d="" fill="#9D7C54" transform="translate(0,0)"/>
<path d="" fill="#9D7D56" transform="translate(0,0)"/>
<path d="M0 0 C2 1 2 1 2 1 Z " fill="#9D7B55" transform="translate(205,336)"/>
<path d="M0 0 C2 1 2 1 2 1 Z " fill="#9D7D57" transform="translate(200,336)"/>
<path d="" fill="#967349" transform="translate(0,0)"/>
<path d="M0 0 C2 1 2 1 2 1 Z " fill="#9D7B51" transform="translate(334,320)"/>
<path d="M0 0 C2 1 2 1 2 1 Z " fill="#99764D" transform="translate(331,320)"/>
<path d="" fill="#946F46" transform="translate(0,0)"/>
<path d="" fill="#99754D" transform="translate(0,0)"/>
<path d="" fill="#98764C" transform="translate(0,0)"/>
<path d="M0 0 C2 1 2 1 2 1 Z " fill="#9C7A54" transform="translate(462,261)"/>
<path d="M0 0 C2 1 2 1 2 1 Z " fill="#987349" transform="translate(331,253)"/>
<path d="M0 0 C2 1 2 1 2 1 Z " fill="#9D7A4F" transform="translate(385,247)"/>
<path d="M0 0 C2 1 2 1 2 1 Z " fill="#977349" transform="translate(377,245)"/>
<path d="" fill="#9C7D54" transform="translate(0,0)"/>
<path d="M0 0 C2 1 2 1 2 1 Z " fill="#9E7D56" transform="translate(288,240)"/>
<path d="M0 0 C2 1 2 1 2 1 Z " fill="#9D7952" transform="translate(305,235)"/>
<path d="M0 0 C2 1 2 1 2 1 Z " fill="#9D7E54" transform="translate(342,219)"/>
<path d="M0 0 C2 1 2 1 2 1 Z " fill="#9D7B53" transform="translate(390,216)"/>
<path d="" fill="#BAB6A5" transform="translate(0,0)"/>
<path d="" fill="#AAAF9E" transform="translate(0,0)"/>
<path d="" fill="#ADAF9F" transform="translate(0,0)"/>
<path d="" fill="#AEB2A0" transform="translate(0,0)"/>
<path d="" fill="#AD9E84" transform="translate(0,0)"/>
<path d="" fill="#B4A88F" transform="translate(0,0)"/>
<path d="" fill="#9D8460" transform="translate(0,0)"/>
<path d="" fill="#9B7A52" transform="translate(0,0)"/>
<path d="" fill="#9B7853" transform="translate(0,0)"/>
<path d="" fill="#9A7A52" transform="translate(0,0)"/>
<path d="" fill="#98764F" transform="translate(0,0)"/>
<path d="" fill="#98754E" transform="translate(0,0)"/>
<path d="" fill="#9C7B52" transform="translate(0,0)"/>
<path d="" fill="#99784F" transform="translate(0,0)"/>
<path d="" fill="#997854" transform="translate(0,0)"/>
<path d="" fill="#9C7952" transform="translate(0,0)"/>
<path d="" fill="#997952" transform="translate(0,0)"/>
<path d="" fill="#96754F" transform="translate(0,0)"/>
<path d="" fill="#9B7952" transform="translate(0,0)"/>
<path d="" fill="#997550" transform="translate(0,0)"/>
<path d="" fill="#987851" transform="translate(0,0)"/>
<path d="" fill="#987A55" transform="translate(0,0)"/>
<path d="" fill="#9D7C54" transform="translate(0,0)"/>
<path d="" fill="#997951" transform="translate(0,0)"/>
<path d="" fill="#997850" transform="translate(0,0)"/>
<path d="" fill="#95724B" transform="translate(0,0)"/>
<path d="" fill="#987953" transform="translate(0,0)"/>
<path d="" fill="#97754F" transform="translate(0,0)"/>
<path d="" fill="#9C7E5A" transform="translate(0,0)"/>
<path d="" fill="#997B54" transform="translate(0,0)"/>
<path d="" fill="#95764B" transform="translate(0,0)"/>
<path d="" fill="#9B7D52" transform="translate(0,0)"/>
<path d="" fill="#9B7B55" transform="translate(0,0)"/>
<path d="" fill="#957850" transform="translate(0,0)"/>
<path d="" fill="#9A7C56" transform="translate(0,0)"/>
<path d="" fill="#987451" transform="translate(0,0)"/>
<path d="" fill="#9B7B57" transform="translate(0,0)"/>
<path d="" fill="#967850" transform="translate(0,0)"/>
<path d="" fill="#9B7854" transform="translate(0,0)"/>
<path d="" fill="#977850" transform="translate(0,0)"/>
<path d="" fill="#9B7D54" transform="translate(0,0)"/>
<path d="" fill="#9E7E56" transform="translate(0,0)"/>
<path d="" fill="#987850" transform="translate(0,0)"/>
<path d="" fill="#97754D" transform="translate(0,0)"/>
<path d="" fill="#987750" transform="translate(0,0)"/>
<path d="" fill="#997A53" transform="translate(0,0)"/>
<path d="" fill="#96744F" transform="translate(0,0)"/>
<path d="" fill="#9D7D57" transform="translate(0,0)"/>
<path d="" fill="#9D8057" transform="translate(0,0)"/>
<path d="" fill="#9D7E56" transform="translate(0,0)"/>
<path d="" fill="#9E7E58" transform="translate(0,0)"/>
<path d="" fill="#99744F" transform="translate(0,0)"/>
<path d="" fill="#9F805A" transform="translate(0,0)"/>
<path d="" fill="#997954" transform="translate(0,0)"/>
<path d="" fill="#9C7E55" transform="translate(0,0)"/>
<path d="" fill="#997B54" transform="translate(0,0)"/>
<path d="" fill="#9F7F57" transform="translate(0,0)"/>
<path d="" fill="#997951" transform="translate(0,0)"/>
<path d="" fill="#977854" transform="translate(0,0)"/>
<path d="" fill="#987851" transform="translate(0,0)"/>
<path d="" fill="#9D7E57" transform="translate(0,0)"/>
<path d="" fill="#9E7D53" transform="translate(0,0)"/>
<path d="" fill="#9F7D53" transform="translate(0,0)"/>
<path d="" fill="#9A7954" transform="translate(0,0)"/>
<path d="" fill="#9D8055" transform="translate(0,0)"/>
<path d="" fill="#97724A" transform="translate(0,0)"/>
<path d="" fill="#96714B" transform="translate(0,0)"/>
<path d="" fill="#967248" transform="translate(0,0)"/>
<path d="" fill="#956F49" transform="translate(0,0)"/>
<path d="" fill="#967248" transform="translate(0,0)"/>
<path d="" fill="#9C7A52" transform="translate(0,0)"/>
<path d="" fill="#9A7854" transform="translate(0,0)"/>
<path d="" fill="#927143" transform="translate(0,0)"/>
<path d="" fill="#926F42" transform="translate(0,0)"/>
<path d="" fill="#977047" transform="translate(0,0)"/>
<path d="" fill="#9D7C51" transform="translate(0,0)"/>
<path d="" fill="#8F6E47" transform="translate(0,0)"/>
<path d="" fill="#977449" transform="translate(0,0)"/>
<path d="" fill="#937446" transform="translate(0,0)"/>
<path d="" fill="#977148" transform="translate(0,0)"/>
<path d="" fill="#957248" transform="translate(0,0)"/>
<path d="" fill="#97734A" transform="translate(0,0)"/>
<path d="" fill="#957048" transform="translate(0,0)"/>
<path d="" fill="#99754B" transform="translate(0,0)"/>
<path d="" fill="#947348" transform="translate(0,0)"/>
<path d="" fill="#9C7C50" transform="translate(0,0)"/>
<path d="" fill="#997D56" transform="translate(0,0)"/>
<path d="" fill="#967146" transform="translate(0,0)"/>
<path d="" fill="#9D7B4F" transform="translate(0,0)"/>
<path d="" fill="#957049" transform="translate(0,0)"/>
<path d="" fill="#957147" transform="translate(0,0)"/>
<path d="" fill="#9E7A4E" transform="translate(0,0)"/>
<path d="" fill="#947753" transform="translate(0,0)"/>
<path d="" fill="#97754B" transform="translate(0,0)"/>
<path d="" fill="#9A7A4E" transform="translate(0,0)"/>
<path d="" fill="#99754D" transform="translate(0,0)"/>
<path d="" fill="#9B7D54" transform="translate(0,0)"/>
<path d="" fill="#9B7A50" transform="translate(0,0)"/>
<path d="" fill="#98764C" transform="translate(0,0)"/>
<path d="" fill="#9A774C" transform="translate(0,0)"/>
<path d="" fill="#957347" transform="translate(0,0)"/>
<path d="" fill="#9F7F5B" transform="translate(0,0)"/>
<path d="" fill="#987449" transform="translate(0,0)"/>
<path d="" fill="#9B784D" transform="translate(0,0)"/>
<path d="" fill="#97764A" transform="translate(0,0)"/>
<path d="" fill="#9B7950" transform="translate(0,0)"/>
<path d="" fill="#97744A" transform="translate(0,0)"/>
<path d="" fill="#9B7B56" transform="translate(0,0)"/>
<path d="" fill="#937048" transform="translate(0,0)"/>
<path d="" fill="#987950" transform="translate(0,0)"/>
<path d="" fill="#967349" transform="translate(0,0)"/>
<path d="" fill="#96724A" transform="translate(0,0)"/>
<path d="" fill="#A2855F" transform="translate(0,0)"/>
<path d="" fill="#987349" transform="translate(0,0)"/>
<path d="" fill="#99744A" transform="translate(0,0)"/>
<path d="" fill="#997549" transform="translate(0,0)"/>
<path d="" fill="#997448" transform="translate(0,0)"/>
<path d="" fill="#9B754C" transform="translate(0,0)"/>
<path d="" fill="#99764C" transform="translate(0,0)"/>
<path d="" fill="#95724C" transform="translate(0,0)"/>
<path d="" fill="#96734C" transform="translate(0,0)"/>
<path d="" fill="#BFBAAB" transform="translate(0,0)"/>
<path d="" fill="#947149" transform="translate(0,0)"/>
<path d="" fill="#96704A" transform="translate(0,0)"/>
<path d="" fill="#97754A" transform="translate(0,0)"/>
<path d="" fill="#9D7B55" transform="translate(0,0)"/>
<path d="" fill="#947247" transform="translate(0,0)"/>
<path d="" fill="#95744A" transform="translate(0,0)"/>
<path d="" fill="#977149" transform="translate(0,0)"/>
<path d="" fill="#96724A" transform="translate(0,0)"/>
<path d="" fill="#99754A" transform="translate(0,0)"/>
<path d="" fill="#967249" transform="translate(0,0)"/>
<path d="" fill="#987247" transform="translate(0,0)"/>
<path d="" fill="#98734C" transform="translate(0,0)"/>
<path d="" fill="#967449" transform="translate(0,0)"/>
<path d="" fill="#97744A" transform="translate(0,0)"/>
<path d="" fill="#967148" transform="translate(0,0)"/>
<path d="" fill="#9A754B" transform="translate(0,0)"/>
<path d="" fill="#96744A" transform="translate(0,0)"/>
<path d="" fill="#96754C" transform="translate(0,0)"/>
<path d="" fill="#977549" transform="translate(0,0)"/>
<path d="" fill="#99784E" transform="translate(0,0)"/>
<path d="" fill="#946F4A" transform="translate(0,0)"/>
<path d="" fill="#926E47" transform="translate(0,0)"/>
<path d="" fill="#99754B" transform="translate(0,0)"/>
<path d="" fill="#957145" transform="translate(0,0)"/>
<path d="" fill="#967349" transform="translate(0,0)"/>
<path d="" fill="#957246" transform="translate(0,0)"/>
<path d="" fill="#96734A" transform="translate(0,0)"/>
<path d="" fill="#97734A" transform="translate(0,0)"/>
<path d="" fill="#97734A" transform="translate(0,0)"/>
<path d="" fill="#946F45" transform="translate(0,0)"/>
<path d="" fill="#937049" transform="translate(0,0)"/>
<path d="" fill="#967449" transform="translate(0,0)"/>
<path d="" fill="#97774B" transform="translate(0,0)"/>
<path d="" fill="#957047" transform="translate(0,0)"/>
<path d="" fill="#947549" transform="translate(0,0)"/>
<path d="" fill="#97764C" transform="translate(0,0)"/>
<path d="" fill="#9A7851" transform="translate(0,0)"/>
<path d="" fill="#95764C" transform="translate(0,0)"/>
<path d="" fill="#987A4E" transform="translate(0,0)"/>
<path d="" fill="#977A4C" transform="translate(0,0)"/>
<path d="" fill="#9E7A51" transform="translate(0,0)"/>
<path d="" fill="#94764C" transform="translate(0,0)"/>
<path d="" fill="#A28867" transform="translate(0,0)"/>
<path d="" fill="#96734B" transform="translate(0,0)"/>
<path d="" fill="#98764E" transform="translate(0,0)"/>
<path d="" fill="#96754C" transform="translate(0,0)"/>
<path d="" fill="#967049" transform="translate(0,0)"/>
<path d="" fill="#98754A" transform="translate(0,0)"/>
<path d="" fill="#946E42" transform="translate(0,0)"/>
<path d="" fill="#96724D" transform="translate(0,0)"/>
<path d="" fill="#9A774E" transform="translate(0,0)"/>
<path d="" fill="#9B744D" transform="translate(0,0)"/>
<path d="" fill="#936F45" transform="translate(0,0)"/>
<path d="" fill="#96734B" transform="translate(0,0)"/>
<path d="" fill="#95744B" transform="translate(0,0)"/>
<path d="" fill="#977149" transform="translate(0,0)"/>
<path d="" fill="#987049" transform="translate(0,0)"/>
<path d="" fill="#916E42" transform="translate(0,0)"/>
<path d="" fill="#97744A" transform="translate(0,0)"/>
<path d="" fill="#97734B" transform="translate(0,0)"/>
<path d="" fill="#947248" transform="translate(0,0)"/>
<path d="" fill="#97744A" transform="translate(0,0)"/>
<path d="" fill="#97754E" transform="translate(0,0)"/>
<path d="" fill="#99754C" transform="translate(0,0)"/>
<path d="" fill="#957149" transform="translate(0,0)"/>
<path d="" fill="#967249" transform="translate(0,0)"/>
<path d="" fill="#97744B" transform="translate(0,0)"/>
<path d="" fill="#98734A" transform="translate(0,0)"/>
<path d="" fill="#937144" transform="translate(0,0)"/>
<path d="" fill="#98734A" transform="translate(0,0)"/>
<path d="" fill="#967247" transform="translate(0,0)"/>
<path d="" fill="#967047" transform="translate(0,0)"/>
<path d="" fill="#98744A" transform="translate(0,0)"/>
<path d="" fill="#98754A" transform="translate(0,0)"/>
<path d="" fill="#97754C" transform="translate(0,0)"/>
<path d="" fill="#967348" transform="translate(0,0)"/>
<path d="" fill="#98754A" transform="translate(0,0)"/>
<path d="" fill="#977550" transform="translate(0,0)"/>
<path d="" fill="#9B7A51" transform="translate(0,0)"/>
<path d="" fill="#997750" transform="translate(0,0)"/>
<path d="" fill="#947248" transform="translate(0,0)"/>
<path d="" fill="#96764C" transform="translate(0,0)"/>
<path d="" fill="#98784E" transform="translate(0,0)"/>
<path d="" fill="#97744F" transform="translate(0,0)"/>
<path d="" fill="#977244" transform="translate(0,0)"/>
<path d="" fill="#9B794F" transform="translate(0,0)"/>
<path d="" fill="#9D774C" transform="translate(0,0)"/>
<path d="" fill="#97764B" transform="translate(0,0)"/>
<path d="" fill="#9A7650" transform="translate(0,0)"/>
<path d="" fill="#967047" transform="translate(0,0)"/>
<path d="" fill="#987549" transform="translate(0,0)"/>
<path d="" fill="#987249" transform="translate(0,0)"/>
<path d="" fill="#927046" transform="translate(0,0)"/>
<path d="" fill="#957449" transform="translate(0,0)"/>
<path d="" fill="#94724A" transform="translate(0,0)"/>
<path d="" fill="#9B7750" transform="translate(0,0)"/>
<path d="" fill="#98774F" transform="translate(0,0)"/>
<path d="" fill="#94724D" transform="translate(0,0)"/>
<path d="" fill="#95734C" transform="translate(0,0)"/>
<path d="" fill="#967347" transform="translate(0,0)"/>
<path d="" fill="#97764B" transform="translate(0,0)"/>
<path d="" fill="#97774F" transform="translate(0,0)"/>
<path d="" fill="#98744B" transform="translate(0,0)"/>
<path d="" fill="#977149" transform="translate(0,0)"/>
<path d="" fill="#957345" transform="translate(0,0)"/>
<path d="" fill="#98744B" transform="translate(0,0)"/>
<path d="" fill="#99754E" transform="translate(0,0)"/>
<path d="" fill="#96724B" transform="translate(0,0)"/>
<path d="" fill="#9A7951" transform="translate(0,0)"/>
<path d="" fill="#98764C" transform="translate(0,0)"/>
<path d="" fill="#96774B" transform="translate(0,0)"/>
<path d="" fill="#9F7F58" transform="translate(0,0)"/>
<path d="" fill="#98744B" transform="translate(0,0)"/>
<path d="" fill="#96734A" transform="translate(0,0)"/>
<path d="" fill="#977750" transform="translate(0,0)"/>
<path d="" fill="#9A7852" transform="translate(0,0)"/>
<path d="" fill="#9A7347" transform="translate(0,0)"/>
<path d="" fill="#96764F" transform="translate(0,0)"/>
<path d="" fill="#9B7D55" transform="translate(0,0)"/>
<path d="" fill="#987950" transform="translate(0,0)"/>
<path d="" fill="#977749" transform="translate(0,0)"/>
<path d="" fill="#947349" transform="translate(0,0)"/>
<path d="" fill="#9B724B" transform="translate(0,0)"/>
<path d="" fill="#97764A" transform="translate(0,0)"/>
<path d="" fill="#98774C" transform="translate(0,0)"/>
<path d="" fill="#98754B" transform="translate(0,0)"/>
<path d="" fill="#9C7A54" transform="translate(0,0)"/>
<path d="" fill="#9B7D56" transform="translate(0,0)"/>
<path d="" fill="#967349" transform="translate(0,0)"/>
<path d="" fill="#987449" transform="translate(0,0)"/>
<path d="" fill="#997A53" transform="translate(0,0)"/>
<path d="" fill="#987348" transform="translate(0,0)"/>
<path d="" fill="#98754B" transform="translate(0,0)"/>
<path d="" fill="#9A7C56" transform="translate(0,0)"/>
<path d="" fill="#987346" transform="translate(0,0)"/>
<path d="" fill="#997449" transform="translate(0,0)"/>
<path d="" fill="#987C52" transform="translate(0,0)"/>
<path d="" fill="#967449" transform="translate(0,0)"/>
<path d="" fill="#97734A" transform="translate(0,0)"/>
<path d="" fill="#977049" transform="translate(0,0)"/>
<path d="" fill="#95704A" transform="translate(0,0)"/>
<path d="" fill="#957244" transform="translate(0,0)"/>
<path d="" fill="#9A7B50" transform="translate(0,0)"/>
<path d="" fill="#966F43" transform="translate(0,0)"/>
<path d="" fill="#967347" transform="translate(0,0)"/>
<path d="" fill="#9E7D55" transform="translate(0,0)"/>
<path d="" fill="#957144" transform="translate(0,0)"/>
<path d="" fill="#97734C" transform="translate(0,0)"/>
<path d="" fill="#98744C" transform="translate(0,0)"/>
<path d="" fill="#95744B" transform="translate(0,0)"/>
<path d="" fill="#99754C" transform="translate(0,0)"/>
<path d="" fill="#9A724C" transform="translate(0,0)"/>
<path d="" fill="#95744D" transform="translate(0,0)"/>
<path d="" fill="#99744C" transform="translate(0,0)"/>
<path d="" fill="#96764E" transform="translate(0,0)"/>
<path d="" fill="#957045" transform="translate(0,0)"/>
<path d="" fill="#9A764D" transform="translate(0,0)"/>
<path d="" fill="#957146" transform="translate(0,0)"/>
<path d="" fill="#96744D" transform="translate(0,0)"/>
<path d="" fill="#9D7D51" transform="translate(0,0)"/>
<path d="" fill="#98764B" transform="translate(0,0)"/>
<path d="" fill="#99764D" transform="translate(0,0)"/>
<path d="" fill="#98774D" transform="translate(0,0)"/>
<path d="" fill="#997A4F" transform="translate(0,0)"/>
<path d="" fill="#95734B" transform="translate(0,0)"/>
<path d="" fill="#9E7B50" transform="translate(0,0)"/>
<path d="" fill="#96774E" transform="translate(0,0)"/>
<path d="" fill="#9C774F" transform="translate(0,0)"/>
<path d="" fill="#95724B" transform="translate(0,0)"/>
<path d="" fill="#9C7E58" transform="translate(0,0)"/>
<path d="" fill="#957349" transform="translate(0,0)"/>
<path d="" fill="#9B7953" transform="translate(0,0)"/>
<path d="" fill="#9B7B55" transform="translate(0,0)"/>
<path d="" fill="#9C7B4F" transform="translate(0,0)"/>
<path d="" fill="#997D56" transform="translate(0,0)"/>
<path d="" fill="#99774F" transform="translate(0,0)"/>
<path d="" fill="#9B7B51" transform="translate(0,0)"/>
<path d="" fill="#9C7B56" transform="translate(0,0)"/>
<path d="" fill="#98754B" transform="translate(0,0)"/>
<path d="" fill="#97754C" transform="translate(0,0)"/>
<path d="" fill="#99764D" transform="translate(0,0)"/>
<path d="" fill="#96744A" transform="translate(0,0)"/>
<path d="" fill="#9C7E55" transform="translate(0,0)"/>
<path d="" fill="#987751" transform="translate(0,0)"/>
<path d="" fill="#9D7D53" transform="translate(0,0)"/>
<path d="" fill="#97764C" transform="translate(0,0)"/>
<path d="" fill="#9D7D56" transform="translate(0,0)"/>
<path d="" fill="#9B7C52" transform="translate(0,0)"/>
<path d="" fill="#9B7C53" transform="translate(0,0)"/>
<path d="" fill="#98724D" transform="translate(0,0)"/>
<path d="" fill="#94734D" transform="translate(0,0)"/>
<path d="" fill="#9B794E" transform="translate(0,0)"/>
<path d="" fill="#9B784E" transform="translate(0,0)"/>
<path d="" fill="#9A7A4F" transform="translate(0,0)"/>
<path d="" fill="#9A7951" transform="translate(0,0)"/>
<path d="" fill="#99774F" transform="translate(0,0)"/>
<path d="" fill="#98774B" transform="translate(0,0)"/>
<path d="" fill="#97754B" transform="translate(0,0)"/>
<path d="" fill="#99774D" transform="translate(0,0)"/>
<path d="" fill="#97744B" transform="translate(0,0)"/>
<path d="" fill="#9A7A51" transform="translate(0,0)"/>
<path d="" fill="#9E7D52" transform="translate(0,0)"/>
<path d="" fill="#9C794F" transform="translate(0,0)"/>
<path d="" fill="#9D7A53" transform="translate(0,0)"/>
<path d="" fill="#977750" transform="translate(0,0)"/>
<path d="" fill="#987651" transform="translate(0,0)"/>
<path d="" fill="#9B7953" transform="translate(0,0)"/>
<path d="" fill="#93754F" transform="translate(0,0)"/>
<path d="" fill="#97744A" transform="translate(0,0)"/>
<path d="" fill="#97734B" transform="translate(0,0)"/>
<path d="" fill="#A08360" transform="translate(0,0)"/>
<path d="" fill="#97784F" transform="translate(0,0)"/>
<path d="" fill="#98754F" transform="translate(0,0)"/>
<path d="" fill="#9A774E" transform="translate(0,0)"/>
<path d="" fill="#9E7C56" transform="translate(0,0)"/>
<path d="" fill="#B6AC97" transform="translate(0,0)"/>
<path d="" fill="#9C7D54" transform="translate(0,0)"/>
<path d="" fill="#997850" transform="translate(0,0)"/>
<path d="" fill="#957349" transform="translate(0,0)"/>
<path d="" fill="#98774F" transform="translate(0,0)"/>
<path d="" fill="#9A7C55" transform="translate(0,0)"/>
<path d="" fill="#98774E" transform="translate(0,0)"/>
<path d="" fill="#BBB5A4" transform="translate(0,0)"/>
<path d="" fill="#99784C" transform="translate(0,0)"/>
<path d="" fill="#997750" transform="translate(0,0)"/>
<path d="" fill="#99784F" transform="translate(0,0)"/>
<path d="" fill="#97754A" transform="translate(0,0)"/>
<path d="" fill="#9C7E58" transform="translate(0,0)"/>
<path d="" fill="#97764B" transform="translate(0,0)"/>
<path d="" fill="#AD997A" transform="translate(0,0)"/>
<path d="" fill="#9B7A50" transform="translate(0,0)"/>
<path d="" fill="#9D7D57" transform="translate(0,0)"/>
<path d="" fill="#977550" transform="translate(0,0)"/>
<path d="" fill="#9A764F" transform="translate(0,0)"/>
<path d="" fill="#9E7B58" transform="translate(0,0)"/>
<path d="" fill="#9B794D" transform="translate(0,0)"/>
<path d="" fill="#9E7C51" transform="translate(0,0)"/>
<path d="" fill="#98764D" transform="translate(0,0)"/>
<path d="" fill="#93714C" transform="translate(0,0)"/>
<path d="" fill="#9B7952" transform="translate(0,0)"/>
<path d="" fill="#99774D" transform="translate(0,0)"/>
<path d="" fill="#9A7852" transform="translate(0,0)"/>
<path d="" fill="#997853" transform="translate(0,0)"/>
<path d="" fill="#997550" transform="translate(0,0)"/>
<path d="" fill="#98764D" transform="translate(0,0)"/>
<path d="" fill="#95754C" transform="translate(0,0)"/>
<path d="" fill="#94744C" transform="translate(0,0)"/>
<path d="" fill="#9A7C55" transform="translate(0,0)"/>
<path d="" fill="#98774E" transform="translate(0,0)"/>
<path d="" fill="#9B7C52" transform="translate(0,0)"/>
<path d="" fill="#9B7E54" transform="translate(0,0)"/>
<path d="" fill="#99774D" transform="translate(0,0)"/>
<path d="" fill="#9A7950" transform="translate(0,0)"/>
<path d="" fill="#9A7B51" transform="translate(0,0)"/>
<path d="" fill="#98774B" transform="translate(0,0)"/>
<path d="" fill="#99774E" transform="translate(0,0)"/>
<path d="" fill="#9B7B54" transform="translate(0,0)"/>
<path d="" fill="#987549" transform="translate(0,0)"/>
<path d="" fill="#977650" transform="translate(0,0)"/>
<path d="" fill="#99774F" transform="translate(0,0)"/>
<path d="" fill="#9B7951" transform="translate(0,0)"/>
<path d="" fill="#9C7B54" transform="translate(0,0)"/>
<path d="" fill="#99784C" transform="translate(0,0)"/>
<path d="" fill="#97774E" transform="translate(0,0)"/>
<path d="" fill="#9F7E5A" transform="translate(0,0)"/>
<path d="" fill="#96764B" transform="translate(0,0)"/>
<path d="" fill="#97764C" transform="translate(0,0)"/>
<path d="" fill="#99764C" transform="translate(0,0)"/>
<path d="" fill="#99774E" transform="translate(0,0)"/>
<path d="" fill="#9E7F59" transform="translate(0,0)"/>
<path d="" fill="#99784E" transform="translate(0,0)"/>
<path d="" fill="#98754D" transform="translate(0,0)"/>
<path d="" fill="#997553" transform="translate(0,0)"/>
<path d="" fill="#99754E" transform="translate(0,0)"/>
<path d="" fill="#98774C" transform="translate(0,0)"/>
<path d="" fill="#9C7951" transform="translate(0,0)"/>
<path d="" fill="#97784E" transform="translate(0,0)"/>
<path d="" fill="#9B764F" transform="translate(0,0)"/>
<path d="" fill="#9A7D55" transform="translate(0,0)"/>
<path d="" fill="#9D7E56" transform="translate(0,0)"/>
<path d="" fill="#99794E" transform="translate(0,0)"/>
<path d="" fill="#97764C" transform="translate(0,0)"/>
<path d="" fill="#99784F" transform="translate(0,0)"/>
<path d="" fill="#957249" transform="translate(0,0)"/>
<path d="" fill="#9E815A" transform="translate(0,0)"/>
<path d="" fill="#B8B19F" transform="translate(0,0)"/>
<path d="" fill="#977952" transform="translate(0,0)"/>
<path d="" fill="#98764F" transform="translate(0,0)"/>
<path d="" fill="#9F8059" transform="translate(0,0)"/>
<path d="" fill="#9A7750" transform="translate(0,0)"/>
<path d="" fill="#9A754C" transform="translate(0,0)"/>
<path d="" fill="#9C7B54" transform="translate(0,0)"/>
<path d="" fill="#9C7D56" transform="translate(0,0)"/>
<path d="" fill="#9B7A56" transform="translate(0,0)"/>
<path d="" fill="#9B7D50" transform="translate(0,0)"/>
<path d="" fill="#9B7C57" transform="translate(0,0)"/>
<path d="" fill="#997650" transform="translate(0,0)"/>
<path d="" fill="#9C7D57" transform="translate(0,0)"/>
<path d="" fill="#9A7B53" transform="translate(0,0)"/>
<path d="" fill="#96764D" transform="translate(0,0)"/>
<path d="" fill="#9C7C54" transform="translate(0,0)"/>
<path d="" fill="#B6B6A5" transform="translate(0,0)"/>
<path d="" fill="#B7B4A5" transform="translate(0,0)"/>
<path d="" fill="#9A7A51" transform="translate(0,0)"/>
<path d="" fill="#997A51" transform="translate(0,0)"/>
<path d="" fill="#9B764C" transform="translate(0,0)"/>
<path d="" fill="#96754E" transform="translate(0,0)"/>
<path d="" fill="#9B754D" transform="translate(0,0)"/>
<path d="" fill="#A38A65" transform="translate(0,0)"/>
<path d="" fill="#947247" transform="translate(0,0)"/>
<path d="" fill="#97734F" transform="translate(0,0)"/>
<path d="" fill="#97754F" transform="translate(0,0)"/>
<path d="" fill="#94774E" transform="translate(0,0)"/>
<path d="" fill="#98774C" transform="translate(0,0)"/>
<path d="" fill="#96774D" transform="translate(0,0)"/>
<path d="" fill="#94774F" transform="translate(0,0)"/>
<path d="" fill="#99774C" transform="translate(0,0)"/>
<path d="" fill="#96774E" transform="translate(0,0)"/>
<path d="" fill="#9D794F" transform="translate(0,0)"/>
<path d="" fill="#9A784F" transform="translate(0,0)"/>
<path d="" fill="#99754D" transform="translate(0,0)"/>
<path d="" fill="#98764D" transform="translate(0,0)"/>
<path d="" fill="#977649" transform="translate(0,0)"/>
<path d="" fill="#98774D" transform="translate(0,0)"/>
<path d="" fill="#9B7951" transform="translate(0,0)"/>
<path d="" fill="#987750" transform="translate(0,0)"/>
<path d="" fill="#98784C" transform="translate(0,0)"/>
<path d="" fill="#9A7951" transform="translate(0,0)"/>
<path d="" fill="#9E7D55" transform="translate(0,0)"/>
<path d="" fill="#9C794E" transform="translate(0,0)"/>
<path d="" fill="#9C7C50" transform="translate(0,0)"/>
<path d="" fill="#9B7B50" transform="translate(0,0)"/>
<path d="" fill="#9A7A50" transform="translate(0,0)"/>
<path d="" fill="#97774D" transform="translate(0,0)"/>
<path d="" fill="#9E7B51" transform="translate(0,0)"/>
<path d="" fill="#9C7C52" transform="translate(0,0)"/>
<path d="" fill="#9D7D52" transform="translate(0,0)"/>
<path d="" fill="#9D7E53" transform="translate(0,0)"/>
<path d="" fill="#96724B" transform="translate(0,0)"/>
<path d="" fill="#9A7852" transform="translate(0,0)"/>
<path d="" fill="#96734F" transform="translate(0,0)"/>
<path d="" fill="#9A7B55" transform="translate(0,0)"/>
<path d="" fill="#9B7D59" transform="translate(0,0)"/>
<path d="" fill="#95714A" transform="translate(0,0)"/>
<path d="" fill="#98774B" transform="translate(0,0)"/>
<path d="" fill="#9A7D56" transform="translate(0,0)"/>
<path d="" fill="#98774F" transform="translate(0,0)"/>
<path d="" fill="#95764E" transform="translate(0,0)"/>
<path d="" fill="#9A7B4F" transform="translate(0,0)"/>
<path d="" fill="#9C7B54" transform="translate(0,0)"/>
<path d="" fill="#9A7A4E" transform="translate(0,0)"/>
<path d="" fill="#93754E" transform="translate(0,0)"/>
<path d="" fill="#97774E" transform="translate(0,0)"/>
<path d="" fill="#98774C" transform="translate(0,0)"/>
<path d="" fill="#987951" transform="translate(0,0)"/>
<path d="" fill="#9C7955" transform="translate(0,0)"/>
<path d="" fill="#99744F" transform="translate(0,0)"/>
<path d="" fill="#96744A" transform="translate(0,0)"/>
<path d="" fill="#9D7C54" transform="translate(0,0)"/>
<path d="" fill="#98754B" transform="translate(0,0)"/>
<path d="" fill="#97744C" transform="translate(0,0)"/>
<path d="" fill="#957550" transform="translate(0,0)"/>
<path d="" fill="#9C7D55" transform="translate(0,0)"/>
<path d="" fill="#9A764F" transform="translate(0,0)"/>
<path d="" fill="#9C7E58" transform="translate(0,0)"/>
<path d="" fill="#9E7D54" transform="translate(0,0)"/>
<path d="" fill="#95764F" transform="translate(0,0)"/>
<path d="" fill="#98784F" transform="translate(0,0)"/>
<path d="" fill="#9B7A53" transform="translate(0,0)"/>
<path d="" fill="#967650" transform="translate(0,0)"/>
<path d="" fill="#9B7D52" transform="translate(0,0)"/>
<path d="" fill="#9A7A53" transform="translate(0,0)"/>
<path d="" fill="#96744D" transform="translate(0,0)"/>
<path d="" fill="#9C784F" transform="translate(0,0)"/>
<path d="" fill="#9D7F58" transform="translate(0,0)"/>
<path d="" fill="#987353" transform="translate(0,0)"/>
<path d="" fill="#99774E" transform="translate(0,0)"/>
<path d="" fill="#99764F" transform="translate(0,0)"/>
<path d="" fill="#9A7D53" transform="translate(0,0)"/>
<path d="" fill="#9D7A55" transform="translate(0,0)"/>
<path d="" fill="#97764D" transform="translate(0,0)"/>
<path d="" fill="#926F49" transform="translate(0,0)"/>
<path d="" fill="#9D7B51" transform="translate(0,0)"/>
<path d="" fill="#997753" transform="translate(0,0)"/>
<path d="" fill="#97764E" transform="translate(0,0)"/>
<path d="" fill="#95754E" transform="translate(0,0)"/>
<path d="" fill="#9F7D54" transform="translate(0,0)"/>
<path d="" fill="#9C794E" transform="translate(0,0)"/>
<path d="" fill="#9A764B" transform="translate(0,0)"/>
<path d="" fill="#947047" transform="translate(0,0)"/>
<path d="" fill="#9E7F55" transform="translate(0,0)"/>
<path d="" fill="#96724A" transform="translate(0,0)"/>
<path d="" fill="#9A774C" transform="translate(0,0)"/>
<path d="" fill="#99744B" transform="translate(0,0)"/>
<path d="" fill="#9E7C50" transform="translate(0,0)"/>
<path d="" fill="#97744A" transform="translate(0,0)"/>
<path d="" fill="#B7AF9B" transform="translate(0,0)"/>
<path d="" fill="#9B774C" transform="translate(0,0)"/>
<path d="" fill="#9B7850" transform="translate(0,0)"/>
<path d="" fill="#9B774B" transform="translate(0,0)"/>
<path d="" fill="#9C774E" transform="translate(0,0)"/>
<path d="" fill="#9A7B4F" transform="translate(0,0)"/>
<path d="" fill="#9C7E57" transform="translate(0,0)"/>
<path d="" fill="#99764E" transform="translate(0,0)"/>
<path d="" fill="#977851" transform="translate(0,0)"/>
<path d="" fill="#9E7D53" transform="translate(0,0)"/>
<path d="" fill="#9F7E57" transform="translate(0,0)"/>
<path d="" fill="#9C7B56" transform="translate(0,0)"/>
<path d="" fill="#9E7D55" transform="translate(0,0)"/>
<path d="" fill="#97764D" transform="translate(0,0)"/>
<path d="" fill="#9D7A52" transform="translate(0,0)"/>
<path d="" fill="#9A7850" transform="translate(0,0)"/>
<path d="" fill="#9A7A51" transform="translate(0,0)"/>
<path d="" fill="#9C7D55" transform="translate(0,0)"/>
<path d="" fill="#9F7E53" transform="translate(0,0)"/>
<path d="" fill="#A4835A" transform="translate(0,0)"/>
<path d="" fill="#A07F57" transform="translate(0,0)"/>
<path d="" fill="#ABAE9E" transform="translate(0,0)"/>
<path d="" fill="#B5B3A1" transform="translate(0,0)"/>
<path d="" fill="#B7AE99" transform="translate(0,0)"/>
<path d="" fill="#A7AE9D" transform="translate(0,0)"/>
<path d="" fill="#BEB7A5" transform="translate(0,0)"/>
</svg>
