<?xml version="1.0" encoding="UTF-8"?>
<svg version="1.1" xmlns="http://www.w3.org/2000/svg" width="1024" height="1024">
<path d="M0 0 C43.73159569 9.2899689 85.14833528 27.28914039 122.88671875 51.08984375 C123.81274902 51.66798828 124.7387793 52.24613281 125.69287109 52.84179688 C146.2658392 65.68916718 146.2658392 65.68916718 155.88671875 73.08984375 C156.90378906 73.86585938 157.92085937 74.641875 158.96875 75.44140625 C163.49018093 78.90202953 167.99554597 82.3813391 172.4609375 85.9140625 C173.33709717 86.60169678 173.33709717 86.60169678 174.23095703 87.30322266 C175.34955693 88.18150953 176.46405777 89.06505059 177.57373047 89.95458984 C180.25641735 92.05382432 182.44782691 93.71027511 185.88671875 94.08984375 C188.0737526 93.71077093 188.0737526 93.71077093 189.88671875 93.08984375 C189.88671875 92.42984375 189.88671875 91.76984375 189.88671875 91.08984375 C190.54671875 91.08984375 191.20671875 91.08984375 191.88671875 91.08984375 C192.20962891 90.28740234 192.20962891 90.28740234 192.5390625 89.46875 C196.25321641 82.91246092 203.57079524 75.46307268 210.63671875 72.58984375 C214.69144881 71.67661626 217.401806 72.46591341 220.91796875 74.59375 C227.40885599 79.52630915 232.60868934 85.92615861 237.88671875 92.08984375 C239.09268277 93.48772462 240.301 94.88357897 241.51171875 96.27734375 C242.04023437 96.88964844 242.56875 97.50195312 243.11328125 98.1328125 C245.82081218 101.12063849 248.70037619 103.92728279 251.57958984 106.7487793 C271.5661872 126.33820367 271.5661872 126.33820367 272.140625 131.26953125 C271.82491315 134.78746326 270.94238774 138.21190716 268.88671875 141.08984375 C267.22005208 142.42317708 265.55338542 143.75651042 263.88671875 145.08984375 C258.23239206 150.85360134 258.23239206 150.85360134 254.88671875 158.08984375 C259.43111533 163.32101409 264.03894388 168.49052157 268.68359375 173.6328125 C270.6904214 175.87092348 272.66848684 178.13031952 274.63671875 180.40234375 C276.62019352 182.69096848 278.64061369 184.86687026 280.82421875 186.96484375 C282.88671875 189.08984375 282.88671875 189.08984375 282.88671875 191.08984375 C283.54671875 191.08984375 284.20671875 191.08984375 284.88671875 191.08984375 C286.578125 192.734375 286.578125 192.734375 288.44921875 194.90234375 C289.06925781 195.61003906 289.68929687 196.31773437 290.328125 197.046875 C291.88671875 199.08984375 291.88671875 199.08984375 292.88671875 202.08984375 C293.54671875 202.08984375 294.20671875 202.08984375 294.88671875 202.08984375 C296.12109375 203.3125 296.12109375 203.3125 297.63671875 205.15234375 C301.13122321 209.26182311 304.76067176 213.21809626 308.44921875 217.15234375 C309.05064697 217.79478027 309.6520752 218.4372168 310.27172852 219.09912109 C311.51766702 220.42941063 312.76401 221.75932145 314.01074219 223.08886719 C317.03541378 226.31507859 320.05551429 229.54554936 323.07421875 232.77734375 C323.65163818 233.39528809 324.22905762 234.01323242 324.82397461 234.64990234 C329.44525509 239.60188237 334.02304543 244.59222093 338.58203125 249.6015625 C340.07238077 251.21063477 341.60736176 252.77995104 343.19140625 254.296875 C344.88671875 256.08984375 344.88671875 256.08984375 344.88671875 258.08984375 C345.54671875 258.08984375 346.20671875 258.08984375 346.88671875 258.08984375 C349.8432451 261.22555351 351.7798214 263.70705239 351.88671875 268.08984375 C349.70015925 273.64403503 346.20077715 277.18402578 342.0234375 281.28125 C341.35383499 281.94897934 340.68423248 282.61670868 339.99433899 283.30467224 C338.58151677 284.71079438 337.16511233 286.11332531 335.74536133 287.51245117 C333.58482997 289.64188526 331.43509439 291.78174619 329.28710938 293.92382812 C327.90817119 295.29359228 326.52863335 296.66275309 325.1484375 298.03125 C324.51072922 298.6647084 323.87302094 299.29816681 323.21598816 299.95082092 C319.57680612 303.53273318 315.83360979 306.85159664 311.88671875 310.08984375 C310.99984375 310.97671875 310.11296875 311.86359375 309.19921875 312.77734375 C306.38784323 315.58871927 304.84149204 317.02677337 300.81176758 317.29296875 C294.90089153 316.2103022 291.06317321 310.97187049 287.0859375 306.83984375 C285.68426612 305.42158095 284.28259331 304.00331957 282.88083363 302.58514404 C280.92885224 300.60246222 278.99122125 298.60602237 277.05303955 296.60986328 C274.11743552 293.59247573 271.16247666 290.59406541 268.20863819 287.59454346 C265.91224679 285.26240686 263.62057075 282.92607671 261.33732605 280.58105469 C260.51919937 279.74348633 259.70107269 278.90591797 258.8581543 278.04296875 C257.77729805 276.93163574 257.77729805 276.93163574 256.67460632 275.79785156 C254.98584047 274.01670716 254.98584047 274.01670716 252.88671875 273.08984375 C252.88671875 272.42984375 252.88671875 271.76984375 252.88671875 271.08984375 C251.89671875 270.75984375 250.90671875 270.42984375 249.88671875 270.08984375 C248.19921875 268.65234375 248.19921875 268.65234375 246.88671875 267.08984375 C246.88671875 266.42984375 246.88671875 265.76984375 246.88671875 265.08984375 C245.74203125 264.99703125 245.74203125 264.99703125 244.57421875 264.90234375 C240.99039939 263.81886348 240.73196445 262.26884945 238.88671875 259.08984375 C237.6512221 257.66697335 236.36737057 256.28505818 235.04541016 254.94213867 C234.28096588 254.161707 233.51652161 253.38127533 232.72891235 252.57719421 C231.49604996 251.33628777 231.49604996 251.33628777 230.23828125 250.0703125 C229.38873871 249.21174149 228.53919617 248.35317047 227.66390991 247.46858215 C225.86949652 245.6596859 224.07227935 243.85356726 222.27246094 242.05004883 C219.5164503 239.2820958 216.77964417 236.49603861 214.04296875 233.70898438 C212.29672442 231.95328103 210.54936592 230.19868501 208.80078125 228.4453125 C207.98292145 227.60792038 207.16506165 226.77052826 206.32241821 225.90776062 C205.16629532 224.76075432 205.16629532 224.76075432 203.98681641 223.59057617 C203.31413727 222.91282639 202.64145813 222.2350766 201.94839478 221.53678894 C199.24309974 219.6381329 198.15434931 219.57631687 194.88671875 220.08984375 C192.65529019 221.84536873 190.79586798 223.53541971 188.83210754 225.55664062 C188.24121501 226.14467216 187.65032248 226.7327037 187.04152411 227.33855438 C185.05962521 229.31689381 183.09616404 231.3125782 181.13208008 233.30859375 C179.71697567 234.72838139 178.30075432 236.14705654 176.88349915 237.56469727 C173.83193884 240.62190189 170.78847005 243.68686657 167.7509861 246.75805664 C162.9526922 251.60953125 158.13709902 256.44358043 153.3190155 261.27539062 C145.7045868 268.91570516 138.1021445 276.56782298 130.50461358 284.22493744 C116.88835582 297.94742733 103.25427421 311.65218733 89.61228961 325.34909821 C84.82112807 330.16055731 80.03601707 334.97793363 75.25570452 339.8001709 C72.28785663 342.79240942 69.31605225 345.78069536 66.34327507 348.76803589 C64.96036716 350.1595165 63.57921183 351.5527413 62.19989777 352.94778442 C60.32457738 354.8440955 58.44329807 356.73428526 56.56037903 358.62304688 C56.00931876 359.18334343 55.45825848 359.74363998 54.89049941 360.32091522 C51.11481907 364.08984375 51.11481907 364.08984375 48.88671875 364.08984375 C48.65984375 364.6415625 48.43296875 365.19328125 48.19921875 365.76171875 C46.49945949 368.77676792 44.33867059 370.90214744 41.88671875 373.33984375 C40.99984375 374.231875 40.11296875 375.12390625 39.19921875 376.04296875 C36.88671875 378.08984375 36.88671875 378.08984375 34.88671875 378.08984375 C34.55671875 379.07984375 34.22671875 380.06984375 33.88671875 381.08984375 C33.22671875 381.08984375 32.56671875 381.08984375 31.88671875 381.08984375 C31.22671875 382.40984375 30.56671875 383.72984375 29.88671875 385.08984375 C29.22671875 385.08984375 28.56671875 385.08984375 27.88671875 385.08984375 C27.64052292 385.66168396 27.39432709 386.23352417 27.14067078 386.82269287 C25.67719583 389.46866212 23.97275918 391.23669331 21.82348633 393.36425781 C20.9853389 394.19902649 20.14719147 395.03379517 19.28364563 395.89385986 C18.37535507 396.7886908 17.46706451 397.68352173 16.53125 398.60546875 C15.10222747 400.02654136 13.67320765 401.4476167 12.24434185 402.86884689 C10.2406589 404.85940529 8.23247822 406.84539565 6.22424316 408.83135986 C2.24956858 412.76292483 -1.71855826 416.70106525 -5.6831913 420.6427536 C-7.05817256 422.0076522 -8.43677766 423.36889713 -9.81547546 424.7300415 C-14.16409209 429.04539877 -18.33163358 433.42190604 -22.32118225 438.06942749 C-25.90003734 442.10423641 -29.76590472 445.8634799 -33.58984375 449.6640625 C-34.92225601 450.99435234 -34.92225601 450.99435234 -36.28158569 452.35151672 C-38.62210044 454.68741459 -40.96475983 457.02113192 -43.30853271 459.35375977 C-45.68797863 461.72294639 -48.06457681 464.09498586 -50.44140625 466.46679688 C-53.92387313 469.94112545 -57.40762356 473.414155 -60.89306641 476.88549805 C-61.63147766 477.62158295 -62.36988892 478.35766785 -63.13067627 479.11605835 C-64.32644759 480.3065103 -65.52383313 481.4953483 -66.7243042 482.68106079 C-68.64942257 484.58657627 -70.41769219 486.47035743 -72.11328125 488.58984375 C-74.28571088 491.30538079 -76.63826089 493.64410472 -79.11328125 496.08984375 C-80.24617674 497.21663044 -81.37863432 498.34385752 -82.51074219 499.47143555 C-83.12778015 500.08524582 -83.74481812 500.69905609 -84.3805542 501.33146667 C-87.14890125 504.0864354 -89.91459947 506.84405684 -92.68017578 509.60180664 C-94.14185839 511.05842191 -95.60443157 512.51414402 -97.06787109 513.96899414 C-99.18430464 516.07335137 -101.29753893 518.18087498 -103.41015625 520.2890625 C-104.06739685 520.94114182 -104.72463745 521.59322113 -105.40179443 522.26506042 C-106.00622375 522.86941422 -106.61065308 523.47376801 -107.23339844 524.09643555 C-108.03351349 524.89321968 -108.03351349 524.89321968 -108.84979248 525.70610046 C-110.22490904 527.08572349 -110.22490904 527.08572349 -111.11328125 529.08984375 C-111.77328125 529.08984375 -112.43328125 529.08984375 -113.11328125 529.08984375 C-113.36705032 529.6692572 -113.6208194 530.24867065 -113.88227844 530.84564209 C-115.25349062 533.34545494 -116.78327381 534.99366096 -118.80932617 536.99707031 C-119.94642281 538.12909882 -119.94642281 538.12909882 -121.10649109 539.28399658 C-121.92728653 540.0913324 -122.74808197 540.89866821 -123.59375 541.73046875 C-124.43996414 542.57148132 -125.28617828 543.4124939 -126.15803528 544.2789917 C-128.86758654 546.97072712 -131.58370202 549.65570901 -134.30078125 552.33984375 C-136.99917887 555.01050737 -139.69606849 557.68264897 -142.38996887 560.35784912 C-144.06561539 562.02136972 -145.74392728 563.68221135 -147.42533875 565.33990479 C-150.90588785 568.79107883 -154.30899821 572.25048601 -157.49902344 575.97338867 C-161.61255802 580.75517366 -166.0834577 585.17271543 -170.55940437 589.61113167 C-172.12250649 591.1612656 -173.68228377 592.71468086 -175.24131775 594.26890564 C-178.5499746 597.56623574 -181.86257135 600.85958948 -185.17578125 604.15234375 C-189.02367813 607.97651144 -192.86987188 611.80236126 -196.71185112 615.6324749 C-198.23739992 617.15161384 -199.76596197 618.66767348 -201.29469299 620.18360901 C-206.12429769 624.98802484 -210.75341506 629.85329558 -215.11328125 635.08984375 C-216.7602261 636.77600157 -218.42454246 638.44554546 -220.11328125 640.08984375 C-220.83515625 640.85296875 -221.55703125 641.61609375 -222.30078125 642.40234375 C-224.11328125 644.08984375 -224.11328125 644.08984375 -226.11328125 644.08984375 C-226.11328125 644.74984375 -226.11328125 645.40984375 -226.11328125 646.08984375 C-234.69452375 654.36070088 -244.64729362 659.23779977 -256.11328125 662.08984375 C-256.87898438 662.29351563 -257.6446875 662.4971875 -258.43359375 662.70703125 C-270.64301697 664.45123457 -284.07878756 659.96984856 -293.86328125 652.90234375 C-304.44873225 644.02360496 -311.82268474 631.98713658 -313.11328125 618.08984375 C-313.30775514 612.75551626 -313.23242923 607.42502532 -313.11328125 602.08984375 C-312.45328125 602.08984375 -311.79328125 602.08984375 -311.11328125 602.08984375 C-310.90703125 600.81109375 -310.70078125 599.53234375 -310.48828125 598.21484375 C-307.79587618 586.39407903 -297.93352781 575.07727733 -289.11328125 567.08984375 C-288.45328125 567.08984375 -287.79328125 567.08984375 -287.11328125 567.08984375 C-286.78328125 566.09984375 -286.45328125 565.10984375 -286.11328125 564.08984375 C-284.57230663 562.56831551 -284.57230663 562.56831551 -282.59599304 560.94046021 C-277.96106716 557.00427161 -273.67784762 552.78802079 -269.38989258 548.47998047 C-268.55794876 547.64818268 -267.72600494 546.81638489 -266.86885071 545.9593811 C-264.14195853 543.23179695 -261.41861867 540.5006954 -258.6953125 537.76953125 C-256.7910825 535.86287379 -254.88609466 533.9569742 -252.98112488 532.05105591 C-248.49104833 527.55788351 -244.00352313 523.06217207 -239.51693505 518.56551659 C-234.42515389 513.46255618 -229.33053428 508.36243365 -224.23566782 503.26255393 C-215.52296986 494.54118828 -206.8123734 485.81772866 -198.10418701 477.09185791 C-197.38525772 476.37148346 -196.66632843 475.65110901 -195.9256134 474.90890503 C-195.26342615 474.24527828 -194.6012389 473.58165154 -193.91898537 472.89791489 C-192.34702073 471.32388963 -190.77277916 469.75218961 -189.19779968 468.18118286 C-187.92039304 466.89959646 -186.658797 465.601694 -185.42578125 464.27734375 C-184.11328125 463.08984375 -184.11328125 463.08984375 -182.11328125 463.08984375 C-181.74203125 462.22359375 -181.74203125 462.22359375 -181.36328125 461.33984375 C-179.93028137 458.76044396 -178.32903449 457.02862783 -176.11328125 455.08984375 C-175.45328125 455.08984375 -174.79328125 455.08984375 -174.11328125 455.08984375 C-174.11328125 454.42984375 -174.11328125 453.76984375 -174.11328125 453.08984375 C-173.45328125 453.08984375 -172.79328125 453.08984375 -172.11328125 453.08984375 C-171.84515625 452.49171875 -171.57703125 451.89359375 -171.30078125 451.27734375 C-170.11410719 449.09136521 -169.01729012 447.67651781 -167.11328125 446.08984375 C-166.45328125 446.08984375 -165.79328125 446.08984375 -165.11328125 446.08984375 C-164.74203125 445.22359375 -164.74203125 445.22359375 -164.36328125 444.33984375 C-162.93028137 441.76044396 -161.32903449 440.02862783 -159.11328125 438.08984375 C-158.45328125 438.08984375 -157.79328125 438.08984375 -157.11328125 438.08984375 C-156.72934204 437.21694702 -156.72934204 437.21694702 -156.33764648 436.32641602 C-154.9950799 433.873923 -153.51394503 432.26265813 -151.5234375 430.3046875 C-150.82154297 429.60923828 -150.11964844 428.91378906 -149.39648438 428.19726562 C-148.66365234 427.48119141 -147.93082031 426.76511719 -147.17578125 426.02734375 C-146.44681641 425.30740234 -145.71785156 424.58746094 -144.96679688 423.84570312 C-143.61042126 422.50673288 -142.25199942 421.16982997 -140.89086914 419.83569336 C-139.73729203 418.70271302 -138.60688577 417.545459 -137.50561523 416.36157227 C-136.11328125 415.08984375 -136.11328125 415.08984375 -134.11328125 415.08984375 C-133.88640625 414.538125 -133.65953125 413.98640625 -133.42578125 413.41796875 C-131.72602199 410.40291958 -129.56523309 408.27754006 -127.11328125 405.83984375 C-126.22640625 404.9478125 -125.33953125 404.05578125 -124.42578125 403.13671875 C-122.11328125 401.08984375 -122.11328125 401.08984375 -120.11328125 401.08984375 C-119.88667313 400.53791855 -119.660065 399.98599335 -119.42658997 399.41734314 C-117.72012802 396.39308153 -115.56285278 394.30050294 -113.1003418 391.84985352 C-112.59114197 391.34036163 -112.08194214 390.83086975 -111.55731201 390.30593872 C-109.87623951 388.62625699 -108.18819447 386.95377099 -106.5 385.28125 C-105.32612651 384.11111023 -104.15269646 382.94052546 -102.97969055 381.76951599 C-99.89039398 378.68784989 -96.79514511 375.61223046 -93.6986084 372.5378418 C-90.56047143 369.42009152 -87.42791335 366.29674752 -84.29492188 363.17382812 C-78.77212446 357.67016181 -73.24443868 352.17144743 -67.71318054 346.67628479 C-65.17554063 344.15178084 -62.64325867 341.62202455 -60.11328125 339.08984375 C-58.94661458 337.92317708 -57.77994792 336.75651042 -56.61328125 335.58984375 C-56.01773437 334.99300781 -55.4221875 334.39617187 -54.80859375 333.78125 C-53.37786708 332.35381994 -51.93447343 330.93910278 -50.48828125 329.52734375 C-48.02136836 327.06864022 -48.02136836 327.06864022 -45.67578125 324.08984375 C-43.75784857 321.84445915 -42.11453266 320.16663487 -39.86328125 318.33984375 C-37.08968187 316.38352491 -37.08968187 316.38352491 -36.11328125 314.08984375 C-35.45328125 314.08984375 -34.79328125 314.08984375 -34.11328125 314.08984375 C-33.78328125 313.09984375 -33.45328125 312.10984375 -33.11328125 311.08984375 C-32.45328125 311.08984375 -31.79328125 311.08984375 -31.11328125 311.08984375 C-30.45328125 309.76984375 -29.79328125 308.44984375 -29.11328125 307.08984375 C-28.45328125 307.08984375 -27.79328125 307.08984375 -27.11328125 307.08984375 C-26.45328125 305.76984375 -25.79328125 304.44984375 -25.11328125 303.08984375 C-24.45328125 303.08984375 -23.79328125 303.08984375 -23.11328125 303.08984375 C-22.87996094 302.53039062 -22.64664062 301.9709375 -22.40625 301.39453125 C-18.61959294 294.64490084 -11.53338808 289.31445181 -5.63671875 284.38671875 C-2.38098404 281.61517023 0.45203916 278.64871751 3.07421875 275.27734375 C3.67234375 274.55546875 4.27046875 273.83359375 4.88671875 273.08984375 C5.54671875 273.08984375 6.20671875 273.08984375 6.88671875 273.08984375 C6.88671875 272.42984375 6.88671875 271.76984375 6.88671875 271.08984375 C8.30744648 269.68856239 8.30744648 269.68856239 10.30134583 268.04312134 C15.19821861 263.8750945 19.71731687 259.3923459 24.25268555 254.83740234 C25.15290436 253.93732956 26.05312317 253.03725677 26.98062134 252.10990906 C29.42686329 249.66395165 31.87002907 247.21494307 34.31261802 244.76533842 C36.88024899 242.19140739 39.45075895 239.62035462 42.02095032 237.04898071 C46.88289357 232.18394015 51.74228553 227.31635967 56.60074311 222.44783843 C62.11573364 216.92167045 67.63356124 211.39833904 73.15163553 205.87525058 C82.58715513 196.43106171 92.02056185 186.98476727 101.45158386 177.53608704 C103.59648758 175.38719821 105.74157657 173.23849452 107.88671875 171.08984375 C108.40478907 170.5706348 108.92285938 170.05142586 109.4566288 169.51648331 C111.48135185 167.48879852 113.51729015 165.47579387 115.5703125 163.4765625 C123.70608342 156.03614073 123.70608342 156.03614073 129.88671875 147.08984375 C129.55604374 141.79904365 125.8559545 138.5186716 122.34765625 134.82421875 C120.88671875 133.08984375 120.88671875 133.08984375 120.88671875 131.08984375 C119.56671875 130.42984375 118.24671875 129.76984375 116.88671875 129.08984375 C116.88671875 128.42984375 116.88671875 127.76984375 116.88671875 127.08984375 C116.28859375 126.82171875 115.69046875 126.55359375 115.07421875 126.27734375 C112.88824021 125.09066969 111.47339281 123.99385262 109.88671875 122.08984375 C109.88671875 121.42984375 109.88671875 120.76984375 109.88671875 120.08984375 C109.24734375 119.82171875 108.60796875 119.55359375 107.94921875 119.27734375 C105.88671875 118.08984375 105.88671875 118.08984375 104.88671875 115.08984375 C103.56264206 114.4049765 102.22762634 113.74114172 100.88671875 113.08984375 C98.63671875 111.08984375 98.63671875 111.08984375 96.88671875 109.08984375 C96.88671875 108.42984375 96.88671875 107.76984375 96.88671875 107.08984375 C96.35312744 106.88367432 95.81953613 106.67750488 95.26977539 106.46508789 C91.91682893 104.5301276 89.43270034 101.84048301 86.7578125 99.0859375 C85.87320091 98.18996605 85.87320091 98.18996605 84.97071838 97.27589417 C82.45934384 94.73206805 79.95971823 92.17682306 77.4597168 89.62182617 C69.92755607 81.93844521 62.39925547 74.6951042 53.88671875 68.08984375 C52.39153041 66.89372486 50.89671887 65.69713475 49.40234375 64.5 C40.17846584 57.2276132 30.8405905 50.32958425 20.88671875 44.08984375 C20.15291992 43.62900391 19.41912109 43.16816406 18.66308594 42.69335938 C7.85305371 35.95452114 -3.16203783 29.80196507 -14.59960938 24.18603516 C-23.4482336 19.73853483 -23.4482336 19.73853483 -26.11328125 15.08984375 C-26.74198802 10.13877792 -26.66726909 8.12140732 -24.30078125 3.71484375 C-18.16935922 -3.64286268 -8.56186837 -1.65379833 0 0 Z " fill="#C59547" transform="translate(530.11328125,180.91015625)"/>
<path d="M0 0 C1.65902344 0.81404297 1.65902344 0.81404297 3.3515625 1.64453125 C33.83187595 16.95346778 59.12075595 41.54420823 71 74 C77.62631937 94.00974074 77.87691674 114.67055547 76.234375 135.4921875 C75.27583782 149.83829396 75.34153602 162.43804312 85 174 C88.94798212 178.22892467 93.07682846 182.27676545 97.24243164 186.29003906 C99.51798012 188.50394954 101.75625201 190.75384498 104 193 C104.96780684 193.96793331 105.93567936 194.93580095 106.90361023 195.90361023 C167 256 167 256 167.0625 258.625 C164.71768208 266.07324515 157.3009578 271.85889041 151.890625 277.33398438 C151.21809692 278.01790253 150.54556885 278.70182068 149.85266113 279.40646362 C142.90627133 286.46237572 135.92903539 293.48792023 128.94921875 300.51074219 C125.64029908 303.84205476 122.34144544 307.18288178 119.05078125 310.53222656 C115.0640346 314.58989287 111.06050814 318.63025484 107.04431152 322.6587677 C105.52007052 324.19341969 104.00185622 325.73408209 102.48986816 327.2808075 C100.37908755 329.43761126 98.24744121 331.57146199 96.109375 333.70117188 C95.18179382 334.66414688 95.18179382 334.66414688 94.23547363 335.64657593 C91.07217065 338.75038699 89.71943592 339.91268945 85.18139648 340.46342468 C81.83031175 339.97528201 80.6827955 339.56610205 78.3125 337.23828125 C77.64476562 336.59842285 76.97703125 335.95856445 76.2890625 335.29931641 C75.53367187 334.54054199 74.77828125 333.78176758 74 333 C73.07960938 332.10845215 72.15921875 331.2169043 71.2109375 330.29833984 C68.64167157 327.80583498 66.10077829 325.28647935 63.56982422 322.75512695 C61.9803091 321.16783666 60.38290343 319.58876447 58.78515625 318.00976562 C57.77295074 317.00048793 56.76121389 315.99073996 55.75 314.98046875 C54.83734375 314.07192139 53.9246875 313.16337402 52.984375 312.22729492 C51 310 51 310 51 308 C50.44396088 307.77025986 49.88792175 307.54051971 49.31503296 307.30381775 C46.35784051 305.63833822 44.34227772 303.55828827 41.95947266 301.13891602 C41.22690498 300.39955811 41.22690498 300.39955811 40.47953796 299.64526367 C39.42264495 298.57743667 38.36803849 297.5073427 37.31547928 296.43524361 C35.64676163 294.73629192 33.97139328 293.04416516 32.29403687 291.35374451 C27.52726278 286.54728032 22.77326421 281.72825099 18.02246094 276.90600586 C15.11293763 273.95366665 12.1960593 271.00875355 9.27479172 268.06803703 C8.16593196 266.94863921 7.05999498 265.82633798 5.95711136 264.70105171 C4.41134247 263.12393738 2.85643332 261.55637847 1.29931641 259.99047852 C0.41869537 259.09716324 -0.46192566 258.20384796 -1.36923218 257.28346252 C-10.1036492 249.70213445 -20.82092588 250.77053242 -31.6875 251.4375 C-40.06633411 251.87321321 -48.42200825 252.11516355 -56.8125 252.125 C-58.26885864 252.13164673 -58.26885864 252.13164673 -59.75463867 252.13842773 C-65.89254809 252.12623778 -71.9057479 251.72809271 -78 251 C-78 250.34 -78 249.68 -78 249 C-79.15886719 248.88527344 -80.31773437 248.77054687 -81.51171875 248.65234375 C-101.72229827 246.09218911 -120.80963708 233.88505039 -136 221 C-136.88558594 220.30648437 -137.77117187 219.61296875 -138.68359375 218.8984375 C-142.24952596 215.97593657 -145.03280329 212.51348292 -148 209 C-149.18335938 207.64841797 -149.18335938 207.64841797 -150.390625 206.26953125 C-159.15999956 196.08791079 -165.72315428 184.86418945 -172 173 C-172.66 173 -173.32 173 -174 173 C-173.95230469 172.15566406 -173.90460938 171.31132812 -173.85546875 170.44140625 C-174.01982933 166.52784758 -174.99831923 163.6241841 -176.3125 159.9375 C-184.34300135 135.85169338 -185.58565359 105.50496333 -174.65234375 82.1171875 C-171.58593211 76.50769848 -168.86235588 73.57943659 -163 71 C-158.04786397 74.01959514 -153.72826709 77.52166734 -150 82 C-150 82.66 -150 83.32 -150 84 C-149.34 84 -148.68 84 -148 84 C-146.72827148 85.29736328 -146.72827148 85.29736328 -145.18359375 87.1953125 C-141.90808059 91.04915712 -138.44391836 94.6300141 -134.84765625 98.1796875 C-134.29902924 98.72264465 -133.75040222 99.26560181 -133.18515015 99.82501221 C-130.8930808 102.09000775 -128.5968839 104.35073784 -126.29663086 106.60742188 C-124.60099814 108.2730413 -122.91148699 109.94467587 -121.22265625 111.6171875 C-120.69777115 112.12861298 -120.17288605 112.64003845 -119.63209534 113.16696167 C-118.38304841 114.40717829 -117.18597483 115.69933895 -116 117 C-116 117.66 -116 118.32 -116 119 C-115.34 119 -114.68 119 -114 119 C-114 119.66 -114 120.32 -114 121 C-113.38125 121.2475 -112.7625 121.495 -112.125 121.75 C-109.59641373 123.23740369 -109.28160996 124.43678009 -108 127 C-106.6846659 127.70151152 -105.34882408 128.36525925 -104 129 C-101.75 131 -101.75 131 -100 133 C-100 133.66 -100 134.32 -100 135 C-99.45214844 135.21785156 -98.90429688 135.43570313 -98.33984375 135.66015625 C-94.67847901 137.75673072 -92.03082719 140.88771222 -89.15429688 143.92382812 C-85.36976985 147.83503388 -82.38903277 150.69501709 -76.87890625 151.3984375 C-67.21623803 151.36931156 -67.21623803 151.36931156 -59.25 146.3125 C-58.8375 145.879375 -58.425 145.44625 -58 145 C-57.34 145 -56.68 145 -56 145 C-55.60035034 144.11139282 -55.60035034 144.11139282 -55.19262695 143.20483398 C-53.97554782 140.95479475 -52.73700372 139.50668388 -50.91796875 137.72265625 C-50.01401367 136.82836914 -50.01401367 136.82836914 -49.09179688 135.91601562 C-48.14916992 134.99852539 -48.14916992 134.99852539 -47.1875 134.0625 C-46.57068359 133.45470703 -45.95386719 132.84691406 -45.31835938 132.22070312 C-44.10333068 131.02375137 -42.8863203 129.82880756 -41.66723633 128.63598633 C-40.25587307 127.25107709 -38.8569869 125.85346993 -37.4609375 124.453125 C-35.5960502 122.59415798 -33.71377373 120.76602134 -31.80859375 118.94921875 C-30.68476827 117.86211102 -29.56107213 116.77486957 -28.4375 115.6875 C-27.87353516 115.15705078 -27.30957031 114.62660156 -26.72851562 114.08007812 C-21.64546284 109.11592716 -17.98072315 103.80840002 -17.5 96.5625 C-17.97478803 87.64873763 -22.82819514 81.08783473 -29 75 C-29.825 74.34 -30.65 73.68 -31.5 73 C-33.70684049 71.2345276 -35.28222644 69.58106567 -37.09399414 67.43896484 C-41.17763279 62.72375225 -45.55543053 58.35335658 -49.99609375 53.9765625 C-51.70520628 52.28007702 -53.41418695 50.58345868 -55.12304688 48.88671875 C-57.79655742 46.2381758 -60.471652 43.59126925 -63.14916992 40.94677734 C-65.74828624 38.37767719 -68.34130229 35.80254626 -70.93359375 33.2265625 C-72.1474601 32.03288559 -72.1474601 32.03288559 -73.385849 30.81509399 C-74.12404373 30.08027802 -74.86223846 29.34546204 -75.62280273 28.58837891 C-76.27675522 27.94188385 -76.9307077 27.29538879 -77.60447693 26.62930298 C-79 25 -79 25 -79 23 C-79.639375 22.731875 -80.27875 22.46375 -80.9375 22.1875 C-83 21 -83 21 -84 18 C-85.485 17.505 -85.485 17.505 -87 17 C-87 16.34 -87 15.68 -87 15 C-87.66 15 -88.32 15 -89 15 C-89 14.34 -89 13.68 -89 13 C-89.66 13 -90.32 13 -91 13 C-93.51856444 10.57830343 -93.992212 9.05354249 -94.5 5.5625 C-94 2 -94 2 -92.1875 -0.6875 C-69.57846914 -17.09013024 -23.73002416 -11.86501208 0 0 Z M-75 152 C-71 153 -71 153 -71 153 Z " fill="#C59547" transform="translate(344,193)"/>
<path d="M0 0 C2.58108499 2.03763486 4.85187138 4.33814819 7.1484375 6.6875 C7.80582916 7.34580811 8.46322083 8.00411621 9.14053345 8.68237305 C10.52179272 10.06965451 11.89820805 11.46177383 13.27001953 12.85839844 C15.37818564 15.00324106 17.50208549 17.13148236 19.62890625 19.2578125 C20.96970062 20.60843196 22.30957741 21.95996308 23.6484375 23.3125 C24.28582855 23.9521167 24.9232196 24.5917334 25.57992554 25.25073242 C30 29.76783608 30 29.76783608 30 32 C31.485 32.495 31.485 32.495 33 33 C34.22224831 34.45348447 35.4403436 35.91104477 36.62109375 37.3984375 C38.33867554 39.39336253 40.34121628 40.94961965 42.39453125 42.5859375 C44.96770663 44.85233528 47.11119733 47.47215481 49.3359375 50.07421875 C52.09134684 53.26299059 54.90500923 56.20095268 58.3125 58.6875 C58.869375 59.120625 59.42625 59.55375 60 60 C60 60.66 60 61.32 60 62 C60.66 62 61.32 62 62 62 C63.33203125 63.35546875 63.33203125 63.35546875 64.8125 65.1875 C68.37745424 69.47577829 72.14768934 73.30956526 76.4375 76.875 C79.44909025 79.41278402 81.88755868 82.15708375 84.37890625 85.1953125 C86.82959211 87.92354592 89.6271321 90.20048076 92.4609375 92.51953125 C92.96882812 93.00808594 93.47671875 93.49664063 94 94 C94 94.66 94 95.32 94 96 C94.66 96 95.32 96 96 96 C97.34423339 97.65788785 98.67618483 99.32576317 100 101 C101.11375 101.8353125 101.11375 101.8353125 102.25 102.6875 C102.8275 103.120625 103.405 103.55375 104 104 C104 104.66 104 105.32 104 106 C104.556875 106.226875 105.11375 106.45375 105.6875 106.6875 C108.66159588 108.37550036 110.72008865 110.46676517 113 113 C113 113.66 113 114.32 113 115 C113.87196014 115.38349358 113.87196014 115.38349358 114.76153564 115.7747345 C117.22472265 117.12300616 118.84324446 118.60915597 120.81542969 120.60424805 C121.5500946 121.34229172 122.28475952 122.08033539 123.04168701 122.84074402 C123.82714905 123.63966568 124.61261108 124.43858734 125.421875 125.26171875 C126.24069153 126.08573685 127.05950806 126.90975494 127.90313721 127.75874329 C130.52354537 130.39696474 133.13719688 133.04174824 135.75 135.6875 C138.34933098 138.31457069 140.95014188 140.94013049 143.55401611 143.56269836 C145.17302512 145.19382724 146.78935517 146.82762115 148.40252686 148.46452332 C152.53064376 152.62871855 156.7347139 156.62464134 161.19129944 160.43655396 C164.44927863 163.25276068 167.55872904 166.22946742 170.6875 169.1875 C176.61932243 174.78880863 176.61932243 174.78880863 182.64453125 180.2890625 C194.43821423 190.88415935 206.57595971 203.57723114 208.21923828 220.22045898 C209.11112592 238.41832537 205.43843767 253.72756544 193.25 267.75 C181.45486921 280.14548175 166.59733821 287.81193153 149.44677734 288.45605469 C131.07304995 288.74868174 116.87044396 281.80513251 103 270 C101.84093345 268.73881305 100.71371704 267.4473929 99.625 266.125 C96.82830471 262.84086327 93.87974948 260.10112735 90.5546875 257.3671875 C88.40644024 255.47802534 86.77700933 253.23559238 85 251 C83.54572168 249.80426005 82.09040456 248.60964464 80.62155151 247.43185425 C78.81261145 245.83453311 77.30376255 244.1177692 75.74267578 242.27783203 C72.29945272 238.29623425 68.6760315 234.56209456 64.9296875 230.8671875 C64.28556915 230.22685577 63.64145081 229.58652405 62.97781372 228.92678833 C60.94599096 226.9070405 58.91093125 224.89060581 56.875 222.875 C54.18194042 220.20868634 51.49231868 217.53897165 48.8046875 214.8671875 C47.89201614 213.96696365 47.89201614 213.96696365 46.96090698 213.04855347 C44.21832606 210.32165563 41.61935468 207.59047244 39.19970703 204.57080078 C38.11085205 203.29825439 38.11085205 203.29825439 37 202 C36.34 202 35.68 202 35 202 C35 201.01 35 200.02 35 199 C34.01 198.67 33.02 198.34 32 198 C30.43203735 196.41203308 30.43203735 196.41203308 28.76806641 194.39916992 C25.26171357 190.26903288 21.55605305 186.42670816 17.7109375 182.61328125 C17.04462311 181.94838181 16.37830872 181.28348236 15.69180298 180.59843445 C13.5885683 178.50073241 11.4818687 176.40655144 9.375 174.3125 C7.95549538 172.89802104 6.53622265 171.48330932 5.1171875 170.06835938 C2.51363665 167.47292421 -0.09122911 164.87882537 -2.69775391 162.28637695 C-3.25875793 161.72576569 -3.81976196 161.16515442 -4.39776611 160.58755493 C-5.43784905 159.55700077 -6.48717838 158.53566502 -7.54705811 157.52548218 C-8.73324791 156.38587132 -9.87218881 155.19741432 -11 154 C-11 153.34 -11 152.68 -11 152 C-11.59941406 151.73832031 -12.19882812 151.47664062 -12.81640625 151.20703125 C-15.14871583 149.91779393 -16.27370745 148.7484844 -17.9375 146.6875 C-21.38938382 142.61005645 -25.05312552 138.79139553 -28.8125 135 C-29.38798584 134.41178467 -29.96347168 133.82356934 -30.55639648 133.2175293 C-31.99848935 131.77159711 -33.49523683 130.3805939 -35 129 C-35.66 129 -36.32 129 -37 129 C-38.01593012 127.34299554 -39.01300087 125.67439854 -40 124 C-41.33547882 122.5031782 -42.72273186 121.05153026 -44.1484375 119.64038086 C-45.39488037 118.39900612 -45.39488037 118.39900612 -46.66650391 117.1325531 C-47.56030762 116.25220901 -48.45411133 115.37186493 -49.375 114.46484375 C-50.78194262 113.06584826 -52.18888271 111.66685022 -53.59567261 110.26770115 C-55.5609975 108.3154763 -57.53083952 106.36784083 -59.50073242 104.42022705 C-62.94970019 101.00930969 -66.3938498 97.5935433 -69.83447266 94.17420959 C-71.664726 92.35619597 -73.49764614 90.54086231 -75.33349609 88.72850037 C-76.57993896 87.49185387 -76.57993896 87.49185387 -77.8515625 86.23022461 C-78.58197754 85.50806259 -79.31239258 84.78590057 -80.06494141 84.04185486 C-81.88554621 82.12077052 -83.46224063 80.15112701 -85 78 C-81.28612544 72.2228618 -77.43693131 67.14592111 -72.1875 62.6875 C-69.18860968 60.13872455 -66.57332387 57.47777556 -64 54.5 C-60.84824702 50.85288309 -57.50826223 47.73840616 -53.82421875 44.640625 C-52.05800884 43.0521707 -50.6030415 41.41763714 -49.125 39.5625 C-48.073125 38.2940625 -48.073125 38.2940625 -47 37 C-46.34 37 -45.68 37 -45 37 C-44.7525 36.38125 -44.505 35.7625 -44.25 35.125 C-42.76259631 32.59641373 -41.56321991 32.28160996 -39 31 C-38.32432737 29.6712078 -37.65864799 28.33731262 -37 27 C-35.71669006 25.46272278 -35.71669006 25.46272278 -34.25024414 23.99145508 C-33.69949722 23.43440384 -33.14875031 22.8773526 -32.58131409 22.30342102 C-31.69221596 21.42039558 -31.69221596 21.42039558 -30.78515625 20.51953125 C-30.17361191 19.90607346 -29.56206757 19.29261566 -28.93199158 18.66056824 C-27.64079456 17.36801275 -26.34707846 16.07796945 -25.05102539 14.7902832 C-23.06617579 12.81615593 -21.09223272 10.831574 -19.11914062 8.84570312 C-17.8626201 7.5905039 -16.60547948 6.33592504 -15.34765625 5.08203125 C-14.75694839 4.48727493 -14.16624054 3.89251862 -13.55763245 3.27973938 C-8.69604709 -1.5265128 -6.39514298 -2.90487993 0 0 Z M126 211 C121.05983714 217.49278547 119.3385068 223.39928133 120.40234375 231.4453125 C122.1775515 239.03345545 126.60927047 244.68074832 133 249 C135.57099402 250.34689915 135.57099402 250.34689915 138 251 C138.61875 251.20625 139.2375 251.4125 139.875 251.625 C147.06657955 252.89410227 152.63945597 251.32089629 159 248 C164.78970377 243.21720123 168.66076497 237.42666701 170 230 C170.23265525 221.36590504 168.21870999 215.61749352 162.4296875 209.28125 C157.24196259 204.35894358 151.56845511 202.45416701 144.5625 201.5625 C137.12025998 202.4764593 130.78832414 205.08501136 126 211 Z " fill="#C59547" transform="translate(609,550)"/>
<path d="M0 0 C337.92 0 675.84 0 1024 0 C1024 337.92 1024 675.84 1024 1024 C686.08 1024 348.16 1024 0 1024 C0 686.08 0 348.16 0 0 Z M1 1 C1 338.26 1 675.52 1 1023 C338.26 1023 675.52 1023 1023 1023 C1023 685.74 1023 348.48 1023 1 C685.74 1 348.48 1 1 1 Z " fill="#A39C94" transform="translate(0,0)"/>
<path d="M0 0 C7.11905227 5.80683219 13.47374812 12.36285444 19.9375 18.875 C21.10979204 20.05231638 22.28231614 21.22940174 23.45507812 22.40625 C26.30606982 25.26817489 29.15389615 28.13321457 32 31 C31.01 31.33 30.02 31.66 29 32 C24.86897679 29.36073517 21.97636224 25.71189378 18.83203125 22.01953125 C16.58838048 19.5462531 14.12905498 17.48388965 11.5546875 15.3671875 C9.40644024 13.47802534 7.77700933 11.23559238 6 9 C4.93002814 8.12915442 3.84594429 7.27542477 2.75 6.4375 C1.8425 5.633125 0.935 4.82875 0 4 C0 2.68 0 1.36 0 0 Z " fill="#C18C3A" transform="translate(688,792)"/>
<path d="M0 0 C4.17317235 1.19233496 6.06336612 3.03597177 8.69140625 6.43359375 C10.36353918 8.43516182 12.35591265 9.95811637 14.3828125 11.5859375 C18.91417433 15.54814277 23.33966672 20.09659279 25 26 C19.22636432 21.19509514 13.87456107 16.0577806 8.5625 10.75 C7.73556641 9.9353125 6.90863281 9.120625 6.05664062 8.28125 C5.27611328 7.50265625 4.49558594 6.7240625 3.69140625 5.921875 C2.98185791 5.21643555 2.27230957 4.51099609 1.54125977 3.78417969 C0 2 0 2 0 0 Z " fill="#C48F3B" transform="translate(637,581)"/>
<path d="M0 0 C5.7987136 3.41975417 10.58855392 7.9219354 15 13 C15 13.66 15 14.32 15 15 C15.66 15 16.32 15 17 15 C18.5078125 16.42578125 18.5078125 16.42578125 20.125 18.3125 C20.66382813 18.92738281 21.20265625 19.54226563 21.7578125 20.17578125 C23 22 23 22 23 25 C21 25 21 25 19.765625 23.77734375 C19.26546875 23.17019531 18.7653125 22.56304687 18.25 21.9375 C15.72015674 18.94376224 13.12060508 16.04402758 10.42578125 13.19921875 C9.79188477 12.52963135 9.15798828 11.86004395 8.50488281 11.17016602 C7.21480021 9.81181735 5.92119813 8.45680222 4.62402344 7.10522461 C4.02750977 6.47495361 3.43099609 5.84468262 2.81640625 5.1953125 C2.27443604 4.62828613 1.73246582 4.06125977 1.17407227 3.47705078 C0 2 0 2 0 0 Z " fill="#C49142" transform="translate(798,357)"/>
<path d="M0 0 C0 3 0 3 -1.53125 4.71875 C-2.84375 5.90625 -4.15625 7.09375 -5.46875 8.28125 C-7.33260302 9.98967686 -7.33260302 9.98967686 -7 13 C-9.265625 15.2265625 -9.265625 15.2265625 -12.25 17.625 C-13.22453125 18.42164063 -14.1990625 19.21828125 -15.203125 20.0390625 C-17.73299801 21.81280028 -19.08521359 22.39723652 -22 23 C-17.47008204 17.56266945 -12.65705784 12.53541069 -7.625 7.5625 C-6.88894531 6.83095703 -6.15289062 6.09941406 -5.39453125 5.34570312 C-3.59863926 3.56147277 -1.80044015 1.77963876 0 0 Z " fill="#CA9B50" transform="translate(301,689)"/>
<path d="M0 0 C0.33 0 0.66 0 1 0 C1.33 12.21 1.66 24.42 2 37 C1.34 37 0.68 37 0 37 C-0.98145698 34.05562907 -1.1288698 32.13104342 -1.1328125 29.0625 C-1.13410156 28.08410156 -1.13539063 27.10570312 -1.13671875 26.09765625 C-1.13285156 25.07542969 -1.12898438 24.05320312 -1.125 23 C-1.12886719 22.00871094 -1.13273437 21.01742188 -1.13671875 19.99609375 C-1.12796218 13.27980219 -0.72122973 6.67671443 0 0 Z " fill="#BD8631" transform="translate(418,316)"/>
<path d="M0 0 C0.33 0 0.66 0 1 0 C1 4.62 1 9.24 1 14 C1.66 14 2.32 14 3 14 C3 10.04 3 6.08 3 2 C3.33 2 3.66 2 4 2 C4.10947633 12.72867997 3.96288008 23.3051534 3 34 C2.67 34 2.34 34 2 34 C1.67 30.04 1.34 26.08 1 22 C0.67 22 0.34 22 0 22 C0 14.74 0 7.48 0 0 Z " fill="#D1A95F" transform="translate(417,298)"/>
<path d="M0 0 C5.80362648 0.50731001 8.70288105 2.14240627 12.56640625 6.4921875 C14.25200342 8.66535411 15.61402065 10.93708754 16.984375 13.3203125 C18.91952345 15.71167471 20.93875088 18.02312296 22.984375 20.3203125 C19.82602393 18.92281202 17.66164675 17.26833016 15.234375 14.8203125 C14.62078125 14.211875 14.0071875 13.6034375 13.375 12.9765625 C11.984375 11.3203125 11.984375 11.3203125 11.984375 9.3203125 C11.324375 9.3203125 10.664375 9.3203125 9.984375 9.3203125 C9.984375 8.6603125 9.984375 8.0003125 9.984375 7.3203125 C9.324375 7.3203125 8.664375 7.3203125 7.984375 7.3203125 C7.22125 6.4746875 6.458125 5.6290625 5.671875 4.7578125 C4.785 3.9534375 3.898125 3.1490625 2.984375 2.3203125 C0.3570836 2.39564497 0.3570836 2.39564497 -2.015625 3.3203125 C-3.005625 3.3203125 -3.995625 3.3203125 -5.015625 3.3203125 C-3.40233043 1.37006401 -2.54476754 0.40440104 0 0 Z " fill="#C08934" transform="translate(603.015625,549.6796875)"/>
<path d="M0 0 C0.33 0.99 0.66 1.98 1 3 C-1.31383458 6.7993704 -4.75364362 9.90072711 -8.1875 12.6875 C-10.60509098 14.67529703 -12.2784299 16.41764485 -14 19 C-15.32 18.67 -16.64 18.34 -18 18 C-16.38113585 16.32737283 -14.7547271 14.66204463 -13.125 13 C-11.76761719 11.6078125 -11.76761719 11.6078125 -10.3828125 10.1875 C-8 8 -8 8 -6 8 C-5.7525 7.4225 -5.505 6.845 -5.25 6.25 C-3.83316683 3.6997003 -2.12372463 1.98214299 0 0 Z " fill="#C08B39" transform="translate(323,803)"/>
<path d="M0 0 C0.66 0 1.32 0 2 0 C3.33984375 1.36328125 3.33984375 1.36328125 4.9375 3.3125 C9.63967367 8.86146342 14.81944144 13.90375433 20 19 C19.01 19.33 18.02 19.66 17 20 C16.5560791 19.54560547 16.1121582 19.09121094 15.65478516 18.62304688 C13.65005141 16.57686482 11.63766784 14.5383771 9.625 12.5 C8.92632813 11.78457031 8.22765625 11.06914063 7.5078125 10.33203125 C6.8375 9.65527344 6.1671875 8.97851562 5.4765625 8.28125 C4.549646 7.33862305 4.549646 7.33862305 3.60400391 6.37695312 C2.09940431 4.78287939 2.09940431 4.78287939 0 5 C0 3.35 0 1.7 0 0 Z " fill="#C68F3D" transform="translate(572,674)"/>
<path d="M0 0 C2.16874252 0.50603992 3.99967627 0.99983813 6 2 C6 2.66 6 3.32 6 4 C6.66 4 7.32 4 8 4 C9.40234375 5.42578125 9.40234375 5.42578125 10.9375 7.3125 C12.86463171 9.66350211 14.81719293 11.88235135 17 14 C16.67 14.99 16.34 15.98 16 17 C14.32737283 15.38113585 12.66204463 13.7547271 11 12.125 C10.071875 11.22007812 9.14375 10.31515625 8.1875 9.3828125 C6 7 6 7 6 5 C5.38125 4.731875 4.7625 4.46375 4.125 4.1875 C2 3 2 3 0 0 Z " fill="#C08934" transform="translate(663,608)"/>
<path d="M0 0 C0.33 0 0.66 0 1 0 C1 8.91 1 17.82 1 27 C0.67 26.34 0.34 25.68 0 25 C-0.66 25 -1.32 25 -2 25 C-2.3690205 8.29157175 -2.3690205 8.29157175 0 0 Z " fill="#BB8431" transform="translate(220,781)"/>
<path d="M0 0 C0.99 0 1.98 0 3 0 C1.51774343 3.36181903 -0.41196412 5.7860133 -2.875 8.5 C-3.89207031 9.62921875 -3.89207031 9.62921875 -4.9296875 10.78125 C-6.90904648 12.90252529 -8.93476726 14.96255066 -11 17 C-10.55119601 12.16189296 -8.18395165 9.2533884 -5.125 5.6875 C-4.67769531 5.13771484 -4.23039063 4.58792969 -3.76953125 4.02148438 C-2.58594026 2.61618829 -1.29814415 1.30021786 0 0 Z " fill="#C18D3C" transform="translate(237,752)"/>
<path d="M0 0 C4.92352884 1.19358275 7.18004951 4.22682644 10.28515625 7.95703125 C12.39024441 10.46491532 14.6510144 12.72219579 17 15 C16.67 15.99 16.34 16.98 16 18 C11.66666667 13.66666667 7.33333333 9.33333333 3 5 C2.44030518 4.48155518 1.88061035 3.96311035 1.30395508 3.42895508 C0 2 0 2 0 0 Z " fill="#C28F3F" transform="translate(772,280)"/>
<path d="M0 0 C0 3 0 3 -1.28515625 4.62573242 C-2.16494141 5.4819519 -2.16494141 5.4819519 -3.0625 6.35546875 C-3.69414063 6.97744141 -4.32578125 7.59941406 -4.9765625 8.24023438 C-5.64429688 8.88283203 -6.31203125 9.52542969 -7 10.1875 C-8.00160156 11.16879883 -8.00160156 11.16879883 -9.0234375 12.16992188 C-10.67578441 13.78686135 -12.33471601 15.39640491 -14 17 C-14.66 16.67 -15.32 16.34 -16 16 C-4.06349206 2.03174603 -4.06349206 2.03174603 0 0 Z " fill="#C18B36" transform="translate(656,335)"/>
<path d="M0 0 C0 3 0 3 -2.375 5.6875 C-5 8 -5 8 -7 8 C-7.20625 8.556875 -7.4125 9.11375 -7.625 9.6875 C-9.55000774 12.92501302 -12.03850902 14.68231141 -15 17 C-13.49795345 9.09267448 -6.24731938 4.32872637 0 0 Z " fill="#C38F40" transform="translate(487,504)"/>
<path d="M0 0 C0.99 0.33 1.98 0.66 3 1 C2.2884375 1.6496875 2.2884375 1.6496875 1.5625 2.3125 C-0.23686957 4.02309613 -0.23686957 4.02309613 -1 7 C-1.66 7 -2.32 7 -3 7 C-3 7.66 -3 8.32 -3 9 C-5.63892176 10.78305524 -7.97178863 11.99059621 -11 13 C-9.46356148 9.31930113 -7.21849055 7.01224796 -4.375 4.25 C-3.55773437 3.45078125 -2.74046875 2.6515625 -1.8984375 1.828125 C-0.95871094 0.92320312 -0.95871094 0.92320312 0 0 Z " fill="#C49242" transform="translate(259,731)"/>
<path d="M0 0 C0.99 0.33 1.98 0.66 3 1 C-1.29 5.29 -5.58 9.58 -10 14 C-10.66 13.67 -11.32 13.34 -12 13 C-10.86528532 9.59585597 -9.82774013 8.75723352 -7.125 6.5 C-4.64584653 4.41421775 -2.2560424 2.32698713 0 0 Z " fill="#C38E3C" transform="translate(548,442)"/>
<path d="M0 0 C4.91935902 4.11619836 9.52647956 8.40410362 14 13 C13.67 13.66 13.34 14.32 13 15 C11.49428343 13.88266271 9.99555708 12.75589965 8.5 11.625 C7.24703125 10.68527344 7.24703125 10.68527344 5.96875 9.7265625 C5.3190625 9.15679688 4.669375 8.58703125 4 8 C4 7.34 4 6.68 4 6 C2.68 5.34 1.36 4.68 0 4 C0 2.68 0 1.36 0 0 Z " fill="#C18934" transform="translate(594,696)"/>
<path d="M0 0 C2.67936081 1.8056562 4.1886938 3.22067334 5.875 5.9375 C4.1875 6.6875 4.1875 6.6875 1.875 6.9375 C-0.875 5 -0.875 5 -3.125 2.9375 C-6.67018884 4.33509905 -6.67018884 4.33509905 -10.125 5.9375 C-9.09990817 3.23498518 -8.08859825 1.90615405 -5.875 0 C-3.125 -1.0625 -3.125 -1.0625 0 0 Z " fill="#C6974D" transform="translate(183.125,265.0625)"/>
<path d="M0 0 C3.79236417 6.32060696 3.12884604 13.88483508 3 21 C2.67 21 2.34 21 2 21 C1.67 18.69 1.34 16.38 1 14 C0.34 14 -0.32 14 -1 14 C-1.08333357 9.1666528 -0.95261487 4.76307437 0 0 Z " fill="#CCA155" transform="translate(417,278)"/>
<path d="M0 0 C3.75553562 1.48725857 5.45166641 3.53688354 7.75 6.8125 C8.67039062 8.09060547 8.67039062 8.09060547 9.609375 9.39453125 C11.11790627 12.22090866 11.29416697 13.84901918 11 17 C8.51309245 15.75654622 8.31812254 14.86718074 7.1875 12.375 C5.19849989 8.20935827 2.72916533 4.71469725 0 1 C0 0.67 0 0.34 0 0 Z " fill="#BF8B3C" transform="translate(801,742)"/>
<path d="M0 0 C2.82950987 -0.0577451 4.4160532 -0.03157566 7 1 C10.82515638 4.7792545 13.72131729 9.14251539 16 14 C12.63366729 11.17693712 9.37725349 8.40420017 6.375 5.1875 C3.82097 2.83510395 2.40932818 2.29222813 -1 2 C-0.67 1.34 -0.34 0.68 0 0 Z " fill="#CF9F54" transform="translate(726,398)"/>
<path d="M0 0 C3.68069887 1.53643852 5.98775204 3.78150945 8.75 6.625 C9.54921875 7.44226563 10.3484375 8.25953125 11.171875 9.1015625 C12.07679688 10.04128906 12.07679688 10.04128906 13 11 C12.67 11.66 12.34 12.32 12 13 C10.66102417 12.04956626 9.32894573 11.08940853 8 10.125 C6.88625 9.32449219 6.88625 9.32449219 5.75 8.5078125 C5.1725 8.01023438 4.595 7.51265625 4 7 C4 6.34 4 5.68 4 5 C3.01 4.67 2.02 4.34 1 4 C0.3125 1.9375 0.3125 1.9375 0 0 Z " fill="#C28D3D" transform="translate(256,206)"/>
<path d="M0 0 C0 0.99 0 1.98 0 3 C0.30588054 4.73423342 0.64173036 6.46332735 1 8.1875 C1.185625 9.08855469 1.37125 9.98960937 1.5625 10.91796875 C1.706875 11.60503906 1.85125 12.29210937 2 13 C-1.19199167 10.58443874 -3.74716687 8.31996462 -6 5 C-4.625 3 -4.625 3 -3 1 C-2.34 1 -1.68 1 -1 1 C-0.67 0.67 -0.34 0.34 0 0 Z " fill="#CC9E53" transform="translate(530,623)"/>
<path d="M0 0 C0 3 0 3 -2.625 5.91796875 C-3.74249406 7.01550756 -4.86785643 8.10507895 -6 9.1875 C-6.57234375 9.74630859 -7.1446875 10.30511719 -7.734375 10.88085938 C-9.14962788 12.26073093 -10.57397155 13.63126734 -12 15 C-12.33 14.01 -12.66 13.02 -13 12 C-9.9669009 7.32789703 -5.98898333 3.49449166 -1 1 C-0.67 0.67 -0.34 0.34 0 0 Z " fill="#C08933" transform="translate(568,583)"/>
<path d="M0 0 C1.00908687 3.0272606 1.00943814 4.35679978 0.625 7.4375 C0.53476562 8.19933594 0.44453125 8.96117187 0.3515625 9.74609375 C0.02287041 11.85337526 -0.48272923 13.93091692 -1 16 C-1.66 13.36 -2.32 10.72 -3 8 C-3.33 8 -3.66 8 -4 8 C-3.67 5.69 -3.34 3.38 -3 1 C-2.01 0.67 -1.02 0.34 0 0 Z " fill="#CB9C4F" transform="translate(730,767)"/>
<path d="M0 0 C-1.65091778 4.29238623 -4.73754566 6.8793915 -8 10 C-8.66 9.67 -9.32 9.34 -10 9 C-5 0 -5 0 0 0 Z " fill="#C18F40" transform="translate(439,556)"/>
<path d="M0 0 C3.45201639 1.47721422 5.64961936 3.43794001 8.25 6.125 C8.95640625 6.84945313 9.6628125 7.57390625 10.390625 8.3203125 C11.18726563 9.15175781 11.18726563 9.15175781 12 10 C11.67 10.99 11.34 11.98 11 13 C9.49403892 11.54782324 7.99537896 10.08807139 6.5 8.625 C5.24703125 7.40683594 5.24703125 7.40683594 3.96875 6.1640625 C2 4 2 4 2 2 C1.34 2 0.68 2 0 2 C0 1.34 0 0.68 0 0 Z " fill="#C08C3C" transform="translate(860,424)"/>
<path d="M0 0 C0.99 0.33 1.98 0.66 3 1 C1.31554259 3.15236224 0.12037184 3.96087915 -2.5 4.8125 C-7.49885374 5.08029574 -12.12720429 4.04912506 -17 3 C-16.01 2.34 -15.02 1.68 -14 1 C-13.34 1.33 -12.68 1.66 -12 2 C-10.3298053 1.93793195 -8.66176297 1.80373613 -7 1.625 C-6.113125 1.53476562 -5.22625 1.44453125 -4.3125 1.3515625 C-1.98024356 1.11833052 -1.98024356 1.11833052 0 0 Z " fill="#D0A459" transform="translate(764,799)"/>
<path d="M0 0 C3.3 0 6.6 0 10 0 C10.33 1.32 10.66 2.64 11 4 C12.9837767 5.28436734 12.9837767 5.28436734 15 6 C9.45949887 5.43174347 4.96284034 3.37113483 0 1 C0 0.67 0 0.34 0 0 Z " fill="#C18A38" transform="translate(334,192)"/>
<path d="M0 0 C0.33 0.99 0.66 1.98 1 3 C-0.328125 5.04296875 -0.328125 5.04296875 -2.25 7.1875 C-3.18585938 8.26064453 -3.18585938 8.26064453 -4.140625 9.35546875 C-6 11 -6 11 -9 11 C-7.59155282 7.78475695 -5.89655214 5.67816132 -3.375 3.25 C-2.74335938 2.63640625 -2.11171875 2.0228125 -1.4609375 1.390625 C-0.73777344 0.70226562 -0.73777344 0.70226562 0 0 Z " fill="#C18B36" transform="translate(381,744)"/>
<path d="M0 0 C0.33 0.99 0.66 1.98 1 3 C-4.28 2.01 -9.56 1.02 -15 0 C-15 -0.33 -15 -0.66 -15 -1 C-9.28422291 -2.00276791 -5.41824248 -2.21152754 0 0 Z " fill="#CD9D50" transform="translate(765,752)"/>
<path d="M0 0 C3.56764821 0.57619097 5.25159497 1.86969484 7.75 4.4375 C8.67039062 5.36369141 8.67039062 5.36369141 9.609375 6.30859375 C11 8 11 8 11 10 C7.81326038 8.59698853 5.67778594 6.92234929 3.25 4.4375 C2.63640625 3.81746094 2.0228125 3.19742188 1.390625 2.55859375 C0 1 0 1 0 0 Z " fill="#BF8834" transform="translate(753,697)"/>
<path d="M0 0 C3.21524305 1.40844718 5.32183868 3.10344786 7.75 5.625 C8.67039062 6.57246094 8.67039062 6.57246094 9.609375 7.5390625 C10.29773438 8.26222656 10.29773438 8.26222656 11 9 C10.01 9.33 9.02 9.66 8 10 C6.66070495 8.71451591 5.32871357 7.42141845 4 6.125 C2.88625 5.04605469 2.88625 5.04605469 1.75 3.9453125 C0 2 0 2 0 0 Z " fill="#C48E3B" transform="translate(785,453)"/>
<path d="M0 0 C1.4375 2.125 1.4375 2.125 2 4 C1.34 3.67 0.68 3.34 0 3 C-3.86061033 1.71312989 -6.94150283 1.86242382 -11 2 C-10.67 1.01 -10.34 0.02 -10 -1 C-5.98367013 -2.33877662 -3.90367509 -1.49049413 0 0 Z " fill="#C18F40" transform="translate(750,255)"/>
<path d="M0 0 C4.29 2.31 8.58 4.62 13 7 C13 7.33 13 7.66 13 8 C8.27715733 8.73794417 5.44520175 6.76941254 1.57421875 4.38671875 C1.05472656 3.92910156 0.53523437 3.47148438 0 3 C0 2.01 0 1.02 0 0 Z " fill="#C18A3A" transform="translate(721,824)"/>
<path d="M0 0 C2 0 2 0 3.69140625 1.6796875 C4.30886719 2.40414062 4.92632813 3.12859375 5.5625 3.875 C6.18253906 4.59429688 6.80257812 5.31359375 7.44140625 6.0546875 C9 8 9 8 10 10 C6.7451198 9.41978222 5.06347592 8.47352859 2.75 6.125 C2.22921875 5.61195313 1.7084375 5.09890625 1.171875 4.5703125 C0 3 0 3 0 0 Z " fill="#C48E3C" transform="translate(629,732)"/>
<path d="M0 0 C0.66 0.33 1.32 0.66 2 1 C2 2.33333333 2 3.66666667 2 5 C1.01 5 0.02 5 -1 5 C-1.33 5.66 -1.66 6.32 -2 7 C-2.66 6.34 -3.32 5.68 -4 5 C-2.68 3.35 -1.36 1.7 0 0 Z M-3 7 C-3 7.99 -3 8.98 -3 10 C-4.98 10.99 -4.98 10.99 -7 12 C-5.68 10.35 -4.36 8.7 -3 7 Z " fill="#CA9B4D" transform="translate(549,600)"/>
<path d="M0 0 C3.98381075 2.16264012 6.88983545 4.71211176 10 8 C9.67 8.99 9.34 9.98 9 11 C7.49403892 9.54782324 5.99537896 8.08807139 4.5 6.625 C3.6646875 5.81289063 2.829375 5.00078125 1.96875 4.1640625 C0 2 0 2 0 0 Z " fill="#BD8936" transform="translate(848,411)"/>
<path d="M0 0 C3.98381075 2.16264012 6.88983545 4.71211176 10 8 C9.67 8.99 9.34 9.98 9 11 C7.49403892 9.54782324 5.99537896 8.08807139 4.5 6.625 C3.6646875 5.81289063 2.829375 5.00078125 1.96875 4.1640625 C0 2 0 2 0 0 Z " fill="#C08B39" transform="translate(834,396)"/>
<path d="M0 0 C4.67105792 1.55701931 8.08705685 4.08447373 12 7 C9 8 9 8 6.9921875 7.109375 C6.29351563 6.66078125 5.59484375 6.2121875 4.875 5.75 C4.17117188 5.31171875 3.46734375 4.8734375 2.7421875 4.421875 C1 3 1 3 0 0 Z " fill="#C38D3A" transform="translate(550,222)"/>
<path d="M0 0 C8.57142857 0.85714286 8.57142857 0.85714286 12 3 C9.24075815 4.80411967 8.11027897 5.0127245 4.75 4.625 C3.8425 4.41875 2.935 4.2125 2 4 C2.33 3.01 2.66 2.02 3 1 C2.01 0.67 1.02 0.34 0 0 Z " fill="#CA9B4E" transform="translate(320,187)"/>
<path d="M0 0 C2.95653744 1.3726781 5.5649856 2.81688364 8 5 C8.75 7.1875 8.75 7.1875 9 9 C5.18063472 7.44396229 2.73955562 5.04395069 0 2 C0 1.34 0 0.68 0 0 Z " fill="#C18D3A" transform="translate(705,649)"/>
<path d="M0 0 C3.74281699 2.38179263 6.97727468 4.74475735 10 8 C9.67 8.99 9.34 9.98 9 11 C7.49403892 9.54782324 5.99537896 8.08807139 4.5 6.625 C3.6646875 5.81289063 2.829375 5.00078125 1.96875 4.1640625 C0 2 0 2 0 0 Z " fill="#BE8937" transform="translate(798,357)"/>
<path d="M0 0 C2.93375101 0.67057166 4.61941083 1.4959765 6.4453125 3.9140625 C7.6840771 5.91732182 8.87054327 7.93333449 10 10 C7.09217167 8.68515589 4.99358442 7.26624689 2.75 5 C2.22921875 4.484375 1.7084375 3.96875 1.171875 3.4375 C0 2 0 2 0 0 Z " fill="#C18934" transform="translate(692,636)"/>
<path d="M0 0 C0 0.99 0 1.98 0 3 C-1.64453125 4.640625 -1.64453125 4.640625 -3.8125 6.25 C-4.52019531 6.79140625 -5.22789062 7.3328125 -5.95703125 7.890625 C-6.96830078 8.43976562 -6.96830078 8.43976562 -8 9 C-8.99 8.67 -9.98 8.34 -11 8 C-10.38125 7.9175 -9.7625 7.835 -9.125 7.75 C-6.83849644 7.21964484 -6.83849644 7.21964484 -6.0625 5.125 C-4.64155919 2.28311837 -2.75880967 1.45200509 0 0 Z " fill="#BE8430" transform="translate(774,793)"/>
<path d="M0 0 C5.94 2.475 5.94 2.475 12 5 C12 5.33 12 5.66 12 6 C7.12335991 6.34833144 4.22949995 5.41685712 0 3 C0 2.01 0 1.02 0 0 Z " fill="#C08B38" transform="translate(237,430)"/>
<path d="M0 0 C3.53372712 1.96318174 6.24479785 4.04070881 9 7 C8.67 7.99 8.34 8.98 8 10 C6.66070495 8.71451591 5.32871357 7.42141845 4 6.125 C2.88625 5.04605469 2.88625 5.04605469 1.75 3.9453125 C0 2 0 2 0 0 Z " fill="#C08A37" transform="translate(823,384)"/>
<path d="M0 0 C0.99 0.33 1.98 0.66 3 1 C2.07038578 2.15224028 1.1309875 3.29659176 0.1875 4.4375 C-0.59560547 5.39462891 -0.59560547 5.39462891 -1.39453125 6.37109375 C-3 8 -3 8 -6 9 C-5.52797514 4.75177626 -3.03344482 2.80010291 0 0 Z " fill="#C38E3B" transform="translate(627,363)"/>
<path d="M0 0 C6.22303473 3.53199269 6.22303473 3.53199269 8 6 C7.5703125 8.09765625 7.5703125 8.09765625 7 10 C5.82739389 8.71372289 4.6620717 7.42080217 3.5 6.125 C2.8503125 5.40570313 2.200625 4.68640625 1.53125 3.9453125 C0 2 0 2 0 0 Z " fill="#C38D3B" transform="translate(388,227)"/>
<path d="M0 0 C1.20628008 2.33214148 2.1654738 4.49642139 3 7 C4.29355827 8.37195574 5.62298702 9.71182656 7 11 C2.25 10.25 2.25 10.25 0 8 C-0.26991906 5.31160615 -0.08737357 2.70858064 0 0 Z " fill="#C08C39" transform="translate(505,190)"/>
<path d="M0 0 C-1.5830577 4.2742558 -4.50568404 6.26531794 -8 9 C-8 6 -8 6 -6.7578125 4.39453125 C-5.94957031 3.61142578 -5.94957031 3.61142578 -5.125 2.8125 C-4.59132813 2.28269531 -4.05765625 1.75289062 -3.5078125 1.20703125 C-2 0 -2 0 0 0 Z " fill="#BF8A37" transform="translate(334,794)"/>
<path d="M0 0 C0.33 0.99 0.66 1.98 1 3 C-3.625 7.875 -3.625 7.875 -7 9 C-5.44499019 5.18315774 -2.96404505 2.80804268 0 0 Z " fill="#C38C37" transform="translate(464,659)"/>
<path d="M0 0 C0.99 0.33 1.98 0.66 3 1 C0.17493137 3.9297008 -2.78796065 6.50174717 -6 9 C-6.66 8.67 -7.32 8.34 -8 8 C-5.36 5.36 -2.72 2.72 0 0 Z " fill="#BD8733" transform="translate(371,621)"/>
<path d="M0 0 C0.99 0.33 1.98 0.66 3 1 C0.36 3.64 -2.28 6.28 -5 9 C-5.33 8.01 -5.66 7.02 -6 6 C-4.02 4.02 -2.04 2.04 0 0 Z " fill="#C28C37" transform="translate(544,606)"/>
<path d="M0 0 C0 3 0 3 -2.5 5.6875 C-3.325 6.450625 -4.15 7.21375 -5 8 C-5.66 7.67 -6.32 7.34 -7 7 C-7 4 -7 4 -6 2 C-5.01 2.33 -4.02 2.66 -3 3 C-2.01 2.01 -1.02 1.02 0 0 Z " fill="#C99B4E" transform="translate(541,452)"/>
<path d="M0 0 C0 2.71929057 -0.05620165 4.4832044 -1 7 C-3.0625 8.75 -3.0625 8.75 -5 10 C-5.68359375 8.203125 -5.68359375 8.203125 -6 6 C-4.78515625 4.296875 -4.78515625 4.296875 -3.0625 2.75 C-2.21365234 1.96882813 -2.21365234 1.96882813 -1.34765625 1.171875 C-0.90292969 0.78515625 -0.45820312 0.3984375 0 0 Z " fill="#CB9C4F" transform="translate(591,399)"/>
<path d="M0 0 C0.33 0 0.66 0 1 0 C1.3125 2.6875 1.3125 2.6875 1 6 C-1.172635 8.57285724 -2.97993838 10.48996919 -6 12 C-4 8 -2 4 0 0 Z " fill="#CE9F55" transform="translate(777,784)"/>
<path d="M0 0 C4.04648443 1.34882814 4.95502599 3.34826069 7 7 C6.67 7.99 6.34 8.98 6 10 C4.99421411 8.71283353 3.99553202 7.42011342 3 6.125 C2.443125 5.40570313 1.88625 4.68640625 1.3125 3.9453125 C0 2 0 2 0 0 Z " fill="#C3903D" transform="translate(421,359)"/>
<path d="M0 0 C1.79275866 3.11910856 2.34290718 5.67682428 2.625 9.25 C2.69976562 10.14203125 2.77453125 11.0340625 2.8515625 11.953125 C2.92503906 12.96632813 2.92503906 12.96632813 3 14 C1.51171875 12.85546875 1.51171875 12.85546875 0 11 C-0.29296875 8.30078125 -0.29296875 8.30078125 -0.1875 5.3125 C-0.16042969 4.31863281 -0.13335937 3.32476562 -0.10546875 2.30078125 C-0.07066406 1.54152344 -0.03585938 0.78226562 0 0 Z " fill="#BB822E" transform="translate(165,333)"/>
<path d="M0 0 C6.52307692 2.33846154 6.52307692 2.33846154 8.9375 5.6875 C9.288125 6.450625 9.63875 7.21375 10 8 C6.41726669 6.34643078 3.19026533 4.32019297 0 2 C0 1.34 0 0.68 0 0 Z " fill="#C08936" transform="translate(695,263)"/>
<path d="M0 0 C4.7517398 0.43197635 6.92000054 1.32769295 10 5 C9.01 5.495 9.01 5.495 8 6 C6.0546875 5.0390625 6.0546875 5.0390625 3.875 3.625 C3.15054688 3.16351563 2.42609375 2.70203125 1.6796875 2.2265625 C1.12539063 1.82179687 0.57109375 1.41703125 0 1 C0 0.67 0 0.34 0 0 Z " fill="#C08C3A" transform="translate(632,222)"/>
<path d="M0 0 C0.66 0 1.32 0 2 0 C6 5.29411765 6 5.29411765 6 9 C1.2 5.67692308 1.2 5.67692308 0.1875 2.25 C0.125625 1.5075 0.06375 0.765 0 0 Z " fill="#C08C3B" transform="translate(224,817)"/>
<path d="M0 0 C0 3.77910478 -0.99703962 4.46106101 -3.5 7.1875 C-4.47453125 8.26064453 -4.47453125 8.26064453 -5.46875 9.35546875 C-5.9740625 9.89816406 -6.479375 10.44085937 -7 11 C-7.33 10.34 -7.66 9.68 -8 9 C-6.85459775 7.68712379 -5.70866567 6.37470979 -4.5625 5.0625 C-3.92441406 4.33160156 -3.28632813 3.60070312 -2.62890625 2.84765625 C-1.77458541 1.87860647 -0.91348825 0.91348825 0 0 Z " fill="#BC8837" transform="translate(314,678)"/>
<path d="M0 0 C1.17539996 0.92652701 2.34010577 1.86663387 3.5 2.8125 C4.1496875 3.33457031 4.799375 3.85664063 5.46875 4.39453125 C7 6 7 6 7 9 C5.82460004 8.07347299 4.65989423 7.13336613 3.5 6.1875 C2.52546875 5.40439453 2.52546875 5.40439453 1.53125 4.60546875 C0 3 0 3 0 0 Z " fill="#BC8634" transform="translate(197,400)"/>
<path d="M0 0 C4.03520597 1.58962659 8.01811282 3.28232318 12 5 C7.98367013 6.33877662 5.90367509 5.49049413 2 4 C0.5625 1.875 0.5625 1.875 0 0 Z " fill="#BC842F" transform="translate(239,833)"/>
<path d="M0 0 C0.66 0 1.32 0 2 0 C3.38226016 2.76452033 3.09525387 5.0461363 3.0625 8.125 C3.05347656 9.22070312 3.04445313 10.31640625 3.03515625 11.4453125 C3.02355469 12.28835938 3.01195312 13.13140625 3 14 C2.67 14 2.34 14 2 14 C1.34 9.38 0.68 4.76 0 0 Z " fill="#BA812A" transform="translate(778,767)"/>
<path d="M0 0 C0.33 0.66 0.66 1.32 1 2 C0.06553465 4.03144641 -0.93224776 6.03533587 -2 8 C-2.66 8 -3.32 8 -4 8 C-4.33 8.66 -4.66 9.32 -5 10 C-4.4454626 6.67277559 -3.75986957 3.8986087 -2 1 C-1.34 0.67 -0.68 0.34 0 0 Z " fill="#C08E41" transform="translate(172,273)"/>
<path d="M0 0 C0.99 0.33 1.98 0.66 3 1 C2.0479279 2.00596297 1.08812654 3.00461563 0.125 4 C-0.40867188 4.556875 -0.94234375 5.11375 -1.4921875 5.6875 C-3 7 -3 7 -5 7 C-3.70700306 4.11562221 -2.34058637 2.12780579 0 0 Z " fill="#C08A37" transform="translate(253,737)"/>
<path d="M0 0 C0.99 0.33 1.98 0.66 3 1 C1.35 2.98 -0.3 4.96 -2 7 C-2.33 6.34 -2.66 5.68 -3 5 C-1.5625 2.375 -1.5625 2.375 0 0 Z M-5 7 C-3 8 -3 8 -3 8 Z " fill="#C18E3C" transform="translate(268,722)"/>
<path d="M0 0 C0 2 0 4 0 6 C-0.66 6 -1.32 6 -2 6 C-2 6.66 -2 7.32 -2 8 C-3.32 7.34 -4.64 6.68 -6 6 C-4.02 4.02 -2.04 2.04 0 0 Z " fill="#CB9D50" transform="translate(275,715)"/>
<path d="M0 0 C0.33 0.99 0.66 1.98 1 3 C-0.6186964 6.23739279 -3.84489543 7.42244771 -7 9 C-5.44499019 5.18315774 -2.96404505 2.80804268 0 0 Z " fill="#BD842D" transform="translate(419,705)"/>
<path d="M0 0 C0.721875 0.391875 1.44375 0.78375 2.1875 1.1875 C2.1875 1.5175 2.1875 1.8475 2.1875 2.1875 C1.57261719 2.30867188 0.95773438 2.42984375 0.32421875 2.5546875 C-0.48402344 2.72226562 -1.29226562 2.88984375 -2.125 3.0625 C-2.92550781 3.22492188 -3.72601563 3.38734375 -4.55078125 3.5546875 C-7.06551118 4.13228999 -7.06551118 4.13228999 -9.8125 6.1875 C-8.7719481 3.44422681 -7.80749982 2.1834458 -5.5 0.3125 C-2.8125 -0.8125 -2.8125 -0.8125 0 0 Z " fill="#CEA561" transform="translate(182.8125,264.8125)"/>
<path d="M0 0 C5.75 -0.125 5.75 -0.125 8 1 C8 1.66 8 2.32 8 3 C8.66 3.33 9.32 3.66 10 4 C8.51882199 3.71872579 7.04006751 3.42466268 5.5625 3.125 C4.73878906 2.96257812 3.91507813 2.80015625 3.06640625 2.6328125 C2.38449219 2.42398438 1.70257812 2.21515625 1 2 C0.67 1.34 0.34 0.68 0 0 Z " fill="#BE8837" transform="translate(568,193)"/>
<path d="M0 0 C0 3 0 3 -2.5 5.6875 C-3.325 6.450625 -4.15 7.21375 -5 8 C-5.66 7.67 -6.32 7.34 -7 7 C-4.78071806 4.09197539 -3.07030857 2.04687238 0 0 Z " fill="#BC8430" transform="translate(487,504)"/>
<path d="M0 0 C0.99 0.33 1.98 0.66 3 1 C1.02 2.98 -0.96 4.96 -3 7 C-3.66 6.67 -4.32 6.34 -5 6 C-3.35 4.02 -1.7 2.04 0 0 Z " fill="#BE8735" transform="translate(525,465)"/>
<path d="M0 0 C0.66 0.66 1.32 1.32 2 2 C1.96712417 4.72869407 1.43602229 7.2966618 1 10 C-1.56687367 6.1496895 -0.83288724 4.41430237 0 0 Z " fill="#CCA15A" transform="translate(800,308)"/>
<path d="M0 0 C2.97 0 5.94 0 9 0 C6.09907498 1.93395001 5.10325263 2.30131941 1.8125 2.625 C0.554375 2.74875 -0.70375 2.8725 -2 3 C-1.34 2.67 -0.68 2.34 0 2 C0 1.34 0 0.68 0 0 Z " fill="#BA822F" transform="translate(262,187)"/>
<path d="M0 0 C1.45945288 0.08708669 2.91765868 0.19526907 4.375 0.3125 C5.59316406 0.39951172 5.59316406 0.39951172 6.8359375 0.48828125 C9 1 9 1 11 4 C9.53984709 3.71758359 8.08190207 3.42373386 6.625 3.125 C5.81289062 2.96257813 5.00078125 2.80015625 4.1640625 2.6328125 C2 2 2 2 0 0 Z " fill="#D0A45B" transform="translate(245,838)"/>
<path d="M0 0 C1.875 0.125 1.875 0.125 4 1 C5.25 4.0625 5.25 4.0625 6 7 C3.95880212 5.38405168 1.95927063 3.7143618 0 2 C0 1.34 0 0.68 0 0 Z " fill="#C28D38" transform="translate(682,626)"/>
<path d="M0 0 C2.16874252 0.50603992 3.99967627 0.99983813 6 2 C6 2.66 6 3.32 6 4 C6.66 4 7.32 4 8 4 C7.67 4.66 7.34 5.32 7 6 C3.73539027 4.19587357 2.11070205 3.16605307 0 0 Z " fill="#C38F3C" transform="translate(663,608)"/>
<path d="M0 0 C0 3 0 3 -2 5.1875 C-2.66 5.785625 -3.32 6.38375 -4 7 C-4.66 6.67 -5.32 6.34 -6 6 C-4.95125002 3.37812506 -4.35068687 2.20628639 -1.875 0.75 C-1.25625 0.5025 -0.6375 0.255 0 0 Z " fill="#BF8936" transform="translate(501,490)"/>
<path d="M0 0 C2.31 1.98 4.62 3.96 7 6 C6.01 6.33 5.02 6.66 4 7 C2 5.1875 2 5.1875 0 3 C0 2.01 0 1.02 0 0 Z " fill="#C18B3A" transform="translate(822,489)"/>
<path d="M0 0 C0.33 0.66 0.66 1.32 1 2 C1.66 2.33 2.32 2.66 3 3 C1.35 4.32 -0.3 5.64 -2 7 C-2.6875 5.1875 -2.6875 5.1875 -3 3 C-1.5625 1.25 -1.5625 1.25 0 0 Z " fill="#C99B4E" transform="translate(595,395)"/>
<path d="M0 0 C2.46800047 1.15173355 4.04783565 2.04783565 6 4 C5.625 6.125 5.625 6.125 5 8 C0 2.25 0 2.25 0 0 Z " fill="#BE8835" transform="translate(794,303)"/>
<path d="M0 0 C0 0.99 0 1.98 0 3 C-2.3125 5.25 -2.3125 5.25 -5 7 C-5.99 6.67 -6.98 6.34 -8 6 C-7.360625 5.731875 -6.72125 5.46375 -6.0625 5.1875 C-3.66868314 4.11332248 -3.66868314 4.11332248 -3 1 C-2.01 0.67 -1.02 0.34 0 0 Z " fill="#BD8630" transform="translate(723,271)"/>
<path d="M0 0 C0.99 0.33 1.98 0.66 3 1 C2.34 2.98 1.68 4.96 1 7 C0.01 6.34 -0.98 5.68 -2 5 C-1.34 3.35 -0.68 1.7 0 0 Z " fill="#C89C53" transform="translate(808,802)"/>
<path d="M0 0 C-1.15173355 2.46800047 -2.04783565 4.04783565 -4 6 C-4.99 5.67 -5.98 5.34 -7 5 C-2.25 0 -2.25 0 0 0 Z " fill="#C08A35" transform="translate(341,787)"/>
<path d="M0 0 C1.32 0.33 2.64 0.66 4 1 C2.35 2.65 0.7 4.3 -1 6 C-1.66 5.67 -2.32 5.34 -3 5 C-2.01 3.35 -1.02 1.7 0 0 Z " fill="#C08835" transform="translate(244,745)"/>
<path d="M0 0 C0.33 0.66 0.66 1.32 1 2 C0.34 2 -0.32 2 -1 2 C-1.66 3.32 -2.32 4.64 -3 6 C-3.66 6 -4.32 6 -5 6 C-4.75 4.125 -4.75 4.125 -4 2 C-1.9375 0.75 -1.9375 0.75 0 0 Z " fill="#C38E3D" transform="translate(281,711)"/>
<path d="M0 0 C-0.28875 0.556875 -0.5775 1.11375 -0.875 1.6875 C-2.0413253 4.08494645 -3.0339881 6.51596939 -4 9 C-4.33 9 -4.66 9 -5 9 C-5.36666667 3.5 -5.36666667 3.5 -3.625 1.125 C-2 0 -2 0 0 0 Z " fill="#BA8230" transform="translate(532,620)"/>
<path d="M0 0 C4.875 4.625 4.875 4.625 6 8 C2.83884224 6.63016497 2.0072908 6.0109362 0 3 C0 2.01 0 1.02 0 0 Z " fill="#C18B39" transform="translate(185,385)"/>
<path d="M0 0 C2.96175123 0.61277612 4.38058783 1.25372522 7 3 C6.67 3.99 6.34 4.98 6 6 C3.97945196 4.35830472 1.97956942 2.69088222 0 1 C0 0.67 0 0.34 0 0 Z " fill="#BF8A38" transform="translate(377,217)"/>
<path d="M0 0 C2.875 0.25 2.875 0.25 6 1 C7.375 3.0625 7.375 3.0625 8 5 C4.62496331 3.8141763 2.35277269 2.72426311 0 0 Z " fill="#CC9C4C" transform="translate(535,214)"/>
<path d="M0 0 C4.75 0.75 4.75 0.75 7 3 C6.67 3.99 6.34 4.98 6 6 C3.97945196 4.35830472 1.97956942 2.69088222 0 1 C0 0.67 0 0.34 0 0 Z " fill="#BF8B38" transform="translate(366,208)"/>
<path d="M0 0 C1.98 0 3.96 0 6 0 C6 0.33 6 0.66 6 1 C4.02 1 2.04 1 0 1 C0 0.67 0 0.34 0 0 Z " fill="#BE914A" transform="translate(761,839)"/>
<path d="M0 0 C0.99 0.33 1.98 0.66 3 1 C2.01 1.33 1.02 1.66 0 2 C0 1.34 0 0.68 0 0 Z " fill="#CD9D4F" transform="translate(760,755)"/>
<path d="M0 0 C0.99 0.495 0.99 0.495 2 1 C1.67 1.66 1.34 2.32 1 3 C0.67 2.01 0.34 1.02 0 0 Z " fill="#C69549" transform="translate(632,739)"/>
<path d="M0 0 C4 1 4 1 4 1 Z " fill="#C8974B" transform="translate(427,534)"/>
<path d="M0 0 C0.99 0.33 1.98 0.66 3 1 C2.01 1 1.02 1 0 1 C0 0.67 0 0.34 0 0 Z " fill="#CA994B" transform="translate(768,441)"/>
<path d="M0 0 C0 3 0 3 0 3 Z " fill="#C19248" transform="translate(228,429)"/>
<path d="M0 0 C0.99 0.495 0.99 0.495 2 1 C1.34 1.66 0.68 2.32 0 3 C0 2.01 0 1.02 0 0 Z " fill="#C6964A" transform="translate(514,205)"/>
<path d="" fill="#BE904B" transform="translate(0,0)"/>
<path d="M0 0 C0.33 0.66 0.66 1.32 1 2 C0.34 1.67 -0.32 1.34 -1 1 C-0.67 0.67 -0.34 0.34 0 0 Z " fill="#BE924C" transform="translate(713,822)"/>
<path d="M0 0 C3 1 3 1 3 1 Z " fill="#C89749" transform="translate(312,445)"/>
<path d="M0 0 C0.66 0.66 1.32 1.32 2 2 C1.34 2 0.68 2 0 2 C0 1.34 0 0.68 0 0 Z " fill="#BF9148" transform="translate(225,428)"/>
<path d="M0 0 C0.66 0.66 1.32 1.32 2 2 C1.34 2 0.68 2 0 2 C0 1.34 0 0.68 0 0 Z " fill="#C09249" transform="translate(837,392)"/>
<path d="M0 0 C0.33 0.66 0.66 1.32 1 2 C0.34 1.67 -0.32 1.34 -1 1 C-0.67 0.67 -0.34 0.34 0 0 Z " fill="#C0934D" transform="translate(177,380)"/>
<path d="" fill="#C1934E" transform="translate(0,0)"/>
<path d="M0 0 C0.33 0.66 0.66 1.32 1 2 C0.34 1.67 -0.32 1.34 -1 1 C-0.67 0.67 -0.34 0.34 0 0 Z " fill="#CA9A4D" transform="translate(635,299)"/>
<path d="M0 0 C0.99 0.495 0.99 0.495 2 1 C1.01 1.495 1.01 1.495 0 2 C0 1.34 0 0.68 0 0 Z " fill="#BE914D" transform="translate(161,296)"/>
<path d="M0 0 C0.66 0 1.32 0 2 0 C1.67 0.66 1.34 1.32 1 2 C0.67 1.34 0.34 0.68 0 0 Z " fill="#C1944A" transform="translate(360,200)"/>
<path d="M0 0 C2 1 2 1 2 1 Z " fill="#BC8E4C" transform="translate(263,845)"/>
<path d="" fill="#BE924B" transform="translate(0,0)"/>
<path d="M0 0 C2 1 2 1 2 1 Z " fill="#C2934A" transform="translate(739,838)"/>
<path d="" fill="#BB8E48" transform="translate(0,0)"/>
<path d="" fill="#D09C4E" transform="translate(0,0)"/>
<path d="" fill="#BA8E48" transform="translate(0,0)"/>
<path d="M0 0 C2 1 2 1 2 1 Z " fill="#CD9C4D" transform="translate(740,757)"/>
<path d="M0 0 C2 1 2 1 2 1 Z " fill="#CF9C4B" transform="translate(742,756)"/>
<path d="" fill="#C6964C" transform="translate(0,0)"/>
<path d="" fill="#C79649" transform="translate(0,0)"/>
<path d="" fill="#C5974D" transform="translate(0,0)"/>
<path d="" fill="#C19246" transform="translate(0,0)"/>
<path d="" fill="#C8994D" transform="translate(0,0)"/>
<path d="M0 0 C2 1 2 1 2 1 Z " fill="#CB9A4A" transform="translate(560,667)"/>
<path d="M0 0 C2 1 2 1 2 1 Z " fill="#C8984B" transform="translate(486,641)"/>
<path d="M0 0 C2 1 2 1 2 1 Z " fill="#CC9C4E" transform="translate(523,604)"/>
<path d="M0 0 C2 1 2 1 2 1 Z " fill="#CC9D51" transform="translate(576,570)"/>
<path d="M0 0 C2 1 2 1 2 1 Z " fill="#C8974E" transform="translate(583,543)"/>
<path d="M0 0 C2 1 2 1 2 1 Z " fill="#CC9C4E" transform="translate(446,521)"/>
<path d="M0 0 C2 1 2 1 2 1 Z " fill="#C7994E" transform="translate(804,478)"/>
<path d="" fill="#C8994E" transform="translate(0,0)"/>
<path d="M0 0 C2 1 2 1 2 1 Z " fill="#CA9850" transform="translate(679,447)"/>
<path d="M0 0 C2 1 2 1 2 1 Z " fill="#C7964A" transform="translate(291,446)"/>
<path d="M0 0 C2 1 2 1 2 1 Z " fill="#CA974C" transform="translate(316,445)"/>
<path d="M0 0 C2 1 2 1 2 1 Z " fill="#CB9A4A" transform="translate(506,443)"/>
<path d="M0 0 C2 1 2 1 2 1 Z " fill="#CE9B4D" transform="translate(728,405)"/>
<path d="M0 0 C2 1 2 1 2 1 Z " fill="#C1924C" transform="translate(190,399)"/>
<path d="" fill="#C09248" transform="translate(0,0)"/>
<path d="M0 0 C2 1 2 1 2 1 Z " fill="#C19349" transform="translate(827,384)"/>
<path d="" fill="#CD9B4D" transform="translate(0,0)"/>
<path d="" fill="#BF8F46" transform="translate(0,0)"/>
<path d="" fill="#C2954E" transform="translate(0,0)"/>
<path d="M0 0 C2 1 2 1 2 1 Z " fill="#CA9A4A" transform="translate(282,339)"/>
<path d="" fill="#CF9D50" transform="translate(0,0)"/>
<path d="" fill="#CD9C50" transform="translate(0,0)"/>
<path d="M0 0 C2 1 2 1 2 1 Z " fill="#CA9A4C" transform="translate(618,285)"/>
<path d="" fill="#CF9F50" transform="translate(0,0)"/>
<path d="" fill="#BF9047" transform="translate(0,0)"/>
<path d="M0 0 C2 1 2 1 2 1 Z " fill="#C8964A" transform="translate(601,266)"/>
<path d="" fill="#C89849" transform="translate(0,0)"/>
<path d="M0 0 C2 1 2 1 2 1 Z " fill="#C7984D" transform="translate(725,264)"/>
<path d="M0 0 C2 1 2 1 2 1 Z " fill="#C5964C" transform="translate(701,264)"/>
<path d="" fill="#CC9F4F" transform="translate(0,0)"/>
<path d="" fill="#C99748" transform="translate(0,0)"/>
<path d="" fill="#CD9B4E" transform="translate(0,0)"/>
<path d="" fill="#CB9B4E" transform="translate(0,0)"/>
<path d="" fill="#CB9B4C" transform="translate(0,0)"/>
<path d="" fill="#C6934A" transform="translate(0,0)"/>
<path d="M0 0 C2 1 2 1 2 1 Z " fill="#CB994D" transform="translate(536,217)"/>
<path d="M0 0 C2 1 2 1 2 1 Z " fill="#C69446" transform="translate(533,215)"/>
<path d="M0 0 C2 1 2 1 2 1 Z " fill="#C2934A" transform="translate(256,211)"/>
<path d="M0 0 C2 1 2 1 2 1 Z " fill="#C3954B" transform="translate(583,195)"/>
<path d="M0 0 C2 1 2 1 2 1 Z " fill="#C19248" transform="translate(558,187)"/>
<path d="M0 0 C2 1 2 1 2 1 Z " fill="#C1944B" transform="translate(326,186)"/>
<path d="M0 0 C2 1 2 1 2 1 Z " fill="#C1924A" transform="translate(549,184)"/>
<path d="M0 0 C2 1 2 1 2 1 Z " fill="#C09147" transform="translate(526,179)"/>
<path d="M0 0 C2 1 2 1 2 1 Z " fill="#BF9249" transform="translate(521,178)"/>
<path d="M0 0 C2 1 2 1 2 1 Z " fill="#9A8D7A" transform="translate(294,2)"/>
<path d="" fill="#A49F9B" transform="translate(0,0)"/>
<path d="" fill="#A4A199" transform="translate(0,0)"/>
<path d="" fill="#989692" transform="translate(0,0)"/>
<path d="" fill="#92928B" transform="translate(0,0)"/>
<path d="" fill="#635742" transform="translate(0,0)"/>
<path d="" fill="#8D8A85" transform="translate(0,0)"/>
<path d="" fill="#BB8E4A" transform="translate(0,0)"/>
<path d="" fill="#BC9049" transform="translate(0,0)"/>
<path d="" fill="#BE8E48" transform="translate(0,0)"/>
<path d="" fill="#BF904B" transform="translate(0,0)"/>
<path d="" fill="#BF8F4B" transform="translate(0,0)"/>
<path d="" fill="#C08F49" transform="translate(0,0)"/>
<path d="" fill="#C09149" transform="translate(0,0)"/>
<path d="" fill="#C29147" transform="translate(0,0)"/>
<path d="" fill="#BF924A" transform="translate(0,0)"/>
<path d="" fill="#BA904B" transform="translate(0,0)"/>
<path d="" fill="#C0904A" transform="translate(0,0)"/>
<path d="" fill="#C2944B" transform="translate(0,0)"/>
<path d="" fill="#BA8F4C" transform="translate(0,0)"/>
<path d="" fill="#C19046" transform="translate(0,0)"/>
<path d="" fill="#BE904B" transform="translate(0,0)"/>
<path d="" fill="#BD8E43" transform="translate(0,0)"/>
<path d="" fill="#BF914B" transform="translate(0,0)"/>
<path d="" fill="#C2924D" transform="translate(0,0)"/>
<path d="" fill="#C3934D" transform="translate(0,0)"/>
<path d="" fill="#C39650" transform="translate(0,0)"/>
<path d="" fill="#BB904B" transform="translate(0,0)"/>
<path d="" fill="#BA8F4B" transform="translate(0,0)"/>
<path d="" fill="#BB8F4B" transform="translate(0,0)"/>
<path d="" fill="#B78F4B" transform="translate(0,0)"/>
<path d="" fill="#BA904B" transform="translate(0,0)"/>
<path d="" fill="#BC914D" transform="translate(0,0)"/>
<path d="" fill="#BE904E" transform="translate(0,0)"/>
<path d="" fill="#CA9647" transform="translate(0,0)"/>
<path d="" fill="#C69750" transform="translate(0,0)"/>
<path d="" fill="#CE9D4C" transform="translate(0,0)"/>
<path d="" fill="#BD924C" transform="translate(0,0)"/>
<path d="" fill="#C2964E" transform="translate(0,0)"/>
<path d="" fill="#C59449" transform="translate(0,0)"/>
<path d="" fill="#CD9C4D" transform="translate(0,0)"/>
<path d="" fill="#CB9B4F" transform="translate(0,0)"/>
<path d="" fill="#CD9D4F" transform="translate(0,0)"/>
<path d="" fill="#C4974C" transform="translate(0,0)"/>
<path d="" fill="#BF934F" transform="translate(0,0)"/>
<path d="" fill="#8E8881" transform="translate(0,0)"/>
<path d="" fill="#C7984B" transform="translate(0,0)"/>
<path d="" fill="#BB8E4C" transform="translate(0,0)"/>
<path d="" fill="#C5954C" transform="translate(0,0)"/>
<path d="" fill="#CF9E52" transform="translate(0,0)"/>
<path d="" fill="#C49247" transform="translate(0,0)"/>
<path d="" fill="#C5964C" transform="translate(0,0)"/>
<path d="" fill="#CD9D51" transform="translate(0,0)"/>
<path d="" fill="#CB9D4E" transform="translate(0,0)"/>
<path d="" fill="#BF944C" transform="translate(0,0)"/>
<path d="" fill="#CF9B50" transform="translate(0,0)"/>
<path d="" fill="#CC9F4F" transform="translate(0,0)"/>
<path d="" fill="#D09B4F" transform="translate(0,0)"/>
<path d="" fill="#C6964D" transform="translate(0,0)"/>
<path d="" fill="#C5964B" transform="translate(0,0)"/>
<path d="" fill="#CC9A4C" transform="translate(0,0)"/>
<path d="" fill="#C69549" transform="translate(0,0)"/>
<path d="" fill="#CF9F52" transform="translate(0,0)"/>
<path d="" fill="#CF9F4E" transform="translate(0,0)"/>
<path d="" fill="#CE9D4F" transform="translate(0,0)"/>
<path d="" fill="#BA8F4A" transform="translate(0,0)"/>
<path d="" fill="#C6964D" transform="translate(0,0)"/>
<path d="" fill="#C8974B" transform="translate(0,0)"/>
<path d="" fill="#C6964A" transform="translate(0,0)"/>
<path d="" fill="#BB9147" transform="translate(0,0)"/>
<path d="" fill="#C19248" transform="translate(0,0)"/>
<path d="" fill="#C79649" transform="translate(0,0)"/>
<path d="" fill="#BA8B45" transform="translate(0,0)"/>
<path d="" fill="#C6974A" transform="translate(0,0)"/>
<path d="" fill="#C89646" transform="translate(0,0)"/>
<path d="" fill="#C49143" transform="translate(0,0)"/>
<path d="" fill="#C7964A" transform="translate(0,0)"/>
<path d="" fill="#C0954E" transform="translate(0,0)"/>
<path d="" fill="#C2954B" transform="translate(0,0)"/>
<path d="" fill="#C5954A" transform="translate(0,0)"/>
<path d="" fill="#C8974A" transform="translate(0,0)"/>
<path d="" fill="#C8984C" transform="translate(0,0)"/>
<path d="" fill="#BE9249" transform="translate(0,0)"/>
<path d="" fill="#C7974D" transform="translate(0,0)"/>
<path d="" fill="#CA9952" transform="translate(0,0)"/>
<path d="" fill="#C1934C" transform="translate(0,0)"/>
<path d="" fill="#BE9148" transform="translate(0,0)"/>
<path d="" fill="#C5954B" transform="translate(0,0)"/>
<path d="" fill="#C6954A" transform="translate(0,0)"/>
<path d="" fill="#C8954A" transform="translate(0,0)"/>
<path d="" fill="#C2954C" transform="translate(0,0)"/>
<path d="" fill="#8D8882" transform="translate(0,0)"/>
<path d="" fill="#C2964C" transform="translate(0,0)"/>
<path d="" fill="#C49349" transform="translate(0,0)"/>
<path d="" fill="#C2944B" transform="translate(0,0)"/>
<path d="" fill="#C6944B" transform="translate(0,0)"/>
<path d="" fill="#C5964A" transform="translate(0,0)"/>
<path d="" fill="#C9994B" transform="translate(0,0)"/>
<path d="" fill="#C2944C" transform="translate(0,0)"/>
<path d="" fill="#C99849" transform="translate(0,0)"/>
<path d="" fill="#C5974A" transform="translate(0,0)"/>
<path d="" fill="#C8984A" transform="translate(0,0)"/>
<path d="" fill="#CA9848" transform="translate(0,0)"/>
<path d="" fill="#C8994C" transform="translate(0,0)"/>
<path d="" fill="#C89747" transform="translate(0,0)"/>
<path d="" fill="#C19449" transform="translate(0,0)"/>
<path d="" fill="#CB954A" transform="translate(0,0)"/>
<path d="" fill="#CB9950" transform="translate(0,0)"/>
<path d="" fill="#CB994B" transform="translate(0,0)"/>
<path d="" fill="#C99948" transform="translate(0,0)"/>
<path d="" fill="#C49449" transform="translate(0,0)"/>
<path d="" fill="#CC994A" transform="translate(0,0)"/>
<path d="" fill="#C99749" transform="translate(0,0)"/>
<path d="" fill="#C0954A" transform="translate(0,0)"/>
<path d="" fill="#CB9B4D" transform="translate(0,0)"/>
<path d="" fill="#CB994A" transform="translate(0,0)"/>
<path d="" fill="#C99A4C" transform="translate(0,0)"/>
<path d="" fill="#CC9B4E" transform="translate(0,0)"/>
<path d="" fill="#C5994D" transform="translate(0,0)"/>
<path d="" fill="#CEA051" transform="translate(0,0)"/>
<path d="" fill="#C9984A" transform="translate(0,0)"/>
<path d="" fill="#CF9C4D" transform="translate(0,0)"/>
<path d="" fill="#C69A4D" transform="translate(0,0)"/>
<path d="" fill="#C7964A" transform="translate(0,0)"/>
<path d="" fill="#CD9F51" transform="translate(0,0)"/>
<path d="" fill="#CD9E4C" transform="translate(0,0)"/>
<path d="" fill="#C99951" transform="translate(0,0)"/>
<path d="" fill="#CD9D4D" transform="translate(0,0)"/>
<path d="" fill="#CA974A" transform="translate(0,0)"/>
<path d="" fill="#CA9A4B" transform="translate(0,0)"/>
<path d="" fill="#CD9B4D" transform="translate(0,0)"/>
<path d="" fill="#CC9D4F" transform="translate(0,0)"/>
<path d="" fill="#C99649" transform="translate(0,0)"/>
<path d="" fill="#CA9A51" transform="translate(0,0)"/>
<path d="" fill="#CB9B4D" transform="translate(0,0)"/>
<path d="" fill="#CE9F54" transform="translate(0,0)"/>
<path d="" fill="#CE9C4D" transform="translate(0,0)"/>
<path d="" fill="#C79852" transform="translate(0,0)"/>
<path d="" fill="#CA9B4F" transform="translate(0,0)"/>
<path d="" fill="#C8994C" transform="translate(0,0)"/>
<path d="" fill="#CE9E4B" transform="translate(0,0)"/>
<path d="" fill="#CF9F54" transform="translate(0,0)"/>
<path d="" fill="#C8974D" transform="translate(0,0)"/>
<path d="" fill="#CB984F" transform="translate(0,0)"/>
<path d="" fill="#CD9C50" transform="translate(0,0)"/>
<path d="" fill="#C99B4C" transform="translate(0,0)"/>
<path d="" fill="#CF9D4D" transform="translate(0,0)"/>
<path d="" fill="#C7964C" transform="translate(0,0)"/>
<path d="" fill="#CD9A4A" transform="translate(0,0)"/>
<path d="" fill="#CD9B4C" transform="translate(0,0)"/>
<path d="" fill="#CC9B4B" transform="translate(0,0)"/>
<path d="" fill="#C9994F" transform="translate(0,0)"/>
<path d="" fill="#C8984D" transform="translate(0,0)"/>
<path d="" fill="#CD9D52" transform="translate(0,0)"/>
<path d="" fill="#CC9C4E" transform="translate(0,0)"/>
<path d="" fill="#C79750" transform="translate(0,0)"/>
<path d="" fill="#C99953" transform="translate(0,0)"/>
<path d="" fill="#CB9A52" transform="translate(0,0)"/>
<path d="" fill="#CA9C4E" transform="translate(0,0)"/>
<path d="" fill="#CC9B50" transform="translate(0,0)"/>
<path d="" fill="#CF9D52" transform="translate(0,0)"/>
<path d="" fill="#CC9A4E" transform="translate(0,0)"/>
<path d="" fill="#CB9A4C" transform="translate(0,0)"/>
<path d="" fill="#CA9B4F" transform="translate(0,0)"/>
<path d="" fill="#CA9B54" transform="translate(0,0)"/>
<path d="" fill="#C89853" transform="translate(0,0)"/>
<path d="" fill="#C99A4E" transform="translate(0,0)"/>
<path d="" fill="#CC9A4C" transform="translate(0,0)"/>
<path d="" fill="#C99B4E" transform="translate(0,0)"/>
<path d="" fill="#CD9B4D" transform="translate(0,0)"/>
<path d="" fill="#CC9A55" transform="translate(0,0)"/>
<path d="" fill="#CE9C4E" transform="translate(0,0)"/>
<path d="" fill="#C9984C" transform="translate(0,0)"/>
<path d="" fill="#CB9A4D" transform="translate(0,0)"/>
<path d="" fill="#BD924D" transform="translate(0,0)"/>
<path d="" fill="#CC9D4C" transform="translate(0,0)"/>
<path d="" fill="#C2944E" transform="translate(0,0)"/>
<path d="" fill="#CB9A53" transform="translate(0,0)"/>
<path d="" fill="#C0944C" transform="translate(0,0)"/>
<path d="" fill="#CE994D" transform="translate(0,0)"/>
<path d="" fill="#CB9A4B" transform="translate(0,0)"/>
<path d="" fill="#C9994C" transform="translate(0,0)"/>
<path d="" fill="#CA9B4A" transform="translate(0,0)"/>
<path d="" fill="#CD9B54" transform="translate(0,0)"/>
<path d="" fill="#C9994B" transform="translate(0,0)"/>
<path d="" fill="#C5984A" transform="translate(0,0)"/>
<path d="" fill="#C8984B" transform="translate(0,0)"/>
<path d="" fill="#BC924E" transform="translate(0,0)"/>
<path d="" fill="#CC984A" transform="translate(0,0)"/>
<path d="" fill="#C7964D" transform="translate(0,0)"/>
<path d="" fill="#CA9A4B" transform="translate(0,0)"/>
<path d="" fill="#C0934C" transform="translate(0,0)"/>
<path d="" fill="#CB994D" transform="translate(0,0)"/>
<path d="" fill="#CE9C4D" transform="translate(0,0)"/>
<path d="" fill="#C79650" transform="translate(0,0)"/>
<path d="" fill="#C7974B" transform="translate(0,0)"/>
<path d="" fill="#CB9B4C" transform="translate(0,0)"/>
<path d="" fill="#C0934E" transform="translate(0,0)"/>
<path d="" fill="#C7994D" transform="translate(0,0)"/>
<path d="" fill="#C39344" transform="translate(0,0)"/>
<path d="" fill="#CD9A4E" transform="translate(0,0)"/>
<path d="" fill="#CB984B" transform="translate(0,0)"/>
<path d="" fill="#C7994C" transform="translate(0,0)"/>
<path d="" fill="#CB9C55" transform="translate(0,0)"/>
<path d="" fill="#BD934E" transform="translate(0,0)"/>
<path d="" fill="#C89C51" transform="translate(0,0)"/>
<path d="" fill="#C09450" transform="translate(0,0)"/>
<path d="" fill="#CE9C51" transform="translate(0,0)"/>
<path d="" fill="#BE914F" transform="translate(0,0)"/>
<path d="" fill="#C89752" transform="translate(0,0)"/>
<path d="" fill="#C99B50" transform="translate(0,0)"/>
<path d="" fill="#BC934E" transform="translate(0,0)"/>
<path d="" fill="#CA994E" transform="translate(0,0)"/>
<path d="" fill="#BF9354" transform="translate(0,0)"/>
<path d="" fill="#CA9B4B" transform="translate(0,0)"/>
<path d="" fill="#CA9A4B" transform="translate(0,0)"/>
<path d="" fill="#CA9A4C" transform="translate(0,0)"/>
<path d="" fill="#CA994C" transform="translate(0,0)"/>
<path d="" fill="#C8994E" transform="translate(0,0)"/>
<path d="" fill="#C9994B" transform="translate(0,0)"/>
<path d="" fill="#C6994A" transform="translate(0,0)"/>
<path d="" fill="#C7974B" transform="translate(0,0)"/>
<path d="" fill="#C79A4D" transform="translate(0,0)"/>
<path d="" fill="#CC994A" transform="translate(0,0)"/>
<path d="" fill="#C6944B" transform="translate(0,0)"/>
<path d="" fill="#C5964B" transform="translate(0,0)"/>
<path d="" fill="#CB9B4C" transform="translate(0,0)"/>
<path d="" fill="#C19149" transform="translate(0,0)"/>
<path d="" fill="#BD8F49" transform="translate(0,0)"/>
<path d="" fill="#CD9B4A" transform="translate(0,0)"/>
<path d="" fill="#C2944C" transform="translate(0,0)"/>
<path d="" fill="#BA9048" transform="translate(0,0)"/>
<path d="" fill="#CD9B4C" transform="translate(0,0)"/>
<path d="" fill="#CA984C" transform="translate(0,0)"/>
<path d="" fill="#CC9D4C" transform="translate(0,0)"/>
<path d="" fill="#C29146" transform="translate(0,0)"/>
<path d="" fill="#CA9B4D" transform="translate(0,0)"/>
<path d="" fill="#CC9D4D" transform="translate(0,0)"/>
<path d="" fill="#CB984A" transform="translate(0,0)"/>
<path d="" fill="#CB9A53" transform="translate(0,0)"/>
<path d="" fill="#CB994E" transform="translate(0,0)"/>
<path d="" fill="#CE9B4F" transform="translate(0,0)"/>
<path d="" fill="#D19C4B" transform="translate(0,0)"/>
<path d="" fill="#CB984C" transform="translate(0,0)"/>
<path d="" fill="#C7984E" transform="translate(0,0)"/>
<path d="" fill="#C39247" transform="translate(0,0)"/>
<path d="" fill="#C0924E" transform="translate(0,0)"/>
<path d="" fill="#CB984C" transform="translate(0,0)"/>
<path d="" fill="#C99A4B" transform="translate(0,0)"/>
<path d="" fill="#CB9B4B" transform="translate(0,0)"/>
<path d="" fill="#CA9A4D" transform="translate(0,0)"/>
<path d="" fill="#BF944B" transform="translate(0,0)"/>
<path d="" fill="#CD9A4B" transform="translate(0,0)"/>
<path d="" fill="#BF924B" transform="translate(0,0)"/>
<path d="" fill="#C1944D" transform="translate(0,0)"/>
<path d="" fill="#CC9B50" transform="translate(0,0)"/>
<path d="" fill="#C8964F" transform="translate(0,0)"/>
<path d="" fill="#BE914A" transform="translate(0,0)"/>
<path d="" fill="#CC994B" transform="translate(0,0)"/>
<path d="" fill="#CC9A4C" transform="translate(0,0)"/>
<path d="" fill="#CA994D" transform="translate(0,0)"/>
<path d="" fill="#BE904C" transform="translate(0,0)"/>
<path d="" fill="#C39146" transform="translate(0,0)"/>
<path d="" fill="#C1934D" transform="translate(0,0)"/>
<path d="" fill="#C09244" transform="translate(0,0)"/>
<path d="" fill="#BF9245" transform="translate(0,0)"/>
<path d="" fill="#C1924B" transform="translate(0,0)"/>
<path d="" fill="#C69646" transform="translate(0,0)"/>
<path d="" fill="#C9984C" transform="translate(0,0)"/>
<path d="" fill="#C0954C" transform="translate(0,0)"/>
<path d="" fill="#C39650" transform="translate(0,0)"/>
<path d="" fill="#CA9B4C" transform="translate(0,0)"/>
<path d="" fill="#C19251" transform="translate(0,0)"/>
<path d="" fill="#CD9A4E" transform="translate(0,0)"/>
<path d="" fill="#C0934B" transform="translate(0,0)"/>
<path d="" fill="#CB994E" transform="translate(0,0)"/>
<path d="" fill="#CC994B" transform="translate(0,0)"/>
<path d="" fill="#C2964B" transform="translate(0,0)"/>
<path d="" fill="#CC994A" transform="translate(0,0)"/>
<path d="" fill="#CB9A4B" transform="translate(0,0)"/>
<path d="" fill="#C09349" transform="translate(0,0)"/>
<path d="" fill="#BF944C" transform="translate(0,0)"/>
<path d="" fill="#CD9D4E" transform="translate(0,0)"/>
<path d="" fill="#C4954D" transform="translate(0,0)"/>
<path d="" fill="#C4934D" transform="translate(0,0)"/>
<path d="" fill="#968F84" transform="translate(0,0)"/>
<path d="" fill="#C0914A" transform="translate(0,0)"/>
<path d="" fill="#C8994C" transform="translate(0,0)"/>
<path d="" fill="#BD924E" transform="translate(0,0)"/>
<path d="" fill="#C0944D" transform="translate(0,0)"/>
<path d="" fill="#C99A4E" transform="translate(0,0)"/>
<path d="" fill="#CB9C4F" transform="translate(0,0)"/>
<path d="" fill="#CA9B4C" transform="translate(0,0)"/>
<path d="" fill="#CD9D53" transform="translate(0,0)"/>
<path d="" fill="#CF9E50" transform="translate(0,0)"/>
<path d="" fill="#CD9C4E" transform="translate(0,0)"/>
<path d="" fill="#C4954A" transform="translate(0,0)"/>
<path d="" fill="#C4984C" transform="translate(0,0)"/>
<path d="" fill="#BF9246" transform="translate(0,0)"/>
<path d="" fill="#CEA04E" transform="translate(0,0)"/>
<path d="" fill="#BD8C47" transform="translate(0,0)"/>
<path d="" fill="#CF9E4D" transform="translate(0,0)"/>
<path d="" fill="#CD9B4C" transform="translate(0,0)"/>
<path d="" fill="#CB9D50" transform="translate(0,0)"/>
<path d="" fill="#978F83" transform="translate(0,0)"/>
<path d="" fill="#CE9D4F" transform="translate(0,0)"/>
<path d="" fill="#CC9A4F" transform="translate(0,0)"/>
<path d="" fill="#C3924B" transform="translate(0,0)"/>
<path d="" fill="#CCA054" transform="translate(0,0)"/>
<path d="" fill="#CC9E51" transform="translate(0,0)"/>
<path d="" fill="#CC9C4B" transform="translate(0,0)"/>
<path d="" fill="#CA9A49" transform="translate(0,0)"/>
<path d="" fill="#BF944B" transform="translate(0,0)"/>
<path d="" fill="#C99A4E" transform="translate(0,0)"/>
<path d="" fill="#CD9E51" transform="translate(0,0)"/>
<path d="" fill="#958C82" transform="translate(0,0)"/>
<path d="" fill="#CC9D4D" transform="translate(0,0)"/>
<path d="" fill="#CF9F54" transform="translate(0,0)"/>
<path d="" fill="#CD9D4E" transform="translate(0,0)"/>
<path d="" fill="#CDA053" transform="translate(0,0)"/>
<path d="" fill="#CE9E50" transform="translate(0,0)"/>
<path d="" fill="#BE924C" transform="translate(0,0)"/>
<path d="" fill="#C8984C" transform="translate(0,0)"/>
<path d="" fill="#CE9C50" transform="translate(0,0)"/>
<path d="" fill="#CEA157" transform="translate(0,0)"/>
<path d="" fill="#CB9A4F" transform="translate(0,0)"/>
<path d="" fill="#C8954A" transform="translate(0,0)"/>
<path d="" fill="#C8984A" transform="translate(0,0)"/>
<path d="" fill="#C9994A" transform="translate(0,0)"/>
<path d="" fill="#CC9A4D" transform="translate(0,0)"/>
<path d="" fill="#928B80" transform="translate(0,0)"/>
<path d="" fill="#C99B4B" transform="translate(0,0)"/>
<path d="" fill="#C1944E" transform="translate(0,0)"/>
<path d="" fill="#CA9C4A" transform="translate(0,0)"/>
<path d="" fill="#C9994E" transform="translate(0,0)"/>
<path d="" fill="#CB9A50" transform="translate(0,0)"/>
<path d="" fill="#CB9B4A" transform="translate(0,0)"/>
<path d="" fill="#CA964F" transform="translate(0,0)"/>
<path d="" fill="#CB9C4D" transform="translate(0,0)"/>
<path d="" fill="#C89845" transform="translate(0,0)"/>
<path d="" fill="#C9984A" transform="translate(0,0)"/>
<path d="" fill="#CF9D4E" transform="translate(0,0)"/>
<path d="" fill="#C39148" transform="translate(0,0)"/>
<path d="" fill="#CC9C4D" transform="translate(0,0)"/>
<path d="" fill="#CE9B4C" transform="translate(0,0)"/>
<path d="" fill="#C2934A" transform="translate(0,0)"/>
<path d="" fill="#CB9A4E" transform="translate(0,0)"/>
<path d="" fill="#C19349" transform="translate(0,0)"/>
<path d="" fill="#C4974B" transform="translate(0,0)"/>
<path d="" fill="#C6964D" transform="translate(0,0)"/>
<path d="" fill="#C8984B" transform="translate(0,0)"/>
<path d="" fill="#CDA04D" transform="translate(0,0)"/>
<path d="" fill="#D09E4C" transform="translate(0,0)"/>
<path d="" fill="#CD9B50" transform="translate(0,0)"/>
<path d="" fill="#BB9249" transform="translate(0,0)"/>
<path d="" fill="#C3974C" transform="translate(0,0)"/>
<path d="" fill="#BF934A" transform="translate(0,0)"/>
<path d="" fill="#C4954B" transform="translate(0,0)"/>
<path d="" fill="#C9994E" transform="translate(0,0)"/>
<path d="" fill="#CB9A4D" transform="translate(0,0)"/>
<path d="" fill="#CE9C51" transform="translate(0,0)"/>
<path d="" fill="#C9964A" transform="translate(0,0)"/>
<path d="" fill="#CA994D" transform="translate(0,0)"/>
<path d="" fill="#C49746" transform="translate(0,0)"/>
<path d="" fill="#CE9C52" transform="translate(0,0)"/>
<path d="" fill="#C7974A" transform="translate(0,0)"/>
<path d="" fill="#CE9D4D" transform="translate(0,0)"/>
<path d="" fill="#C4984B" transform="translate(0,0)"/>
<path d="" fill="#D0A154" transform="translate(0,0)"/>
<path d="" fill="#C2944B" transform="translate(0,0)"/>
<path d="" fill="#CE9D4E" transform="translate(0,0)"/>
<path d="" fill="#CD9A4D" transform="translate(0,0)"/>
<path d="" fill="#CD9D4F" transform="translate(0,0)"/>
<path d="" fill="#CA9B4F" transform="translate(0,0)"/>
<path d="" fill="#C59549" transform="translate(0,0)"/>
<path d="" fill="#C4944D" transform="translate(0,0)"/>
<path d="" fill="#C4954B" transform="translate(0,0)"/>
<path d="" fill="#C49749" transform="translate(0,0)"/>
<path d="" fill="#CA9A4C" transform="translate(0,0)"/>
<path d="" fill="#C5984D" transform="translate(0,0)"/>
<path d="" fill="#C99A4F" transform="translate(0,0)"/>
<path d="" fill="#C9994D" transform="translate(0,0)"/>
<path d="" fill="#CC9A4F" transform="translate(0,0)"/>
<path d="" fill="#CB994B" transform="translate(0,0)"/>
<path d="" fill="#CA9C51" transform="translate(0,0)"/>
<path d="" fill="#C19448" transform="translate(0,0)"/>
<path d="" fill="#C19248" transform="translate(0,0)"/>
<path d="" fill="#CB9B4D" transform="translate(0,0)"/>
<path d="" fill="#C4964C" transform="translate(0,0)"/>
<path d="" fill="#C69A4F" transform="translate(0,0)"/>
<path d="" fill="#C79348" transform="translate(0,0)"/>
<path d="" fill="#C19348" transform="translate(0,0)"/>
<path d="" fill="#BE9448" transform="translate(0,0)"/>
<path d="" fill="#BE9245" transform="translate(0,0)"/>
<path d="" fill="#CC9A4D" transform="translate(0,0)"/>
<path d="" fill="#C49447" transform="translate(0,0)"/>
<path d="" fill="#C29347" transform="translate(0,0)"/>
<path d="" fill="#C0924A" transform="translate(0,0)"/>
<path d="" fill="#C09147" transform="translate(0,0)"/>
<path d="" fill="#C09244" transform="translate(0,0)"/>
<path d="" fill="#C39547" transform="translate(0,0)"/>
<path d="" fill="#C5964B" transform="translate(0,0)"/>
<path d="" fill="#C6984A" transform="translate(0,0)"/>
<path d="" fill="#BD9248" transform="translate(0,0)"/>
<path d="" fill="#C1934A" transform="translate(0,0)"/>
<path d="" fill="#BB904C" transform="translate(0,0)"/>
<path d="" fill="#C4914B" transform="translate(0,0)"/>
<path d="" fill="#C29349" transform="translate(0,0)"/>
<path d="" fill="#C39548" transform="translate(0,0)"/>
<path d="" fill="#C29349" transform="translate(0,0)"/>
<path d="" fill="#C3974C" transform="translate(0,0)"/>
<path d="" fill="#C0944C" transform="translate(0,0)"/>
<path d="" fill="#C5964F" transform="translate(0,0)"/>
<path d="" fill="#C4984C" transform="translate(0,0)"/>
<path d="" fill="#C29246" transform="translate(0,0)"/>
<path d="" fill="#C09147" transform="translate(0,0)"/>
<path d="" fill="#C19549" transform="translate(0,0)"/>
<path d="" fill="#BF9348" transform="translate(0,0)"/>
<path d="" fill="#C2944B" transform="translate(0,0)"/>
<path d="" fill="#BF924A" transform="translate(0,0)"/>
<path d="" fill="#C0904B" transform="translate(0,0)"/>
<path d="" fill="#C08F47" transform="translate(0,0)"/>
<path d="" fill="#BF934A" transform="translate(0,0)"/>
<path d="" fill="#B8904B" transform="translate(0,0)"/>
<path d="" fill="#BE8C43" transform="translate(0,0)"/>
<path d="" fill="#C09149" transform="translate(0,0)"/>
<path d="" fill="#BD9048" transform="translate(0,0)"/>
<path d="" fill="#9A9691" transform="translate(0,0)"/>
<path d="" fill="#ACABA7" transform="translate(0,0)"/>
<path d="" fill="#9B9690" transform="translate(0,0)"/>
<path d="" fill="#99958D" transform="translate(0,0)"/>
<path d="" fill="#97918A" transform="translate(0,0)"/>
<path d="" fill="#959188" transform="translate(0,0)"/>
<path d="" fill="#93887B" transform="translate(0,0)"/>
<path d="" fill="#92887B" transform="translate(0,0)"/>
<path d="" fill="#948B7C" transform="translate(0,0)"/>
<path d="" fill="#988B79" transform="translate(0,0)"/>
<path d="" fill="#988B7A" transform="translate(0,0)"/>
<path d="" fill="#9B8C79" transform="translate(0,0)"/>
<path d="" fill="#998C78" transform="translate(0,0)"/>
<path d="" fill="#988977" transform="translate(0,0)"/>
<path d="" fill="#988A78" transform="translate(0,0)"/>
<path d="" fill="#988A78" transform="translate(0,0)"/>
<path d="" fill="#988B77" transform="translate(0,0)"/>
<path d="" fill="#9B8C7A" transform="translate(0,0)"/>
<path d="" fill="#9B8D7C" transform="translate(0,0)"/>
<path d="" fill="#988E7F" transform="translate(0,0)"/>
<path d="" fill="#958E83" transform="translate(0,0)"/>
<path d="" fill="#A59E97" transform="translate(0,0)"/>
</svg>
